<svg xmlns="http://www.w3.org/2000/svg" viewBox="0 0 152.78 152.78"><defs><style>.cls-1{fill:#fff;fill-rule:evenodd;}</style></defs><g id="Layer_2" data-name="Layer 2"><g id="Layer_1-2" data-name="Layer 1"><path class="cls-1" d="M76.39,1.08l53.24,22.06,22.06,53.25-22.06,53.25L76.39,151.69,23.14,129.64,1.08,76.39,23.14,23.14Z"/><path d="M76.39,152.78l-54-22.38L0,76.39l22.38-54L76.39,0l54,22.38,22.38,54-22.38,54ZM23.91,128.87l52.48,21.74,52.48-21.74,21.74-52.48L128.87,23.91,76.39,2.17,23.91,23.91,2.16,76.39Z"/><g id="Layer_2-2" data-name="Layer 2"><g id="Layer_1-2-2" data-name="Layer 1-2"><rect x="41.19" y="38.62" width="2.92" height="2.95"/><rect x="44.12" y="38.62" width="2.92" height="2.95"/><rect x="47.04" y="38.62" width="2.92" height="2.95"/><rect x="49.97" y="38.62" width="2.92" height="2.95"/><rect x="52.89" y="38.62" width="2.92" height="2.95"/><rect x="55.81" y="38.62" width="2.92" height="2.95"/><rect x="58.74" y="38.62" width="2.92" height="2.95"/><rect x="64.59" y="38.62" width="2.92" height="2.95"/><rect x="67.51" y="38.62" width="2.92" height="2.95"/><rect x="70.44" y="38.62" width="2.92" height="2.95"/><rect x="73.36" y="38.62" width="2.92" height="2.95"/><rect x="93.83" y="38.62" width="2.92" height="2.95"/><rect x="96.75" y="38.62" width="2.92" height="2.95"/><rect x="99.68" y="38.62" width="2.92" height="2.95"/><rect x="102.59" y="38.62" width="2.92" height="2.95"/><rect x="105.52" y="38.62" width="2.92" height="2.95"/><rect x="108.44" y="38.62" width="2.92" height="2.95"/><rect x="111.36" y="38.62" width="2.92" height="2.95"/><rect x="41.19" y="41.57" width="2.92" height="2.95"/><rect x="58.74" y="41.57" width="2.92" height="2.95"/><rect x="73.36" y="41.57" width="2.92" height="2.95"/><rect x="76.28" y="41.57" width="2.92" height="2.95"/><rect x="79.21" y="41.57" width="2.92" height="2.95"/><rect x="82.13" y="41.57" width="2.92" height="2.95"/><rect x="87.98" y="41.57" width="2.92" height="2.95"/><rect x="93.83" y="41.57" width="2.92" height="2.95"/><rect x="111.36" y="41.57" width="2.92" height="2.95"/><rect x="41.19" y="44.53" width="2.92" height="2.95"/><rect x="47.04" y="44.53" width="2.92" height="2.95"/><rect x="49.97" y="44.53" width="2.92" height="2.95"/><rect x="52.89" y="44.53" width="2.92" height="2.95"/><rect x="58.74" y="44.53" width="2.92" height="2.95"/><rect x="67.51" y="44.53" width="2.92" height="2.95"/><rect x="73.36" y="44.53" width="2.92" height="2.95"/><rect x="79.21" y="44.53" width="2.92" height="2.95"/><rect x="85.06" y="44.53" width="2.92" height="2.95"/><rect x="87.98" y="44.53" width="2.92" height="2.95"/><rect x="93.83" y="44.53" width="2.92" height="2.95"/><rect x="99.68" y="44.53" width="2.92" height="2.95"/><rect x="102.59" y="44.53" width="2.92" height="2.95"/><rect x="105.52" y="44.53" width="2.92" height="2.95"/><rect x="111.36" y="44.53" width="2.92" height="2.95"/><rect x="41.19" y="47.47" width="2.92" height="2.95"/><rect x="47.04" y="47.47" width="2.92" height="2.95"/><rect x="49.97" y="47.47" width="2.92" height="2.95"/><rect x="52.89" y="47.47" width="2.92" height="2.95"/><rect x="58.74" y="47.47" width="2.92" height="2.95"/><rect x="70.44" y="47.47" width="2.92" height="2.95"/><rect x="87.98" y="47.47" width="2.92" height="2.95"/><rect x="93.83" y="47.47" width="2.92" height="2.95"/><rect x="99.68" y="47.47" width="2.92" height="2.95"/><rect x="102.59" y="47.47" width="2.92" height="2.95"/><rect x="105.52" y="47.47" width="2.92" height="2.95"/><rect x="111.36" y="47.47" width="2.92" height="2.95"/><rect x="41.19" y="50.42" width="2.92" height="2.95"/><rect x="47.04" y="50.42" width="2.92" height="2.95"/><rect x="49.97" y="50.42" width="2.92" height="2.95"/><rect x="52.89" y="50.42" width="2.92" height="2.95"/><rect x="58.74" y="50.42" width="2.92" height="2.95"/><rect x="70.44" y="50.42" width="2.92" height="2.95"/><rect x="73.36" y="50.42" width="2.92" height="2.95"/><rect x="76.28" y="50.42" width="2.92" height="2.95"/><rect x="82.13" y="50.42" width="2.92" height="2.95"/><rect x="87.98" y="50.42" width="2.92" height="2.95"/><rect x="93.83" y="50.42" width="2.92" height="2.95"/><rect x="99.68" y="50.42" width="2.92" height="2.95"/><rect x="102.59" y="50.42" width="2.92" height="2.95"/><rect x="105.52" y="50.42" width="2.92" height="2.95"/><rect x="111.36" y="50.42" width="2.92" height="2.95"/><rect x="41.19" y="53.38" width="2.92" height="2.95"/><rect x="58.74" y="53.38" width="2.92" height="2.95"/><rect x="67.51" y="53.38" width="2.92" height="2.95"/><rect x="73.36" y="53.38" width="2.92" height="2.95"/><rect x="87.98" y="53.38" width="2.92" height="2.95"/><rect x="93.83" y="53.38" width="2.92" height="2.95"/><rect x="111.36" y="53.38" width="2.92" height="2.95"/><rect x="41.19" y="56.33" width="2.92" height="2.95"/><rect x="44.12" y="56.33" width="2.92" height="2.95"/><rect x="47.04" y="56.33" width="2.92" height="2.95"/><rect x="49.97" y="56.33" width="2.92" height="2.95"/><rect x="52.89" y="56.33" width="2.92" height="2.95"/><rect x="55.81" y="56.33" width="2.92" height="2.95"/><rect x="58.74" y="56.33" width="2.92" height="2.95"/><rect x="64.59" y="56.33" width="2.92" height="2.95"/><rect x="70.44" y="56.33" width="2.92" height="2.95"/><rect x="82.13" y="56.33" width="2.92" height="2.95"/><rect x="87.98" y="56.33" width="2.92" height="2.95"/><rect x="93.83" y="56.33" width="2.92" height="2.95"/><rect x="96.75" y="56.33" width="2.92" height="2.95"/><rect x="99.68" y="56.33" width="2.92" height="2.95"/><rect x="102.59" y="56.33" width="2.92" height="2.95"/><rect x="105.52" y="56.33" width="2.92" height="2.95"/><rect x="108.44" y="56.33" width="2.92" height="2.95"/><rect x="111.36" y="56.33" width="2.92" height="2.95"/><rect x="64.59" y="59.29" width="2.92" height="2.95"/><rect x="67.51" y="59.29" width="2.92" height="2.95"/><rect x="76.28" y="59.29" width="2.92" height="2.95"/><rect x="79.21" y="59.29" width="2.92" height="2.95"/><rect x="41.19" y="62.23" width="2.92" height="2.95"/><rect x="52.89" y="62.23" width="2.92" height="2.95"/><rect x="58.74" y="62.23" width="2.92" height="2.95"/><rect x="67.51" y="62.23" width="2.92" height="2.95"/><rect x="76.28" y="62.23" width="2.92" height="2.95"/><rect x="85.06" y="62.23" width="2.92" height="2.95"/><rect x="93.83" y="62.23" width="2.92" height="2.95"/><rect x="111.36" y="62.23" width="2.92" height="2.95"/><rect x="41.19" y="65.18" width="2.92" height="2.95"/><rect x="44.12" y="65.18" width="2.92" height="2.95"/><rect x="47.04" y="65.18" width="2.92" height="2.95"/><rect x="52.89" y="65.18" width="2.92" height="2.95"/><rect x="55.81" y="65.18" width="2.92" height="2.95"/><rect x="61.66" y="65.18" width="2.92" height="2.95"/><rect x="70.44" y="65.18" width="2.92" height="2.95"/><rect x="79.21" y="65.18" width="2.92" height="2.95"/><rect x="82.13" y="65.18" width="2.92" height="2.95"/><rect x="85.06" y="65.18" width="2.92" height="2.95"/><rect x="90.91" y="65.18" width="2.92" height="2.95"/><rect x="96.75" y="65.18" width="2.92" height="2.95"/><rect x="99.68" y="65.18" width="2.92" height="2.95"/><rect x="102.59" y="65.18" width="2.92" height="2.95"/><rect x="105.52" y="65.18" width="2.92" height="2.95"/><rect x="108.44" y="65.18" width="2.92" height="2.95"/><rect x="41.19" y="68.14" width="2.92" height="2.95"/><rect x="52.89" y="68.14" width="2.92" height="2.95"/><rect x="58.74" y="68.14" width="2.92" height="2.95"/><rect x="61.66" y="68.14" width="2.92" height="2.95"/><rect x="67.51" y="68.14" width="2.92" height="2.95"/><rect x="76.28" y="68.14" width="2.92" height="2.95"/><rect x="85.06" y="68.14" width="2.92" height="2.95"/><rect x="87.98" y="68.14" width="2.92" height="2.95"/><rect x="96.75" y="68.14" width="2.92" height="2.95"/><rect x="102.59" y="68.14" width="2.92" height="2.95"/><rect x="111.36" y="68.14" width="2.92" height="2.95"/><rect x="41.19" y="71.09" width="2.92" height="2.95"/><rect x="44.12" y="71.09" width="2.92" height="2.95"/><rect x="61.66" y="71.09" width="2.92" height="2.95"/><rect x="64.59" y="71.09" width="2.92" height="2.95"/><rect x="96.75" y="71.09" width="2.92" height="2.95"/><rect x="105.52" y="71.09" width="2.92" height="2.95"/><rect x="108.44" y="71.09" width="2.92" height="2.95"/><rect x="111.36" y="71.09" width="2.92" height="2.95"/><rect x="47.04" y="74.05" width="2.92" height="2.95"/><rect x="58.74" y="74.05" width="2.92" height="2.95"/><rect x="64.59" y="74.05" width="2.92" height="2.95"/><rect x="70.44" y="74.05" width="2.92" height="2.95"/><rect x="82.13" y="74.05" width="2.92" height="2.95"/><rect x="85.06" y="74.05" width="2.92" height="2.95"/><rect x="93.83" y="74.05" width="2.92" height="2.95"/><rect x="111.36" y="74.05" width="2.92" height="2.95"/><rect x="41.19" y="77" width="2.92" height="2.95"/><rect x="47.04" y="77" width="2.92" height="2.95"/><rect x="55.81" y="77" width="2.92" height="2.95"/><rect x="61.66" y="77" width="2.92" height="2.95"/><rect x="76.28" y="77" width="2.92" height="2.95"/><rect x="85.06" y="77" width="2.92" height="2.95"/><rect x="87.98" y="77" width="2.92" height="2.95"/><rect x="90.91" y="77" width="2.92" height="2.95"/><rect x="99.68" y="77" width="2.92" height="2.95"/><rect x="108.44" y="77" width="2.92" height="2.95"/><rect x="41.19" y="79.94" width="2.92" height="2.95"/><rect x="44.12" y="79.94" width="2.92" height="2.95"/><rect x="49.97" y="79.94" width="2.92" height="2.95"/><rect x="58.74" y="79.94" width="2.92" height="2.95"/><rect x="61.66" y="79.94" width="2.92" height="2.95"/><rect x="67.51" y="79.94" width="2.92" height="2.95"/><rect x="82.13" y="79.94" width="2.92" height="2.95"/><rect x="85.06" y="79.94" width="2.92" height="2.95"/><rect x="99.68" y="79.94" width="2.92" height="2.95"/><rect x="102.59" y="79.94" width="2.92" height="2.95"/><rect x="105.52" y="79.94" width="2.92" height="2.95"/><rect x="108.44" y="79.94" width="2.92" height="2.95"/><rect x="111.36" y="79.94" width="2.92" height="2.95"/><rect x="41.19" y="82.9" width="2.92" height="2.95"/><rect x="55.81" y="82.9" width="2.92" height="2.95"/><rect x="67.51" y="82.9" width="2.92" height="2.95"/><rect x="76.28" y="82.9" width="2.92" height="2.95"/><rect x="82.13" y="82.9" width="2.92" height="2.95"/><rect x="87.98" y="82.9" width="2.92" height="2.95"/><rect x="96.75" y="82.9" width="2.92" height="2.95"/><rect x="102.59" y="82.9" width="2.92" height="2.95"/><rect x="105.52" y="82.9" width="2.92" height="2.95"/><rect x="111.36" y="82.9" width="2.92" height="2.95"/><rect x="41.19" y="85.85" width="2.92" height="2.95"/><rect x="47.04" y="85.85" width="2.92" height="2.95"/><rect x="49.97" y="85.85" width="2.92" height="2.95"/><rect x="52.89" y="85.85" width="2.92" height="2.95"/><rect x="58.74" y="85.85" width="2.92" height="2.95"/><rect x="61.66" y="85.85" width="2.92" height="2.95"/><rect x="70.44" y="85.85" width="2.92" height="2.95"/><rect x="73.36" y="85.85" width="2.92" height="2.95"/><rect x="79.21" y="85.85" width="2.92" height="2.95"/><rect x="85.06" y="85.85" width="2.92" height="2.95"/><rect x="87.98" y="85.85" width="2.92" height="2.95"/><rect x="90.91" y="85.85" width="2.92" height="2.95"/><rect x="93.83" y="85.85" width="2.92" height="2.95"/><rect x="99.68" y="85.85" width="2.92" height="2.95"/><rect x="105.52" y="85.85" width="2.92" height="2.95"/><rect x="108.44" y="85.85" width="2.92" height="2.95"/><rect x="64.59" y="88.81" width="2.92" height="2.95"/><rect x="67.51" y="88.81" width="2.92" height="2.95"/><rect x="73.36" y="88.81" width="2.92" height="2.95"/><rect x="87.98" y="88.81" width="2.92" height="2.95"/><rect x="99.68" y="88.81" width="2.92" height="2.95"/><rect x="105.52" y="88.81" width="2.92" height="2.95"/><rect x="108.44" y="88.81" width="2.92" height="2.95"/><rect x="41.19" y="91.76" width="2.92" height="2.95"/><rect x="44.12" y="91.76" width="2.92" height="2.95"/><rect x="47.04" y="91.76" width="2.92" height="2.95"/><rect x="49.97" y="91.76" width="2.92" height="2.95"/><rect x="52.89" y="91.76" width="2.92" height="2.95"/><rect x="55.81" y="91.76" width="2.92" height="2.95"/><rect x="58.74" y="91.76" width="2.92" height="2.95"/><rect x="70.44" y="91.76" width="2.92" height="2.95"/><rect x="76.28" y="91.76" width="2.92" height="2.95"/><rect x="82.13" y="91.76" width="2.92" height="2.95"/><rect x="87.98" y="91.76" width="2.92" height="2.95"/><rect x="93.83" y="91.76" width="2.92" height="2.95"/><rect x="99.68" y="91.76" width="2.92" height="2.95"/><rect x="111.36" y="91.76" width="2.92" height="2.95"/><rect x="41.19" y="94.72" width="2.92" height="2.95"/><rect x="58.74" y="94.72" width="2.92" height="2.95"/><rect x="73.36" y="94.72" width="2.92" height="2.95"/><rect x="79.21" y="94.72" width="2.92" height="2.95"/><rect x="85.06" y="94.72" width="2.92" height="2.95"/><rect x="87.98" y="94.72" width="2.92" height="2.95"/><rect x="99.68" y="94.72" width="2.92" height="2.95"/><rect x="111.36" y="94.72" width="2.92" height="2.95"/><rect x="41.19" y="97.66" width="2.92" height="2.95"/><rect x="47.04" y="97.66" width="2.92" height="2.95"/><rect x="49.97" y="97.66" width="2.92" height="2.95"/><rect x="52.89" y="97.66" width="2.92" height="2.95"/><rect x="58.74" y="97.66" width="2.92" height="2.95"/><rect x="64.59" y="97.66" width="2.92" height="2.95"/><rect x="70.44" y="97.66" width="2.92" height="2.95"/><rect x="73.36" y="97.66" width="2.92" height="2.95"/><rect x="76.28" y="97.66" width="2.92" height="2.95"/><rect x="82.13" y="97.66" width="2.92" height="2.95"/><rect x="87.98" y="97.66" width="2.92" height="2.95"/><rect x="90.91" y="97.66" width="2.92" height="2.95"/><rect x="93.83" y="97.66" width="2.92" height="2.95"/><rect x="96.75" y="97.66" width="2.92" height="2.95"/><rect x="99.68" y="97.66" width="2.92" height="2.95"/><rect x="41.19" y="100.61" width="2.92" height="2.95"/><rect x="47.04" y="100.61" width="2.92" height="2.95"/><rect x="49.97" y="100.61" width="2.92" height="2.95"/><rect x="52.89" y="100.61" width="2.92" height="2.95"/><rect x="58.74" y="100.61" width="2.92" height="2.95"/><rect x="64.59" y="100.61" width="2.92" height="2.95"/><rect x="67.51" y="100.61" width="2.92" height="2.95"/><rect x="76.28" y="100.61" width="2.92" height="2.95"/><rect x="82.13" y="100.61" width="2.92" height="2.95"/><rect x="93.83" y="100.61" width="2.92" height="2.95"/><rect x="108.44" y="100.61" width="2.92" height="2.95"/><rect x="111.36" y="100.61" width="2.92" height="2.95"/><rect x="41.19" y="103.57" width="2.92" height="2.95"/><rect x="47.04" y="103.57" width="2.92" height="2.95"/><rect x="49.97" y="103.57" width="2.92" height="2.95"/><rect x="52.89" y="103.57" width="2.92" height="2.95"/><rect x="58.74" y="103.57" width="2.92" height="2.95"/><rect x="67.51" y="103.57" width="2.92" height="2.95"/><rect x="73.36" y="103.57" width="2.92" height="2.95"/><rect x="79.21" y="103.57" width="2.92" height="2.95"/><rect x="85.06" y="103.57" width="2.92" height="2.95"/><rect x="90.91" y="103.57" width="2.92" height="2.95"/><rect x="99.68" y="103.57" width="2.92" height="2.95"/><rect x="105.52" y="103.57" width="2.92" height="2.95"/><rect x="108.44" y="103.57" width="2.92" height="2.95"/><rect x="111.36" y="103.57" width="2.92" height="2.95"/><rect x="41.19" y="106.52" width="2.92" height="2.95"/><rect x="58.74" y="106.52" width="2.92" height="2.95"/><rect x="64.59" y="106.52" width="2.92" height="2.95"/><rect x="70.44" y="106.52" width="2.92" height="2.95"/><rect x="73.36" y="106.52" width="2.92" height="2.95"/><rect x="82.13" y="106.52" width="2.92" height="2.95"/><rect x="85.06" y="106.52" width="2.92" height="2.95"/><rect x="99.68" y="106.52" width="2.92" height="2.95"/><rect x="105.52" y="106.52" width="2.92" height="2.95"/><rect x="108.44" y="106.52" width="2.92" height="2.95"/><rect x="111.36" y="106.52" width="2.92" height="2.95"/><rect x="41.19" y="109.48" width="2.92" height="2.95"/><rect x="44.12" y="109.48" width="2.92" height="2.95"/><rect x="47.04" y="109.48" width="2.92" height="2.95"/><rect x="49.97" y="109.48" width="2.92" height="2.95"/><rect x="52.89" y="109.48" width="2.92" height="2.95"/><rect x="55.81" y="109.48" width="2.92" height="2.95"/><rect x="58.74" y="109.48" width="2.92" height="2.95"/><rect x="64.59" y="109.48" width="2.92" height="2.95"/><rect x="76.28" y="109.48" width="2.92" height="2.95"/><rect x="90.91" y="109.48" width="2.92" height="2.95"/><rect x="102.59" y="109.48" width="2.92" height="2.95"/><rect x="111.36" y="109.48" width="2.92" height="2.95"/><rect x="119.89" y="40.66" width="2.92" height="2.95"/><rect x="128.67" y="40.66" width="2.92" height="2.95"/><rect x="122.82" y="43.62" width="2.92" height="2.95"/><rect x="131.59" y="43.62" width="2.92" height="2.95"/><rect x="134.52" y="43.62" width="2.92" height="2.95"/><rect x="119.89" y="46.57" width="2.92" height="2.95"/><rect x="128.67" y="46.57" width="2.92" height="2.95"/><rect x="116.97" y="49.53" width="2.92" height="2.95"/><rect x="116.97" y="52.48" width="2.92" height="2.95"/><rect x="122.82" y="52.48" width="2.92" height="2.95"/><rect x="134.52" y="52.48" width="2.92" height="2.95"/><rect x="128.67" y="55.42" width="2.92" height="2.95"/><rect x="119.89" y="58.38" width="2.92" height="2.95"/><rect x="134.52" y="58.38" width="2.92" height="2.95"/><rect x="119.89" y="61.33" width="2.92" height="2.95"/><rect x="128.67" y="61.33" width="2.92" height="2.95"/><rect x="134.52" y="61.33" width="2.92" height="2.95"/><rect x="122.82" y="64.29" width="2.92" height="2.95"/><rect x="125.74" y="64.29" width="2.92" height="2.95"/><rect x="131.59" y="64.29" width="2.92" height="2.95"/><rect x="116.97" y="67.24" width="2.92" height="2.95"/><rect x="119.89" y="67.24" width="2.92" height="2.95"/><rect x="125.74" y="67.24" width="2.92" height="2.95"/><rect x="122.82" y="70.2" width="2.92" height="2.95"/><rect x="128.67" y="70.2" width="2.92" height="2.95"/><rect x="141.48" y="70.2" width="2.92" height="2.95"/><rect x="125.74" y="73.14" width="2.92" height="2.95"/><rect x="138.55" y="73.14" width="2.92" height="2.95"/><rect x="119.44" y="77.36" width="2.92" height="2.95"/><rect x="128.21" y="77.36" width="2.92" height="2.95"/><rect x="122.37" y="80.3" width="2.92" height="2.95"/><rect x="131.14" y="80.3" width="2.92" height="2.95"/><rect x="134.06" y="80.3" width="2.92" height="2.95"/><rect x="119.44" y="83.26" width="2.92" height="2.95"/><rect x="128.21" y="83.26" width="2.92" height="2.95"/><rect x="116.52" y="86.21" width="2.92" height="2.95"/><rect x="116.52" y="89.16" width="2.92" height="2.95"/><rect x="122.37" y="89.16" width="2.92" height="2.95"/><rect x="137.54" y="89.16" width="2.92" height="2.95"/><rect x="128.21" y="92.12" width="2.92" height="2.95"/><rect x="119.44" y="95.06" width="2.92" height="2.95"/><rect x="134.06" y="95.06" width="2.92" height="2.95"/><rect x="119.44" y="98.02" width="2.92" height="2.95"/><rect x="128.21" y="98.02" width="2.92" height="2.95"/><rect x="134.06" y="98.02" width="2.92" height="2.95"/><rect x="122.37" y="100.97" width="2.92" height="2.95"/><rect x="125.29" y="100.97" width="2.92" height="2.95"/><rect x="131.14" y="100.97" width="2.92" height="2.95"/><rect x="116.52" y="103.92" width="2.92" height="2.95"/><rect x="119.44" y="103.92" width="2.92" height="2.95"/><rect x="125.29" y="103.92" width="2.92" height="2.95"/><rect x="122.37" y="106.88" width="2.92" height="2.95"/><rect x="128.21" y="106.88" width="2.92" height="2.95"/><rect x="134.06" y="106.88" width="2.92" height="2.95"/><rect x="125.29" y="109.82" width="2.92" height="2.95"/><rect x="131.14" y="109.82" width="2.92" height="2.95"/><rect x="20.01" y="40.22" width="2.92" height="2.95"/><rect x="28.79" y="40.22" width="2.92" height="2.95"/><rect x="22.94" y="43.17" width="2.92" height="2.95"/><rect x="31.71" y="43.17" width="2.92" height="2.95"/><rect x="34.64" y="43.17" width="2.92" height="2.95"/><rect x="20.01" y="46.13" width="2.92" height="2.95"/><rect x="28.79" y="46.13" width="2.92" height="2.95"/><rect x="17.1" y="49.08" width="2.92" height="2.95"/><rect x="17.1" y="52.02" width="2.92" height="2.95"/><rect x="22.94" y="52.02" width="2.92" height="2.95"/><rect x="34.64" y="52.02" width="2.92" height="2.95"/><rect x="28.79" y="54.98" width="2.92" height="2.95"/><rect x="20.01" y="57.93" width="2.92" height="2.95"/><rect x="34.64" y="57.93" width="2.92" height="2.95"/><rect x="15.37" y="60.89" width="2.92" height="2.95"/><rect x="28.79" y="60.89" width="2.92" height="2.95"/><rect x="34.64" y="60.89" width="2.92" height="2.95"/><rect x="22.94" y="63.84" width="2.92" height="2.95"/><rect x="25.86" y="63.84" width="2.92" height="2.95"/><rect x="31.71" y="63.84" width="2.92" height="2.95"/><rect x="15.37" y="66.78" width="2.92" height="2.95"/><rect x="25.86" y="66.78" width="2.92" height="2.95"/><rect x="22.94" y="69.74" width="2.92" height="2.95"/><rect x="28.79" y="69.74" width="2.92" height="2.95"/><rect x="34.64" y="69.74" width="2.92" height="2.95"/><rect x="25.86" y="72.69" width="2.92" height="2.95"/><rect x="31.71" y="72.69" width="2.92" height="2.95"/><rect x="15.37" y="77.51" width="2.92" height="2.95"/><rect x="28.79" y="77.51" width="2.92" height="2.95"/><rect x="22.94" y="80.45" width="2.92" height="2.95"/><rect x="31.71" y="80.45" width="2.92" height="2.95"/><rect x="34.64" y="80.45" width="2.92" height="2.95"/><rect x="20.01" y="83.4" width="2.92" height="2.95"/><rect x="28.79" y="83.4" width="2.92" height="2.95"/><rect x="17.1" y="86.36" width="2.92" height="2.95"/><rect x="17.1" y="89.31" width="2.92" height="2.95"/><rect x="22.94" y="89.31" width="2.92" height="2.95"/><rect x="34.64" y="89.31" width="2.92" height="2.95"/><rect x="28.79" y="92.27" width="2.92" height="2.95"/><rect x="20.01" y="95.21" width="2.92" height="2.95"/><rect x="34.64" y="95.21" width="2.92" height="2.95"/><rect x="20.01" y="98.17" width="2.92" height="2.95"/><rect x="28.79" y="98.17" width="2.92" height="2.95"/><rect x="34.64" y="98.17" width="2.92" height="2.95"/><rect x="22.94" y="101.12" width="2.92" height="2.95"/><rect x="25.86" y="101.12" width="2.92" height="2.95"/><rect x="31.71" y="101.12" width="2.92" height="2.95"/><rect x="17.1" y="104.07" width="2.92" height="2.95"/><rect x="20.01" y="104.07" width="2.92" height="2.95"/><rect x="25.86" y="104.07" width="2.92" height="2.95"/><rect x="22.94" y="107.03" width="2.92" height="2.95"/><rect x="28.79" y="107.03" width="2.92" height="2.95"/><rect x="34.64" y="107.03" width="2.92" height="2.95"/><rect x="25.86" y="109.98" width="2.92" height="2.95"/><rect x="31.71" y="109.98" width="2.92" height="2.95"/><rect x="42.18" y="115.38" width="2.92" height="2.95"/><rect x="50.95" y="115.38" width="2.92" height="2.95"/><rect x="45.1" y="118.34" width="2.92" height="2.95"/><rect x="53.88" y="118.34" width="2.92" height="2.95"/><rect x="56.8" y="118.34" width="2.92" height="2.95"/><rect x="42.18" y="121.29" width="2.92" height="2.95"/><rect x="50.95" y="121.29" width="2.92" height="2.95"/><rect x="39.25" y="124.24" width="2.92" height="2.95"/><rect x="45.1" y="127.2" width="2.92" height="2.95"/><rect x="56.8" y="127.2" width="2.92" height="2.95"/><rect x="56.8" y="133.1" width="2.92" height="2.95"/><rect x="64.94" y="117.18" width="2.92" height="2.95"/><rect x="73.71" y="117.18" width="2.92" height="2.95"/><rect x="67.86" y="120.13" width="2.92" height="2.95"/><rect x="76.63" y="120.13" width="2.92" height="2.95"/><rect x="79.56" y="120.13" width="2.92" height="2.95"/><rect x="64.94" y="123.09" width="2.92" height="2.95"/><rect x="73.71" y="123.09" width="2.92" height="2.95"/><rect x="62.01" y="126.04" width="2.92" height="2.95"/><rect x="62.01" y="128.99" width="2.92" height="2.95"/><rect x="67.86" y="128.99" width="2.92" height="2.95"/><rect x="79.56" y="128.99" width="2.92" height="2.95"/><rect x="73.71" y="131.94" width="2.92" height="2.95"/><rect x="79.56" y="134.89" width="2.92" height="2.95"/><rect x="73.71" y="137.85" width="2.92" height="2.95"/><rect x="79.56" y="137.85" width="2.92" height="2.95"/><rect x="76.63" y="140.8" width="2.92" height="2.95"/><rect x="89.79" y="116.14" width="2.92" height="2.95"/><rect x="98.57" y="116.14" width="2.92" height="2.95"/><rect x="92.72" y="119.08" width="2.92" height="2.95"/><rect x="101.49" y="119.08" width="2.92" height="2.95"/><rect x="104.41" y="119.08" width="2.92" height="2.95"/><rect x="89.79" y="122.03" width="2.92" height="2.95"/><rect x="98.57" y="122.03" width="2.92" height="2.95"/><rect x="86.87" y="124.99" width="2.92" height="2.95"/><rect x="86.87" y="127.94" width="2.92" height="2.95"/><rect x="92.72" y="127.94" width="2.92" height="2.95"/><rect x="104.41" y="127.94" width="2.92" height="2.95"/><rect x="98.57" y="130.9" width="2.92" height="2.95"/><rect x="89.79" y="133.85" width="2.92" height="2.95"/><rect x="89.79" y="136.8" width="2.92" height="2.95"/><rect x="114.16" y="116.14" width="2.92" height="2.95"/><rect x="122.93" y="116.14" width="2.92" height="2.95"/><rect x="117.09" y="119.08" width="2.92" height="2.95"/><rect x="114.16" y="122.03" width="2.92" height="2.95"/><rect x="122.93" y="122.03" width="2.92" height="2.95"/><rect x="111.24" y="124.99" width="2.92" height="2.95"/><rect x="111.24" y="127.94" width="2.92" height="2.95"/><rect x="117.09" y="127.94" width="2.92" height="2.95"/><rect x="66.5" y="16.04" width="2.95" height="2.92"/><rect x="66.5" y="24.81" width="2.95" height="2.92"/><rect x="63.54" y="18.96" width="2.95" height="2.92"/><rect x="63.54" y="27.72" width="2.95" height="2.92"/><rect x="63.54" y="30.65" width="2.95" height="2.92"/><rect x="60.6" y="16.04" width="2.95" height="2.92"/><rect x="60.6" y="24.81" width="2.95" height="2.92"/><rect x="54.69" y="18.96" width="2.95" height="2.92"/><rect x="54.69" y="30.65" width="2.95" height="2.92"/><rect x="51.74" y="24.81" width="2.95" height="2.92"/><rect x="48.78" y="30.65" width="2.95" height="2.92"/><rect x="45.83" y="24.81" width="2.95" height="2.92"/><rect x="45.83" y="30.65" width="2.95" height="2.92"/><rect x="42.88" y="21.89" width="2.95" height="2.92"/><rect x="42.88" y="27.72" width="2.95" height="2.92"/><rect x="36.98" y="24.81" width="2.95" height="2.92"/><rect x="36.98" y="30.65" width="2.95" height="2.92"/><rect x="34.02" y="27.72" width="2.95" height="2.92"/><rect x="73.09" y="10.29" width="2.92" height="2.95"/><rect x="78.94" y="10.29" width="2.92" height="2.95"/><rect x="84.79" y="13.24" width="2.92" height="2.95"/><rect x="76.02" y="16.19" width="2.92" height="2.95"/><rect x="90.64" y="16.19" width="2.92" height="2.95"/><rect x="76.02" y="19.15" width="2.92" height="2.95"/><rect x="84.79" y="19.15" width="2.92" height="2.95"/><rect x="90.64" y="19.15" width="2.92" height="2.95"/><rect x="78.94" y="22.09" width="2.92" height="2.95"/><rect x="81.87" y="22.09" width="2.92" height="2.95"/><rect x="87.71" y="22.09" width="2.92" height="2.95"/><rect x="73.09" y="25.05" width="2.92" height="2.95"/><rect x="76.02" y="25.05" width="2.92" height="2.95"/><rect x="81.87" y="25.05" width="2.92" height="2.95"/><rect x="78.94" y="28" width="2.92" height="2.95"/><rect x="84.79" y="28" width="2.92" height="2.95"/><rect x="90.64" y="28" width="2.92" height="2.95"/><rect x="81.87" y="30.96" width="2.92" height="2.95"/><rect x="87.71" y="30.96" width="2.92" height="2.95"/><rect x="100.87" y="16" width="2.92" height="2.95"/><rect x="100.87" y="18.96" width="2.92" height="2.95"/><rect x="103.8" y="21.91" width="2.92" height="2.95"/><rect x="106.72" y="21.91" width="2.92" height="2.95"/><rect x="97.95" y="24.87" width="2.92" height="2.95"/><rect x="100.87" y="24.87" width="2.92" height="2.95"/><rect x="106.72" y="24.87" width="2.92" height="2.95"/><rect x="103.8" y="27.82" width="2.92" height="2.95"/><rect x="109.65" y="27.82" width="2.92" height="2.95"/><rect x="115.5" y="27.82" width="2.92" height="2.95"/><rect x="106.72" y="30.76" width="2.92" height="2.95"/><rect x="112.57" y="30.76" width="2.92" height="2.95"/></g></g></g></g></svg>