<svg xmlns="http://www.w3.org/2000/svg" viewBox="0 0 111.03 128.21"><defs><style>.cls-1{fill:#fff;}</style></defs><g id="Layer_2" data-name="Layer 2"><g id="Layer_1-2" data-name="Layer 1"><polygon class="cls-1" points="0 32.05 0 96.16 55.52 128.21 111.03 96.16 111.03 32.05 55.52 0 0 32.05"/><path d="M55.52,3.46,108,33.78V94.42L55.52,124.74,3,94.42V33.78L55.52,3.46m0-3.46L0,32.05V96.16l55.52,32.05L111,96.16V32.05L55.52,0Z"/><rect x="24.56" y="32.73" width="2.52" height="2.54"/><rect x="27.08" y="32.73" width="2.52" height="2.54"/><rect x="29.6" y="32.73" width="2.52" height="2.54"/><rect x="32.12" y="32.73" width="2.52" height="2.54"/><rect x="34.64" y="32.73" width="2.52" height="2.54"/><rect x="37.16" y="32.73" width="2.52" height="2.54"/><rect x="39.68" y="32.73" width="2.52" height="2.54"/><rect x="44.72" y="32.73" width="2.52" height="2.54"/><rect x="47.24" y="32.73" width="2.52" height="2.54"/><rect x="49.76" y="32.73" width="2.52" height="2.54"/><rect x="52.28" y="32.73" width="2.52" height="2.54"/><rect x="69.91" y="32.73" width="2.52" height="2.54"/><rect x="72.43" y="32.73" width="2.52" height="2.54"/><rect x="74.95" y="32.73" width="2.52" height="2.54"/><rect x="77.47" y="32.73" width="2.52" height="2.54"/><rect x="79.99" y="32.73" width="2.52" height="2.54"/><rect x="82.51" y="32.73" width="2.52" height="2.54"/><rect x="85.03" y="32.73" width="2.52" height="2.54"/><rect x="24.56" y="35.28" width="2.52" height="2.54"/><rect x="39.68" y="35.28" width="2.52" height="2.54"/><rect x="52.28" y="35.28" width="2.52" height="2.54"/><rect x="54.8" y="35.28" width="2.52" height="2.54"/><rect x="57.32" y="35.28" width="2.52" height="2.54"/><rect x="59.84" y="35.28" width="2.52" height="2.54"/><rect x="64.88" y="35.28" width="2.52" height="2.54"/><rect x="69.91" y="35.28" width="2.52" height="2.54"/><rect x="85.03" y="35.28" width="2.52" height="2.54"/><rect x="24.56" y="37.82" width="2.52" height="2.54"/><rect x="29.6" y="37.82" width="2.52" height="2.54"/><rect x="32.12" y="37.82" width="2.52" height="2.54"/><rect x="34.64" y="37.82" width="2.52" height="2.54"/><rect x="39.68" y="37.82" width="2.52" height="2.54"/><rect x="47.24" y="37.82" width="2.52" height="2.54"/><rect x="52.28" y="37.82" width="2.52" height="2.54"/><rect x="57.32" y="37.82" width="2.52" height="2.54"/><rect x="62.36" y="37.82" width="2.52" height="2.54"/><rect x="64.88" y="37.82" width="2.52" height="2.54"/><rect x="69.91" y="37.82" width="2.52" height="2.54"/><rect x="74.95" y="37.82" width="2.52" height="2.54"/><rect x="77.47" y="37.82" width="2.52" height="2.54"/><rect x="79.99" y="37.82" width="2.52" height="2.54"/><rect x="85.03" y="37.82" width="2.52" height="2.54"/><rect x="24.56" y="40.36" width="2.52" height="2.54"/><rect x="29.6" y="40.36" width="2.52" height="2.54"/><rect x="32.12" y="40.36" width="2.52" height="2.54"/><rect x="34.64" y="40.36" width="2.52" height="2.54"/><rect x="39.68" y="40.36" width="2.52" height="2.54"/><rect x="49.76" y="40.36" width="2.52" height="2.54"/><rect x="64.88" y="40.36" width="2.52" height="2.54"/><rect x="69.91" y="40.36" width="2.52" height="2.54"/><rect x="74.95" y="40.36" width="2.52" height="2.54"/><rect x="77.47" y="40.36" width="2.52" height="2.54"/><rect x="79.99" y="40.36" width="2.52" height="2.54"/><rect x="85.03" y="40.36" width="2.52" height="2.54"/><rect x="24.56" y="42.91" width="2.52" height="2.54"/><rect x="29.6" y="42.91" width="2.52" height="2.54"/><rect x="32.12" y="42.91" width="2.52" height="2.54"/><rect x="34.64" y="42.91" width="2.52" height="2.54"/><rect x="39.68" y="42.91" width="2.52" height="2.54"/><rect x="49.76" y="42.91" width="2.52" height="2.54"/><rect x="52.28" y="42.91" width="2.52" height="2.54"/><rect x="54.8" y="42.91" width="2.52" height="2.54"/><rect x="59.84" y="42.91" width="2.52" height="2.54"/><rect x="64.88" y="42.91" width="2.52" height="2.54"/><rect x="69.91" y="42.91" width="2.52" height="2.54"/><rect x="74.95" y="42.91" width="2.52" height="2.54"/><rect x="77.47" y="42.91" width="2.52" height="2.54"/><rect x="79.99" y="42.91" width="2.52" height="2.54"/><rect x="85.03" y="42.91" width="2.52" height="2.54"/><rect x="24.56" y="45.45" width="2.52" height="2.54"/><rect x="39.68" y="45.45" width="2.52" height="2.54"/><rect x="47.24" y="45.45" width="2.52" height="2.54"/><rect x="52.28" y="45.45" width="2.52" height="2.54"/><rect x="64.88" y="45.45" width="2.52" height="2.54"/><rect x="69.91" y="45.45" width="2.52" height="2.54"/><rect x="85.03" y="45.45" width="2.52" height="2.54"/><rect x="24.56" y="48" width="2.52" height="2.54"/><rect x="27.08" y="48" width="2.52" height="2.54"/><rect x="29.6" y="48" width="2.52" height="2.54"/><rect x="32.12" y="48" width="2.52" height="2.54"/><rect x="34.64" y="48" width="2.52" height="2.54"/><rect x="37.16" y="48" width="2.52" height="2.54"/><rect x="39.68" y="48" width="2.52" height="2.54"/><rect x="44.72" y="48" width="2.52" height="2.54"/><rect x="49.76" y="48" width="2.52" height="2.54"/><rect x="59.84" y="48" width="2.52" height="2.54"/><rect x="64.88" y="48" width="2.52" height="2.54"/><rect x="69.91" y="48" width="2.52" height="2.54"/><rect x="72.43" y="48" width="2.52" height="2.54"/><rect x="74.95" y="48" width="2.52" height="2.54"/><rect x="77.47" y="48" width="2.52" height="2.54"/><rect x="79.99" y="48" width="2.52" height="2.54"/><rect x="82.51" y="48" width="2.52" height="2.54"/><rect x="85.03" y="48" width="2.52" height="2.54"/><rect x="44.72" y="50.54" width="2.52" height="2.54"/><rect x="47.24" y="50.54" width="2.52" height="2.54"/><rect x="54.8" y="50.54" width="2.52" height="2.54"/><rect x="57.32" y="50.54" width="2.52" height="2.54"/><rect x="24.56" y="53.09" width="2.52" height="2.54"/><rect x="34.64" y="53.09" width="2.52" height="2.54"/><rect x="39.68" y="53.09" width="2.52" height="2.54"/><rect x="47.24" y="53.09" width="2.52" height="2.54"/><rect x="54.8" y="53.09" width="2.52" height="2.54"/><rect x="62.36" y="53.09" width="2.52" height="2.54"/><rect x="69.91" y="53.09" width="2.52" height="2.54"/><rect x="85.03" y="53.09" width="2.52" height="2.54"/><rect x="24.56" y="55.63" width="2.52" height="2.54"/><rect x="27.08" y="55.63" width="2.52" height="2.54"/><rect x="29.6" y="55.63" width="2.52" height="2.54"/><rect x="34.64" y="55.63" width="2.52" height="2.54"/><rect x="37.16" y="55.63" width="2.52" height="2.54"/><rect x="42.2" y="55.63" width="2.52" height="2.54"/><rect x="49.76" y="55.63" width="2.52" height="2.54"/><rect x="57.32" y="55.63" width="2.52" height="2.54"/><rect x="59.84" y="55.63" width="2.52" height="2.54"/><rect x="62.36" y="55.63" width="2.52" height="2.54"/><rect x="67.4" y="55.63" width="2.52" height="2.54"/><rect x="72.43" y="55.63" width="2.52" height="2.54"/><rect x="74.95" y="55.63" width="2.52" height="2.54"/><rect x="77.47" y="55.63" width="2.52" height="2.54"/><rect x="79.99" y="55.63" width="2.52" height="2.54"/><rect x="82.51" y="55.63" width="2.52" height="2.54"/><rect x="24.56" y="58.17" width="2.52" height="2.54"/><rect x="34.64" y="58.17" width="2.52" height="2.54"/><rect x="39.68" y="58.17" width="2.52" height="2.54"/><rect x="42.2" y="58.17" width="2.52" height="2.54"/><rect x="47.24" y="58.17" width="2.52" height="2.54"/><rect x="54.8" y="58.17" width="2.52" height="2.54"/><rect x="62.36" y="58.17" width="2.52" height="2.54"/><rect x="64.88" y="58.17" width="2.52" height="2.54"/><rect x="72.43" y="58.17" width="2.52" height="2.54"/><rect x="77.47" y="58.17" width="2.52" height="2.54"/><rect x="85.03" y="58.17" width="2.52" height="2.54"/><rect x="24.56" y="60.72" width="2.52" height="2.54"/><rect x="27.08" y="60.72" width="2.52" height="2.54"/><rect x="42.2" y="60.72" width="2.52" height="2.54"/><rect x="44.72" y="60.72" width="2.52" height="2.54"/><rect x="72.43" y="60.72" width="2.52" height="2.54"/><rect x="79.99" y="60.72" width="2.52" height="2.54"/><rect x="82.51" y="60.72" width="2.52" height="2.54"/><rect x="85.03" y="60.72" width="2.52" height="2.54"/><rect x="29.6" y="63.26" width="2.52" height="2.54"/><rect x="39.68" y="63.26" width="2.52" height="2.54"/><rect x="44.72" y="63.26" width="2.52" height="2.54"/><rect x="49.76" y="63.26" width="2.52" height="2.54"/><rect x="59.84" y="63.26" width="2.52" height="2.54"/><rect x="62.36" y="63.26" width="2.52" height="2.54"/><rect x="69.91" y="63.26" width="2.52" height="2.54"/><rect x="85.03" y="63.26" width="2.52" height="2.54"/><rect x="24.56" y="65.81" width="2.52" height="2.54"/><rect x="29.6" y="65.81" width="2.52" height="2.54"/><rect x="37.16" y="65.81" width="2.52" height="2.54"/><rect x="42.2" y="65.81" width="2.52" height="2.54"/><rect x="54.8" y="65.81" width="2.52" height="2.54"/><rect x="62.36" y="65.81" width="2.52" height="2.54"/><rect x="64.88" y="65.81" width="2.52" height="2.54"/><rect x="67.4" y="65.81" width="2.52" height="2.54"/><rect x="74.95" y="65.81" width="2.52" height="2.54"/><rect x="82.51" y="65.81" width="2.52" height="2.54"/><rect x="24.56" y="68.35" width="2.52" height="2.54"/><rect x="27.08" y="68.35" width="2.52" height="2.54"/><rect x="32.12" y="68.35" width="2.52" height="2.54"/><rect x="39.68" y="68.35" width="2.52" height="2.54"/><rect x="42.2" y="68.35" width="2.52" height="2.54"/><rect x="47.24" y="68.35" width="2.52" height="2.54"/><rect x="59.84" y="68.35" width="2.52" height="2.54"/><rect x="62.36" y="68.35" width="2.52" height="2.54"/><rect x="74.95" y="68.35" width="2.52" height="2.54"/><rect x="77.47" y="68.35" width="2.52" height="2.54"/><rect x="79.99" y="68.35" width="2.52" height="2.54"/><rect x="82.51" y="68.35" width="2.52" height="2.54"/><rect x="85.03" y="68.35" width="2.52" height="2.54"/><rect x="24.56" y="70.89" width="2.52" height="2.54"/><rect x="37.16" y="70.89" width="2.52" height="2.54"/><rect x="47.24" y="70.89" width="2.52" height="2.54"/><rect x="54.8" y="70.89" width="2.52" height="2.54"/><rect x="59.84" y="70.89" width="2.52" height="2.54"/><rect x="64.88" y="70.89" width="2.52" height="2.54"/><rect x="72.43" y="70.89" width="2.52" height="2.54"/><rect x="77.47" y="70.89" width="2.52" height="2.54"/><rect x="79.99" y="70.89" width="2.52" height="2.54"/><rect x="85.03" y="70.89" width="2.52" height="2.54"/><rect x="24.56" y="73.44" width="2.52" height="2.54"/><rect x="29.6" y="73.44" width="2.52" height="2.54"/><rect x="32.12" y="73.44" width="2.52" height="2.54"/><rect x="34.64" y="73.44" width="2.52" height="2.54"/><rect x="39.68" y="73.44" width="2.52" height="2.54"/><rect x="42.2" y="73.44" width="2.52" height="2.54"/><rect x="49.76" y="73.44" width="2.52" height="2.54"/><rect x="52.28" y="73.44" width="2.52" height="2.54"/><rect x="57.32" y="73.44" width="2.52" height="2.54"/><rect x="62.36" y="73.44" width="2.52" height="2.54"/><rect x="64.88" y="73.44" width="2.52" height="2.54"/><rect x="67.4" y="73.44" width="2.52" height="2.54"/><rect x="69.91" y="73.44" width="2.52" height="2.54"/><rect x="74.95" y="73.44" width="2.52" height="2.54"/><rect x="79.99" y="73.44" width="2.52" height="2.54"/><rect x="82.51" y="73.44" width="2.52" height="2.54"/><rect x="44.72" y="75.98" width="2.52" height="2.54"/><rect x="47.24" y="75.98" width="2.52" height="2.54"/><rect x="52.28" y="75.98" width="2.52" height="2.54"/><rect x="64.88" y="75.98" width="2.52" height="2.54"/><rect x="74.95" y="75.98" width="2.52" height="2.54"/><rect x="79.99" y="75.98" width="2.52" height="2.54"/><rect x="82.51" y="75.98" width="2.52" height="2.54"/><rect x="24.56" y="78.53" width="2.52" height="2.54"/><rect x="27.08" y="78.53" width="2.52" height="2.54"/><rect x="29.6" y="78.53" width="2.52" height="2.54"/><rect x="32.12" y="78.53" width="2.52" height="2.54"/><rect x="34.64" y="78.53" width="2.52" height="2.54"/><rect x="37.16" y="78.53" width="2.52" height="2.54"/><rect x="39.68" y="78.53" width="2.52" height="2.54"/><rect x="49.76" y="78.53" width="2.52" height="2.54"/><rect x="54.8" y="78.53" width="2.52" height="2.54"/><rect x="59.84" y="78.53" width="2.52" height="2.54"/><rect x="64.88" y="78.53" width="2.52" height="2.54"/><rect x="69.91" y="78.53" width="2.52" height="2.54"/><rect x="74.95" y="78.53" width="2.52" height="2.54"/><rect x="85.03" y="78.53" width="2.52" height="2.54"/><rect x="24.56" y="81.07" width="2.52" height="2.54"/><rect x="39.68" y="81.07" width="2.52" height="2.54"/><rect x="52.28" y="81.07" width="2.52" height="2.54"/><rect x="57.32" y="81.07" width="2.52" height="2.54"/><rect x="62.36" y="81.07" width="2.52" height="2.54"/><rect x="64.88" y="81.07" width="2.52" height="2.54"/><rect x="74.95" y="81.07" width="2.52" height="2.54"/><rect x="85.03" y="81.07" width="2.52" height="2.54"/><rect x="24.56" y="83.62" width="2.52" height="2.54"/><rect x="29.6" y="83.62" width="2.52" height="2.54"/><rect x="32.12" y="83.62" width="2.52" height="2.54"/><rect x="34.64" y="83.62" width="2.52" height="2.54"/><rect x="39.68" y="83.62" width="2.52" height="2.54"/><rect x="44.72" y="83.62" width="2.52" height="2.54"/><rect x="49.76" y="83.62" width="2.52" height="2.54"/><rect x="52.28" y="83.62" width="2.52" height="2.54"/><rect x="54.8" y="83.62" width="2.52" height="2.54"/><rect x="59.84" y="83.62" width="2.52" height="2.54"/><rect x="64.88" y="83.62" width="2.52" height="2.54"/><rect x="67.4" y="83.62" width="2.52" height="2.54"/><rect x="69.91" y="83.62" width="2.52" height="2.54"/><rect x="72.43" y="83.62" width="2.52" height="2.54"/><rect x="74.95" y="83.62" width="2.52" height="2.54"/><rect x="24.56" y="86.16" width="2.52" height="2.54"/><rect x="29.6" y="86.16" width="2.52" height="2.54"/><rect x="32.12" y="86.16" width="2.52" height="2.54"/><rect x="34.64" y="86.16" width="2.52" height="2.54"/><rect x="39.68" y="86.16" width="2.52" height="2.54"/><rect x="44.72" y="86.16" width="2.52" height="2.54"/><rect x="47.24" y="86.16" width="2.52" height="2.54"/><rect x="54.8" y="86.16" width="2.52" height="2.54"/><rect x="59.84" y="86.16" width="2.52" height="2.54"/><rect x="69.91" y="86.16" width="2.52" height="2.54"/><rect x="82.51" y="86.16" width="2.52" height="2.54"/><rect x="85.03" y="86.16" width="2.52" height="2.54"/><rect x="24.56" y="88.7" width="2.52" height="2.54"/><rect x="29.6" y="88.7" width="2.52" height="2.54"/><rect x="32.12" y="88.7" width="2.52" height="2.54"/><rect x="34.64" y="88.7" width="2.52" height="2.54"/><rect x="39.68" y="88.7" width="2.52" height="2.54"/><rect x="47.24" y="88.7" width="2.52" height="2.54"/><rect x="52.28" y="88.7" width="2.52" height="2.54"/><rect x="57.32" y="88.7" width="2.52" height="2.54"/><rect x="62.36" y="88.7" width="2.52" height="2.54"/><rect x="67.4" y="88.7" width="2.52" height="2.54"/><rect x="74.95" y="88.7" width="2.52" height="2.54"/><rect x="79.99" y="88.7" width="2.52" height="2.54"/><rect x="82.51" y="88.7" width="2.52" height="2.54"/><rect x="85.03" y="88.7" width="2.52" height="2.54"/><rect x="24.56" y="91.25" width="2.52" height="2.54"/><rect x="39.68" y="91.25" width="2.52" height="2.54"/><rect x="44.72" y="91.25" width="2.52" height="2.54"/><rect x="49.76" y="91.25" width="2.52" height="2.54"/><rect x="52.28" y="91.25" width="2.52" height="2.54"/><rect x="59.84" y="91.25" width="2.52" height="2.54"/><rect x="62.36" y="91.25" width="2.52" height="2.54"/><rect x="74.95" y="91.25" width="2.52" height="2.54"/><rect x="79.99" y="91.25" width="2.52" height="2.54"/><rect x="82.51" y="91.25" width="2.52" height="2.54"/><rect x="85.03" y="91.25" width="2.52" height="2.54"/><rect x="24.56" y="93.79" width="2.52" height="2.54"/><rect x="27.08" y="93.79" width="2.52" height="2.54"/><rect x="29.6" y="93.79" width="2.52" height="2.54"/><rect x="32.12" y="93.79" width="2.52" height="2.54"/><rect x="34.64" y="93.79" width="2.52" height="2.54"/><rect x="37.16" y="93.79" width="2.52" height="2.54"/><rect x="39.68" y="93.79" width="2.52" height="2.54"/><rect x="44.72" y="93.79" width="2.52" height="2.54"/><rect x="54.8" y="93.79" width="2.52" height="2.54"/><rect x="67.4" y="93.79" width="2.52" height="2.54"/><rect x="77.47" y="93.79" width="2.52" height="2.54"/><rect x="85.03" y="93.79" width="2.52" height="2.54"/><rect x="92.38" y="34.5" width="2.52" height="2.54"/><rect x="99.94" y="34.5" width="2.52" height="2.54"/><rect x="94.9" y="37.04" width="2.52" height="2.54"/><rect x="102.46" y="37.04" width="2.52" height="2.54"/><rect x="104.98" y="37.04" width="2.52" height="2.54"/><rect x="92.38" y="39.59" width="2.52" height="2.54"/><rect x="99.94" y="39.59" width="2.52" height="2.54"/><rect x="89.86" y="42.13" width="2.52" height="2.54"/><rect x="89.86" y="44.68" width="2.52" height="2.54"/><rect x="94.9" y="44.68" width="2.52" height="2.54"/><rect x="104.98" y="44.68" width="2.52" height="2.54"/><rect x="99.94" y="47.22" width="2.52" height="2.54"/><rect x="92.38" y="49.76" width="2.52" height="2.54"/><rect x="104.98" y="49.76" width="2.52" height="2.54"/><rect x="92.38" y="52.31" width="2.52" height="2.54"/><rect x="99.94" y="52.31" width="2.52" height="2.54"/><rect x="104.98" y="52.31" width="2.52" height="2.54"/><rect x="94.9" y="54.85" width="2.52" height="2.54"/><rect x="97.42" y="54.85" width="2.52" height="2.54"/><rect x="102.46" y="54.85" width="2.52" height="2.54"/><rect x="89.86" y="57.4" width="2.52" height="2.54"/><rect x="92.38" y="57.4" width="2.52" height="2.54"/><rect x="97.42" y="57.4" width="2.52" height="2.54"/><rect x="94.9" y="59.94" width="2.52" height="2.54"/><rect x="99.94" y="59.94" width="2.52" height="2.54"/><rect x="104.98" y="59.94" width="2.52" height="2.54"/><rect x="97.42" y="62.49" width="2.52" height="2.54"/><rect x="102.46" y="62.49" width="2.52" height="2.54"/><rect x="91.99" y="66.11" width="2.52" height="2.54"/><rect x="99.55" y="66.11" width="2.52" height="2.54"/><rect x="94.51" y="68.66" width="2.52" height="2.54"/><rect x="102.07" y="68.66" width="2.52" height="2.54"/><rect x="104.59" y="68.66" width="2.52" height="2.54"/><rect x="91.99" y="71.2" width="2.52" height="2.54"/><rect x="99.55" y="71.2" width="2.52" height="2.54"/><rect x="89.47" y="73.74" width="2.52" height="2.54"/><rect x="89.47" y="76.29" width="2.52" height="2.54"/><rect x="94.51" y="76.29" width="2.52" height="2.54"/><rect x="104.59" y="76.29" width="2.52" height="2.54"/><rect x="99.55" y="78.83" width="2.52" height="2.54"/><rect x="91.99" y="81.38" width="2.52" height="2.54"/><rect x="104.59" y="81.38" width="2.52" height="2.54"/><rect x="91.99" y="83.92" width="2.52" height="2.54"/><rect x="99.55" y="83.92" width="2.52" height="2.54"/><rect x="104.59" y="83.92" width="2.52" height="2.54"/><rect x="94.51" y="86.47" width="2.52" height="2.54"/><rect x="97.03" y="86.47" width="2.52" height="2.54"/><rect x="102.07" y="86.47" width="2.52" height="2.54"/><rect x="89.47" y="89.01" width="2.52" height="2.54"/><rect x="91.99" y="89.01" width="2.52" height="2.54"/><rect x="97.03" y="89.01" width="2.52" height="2.54"/><rect x="94.51" y="91.55" width="2.52" height="2.54"/><rect x="99.55" y="91.55" width="2.52" height="2.54"/><rect x="104.59" y="91.55" width="2.52" height="2.54"/><rect x="97.03" y="94.1" width="2.52" height="2.54"/><rect x="102.07" y="94.1" width="2.52" height="2.54"/><rect x="6.31" y="34.11" width="2.52" height="2.54"/><rect x="13.87" y="34.11" width="2.52" height="2.54"/><rect x="8.83" y="36.66" width="2.52" height="2.54"/><rect x="16.39" y="36.66" width="2.52" height="2.54"/><rect x="18.91" y="36.66" width="2.52" height="2.54"/><rect x="6.31" y="39.2" width="2.52" height="2.54"/><rect x="13.87" y="39.2" width="2.52" height="2.54"/><rect x="3.79" y="41.74" width="2.52" height="2.54"/><rect x="3.79" y="44.29" width="2.52" height="2.54"/><rect x="8.83" y="44.29" width="2.52" height="2.54"/><rect x="18.91" y="44.29" width="2.52" height="2.54"/><rect x="13.87" y="46.83" width="2.52" height="2.54"/><rect x="6.31" y="49.38" width="2.52" height="2.54"/><rect x="18.91" y="49.38" width="2.52" height="2.54"/><rect x="6.31" y="51.92" width="2.52" height="2.54"/><rect x="13.87" y="51.92" width="2.52" height="2.54"/><rect x="18.91" y="51.92" width="2.52" height="2.54"/><rect x="8.83" y="54.47" width="2.52" height="2.54"/><rect x="11.35" y="54.47" width="2.52" height="2.54"/><rect x="16.39" y="54.47" width="2.52" height="2.54"/><rect x="3.79" y="57.01" width="2.52" height="2.54"/><rect x="6.31" y="57.01" width="2.52" height="2.54"/><rect x="11.35" y="57.01" width="2.52" height="2.54"/><rect x="8.83" y="59.55" width="2.52" height="2.54"/><rect x="13.87" y="59.55" width="2.52" height="2.54"/><rect x="18.91" y="59.55" width="2.52" height="2.54"/><rect x="11.35" y="62.1" width="2.52" height="2.54"/><rect x="16.39" y="62.1" width="2.52" height="2.54"/><rect x="6.31" y="66.24" width="2.52" height="2.54"/><rect x="13.87" y="66.24" width="2.52" height="2.54"/><rect x="8.83" y="68.79" width="2.52" height="2.54"/><rect x="16.39" y="68.79" width="2.52" height="2.54"/><rect x="18.91" y="68.79" width="2.52" height="2.54"/><rect x="6.31" y="71.33" width="2.52" height="2.54"/><rect x="13.87" y="71.33" width="2.52" height="2.54"/><rect x="3.79" y="73.87" width="2.52" height="2.54"/><rect x="3.79" y="76.42" width="2.52" height="2.54"/><rect x="8.83" y="76.42" width="2.52" height="2.54"/><rect x="18.91" y="76.42" width="2.52" height="2.54"/><rect x="13.87" y="78.96" width="2.52" height="2.54"/><rect x="6.31" y="81.51" width="2.52" height="2.54"/><rect x="18.91" y="81.51" width="2.52" height="2.54"/><rect x="6.31" y="84.05" width="2.52" height="2.54"/><rect x="13.87" y="84.05" width="2.52" height="2.54"/><rect x="18.91" y="84.05" width="2.52" height="2.54"/><rect x="8.83" y="86.59" width="2.52" height="2.54"/><rect x="11.35" y="86.59" width="2.52" height="2.54"/><rect x="16.39" y="86.59" width="2.52" height="2.54"/><rect x="3.79" y="89.14" width="2.52" height="2.54"/><rect x="6.31" y="89.14" width="2.52" height="2.54"/><rect x="11.35" y="89.14" width="2.52" height="2.54"/><rect x="8.83" y="91.68" width="2.52" height="2.54"/><rect x="13.87" y="91.68" width="2.52" height="2.54"/><rect x="18.91" y="91.68" width="2.52" height="2.54"/><rect x="11.35" y="94.23" width="2.52" height="2.54"/><rect x="16.39" y="94.23" width="2.52" height="2.54"/><rect x="25.41" y="98.89" width="2.52" height="2.54"/><rect x="32.97" y="98.89" width="2.52" height="2.54"/><rect x="27.93" y="101.43" width="2.52" height="2.54"/><rect x="35.49" y="101.43" width="2.52" height="2.54"/><rect x="38.01" y="101.43" width="2.52" height="2.54"/><rect x="25.41" y="103.97" width="2.52" height="2.54"/><rect x="32.97" y="103.97" width="2.52" height="2.54"/><rect x="22.89" y="106.52" width="2.52" height="2.54"/><rect x="27.93" y="109.06" width="2.52" height="2.54"/><rect x="38.01" y="109.06" width="2.52" height="2.54"/><rect x="38.01" y="114.15" width="2.52" height="2.54"/><rect x="45.02" y="100.43" width="2.52" height="2.54"/><rect x="52.58" y="100.43" width="2.52" height="2.54"/><rect x="47.54" y="102.98" width="2.52" height="2.54"/><rect x="55.1" y="102.98" width="2.52" height="2.54"/><rect x="57.62" y="102.98" width="2.52" height="2.54"/><rect x="45.02" y="105.52" width="2.52" height="2.54"/><rect x="52.58" y="105.52" width="2.52" height="2.54"/><rect x="42.5" y="108.07" width="2.52" height="2.54"/><rect x="42.5" y="110.61" width="2.52" height="2.54"/><rect x="47.54" y="110.61" width="2.52" height="2.54"/><rect x="57.62" y="110.61" width="2.52" height="2.54"/><rect x="52.58" y="113.16" width="2.52" height="2.54"/><rect x="57.62" y="115.7" width="2.52" height="2.54"/><rect x="52.58" y="118.24" width="2.52" height="2.54"/><rect x="57.62" y="118.24" width="2.52" height="2.54"/><rect x="47.54" y="120.79" width="2.52" height="2.54"/><rect x="50.06" y="120.79" width="2.52" height="2.54"/><rect x="55.1" y="120.79" width="2.52" height="2.54"/><rect x="66.44" y="99.53" width="2.52" height="2.54"/><rect x="74" y="99.53" width="2.52" height="2.54"/><rect x="68.96" y="102.08" width="2.52" height="2.54"/><rect x="76.52" y="102.08" width="2.52" height="2.54"/><rect x="79.04" y="102.08" width="2.52" height="2.54"/><rect x="66.44" y="104.62" width="2.52" height="2.54"/><rect x="74" y="104.62" width="2.52" height="2.54"/><rect x="63.92" y="107.16" width="2.52" height="2.54"/><rect x="63.92" y="109.71" width="2.52" height="2.54"/><rect x="68.96" y="109.71" width="2.52" height="2.54"/><rect x="79.04" y="109.71" width="2.52" height="2.54"/><rect x="74" y="112.25" width="2.52" height="2.54"/><rect x="66.44" y="114.8" width="2.52" height="2.54"/><rect x="66.44" y="117.34" width="2.52" height="2.54"/><rect x="46.37" y="13.27" width="2.54" height="2.52"/><rect x="46.37" y="20.83" width="2.54" height="2.52"/><rect x="43.82" y="15.79" width="2.54" height="2.52"/><rect x="43.82" y="23.35" width="2.54" height="2.52"/><rect x="43.82" y="25.87" width="2.54" height="2.52"/><rect x="41.28" y="13.27" width="2.54" height="2.52"/><rect x="41.28" y="20.83" width="2.54" height="2.52"/><rect x="36.19" y="15.79" width="2.54" height="2.52"/><rect x="36.19" y="25.87" width="2.54" height="2.52"/><rect x="33.64" y="20.83" width="2.54" height="2.52"/><rect x="31.1" y="25.87" width="2.54" height="2.52"/><rect x="28.56" y="20.83" width="2.54" height="2.52"/><rect x="28.56" y="25.87" width="2.54" height="2.52"/><rect x="26.01" y="18.31" width="2.54" height="2.52"/><rect x="26.01" y="23.35" width="2.54" height="2.52"/><rect x="20.92" y="20.83" width="2.54" height="2.52"/><rect x="20.92" y="25.87" width="2.54" height="2.52"/><rect x="18.38" y="23.35" width="2.54" height="2.52"/><rect x="54.57" y="3.23" width="2.52" height="2.54"/><rect x="52.05" y="5.78" width="2.52" height="2.54"/><rect x="52.05" y="8.32" width="2.52" height="2.54"/><rect x="57.09" y="8.32" width="2.52" height="2.54"/><rect x="67.17" y="8.32" width="2.52" height="2.54"/><rect x="62.13" y="10.87" width="2.52" height="2.54"/><rect x="54.57" y="13.41" width="2.52" height="2.54"/><rect x="67.17" y="13.41" width="2.52" height="2.54"/><rect x="54.57" y="15.95" width="2.52" height="2.54"/><rect x="62.13" y="15.95" width="2.52" height="2.54"/><rect x="67.17" y="15.95" width="2.52" height="2.54"/><rect x="57.09" y="18.5" width="2.52" height="2.54"/><rect x="59.61" y="18.5" width="2.52" height="2.54"/><rect x="64.65" y="18.5" width="2.52" height="2.54"/><rect x="52.05" y="21.04" width="2.52" height="2.54"/><rect x="54.57" y="21.04" width="2.52" height="2.54"/><rect x="59.61" y="21.04" width="2.52" height="2.54"/><rect x="57.09" y="23.59" width="2.52" height="2.54"/><rect x="62.13" y="23.59" width="2.52" height="2.54"/><rect x="67.17" y="23.59" width="2.52" height="2.54"/><rect x="59.61" y="26.13" width="2.52" height="2.54"/><rect x="64.65" y="26.13" width="2.52" height="2.54"/><rect x="75.99" y="13.25" width="2.52" height="2.54"/><rect x="75.99" y="15.79" width="2.52" height="2.54"/><rect x="78.51" y="18.34" width="2.52" height="2.54"/><rect x="81.03" y="18.34" width="2.52" height="2.54"/><rect x="73.47" y="20.88" width="2.52" height="2.54"/><rect x="75.99" y="20.88" width="2.52" height="2.54"/><rect x="81.03" y="20.88" width="2.52" height="2.54"/><rect x="78.51" y="23.42" width="2.52" height="2.54"/><rect x="83.55" y="23.42" width="2.52" height="2.54"/><rect x="88.59" y="23.42" width="2.52" height="2.54"/><rect x="81.03" y="25.97" width="2.52" height="2.54"/><rect x="86.07" y="25.97" width="2.52" height="2.54"/></g></g></svg>