<svg id="Layer_1" data-name="Layer 1" xmlns="http://www.w3.org/2000/svg" xmlns:xlink="http://www.w3.org/1999/xlink" viewBox="0 0 100.11 100.11"><defs><style>.cls-1,.cls-2{fill:#fff;}.cls-1,.cls-4{stroke:#000;stroke-miterlimit:10;stroke-width:1.2px;}.cls-3{clip-path:url(#clip-path);}.cls-4{fill:none;}</style><clipPath id="clip-path"><path class="cls-1" d="M98.21,43.33c-.24.67-1,1.8-3.48,1.8H88.94v45.3a5.86,5.86,0,0,1-5.85,5.87H17a5.86,5.86,0,0,1-5.84-5.87V45.13H5.38c-2.47,0-3.24-1.13-3.47-1.8s-.36-2,1.56-3.6L45.73,5.28a6.8,6.8,0,0,1,4.32-1.47,6.88,6.88,0,0,1,4.33,1.48L70.52,18.45V14.14a3.22,3.22,0,0,1,3.22-3.22h7.6a3.22,3.22,0,0,1,3.22,3.22V29.88l12.08,9.85C98.56,41.3,98.44,42.66,98.21,43.33Z"/></clipPath></defs><path class="cls-2" d="M98.21,43.33c-.24.67-1,1.8-3.48,1.8H88.94v45.3a5.86,5.86,0,0,1-5.85,5.87H17a5.86,5.86,0,0,1-5.84-5.87V45.13H5.38c-2.47,0-3.24-1.13-3.47-1.8s-.36-2,1.56-3.6L45.73,5.28a6.8,6.8,0,0,1,4.32-1.47,6.88,6.88,0,0,1,4.33,1.48L70.52,18.45V14.14a3.22,3.22,0,0,1,3.22-3.22h7.6a3.22,3.22,0,0,1,3.22,3.22V29.88l12.08,9.85C98.56,41.3,98.44,42.66,98.21,43.33Z"/><g class="cls-3"><g id="Layer_2" data-name="Layer 2"><g id="Layer_1-2" data-name="Layer 1-2"><rect x="32.3" y="41.49" width="1.48" height="1.49"/><rect x="33.78" y="41.49" width="1.48" height="1.49"/><rect x="35.26" y="41.49" width="1.48" height="1.49"/><rect x="36.74" y="41.49" width="1.48" height="1.49"/><rect x="38.22" y="41.49" width="1.48" height="1.49"/><rect x="39.7" y="41.49" width="1.48" height="1.49"/><rect x="41.18" y="41.49" width="1.48" height="1.49"/><rect x="44.15" y="41.49" width="1.48" height="1.49"/><rect x="45.63" y="41.49" width="1.48" height="1.49"/><rect x="47.11" y="41.49" width="1.48" height="1.49"/><rect x="48.59" y="41.49" width="1.48" height="1.49"/><rect x="58.95" y="41.49" width="1.48" height="1.49"/><rect x="60.43" y="41.49" width="1.48" height="1.49"/><rect x="61.92" y="41.49" width="1.48" height="1.49"/><rect x="63.39" y="41.49" width="1.48" height="1.49"/><rect x="64.87" y="41.49" width="1.48" height="1.49"/><rect x="66.35" y="41.49" width="1.48" height="1.49"/><rect x="67.83" y="41.49" width="1.48" height="1.49"/><rect x="32.3" y="42.98" width="1.48" height="1.49"/><rect x="41.18" y="42.98" width="1.48" height="1.49"/><rect x="48.59" y="42.98" width="1.48" height="1.49"/><rect x="50.07" y="42.98" width="1.48" height="1.49"/><rect x="51.55" y="42.98" width="1.48" height="1.49"/><rect x="53.03" y="42.98" width="1.48" height="1.49"/><rect x="55.99" y="42.98" width="1.48" height="1.49"/><rect x="58.95" y="42.98" width="1.48" height="1.49"/><rect x="67.83" y="42.98" width="1.48" height="1.49"/><rect x="32.3" y="44.48" width="1.48" height="1.49"/><rect x="35.26" y="44.48" width="1.48" height="1.49"/><rect x="36.74" y="44.48" width="1.48" height="1.49"/><rect x="38.22" y="44.48" width="1.48" height="1.49"/><rect x="41.18" y="44.48" width="1.48" height="1.49"/><rect x="45.63" y="44.48" width="1.48" height="1.49"/><rect x="48.59" y="44.48" width="1.48" height="1.49"/><rect x="51.55" y="44.48" width="1.48" height="1.49"/><rect x="54.51" y="44.48" width="1.48" height="1.49"/><rect x="55.99" y="44.48" width="1.48" height="1.49"/><rect x="58.95" y="44.48" width="1.48" height="1.49"/><rect x="61.92" y="44.48" width="1.48" height="1.49"/><rect x="63.39" y="44.48" width="1.48" height="1.49"/><rect x="64.87" y="44.48" width="1.48" height="1.49"/><rect x="67.83" y="44.48" width="1.48" height="1.49"/><rect x="32.3" y="45.97" width="1.48" height="1.49"/><rect x="35.26" y="45.97" width="1.48" height="1.49"/><rect x="36.74" y="45.97" width="1.48" height="1.49"/><rect x="38.22" y="45.97" width="1.48" height="1.49"/><rect x="41.18" y="45.97" width="1.48" height="1.49"/><rect x="47.11" y="45.97" width="1.48" height="1.49"/><rect x="55.99" y="45.97" width="1.48" height="1.49"/><rect x="58.95" y="45.97" width="1.48" height="1.49"/><rect x="61.92" y="45.97" width="1.48" height="1.49"/><rect x="63.39" y="45.97" width="1.48" height="1.49"/><rect x="64.87" y="45.97" width="1.48" height="1.49"/><rect x="67.83" y="45.97" width="1.48" height="1.49"/><rect x="32.3" y="47.46" width="1.48" height="1.49"/><rect x="35.26" y="47.46" width="1.48" height="1.49"/><rect x="36.74" y="47.46" width="1.48" height="1.49"/><rect x="38.22" y="47.46" width="1.48" height="1.49"/><rect x="41.18" y="47.46" width="1.48" height="1.49"/><rect x="47.11" y="47.46" width="1.48" height="1.49"/><rect x="48.59" y="47.46" width="1.48" height="1.49"/><rect x="50.07" y="47.46" width="1.48" height="1.49"/><rect x="53.03" y="47.46" width="1.48" height="1.49"/><rect x="55.99" y="47.46" width="1.48" height="1.49"/><rect x="58.95" y="47.46" width="1.48" height="1.49"/><rect x="61.92" y="47.46" width="1.48" height="1.49"/><rect x="63.39" y="47.46" width="1.48" height="1.49"/><rect x="64.87" y="47.46" width="1.48" height="1.49"/><rect x="67.83" y="47.46" width="1.48" height="1.49"/><rect x="32.3" y="48.96" width="1.48" height="1.49"/><rect x="41.18" y="48.96" width="1.48" height="1.49"/><rect x="45.63" y="48.96" width="1.48" height="1.49"/><rect x="48.59" y="48.96" width="1.48" height="1.49"/><rect x="55.99" y="48.96" width="1.48" height="1.49"/><rect x="58.95" y="48.96" width="1.48" height="1.49"/><rect x="67.83" y="48.96" width="1.48" height="1.49"/><rect x="32.3" y="50.45" width="1.48" height="1.49"/><rect x="33.78" y="50.45" width="1.48" height="1.49"/><rect x="35.26" y="50.45" width="1.48" height="1.49"/><rect x="36.74" y="50.45" width="1.48" height="1.49"/><rect x="38.22" y="50.45" width="1.48" height="1.49"/><rect x="39.7" y="50.45" width="1.48" height="1.49"/><rect x="41.18" y="50.45" width="1.48" height="1.49"/><rect x="44.15" y="50.45" width="1.48" height="1.49"/><rect x="47.11" y="50.45" width="1.48" height="1.49"/><rect x="53.03" y="50.45" width="1.48" height="1.49"/><rect x="55.99" y="50.45" width="1.48" height="1.49"/><rect x="58.95" y="50.45" width="1.48" height="1.49"/><rect x="60.43" y="50.45" width="1.48" height="1.49"/><rect x="61.92" y="50.45" width="1.48" height="1.49"/><rect x="63.39" y="50.45" width="1.48" height="1.49"/><rect x="64.87" y="50.45" width="1.48" height="1.49"/><rect x="66.35" y="50.45" width="1.48" height="1.49"/><rect x="67.83" y="50.45" width="1.48" height="1.49"/><rect x="44.15" y="51.95" width="1.48" height="1.49"/><rect x="45.63" y="51.95" width="1.48" height="1.49"/><rect x="50.07" y="51.95" width="1.48" height="1.49"/><rect x="51.55" y="51.95" width="1.48" height="1.49"/><rect x="32.3" y="53.45" width="1.48" height="1.49"/><rect x="38.22" y="53.45" width="1.48" height="1.49"/><rect x="41.18" y="53.45" width="1.48" height="1.49"/><rect x="45.63" y="53.45" width="1.48" height="1.49"/><rect x="50.07" y="53.45" width="1.48" height="1.49"/><rect x="54.51" y="53.45" width="1.48" height="1.49"/><rect x="58.95" y="53.45" width="1.48" height="1.49"/><rect x="67.83" y="53.45" width="1.48" height="1.49"/><rect x="32.3" y="54.94" width="1.48" height="1.49"/><rect x="33.78" y="54.94" width="1.48" height="1.49"/><rect x="35.26" y="54.94" width="1.48" height="1.49"/><rect x="38.22" y="54.94" width="1.48" height="1.49"/><rect x="39.7" y="54.94" width="1.48" height="1.49"/><rect x="42.66" y="54.94" width="1.48" height="1.49"/><rect x="47.11" y="54.94" width="1.48" height="1.49"/><rect x="51.55" y="54.94" width="1.48" height="1.49"/><rect x="53.03" y="54.94" width="1.48" height="1.49"/><rect x="54.51" y="54.94" width="1.48" height="1.49"/><rect x="57.47" y="54.94" width="1.48" height="1.49"/><rect x="60.43" y="54.94" width="1.48" height="1.49"/><rect x="61.92" y="54.94" width="1.48" height="1.49"/><rect x="63.39" y="54.94" width="1.48" height="1.49"/><rect x="64.87" y="54.94" width="1.48" height="1.49"/><rect x="66.35" y="54.94" width="1.48" height="1.49"/><rect x="32.3" y="56.44" width="1.48" height="1.49"/><rect x="38.22" y="56.44" width="1.48" height="1.49"/><rect x="41.18" y="56.44" width="1.48" height="1.49"/><rect x="42.66" y="56.44" width="1.48" height="1.49"/><rect x="45.63" y="56.44" width="1.48" height="1.49"/><rect x="50.07" y="56.44" width="1.48" height="1.49"/><rect x="54.51" y="56.44" width="1.48" height="1.49"/><rect x="55.99" y="56.44" width="1.48" height="1.49"/><rect x="60.43" y="56.44" width="1.48" height="1.49"/><rect x="63.39" y="56.44" width="1.48" height="1.49"/><rect x="67.83" y="56.44" width="1.48" height="1.49"/><rect x="32.3" y="57.93" width="1.48" height="1.49"/><rect x="33.78" y="57.93" width="1.48" height="1.49"/><rect x="42.66" y="57.93" width="1.48" height="1.49"/><rect x="44.15" y="57.93" width="1.48" height="1.49"/><rect x="60.43" y="57.93" width="1.48" height="1.49"/><rect x="64.87" y="57.93" width="1.48" height="1.49"/><rect x="66.35" y="57.93" width="1.48" height="1.49"/><rect x="67.83" y="57.93" width="1.48" height="1.49"/><rect x="35.26" y="59.43" width="1.48" height="1.49"/><rect x="41.18" y="59.43" width="1.48" height="1.49"/><rect x="44.15" y="59.43" width="1.48" height="1.49"/><rect x="47.11" y="59.43" width="1.48" height="1.49"/><rect x="53.03" y="59.43" width="1.48" height="1.49"/><rect x="54.51" y="59.43" width="1.48" height="1.49"/><rect x="58.95" y="59.43" width="1.48" height="1.49"/><rect x="67.83" y="59.43" width="1.48" height="1.49"/><rect x="32.3" y="60.92" width="1.48" height="1.49"/><rect x="35.26" y="60.92" width="1.48" height="1.49"/><rect x="39.7" y="60.92" width="1.48" height="1.49"/><rect x="42.66" y="60.92" width="1.48" height="1.49"/><rect x="50.07" y="60.92" width="1.48" height="1.49"/><rect x="54.51" y="60.92" width="1.48" height="1.49"/><rect x="55.99" y="60.92" width="1.48" height="1.49"/><rect x="57.47" y="60.92" width="1.48" height="1.49"/><rect x="61.92" y="60.92" width="1.48" height="1.49"/><rect x="66.35" y="60.92" width="1.48" height="1.49"/><rect x="32.3" y="62.41" width="1.48" height="1.49"/><rect x="33.78" y="62.41" width="1.48" height="1.49"/><rect x="36.74" y="62.41" width="1.48" height="1.49"/><rect x="41.18" y="62.41" width="1.48" height="1.49"/><rect x="42.66" y="62.41" width="1.48" height="1.49"/><rect x="45.63" y="62.41" width="1.48" height="1.49"/><rect x="53.03" y="62.41" width="1.48" height="1.49"/><rect x="54.51" y="62.41" width="1.48" height="1.49"/><rect x="61.92" y="62.41" width="1.48" height="1.49"/><rect x="63.39" y="62.41" width="1.48" height="1.49"/><rect x="64.87" y="62.41" width="1.48" height="1.49"/><rect x="66.35" y="62.41" width="1.48" height="1.49"/><rect x="67.83" y="62.41" width="1.48" height="1.49"/><rect x="32.3" y="63.91" width="1.48" height="1.49"/><rect x="39.7" y="63.91" width="1.48" height="1.49"/><rect x="45.63" y="63.91" width="1.48" height="1.49"/><rect x="50.07" y="63.91" width="1.48" height="1.49"/><rect x="53.03" y="63.91" width="1.48" height="1.49"/><rect x="55.99" y="63.91" width="1.48" height="1.49"/><rect x="60.43" y="63.91" width="1.48" height="1.49"/><rect x="63.39" y="63.91" width="1.48" height="1.49"/><rect x="64.87" y="63.91" width="1.48" height="1.49"/><rect x="67.83" y="63.91" width="1.48" height="1.49"/><rect x="32.3" y="65.4" width="1.48" height="1.49"/><rect x="35.26" y="65.4" width="1.48" height="1.49"/><rect x="36.74" y="65.4" width="1.48" height="1.49"/><rect x="38.22" y="65.4" width="1.48" height="1.49"/><rect x="41.18" y="65.4" width="1.48" height="1.49"/><rect x="42.66" y="65.4" width="1.48" height="1.49"/><rect x="47.11" y="65.4" width="1.48" height="1.49"/><rect x="48.59" y="65.4" width="1.48" height="1.49"/><rect x="51.55" y="65.4" width="1.48" height="1.49"/><rect x="54.51" y="65.4" width="1.48" height="1.49"/><rect x="55.99" y="65.4" width="1.48" height="1.49"/><rect x="57.47" y="65.4" width="1.48" height="1.49"/><rect x="58.95" y="65.4" width="1.48" height="1.49"/><rect x="61.92" y="65.4" width="1.48" height="1.49"/><rect x="64.87" y="65.4" width="1.48" height="1.49"/><rect x="66.35" y="65.4" width="1.48" height="1.49"/><rect x="44.15" y="66.9" width="1.48" height="1.49"/><rect x="45.63" y="66.9" width="1.48" height="1.49"/><rect x="48.59" y="66.9" width="1.48" height="1.49"/><rect x="55.99" y="66.9" width="1.48" height="1.49"/><rect x="61.92" y="66.9" width="1.48" height="1.49"/><rect x="64.87" y="66.9" width="1.48" height="1.49"/><rect x="66.35" y="66.9" width="1.48" height="1.49"/><rect x="32.3" y="68.39" width="1.48" height="1.49"/><rect x="33.78" y="68.39" width="1.48" height="1.49"/><rect x="35.26" y="68.39" width="1.48" height="1.49"/><rect x="36.74" y="68.39" width="1.48" height="1.49"/><rect x="38.22" y="68.39" width="1.48" height="1.49"/><rect x="39.7" y="68.39" width="1.48" height="1.49"/><rect x="41.18" y="68.39" width="1.48" height="1.49"/><rect x="47.11" y="68.39" width="1.48" height="1.49"/><rect x="50.07" y="68.39" width="1.48" height="1.49"/><rect x="53.03" y="68.39" width="1.48" height="1.49"/><rect x="55.99" y="68.39" width="1.48" height="1.49"/><rect x="58.95" y="68.39" width="1.48" height="1.49"/><rect x="61.92" y="68.39" width="1.48" height="1.49"/><rect x="67.83" y="68.39" width="1.48" height="1.49"/><rect x="32.3" y="69.89" width="1.48" height="1.49"/><rect x="41.18" y="69.89" width="1.48" height="1.49"/><rect x="48.59" y="69.89" width="1.48" height="1.49"/><rect x="51.55" y="69.89" width="1.48" height="1.49"/><rect x="54.51" y="69.89" width="1.48" height="1.49"/><rect x="55.99" y="69.89" width="1.48" height="1.49"/><rect x="61.92" y="69.89" width="1.48" height="1.49"/><rect x="67.83" y="69.89" width="1.48" height="1.49"/><rect x="32.3" y="71.39" width="1.48" height="1.49"/><rect x="35.26" y="71.39" width="1.48" height="1.49"/><rect x="36.74" y="71.39" width="1.48" height="1.49"/><rect x="38.22" y="71.39" width="1.48" height="1.49"/><rect x="41.18" y="71.39" width="1.48" height="1.49"/><rect x="44.15" y="71.39" width="1.48" height="1.49"/><rect x="47.11" y="71.39" width="1.48" height="1.49"/><rect x="48.59" y="71.39" width="1.48" height="1.49"/><rect x="50.07" y="71.39" width="1.48" height="1.49"/><rect x="53.03" y="71.39" width="1.48" height="1.49"/><rect x="55.99" y="71.39" width="1.48" height="1.49"/><rect x="57.47" y="71.39" width="1.48" height="1.49"/><rect x="58.95" y="71.39" width="1.48" height="1.49"/><rect x="60.43" y="71.39" width="1.48" height="1.49"/><rect x="61.92" y="71.39" width="1.48" height="1.49"/><rect x="32.3" y="72.88" width="1.48" height="1.49"/><rect x="35.26" y="72.88" width="1.48" height="1.49"/><rect x="36.74" y="72.88" width="1.48" height="1.49"/><rect x="38.22" y="72.88" width="1.48" height="1.49"/><rect x="41.18" y="72.88" width="1.48" height="1.49"/><rect x="44.15" y="72.88" width="1.48" height="1.49"/><rect x="45.63" y="72.88" width="1.48" height="1.49"/><rect x="50.07" y="72.88" width="1.48" height="1.49"/><rect x="53.03" y="72.88" width="1.48" height="1.49"/><rect x="58.95" y="72.88" width="1.48" height="1.49"/><rect x="66.35" y="72.88" width="1.48" height="1.49"/><rect x="67.83" y="72.88" width="1.48" height="1.49"/><rect x="32.3" y="74.38" width="1.48" height="1.49"/><rect x="35.26" y="74.38" width="1.48" height="1.49"/><rect x="36.74" y="74.38" width="1.48" height="1.49"/><rect x="38.22" y="74.38" width="1.48" height="1.49"/><rect x="41.18" y="74.38" width="1.48" height="1.49"/><rect x="45.63" y="74.38" width="1.48" height="1.49"/><rect x="48.59" y="74.38" width="1.48" height="1.49"/><rect x="51.55" y="74.38" width="1.48" height="1.49"/><rect x="54.51" y="74.38" width="1.48" height="1.49"/><rect x="57.47" y="74.38" width="1.48" height="1.49"/><rect x="61.92" y="74.38" width="1.48" height="1.49"/><rect x="64.87" y="74.38" width="1.48" height="1.49"/><rect x="66.35" y="74.38" width="1.48" height="1.49"/><rect x="67.83" y="74.38" width="1.48" height="1.49"/><rect x="32.3" y="75.87" width="1.48" height="1.49"/><rect x="41.18" y="75.87" width="1.48" height="1.49"/><rect x="44.15" y="75.87" width="1.48" height="1.49"/><rect x="47.11" y="75.87" width="1.48" height="1.49"/><rect x="48.59" y="75.87" width="1.48" height="1.49"/><rect x="53.03" y="75.87" width="1.48" height="1.49"/><rect x="54.51" y="75.87" width="1.48" height="1.49"/><rect x="61.92" y="75.87" width="1.48" height="1.49"/><rect x="64.87" y="75.87" width="1.48" height="1.49"/><rect x="66.35" y="75.87" width="1.48" height="1.49"/><rect x="67.83" y="75.87" width="1.48" height="1.49"/><rect x="32.3" y="77.37" width="1.48" height="1.49"/><rect x="33.78" y="77.37" width="1.48" height="1.49"/><rect x="35.26" y="77.37" width="1.48" height="1.49"/><rect x="36.74" y="77.37" width="1.48" height="1.49"/><rect x="38.22" y="77.37" width="1.48" height="1.49"/><rect x="39.7" y="77.37" width="1.48" height="1.49"/><rect x="41.18" y="77.37" width="1.48" height="1.49"/><rect x="44.15" y="77.37" width="1.48" height="1.49"/><rect x="50.07" y="77.37" width="1.48" height="1.49"/><rect x="57.47" y="77.37" width="1.48" height="1.49"/><rect x="63.39" y="77.37" width="1.48" height="1.49"/><rect x="67.83" y="77.37" width="1.48" height="1.49"/><rect x="72.15" y="42.52" width="1.48" height="1.49"/><rect x="76.59" y="42.52" width="1.48" height="1.49"/><rect x="73.63" y="44.02" width="1.48" height="1.49"/><rect x="78.08" y="44.02" width="1.48" height="1.49"/><rect x="79.56" y="44.02" width="1.48" height="1.49"/><rect x="72.15" y="45.51" width="1.48" height="1.49"/><rect x="76.59" y="45.51" width="1.48" height="1.49"/><rect x="70.67" y="47.01" width="1.48" height="1.49"/><rect x="70.67" y="48.5" width="1.48" height="1.49"/><rect x="73.63" y="48.5" width="1.48" height="1.49"/><rect x="79.56" y="48.5" width="1.48" height="1.49"/><rect x="76.59" y="50" width="1.48" height="1.49"/><rect x="72.15" y="51.49" width="1.48" height="1.49"/><rect x="79.56" y="51.49" width="1.48" height="1.49"/><rect x="72.15" y="52.99" width="1.48" height="1.49"/><rect x="76.59" y="52.99" width="1.48" height="1.49"/><rect x="79.56" y="52.99" width="1.48" height="1.49"/><rect x="73.63" y="54.49" width="1.48" height="1.49"/><rect x="75.11" y="54.49" width="1.48" height="1.49"/><rect x="78.08" y="54.49" width="1.48" height="1.49"/><rect x="70.67" y="55.98" width="1.48" height="1.49"/><rect x="72.15" y="55.98" width="1.48" height="1.49"/><rect x="75.11" y="55.98" width="1.48" height="1.49"/><rect x="73.63" y="57.48" width="1.48" height="1.49"/><rect x="76.59" y="57.48" width="1.48" height="1.49"/><rect x="83.08" y="57.48" width="1.48" height="1.49"/><rect x="75.11" y="58.97" width="1.48" height="1.49"/><rect x="81.6" y="58.97" width="1.48" height="1.49"/><rect x="71.92" y="61.1" width="1.48" height="1.49"/><rect x="76.37" y="61.1" width="1.48" height="1.49"/><rect x="73.4" y="62.59" width="1.48" height="1.49"/><rect x="77.85" y="62.59" width="1.48" height="1.49"/><rect x="79.33" y="62.59" width="1.48" height="1.49"/><rect x="71.92" y="64.09" width="1.48" height="1.49"/><rect x="76.37" y="64.09" width="1.48" height="1.49"/><rect x="70.44" y="65.59" width="1.48" height="1.49"/><rect x="70.44" y="67.08" width="1.48" height="1.49"/><rect x="73.4" y="67.08" width="1.48" height="1.49"/><rect x="81.09" y="67.08" width="1.48" height="1.49"/><rect x="76.37" y="68.58" width="1.48" height="1.49"/><rect x="71.92" y="70.07" width="1.48" height="1.49"/><rect x="79.33" y="70.07" width="1.48" height="1.49"/><rect x="71.92" y="71.57" width="1.48" height="1.49"/><rect x="76.37" y="71.57" width="1.48" height="1.49"/><rect x="79.33" y="71.57" width="1.48" height="1.49"/><rect x="73.4" y="73.06" width="1.48" height="1.49"/><rect x="74.88" y="73.06" width="1.48" height="1.49"/><rect x="77.85" y="73.06" width="1.48" height="1.49"/><rect x="70.44" y="74.55" width="1.48" height="1.49"/><rect x="71.92" y="74.55" width="1.48" height="1.49"/><rect x="74.88" y="74.55" width="1.48" height="1.49"/><rect x="73.4" y="76.05" width="1.48" height="1.49"/><rect x="76.37" y="76.05" width="1.48" height="1.49"/><rect x="79.33" y="76.05" width="1.48" height="1.49"/><rect x="74.88" y="77.54" width="1.48" height="1.49"/><rect x="77.85" y="77.54" width="1.48" height="1.49"/><rect x="21.57" y="42.3" width="1.48" height="1.49"/><rect x="26.02" y="42.3" width="1.48" height="1.49"/><rect x="23.05" y="43.79" width="1.48" height="1.49"/><rect x="27.5" y="43.79" width="1.48" height="1.49"/><rect x="28.98" y="43.79" width="1.48" height="1.49"/><rect x="21.57" y="45.29" width="1.48" height="1.49"/><rect x="26.02" y="45.29" width="1.48" height="1.49"/><rect x="20.1" y="46.78" width="1.48" height="1.49"/><rect x="20.1" y="48.27" width="1.48" height="1.49"/><rect x="23.05" y="48.27" width="1.48" height="1.49"/><rect x="28.98" y="48.27" width="1.48" height="1.49"/><rect x="26.02" y="49.77" width="1.48" height="1.49"/><rect x="21.57" y="51.27" width="1.48" height="1.49"/><rect x="28.98" y="51.27" width="1.48" height="1.49"/><rect x="19.22" y="52.76" width="1.48" height="1.49"/><rect x="26.02" y="52.76" width="1.48" height="1.49"/><rect x="28.98" y="52.76" width="1.48" height="1.49"/><rect x="23.05" y="54.26" width="1.48" height="1.49"/><rect x="24.54" y="54.26" width="1.48" height="1.49"/><rect x="27.5" y="54.26" width="1.48" height="1.49"/><rect x="19.22" y="55.75" width="1.48" height="1.49"/><rect x="24.54" y="55.75" width="1.48" height="1.49"/><rect x="23.05" y="57.25" width="1.48" height="1.49"/><rect x="26.02" y="57.25" width="1.48" height="1.49"/><rect x="28.98" y="57.25" width="1.48" height="1.49"/><rect x="24.54" y="58.74" width="1.48" height="1.49"/><rect x="27.5" y="58.74" width="1.48" height="1.49"/><rect x="19.22" y="61.18" width="1.48" height="1.49"/><rect x="26.02" y="61.18" width="1.48" height="1.49"/><rect x="23.05" y="62.67" width="1.48" height="1.49"/><rect x="27.5" y="62.67" width="1.48" height="1.49"/><rect x="28.98" y="62.67" width="1.48" height="1.49"/><rect x="21.57" y="64.16" width="1.48" height="1.49"/><rect x="26.02" y="64.16" width="1.48" height="1.49"/><rect x="20.1" y="65.66" width="1.48" height="1.49"/><rect x="20.1" y="67.15" width="1.48" height="1.49"/><rect x="23.05" y="67.15" width="1.48" height="1.49"/><rect x="28.98" y="67.15" width="1.48" height="1.49"/><rect x="26.02" y="68.65" width="1.48" height="1.49"/><rect x="21.57" y="70.15" width="1.48" height="1.49"/><rect x="28.98" y="70.15" width="1.48" height="1.49"/><rect x="21.57" y="71.64" width="1.48" height="1.49"/><rect x="26.02" y="71.64" width="1.48" height="1.49"/><rect x="28.98" y="71.64" width="1.48" height="1.49"/><rect x="23.05" y="73.14" width="1.48" height="1.49"/><rect x="24.54" y="73.14" width="1.48" height="1.49"/><rect x="27.5" y="73.14" width="1.48" height="1.49"/><rect x="20.1" y="74.63" width="1.48" height="1.49"/><rect x="21.57" y="74.63" width="1.48" height="1.49"/><rect x="24.54" y="74.63" width="1.48" height="1.49"/><rect x="23.05" y="76.13" width="1.48" height="1.49"/><rect x="26.02" y="76.13" width="1.48" height="1.49"/><rect x="28.98" y="76.13" width="1.48" height="1.49"/><rect x="24.54" y="77.62" width="1.48" height="1.49"/><rect x="27.5" y="77.62" width="1.48" height="1.49"/><rect x="32.8" y="80.36" width="1.48" height="1.49"/><rect x="37.24" y="80.36" width="1.48" height="1.49"/><rect x="34.28" y="81.86" width="1.48" height="1.49"/><rect x="38.72" y="81.86" width="1.48" height="1.49"/><rect x="40.2" y="81.86" width="1.48" height="1.49"/><rect x="32.8" y="83.35" width="1.48" height="1.49"/><rect x="37.24" y="83.35" width="1.48" height="1.49"/><rect x="44.32" y="81.27" width="1.48" height="1.49"/><rect x="48.76" y="81.27" width="1.48" height="1.49"/><rect x="45.8" y="82.76" width="1.48" height="1.49"/><rect x="50.24" y="82.76" width="1.48" height="1.49"/><rect x="51.73" y="82.76" width="1.48" height="1.49"/><rect x="44.32" y="84.26" width="1.48" height="1.49"/><rect x="48.76" y="84.26" width="1.48" height="1.49"/><rect x="56.91" y="80.74" width="1.48" height="1.49"/><rect x="61.35" y="80.74" width="1.48" height="1.49"/><rect x="58.39" y="82.23" width="1.48" height="1.49"/><rect x="62.83" y="82.23" width="1.48" height="1.49"/><rect x="64.31" y="82.23" width="1.48" height="1.49"/><rect x="56.91" y="83.73" width="1.48" height="1.49"/><rect x="61.35" y="83.73" width="1.48" height="1.49"/><rect x="69.25" y="80.74" width="1.48" height="1.49"/><rect x="73.69" y="80.74" width="1.48" height="1.49"/><rect x="70.73" y="82.23" width="1.48" height="1.49"/><rect x="75.17" y="82.23" width="1.48" height="1.49"/><rect x="76.65" y="82.23" width="1.48" height="1.49"/><rect x="69.25" y="83.73" width="1.48" height="1.49"/><rect x="73.69" y="83.73" width="1.48" height="1.49"/><rect x="85.08" y="42.52" width="1.48" height="1.49"/><rect x="89.52" y="42.52" width="1.48" height="1.49"/><rect x="86.56" y="44.02" width="1.48" height="1.49"/><rect x="91" y="44.02" width="1.48" height="1.49"/><rect x="92.48" y="44.02" width="1.48" height="1.49"/><rect x="85.08" y="45.51" width="1.48" height="1.49"/><rect x="89.52" y="45.51" width="1.48" height="1.49"/><rect x="83.6" y="47.01" width="1.48" height="1.49"/><rect x="83.6" y="48.5" width="1.48" height="1.49"/><rect x="86.56" y="48.5" width="1.48" height="1.49"/><rect x="92.48" y="48.5" width="1.48" height="1.49"/><rect x="89.52" y="50" width="1.48" height="1.49"/><rect x="85.08" y="51.49" width="1.48" height="1.49"/><rect x="92.48" y="51.49" width="1.48" height="1.49"/><rect x="85.08" y="52.99" width="1.48" height="1.49"/><rect x="89.52" y="52.99" width="1.48" height="1.49"/><rect x="92.48" y="52.99" width="1.48" height="1.49"/><rect x="86.56" y="54.49" width="1.48" height="1.49"/><rect x="88.04" y="54.49" width="1.48" height="1.49"/><rect x="91" y="54.49" width="1.48" height="1.49"/><rect x="83.6" y="55.98" width="1.48" height="1.49"/><rect x="85.08" y="55.98" width="1.48" height="1.49"/><rect x="88.04" y="55.98" width="1.48" height="1.49"/><rect x="86.56" y="57.48" width="1.48" height="1.49"/><rect x="89.52" y="57.48" width="1.48" height="1.49"/><rect x="96.01" y="57.48" width="1.48" height="1.49"/><rect x="88.04" y="58.97" width="1.48" height="1.49"/><rect x="94.53" y="58.97" width="1.48" height="1.49"/><rect x="84.85" y="61.1" width="1.48" height="1.49"/><rect x="89.29" y="61.1" width="1.48" height="1.49"/><rect x="86.33" y="62.59" width="1.48" height="1.49"/><rect x="90.77" y="62.59" width="1.48" height="1.49"/><rect x="92.25" y="62.59" width="1.48" height="1.49"/><rect x="84.85" y="64.09" width="1.48" height="1.49"/><rect x="89.29" y="64.09" width="1.48" height="1.49"/><rect x="83.37" y="65.59" width="1.48" height="1.49"/><rect x="83.37" y="67.08" width="1.48" height="1.49"/><rect x="86.33" y="67.08" width="1.48" height="1.49"/><rect x="94.02" y="67.08" width="1.48" height="1.49"/><rect x="89.29" y="68.58" width="1.48" height="1.49"/><rect x="84.85" y="70.07" width="1.48" height="1.49"/><rect x="92.25" y="70.07" width="1.48" height="1.49"/><rect x="84.85" y="71.57" width="1.48" height="1.49"/><rect x="89.29" y="71.57" width="1.48" height="1.49"/><rect x="92.25" y="71.57" width="1.48" height="1.49"/><rect x="86.33" y="73.06" width="1.48" height="1.49"/><rect x="87.81" y="73.06" width="1.48" height="1.49"/><rect x="90.77" y="73.06" width="1.48" height="1.49"/><rect x="83.37" y="74.55" width="1.48" height="1.49"/><rect x="84.85" y="74.55" width="1.48" height="1.49"/><rect x="87.81" y="74.55" width="1.48" height="1.49"/><rect x="86.33" y="76.05" width="1.48" height="1.49"/><rect x="89.29" y="76.05" width="1.48" height="1.49"/><rect x="92.25" y="76.05" width="1.48" height="1.49"/><rect x="87.81" y="77.54" width="1.48" height="1.49"/><rect x="90.77" y="77.54" width="1.48" height="1.49"/><rect x="86.62" y="80.74" width="1.48" height="1.49"/><rect x="83.66" y="82.23" width="1.48" height="1.49"/><rect x="88.1" y="82.23" width="1.48" height="1.49"/><rect x="89.58" y="82.23" width="1.48" height="1.49"/><rect x="86.62" y="83.73" width="1.48" height="1.49"/><rect x="97.42" y="42.52" width="1.48" height="1.49"/><rect x="98.9" y="44.02" width="1.48" height="1.49"/><rect x="97.42" y="45.51" width="1.48" height="1.49"/><rect x="95.94" y="47.01" width="1.48" height="1.49"/><rect x="95.94" y="48.5" width="1.48" height="1.49"/><rect x="98.9" y="48.5" width="1.48" height="1.49"/><rect x="97.42" y="51.49" width="1.48" height="1.49"/><rect x="97.42" y="52.99" width="1.48" height="1.49"/><rect x="98.9" y="54.49" width="1.48" height="1.49"/><rect x="95.94" y="55.98" width="1.48" height="1.49"/><rect x="97.42" y="55.98" width="1.48" height="1.49"/><rect x="98.9" y="57.48" width="1.48" height="1.49"/><rect x="97.19" y="61.1" width="1.48" height="1.49"/><rect x="98.67" y="62.59" width="1.48" height="1.49"/><rect x="97.19" y="64.09" width="1.48" height="1.49"/><rect x="95.71" y="65.59" width="1.48" height="1.49"/><rect x="95.71" y="67.08" width="1.48" height="1.49"/><rect x="98.67" y="67.08" width="1.48" height="1.49"/><rect x="97.19" y="70.07" width="1.48" height="1.49"/><rect x="97.19" y="71.57" width="1.48" height="1.49"/><rect x="98.67" y="73.06" width="1.48" height="1.49"/><rect x="95.71" y="74.55" width="1.48" height="1.49"/><rect x="97.19" y="74.55" width="1.48" height="1.49"/><rect x="98.67" y="76.05" width="1.48" height="1.49"/><rect x="98.96" y="80.74" width="1.48" height="1.49"/><rect x="96" y="82.23" width="1.48" height="1.49"/><rect x="98.96" y="83.73" width="1.48" height="1.49"/><rect x="45.11" y="30.05" width="1.49" height="1.48"/><rect x="45.11" y="34.49" width="1.49" height="1.48"/><rect x="43.62" y="31.53" width="1.49" height="1.48"/><rect x="43.62" y="35.97" width="1.49" height="1.48"/><rect x="43.62" y="37.45" width="1.49" height="1.48"/><rect x="42.12" y="30.05" width="1.49" height="1.48"/><rect x="42.12" y="34.49" width="1.49" height="1.48"/><rect x="39.13" y="31.53" width="1.49" height="1.48"/><rect x="39.13" y="37.45" width="1.49" height="1.48"/><rect x="37.64" y="34.49" width="1.49" height="1.48"/><rect x="36.14" y="37.45" width="1.49" height="1.48"/><rect x="34.65" y="34.49" width="1.49" height="1.48"/><rect x="34.65" y="37.45" width="1.49" height="1.48"/><rect x="33.15" y="33.01" width="1.49" height="1.48"/><rect x="39.77" y="26.53" width="1.49" height="1.48"/><rect x="36.78" y="28.01" width="1.49" height="1.48"/><rect x="30.8" y="29.49" width="1.49" height="1.48"/><rect x="40.36" y="24.76" width="1.49" height="1.48"/><rect x="37.37" y="26.24" width="1.49" height="1.48"/><rect x="31.39" y="27.72" width="1.49" height="1.48"/><rect x="33.15" y="35.97" width="1.49" height="1.48"/><rect x="30.17" y="34.49" width="1.49" height="1.48"/><rect x="30.17" y="37.45" width="1.49" height="1.48"/><rect x="28.67" y="35.97" width="1.49" height="1.48"/><rect x="49.93" y="24.15" width="1.48" height="1.49"/><rect x="48.45" y="25.64" width="1.48" height="1.49"/><rect x="48.45" y="27.14" width="1.48" height="1.49"/><rect x="51.41" y="27.14" width="1.48" height="1.49"/><rect x="57.34" y="27.14" width="1.48" height="1.49"/><rect x="54.38" y="28.64" width="1.48" height="1.49"/><rect x="49.93" y="30.13" width="1.48" height="1.49"/><rect x="57.34" y="30.13" width="1.48" height="1.49"/><rect x="49.93" y="31.63" width="1.48" height="1.49"/><rect x="54.38" y="31.63" width="1.48" height="1.49"/><rect x="57.34" y="31.63" width="1.48" height="1.49"/><rect x="51.41" y="33.12" width="1.48" height="1.49"/><rect x="52.9" y="33.12" width="1.48" height="1.49"/><rect x="55.86" y="33.12" width="1.48" height="1.49"/><rect x="48.45" y="34.62" width="1.48" height="1.49"/><rect x="49.93" y="34.62" width="1.48" height="1.49"/><rect x="52.9" y="34.62" width="1.48" height="1.49"/><rect x="51.41" y="36.11" width="1.48" height="1.49"/><rect x="54.38" y="36.11" width="1.48" height="1.49"/><rect x="57.34" y="36.11" width="1.48" height="1.49"/><rect x="52.9" y="37.61" width="1.48" height="1.49"/><rect x="55.86" y="37.61" width="1.48" height="1.49"/><rect x="62.52" y="30.03" width="1.48" height="1.49"/><rect x="62.52" y="31.53" width="1.48" height="1.49"/><rect x="64" y="33.02" width="1.48" height="1.49"/><rect x="65.48" y="33.02" width="1.48" height="1.49"/><rect x="61.04" y="34.52" width="1.48" height="1.49"/><rect x="62.52" y="34.52" width="1.48" height="1.49"/><rect x="65.48" y="34.52" width="1.48" height="1.49"/><rect x="64" y="36.02" width="1.48" height="1.49"/><rect x="66.96" y="36.02" width="1.48" height="1.49"/><rect x="69.92" y="36.02" width="1.48" height="1.49"/><rect x="73.33" y="24.3" width="1.48" height="1.49"/><rect x="77.77" y="24.3" width="1.48" height="1.49"/><rect x="74.81" y="25.8" width="1.48" height="1.49"/><rect x="79.25" y="25.8" width="1.48" height="1.49"/><rect x="80.73" y="25.8" width="1.48" height="1.49"/><rect x="73.33" y="27.3" width="1.48" height="1.49"/><rect x="77.77" y="27.3" width="1.48" height="1.49"/><rect x="71.85" y="28.79" width="1.48" height="1.49"/><rect x="71.85" y="30.29" width="1.48" height="1.49"/><rect x="74.81" y="30.29" width="1.48" height="1.49"/><rect x="67.45" y="24.3" width="1.48" height="1.49"/><rect x="68.93" y="25.8" width="1.48" height="1.49"/><rect x="67.45" y="27.3" width="1.48" height="1.49"/><rect x="65.97" y="28.79" width="1.48" height="1.49"/><rect x="65.97" y="30.29" width="1.48" height="1.49"/><rect x="68.93" y="30.29" width="1.48" height="1.49"/><rect x="80.73" y="30.29" width="1.48" height="1.49"/><rect x="77.77" y="31.78" width="1.48" height="1.49"/><rect x="73.33" y="33.28" width="1.48" height="1.49"/><rect x="80.73" y="33.28" width="1.48" height="1.49"/><rect x="73.33" y="34.77" width="1.48" height="1.49"/><rect x="77.77" y="34.77" width="1.48" height="1.49"/><rect x="80.73" y="34.77" width="1.48" height="1.49"/><rect x="74.81" y="36.27" width="1.48" height="1.49"/><rect x="76.29" y="36.27" width="1.48" height="1.49"/><rect x="79.25" y="36.27" width="1.48" height="1.49"/><rect x="71.85" y="37.76" width="1.48" height="1.49"/><rect x="73.33" y="37.76" width="1.48" height="1.49"/><rect x="76.29" y="37.76" width="1.48" height="1.49"/><rect x="74.81" y="39.26" width="1.48" height="1.49"/><rect x="77.77" y="39.26" width="1.48" height="1.49"/><rect x="84.26" y="39.26" width="1.48" height="1.49"/><rect x="86.26" y="24.3" width="1.48" height="1.49"/><rect x="90.7" y="24.3" width="1.48" height="1.49"/><rect x="87.74" y="25.8" width="1.48" height="1.49"/><rect x="92.18" y="25.8" width="1.48" height="1.49"/><rect x="93.66" y="25.8" width="1.48" height="1.49"/><rect x="86.26" y="27.3" width="1.48" height="1.49"/><rect x="90.7" y="27.3" width="1.48" height="1.49"/><rect x="84.77" y="28.79" width="1.48" height="1.49"/><rect x="84.77" y="30.29" width="1.48" height="1.49"/><rect x="87.74" y="30.29" width="1.48" height="1.49"/><rect x="93.66" y="30.29" width="1.48" height="1.49"/><rect x="90.7" y="31.78" width="1.48" height="1.49"/><rect x="86.26" y="33.28" width="1.48" height="1.49"/><rect x="93.66" y="33.28" width="1.48" height="1.49"/><rect x="86.26" y="34.77" width="1.48" height="1.49"/><rect x="90.7" y="34.77" width="1.48" height="1.49"/><rect x="93.66" y="34.77" width="1.48" height="1.49"/><rect x="87.74" y="36.27" width="1.48" height="1.49"/><rect x="89.22" y="36.27" width="1.48" height="1.49"/><rect x="92.18" y="36.27" width="1.48" height="1.49"/><rect x="84.77" y="37.76" width="1.48" height="1.49"/><rect x="86.26" y="37.76" width="1.48" height="1.49"/><rect x="89.22" y="37.76" width="1.48" height="1.49"/><rect x="87.74" y="39.26" width="1.48" height="1.49"/><rect x="90.7" y="39.26" width="1.48" height="1.49"/><rect x="97.19" y="39.26" width="1.48" height="1.49"/><rect x="98.6" y="24.3" width="1.48" height="1.49"/><rect x="100.08" y="25.8" width="1.48" height="1.49"/><rect x="98.6" y="27.3" width="1.48" height="1.49"/><rect x="97.11" y="28.79" width="1.48" height="1.49"/><rect x="97.11" y="30.29" width="1.48" height="1.49"/><rect x="100.08" y="30.29" width="1.48" height="1.49"/><rect x="98.6" y="33.28" width="1.48" height="1.49"/><rect x="98.6" y="34.77" width="1.48" height="1.49"/><rect x="100.08" y="36.27" width="1.48" height="1.49"/><rect x="97.11" y="37.76" width="1.48" height="1.49"/><rect x="98.6" y="37.76" width="1.48" height="1.49"/><rect x="100.08" y="39.26" width="1.48" height="1.49"/><rect x="71.1" y="17.8" width="1.48" height="1.49"/><rect x="-0.08" y="25.8" width="1.48" height="1.49"/><rect x="1.4" y="25.8" width="1.48" height="1.49"/><rect x="1.4" y="30.29" width="1.48" height="1.49"/><rect x="1.4" y="33.28" width="1.48" height="1.49"/><rect x="1.4" y="34.77" width="1.48" height="1.49"/><rect x="-0.08" y="36.27" width="1.48" height="1.49"/><rect x="4.93" y="39.26" width="1.48" height="1.49"/><rect x="6.92" y="24.3" width="1.48" height="1.49"/><rect x="11.37" y="24.3" width="1.48" height="1.49"/><rect x="8.41" y="25.8" width="1.48" height="1.49"/><rect x="12.85" y="25.8" width="1.48" height="1.49"/><rect x="14.33" y="25.8" width="1.48" height="1.49"/><rect x="6.92" y="27.3" width="1.48" height="1.49"/><rect x="11.37" y="27.3" width="1.48" height="1.49"/><rect x="5.44" y="28.79" width="1.48" height="1.49"/><rect x="5.44" y="30.29" width="1.48" height="1.49"/><rect x="8.41" y="30.29" width="1.48" height="1.49"/><rect x="14.33" y="30.29" width="1.48" height="1.49"/><rect x="11.37" y="31.78" width="1.48" height="1.49"/><rect x="6.92" y="33.28" width="1.48" height="1.49"/><rect x="14.33" y="33.28" width="1.48" height="1.49"/><rect x="6.92" y="34.77" width="1.48" height="1.49"/><rect x="11.37" y="34.77" width="1.48" height="1.49"/><rect x="14.33" y="34.77" width="1.48" height="1.49"/><rect x="8.41" y="36.27" width="1.48" height="1.49"/><rect x="9.89" y="36.27" width="1.48" height="1.49"/><rect x="12.85" y="36.27" width="1.48" height="1.49"/><rect x="5.44" y="37.76" width="1.48" height="1.49"/><rect x="6.92" y="37.76" width="1.48" height="1.49"/><rect x="9.89" y="37.76" width="1.48" height="1.49"/><rect x="8.41" y="39.26" width="1.48" height="1.49"/><rect x="11.37" y="39.26" width="1.48" height="1.49"/><rect x="17.85" y="39.26" width="1.48" height="1.49"/><rect x="19.26" y="24.3" width="1.48" height="1.49"/><rect x="23.71" y="24.3" width="1.48" height="1.49"/><rect x="20.75" y="25.8" width="1.48" height="1.49"/><rect x="25.19" y="25.8" width="1.48" height="1.49"/><rect x="26.67" y="25.8" width="1.48" height="1.49"/><rect x="19.26" y="27.3" width="1.48" height="1.49"/><rect x="23.71" y="27.3" width="1.48" height="1.49"/><rect x="17.78" y="28.79" width="1.48" height="1.49"/><rect x="17.78" y="30.29" width="1.48" height="1.49"/><rect x="20.75" y="30.29" width="1.48" height="1.49"/><rect x="26.67" y="30.29" width="1.48" height="1.49"/><rect x="38.65" y="22.41" width="1.49" height="1.48"/><rect x="37.15" y="23.89" width="1.49" height="1.48"/><rect x="35.66" y="22.41" width="1.49" height="1.48"/><rect x="32.67" y="23.89" width="1.49" height="1.48"/><rect x="33.31" y="18.89" width="1.49" height="1.48"/><rect x="30.32" y="20.37" width="1.49" height="1.48"/><rect x="24.34" y="21.85" width="1.49" height="1.48"/><rect x="33.9" y="17.12" width="1.49" height="1.48"/><rect x="30.91" y="18.6" width="1.49" height="1.48"/><rect x="24.92" y="20.09" width="1.49" height="1.48"/><rect x="43.47" y="16.51" width="1.48" height="1.49"/><rect x="41.99" y="18" width="1.48" height="1.49"/><rect x="41.99" y="19.5" width="1.48" height="1.49"/><rect x="44.95" y="19.5" width="1.48" height="1.49"/><rect x="50.87" y="19.5" width="1.48" height="1.49"/><rect x="47.91" y="21" width="1.48" height="1.49"/><rect x="43.47" y="22.49" width="1.48" height="1.49"/><rect x="50.87" y="22.49" width="1.48" height="1.49"/><rect x="43.47" y="23.99" width="1.48" height="1.49"/><rect x="47.91" y="23.99" width="1.48" height="1.49"/><rect x="50.87" y="23.99" width="1.48" height="1.49"/><rect x="56.06" y="22.39" width="1.48" height="1.49"/><rect x="56.06" y="23.89" width="1.48" height="1.49"/><rect x="66.86" y="16.67" width="1.48" height="1.49"/><rect x="71.31" y="16.67" width="1.48" height="1.49"/><rect x="68.34" y="18.16" width="1.48" height="1.49"/><rect x="72.79" y="18.16" width="1.48" height="1.49"/><rect x="74.27" y="18.16" width="1.48" height="1.49"/><rect x="66.86" y="19.66" width="1.48" height="1.49"/><rect x="71.31" y="19.66" width="1.48" height="1.49"/><rect x="65.38" y="21.15" width="1.48" height="1.49"/><rect x="65.38" y="22.65" width="1.48" height="1.49"/><rect x="68.34" y="22.65" width="1.48" height="1.49"/><rect x="60.99" y="16.67" width="1.48" height="1.49"/><rect x="62.47" y="18.16" width="1.48" height="1.49"/><rect x="60.99" y="19.66" width="1.48" height="1.49"/><rect x="59.51" y="21.15" width="1.48" height="1.49"/><rect x="59.51" y="22.65" width="1.48" height="1.49"/><rect x="62.47" y="22.65" width="1.48" height="1.49"/><rect x="74.27" y="22.65" width="1.48" height="1.49"/><rect x="79.79" y="16.67" width="1.48" height="1.49"/><rect x="84.23" y="16.67" width="1.48" height="1.49"/><rect x="81.27" y="18.16" width="1.48" height="1.49"/><rect x="85.71" y="18.16" width="1.48" height="1.49"/><rect x="87.2" y="18.16" width="1.48" height="1.49"/><rect x="79.79" y="19.66" width="1.48" height="1.49"/><rect x="84.23" y="19.66" width="1.48" height="1.49"/><rect x="78.31" y="21.15" width="1.48" height="1.49"/><rect x="78.31" y="22.65" width="1.48" height="1.49"/><rect x="81.27" y="22.65" width="1.48" height="1.49"/><rect x="87.2" y="22.65" width="1.48" height="1.49"/><rect x="92.13" y="16.67" width="1.48" height="1.49"/><rect x="96.57" y="16.67" width="1.48" height="1.49"/><rect x="93.61" y="18.16" width="1.48" height="1.49"/><rect x="98.05" y="18.16" width="1.48" height="1.49"/><rect x="99.54" y="18.16" width="1.48" height="1.49"/><rect x="92.13" y="19.66" width="1.48" height="1.49"/><rect x="96.57" y="19.66" width="1.48" height="1.49"/><rect x="90.65" y="21.15" width="1.48" height="1.49"/><rect x="90.65" y="22.65" width="1.48" height="1.49"/><rect x="93.61" y="22.65" width="1.48" height="1.49"/><rect x="99.54" y="22.65" width="1.48" height="1.49"/><rect x="0.46" y="16.67" width="1.48" height="1.49"/><rect x="4.9" y="16.67" width="1.48" height="1.49"/><rect x="1.94" y="18.16" width="1.48" height="1.49"/><rect x="6.38" y="18.16" width="1.48" height="1.49"/><rect x="7.86" y="18.16" width="1.48" height="1.49"/><rect x="0.46" y="19.66" width="1.48" height="1.49"/><rect x="4.9" y="19.66" width="1.48" height="1.49"/><rect x="-1.02" y="21.15" width="1.48" height="1.49"/><rect x="-1.02" y="22.65" width="1.48" height="1.49"/><rect x="1.94" y="22.65" width="1.48" height="1.49"/><rect x="7.86" y="22.65" width="1.48" height="1.49"/><rect x="12.8" y="16.67" width="1.48" height="1.49"/><rect x="17.24" y="16.67" width="1.48" height="1.49"/><rect x="14.28" y="18.16" width="1.48" height="1.49"/><rect x="18.72" y="18.16" width="1.48" height="1.49"/><rect x="20.2" y="18.16" width="1.48" height="1.49"/><rect x="12.8" y="19.66" width="1.48" height="1.49"/><rect x="17.24" y="19.66" width="1.48" height="1.49"/><rect x="11.32" y="21.15" width="1.48" height="1.49"/><rect x="11.32" y="22.65" width="1.48" height="1.49"/><rect x="14.28" y="22.65" width="1.48" height="1.49"/><rect x="20.2" y="22.65" width="1.48" height="1.49"/><rect x="23.71" y="31.78" width="1.48" height="1.49"/><rect x="19.26" y="33.28" width="1.48" height="1.49"/><rect x="26.67" y="33.28" width="1.48" height="1.49"/><rect x="19.26" y="34.77" width="1.48" height="1.49"/><rect x="23.71" y="34.77" width="1.48" height="1.49"/><rect x="26.67" y="34.77" width="1.48" height="1.49"/><rect x="20.75" y="36.27" width="1.48" height="1.49"/><rect x="22.23" y="36.27" width="1.48" height="1.49"/><rect x="25.19" y="36.27" width="1.48" height="1.49"/><rect x="17.78" y="37.76" width="1.48" height="1.49"/><rect x="19.26" y="37.76" width="1.48" height="1.49"/><rect x="22.23" y="37.76" width="1.48" height="1.49"/><rect x="20.75" y="39.26" width="1.48" height="1.49"/><rect x="23.71" y="39.26" width="1.48" height="1.49"/><rect x="30.19" y="39.26" width="1.48" height="1.49"/><rect x="1.96" y="41.93" width="1.48" height="1.49"/><rect x="-1" y="43.43" width="1.48" height="1.49"/><rect x="3.45" y="43.43" width="1.48" height="1.49"/><rect x="4.93" y="43.43" width="1.48" height="1.49"/><rect x="1.96" y="44.92" width="1.48" height="1.49"/><rect x="-1" y="47.92" width="1.48" height="1.49"/><rect x="4.93" y="47.92" width="1.48" height="1.49"/><rect x="1.96" y="49.41" width="1.48" height="1.49"/><rect x="4.93" y="50.91" width="1.48" height="1.49"/><rect x="1.96" y="52.4" width="1.48" height="1.49"/><rect x="4.93" y="52.4" width="1.48" height="1.49"/><rect x="-1" y="53.9" width="1.48" height="1.49"/><rect x="0.48" y="53.9" width="1.48" height="1.49"/><rect x="3.45" y="53.9" width="1.48" height="1.49"/><rect x="0.48" y="55.39" width="1.48" height="1.49"/><rect x="-1" y="56.89" width="1.48" height="1.49"/><rect x="1.96" y="56.89" width="1.48" height="1.49"/><rect x="8.45" y="56.89" width="1.48" height="1.49"/><rect x="9.86" y="41.93" width="1.48" height="1.49"/><rect x="14.31" y="41.93" width="1.48" height="1.49"/><rect x="11.34" y="43.43" width="1.48" height="1.49"/><rect x="15.79" y="43.43" width="1.48" height="1.49"/><rect x="17.27" y="43.43" width="1.48" height="1.49"/><rect x="9.86" y="44.92" width="1.48" height="1.49"/><rect x="14.31" y="44.92" width="1.48" height="1.49"/><rect x="8.38" y="46.42" width="1.48" height="1.49"/><rect x="8.38" y="47.92" width="1.48" height="1.49"/><rect x="11.34" y="47.92" width="1.48" height="1.49"/><rect x="17.27" y="47.92" width="1.48" height="1.49"/><rect x="14.31" y="49.41" width="1.48" height="1.49"/><rect x="9.86" y="50.91" width="1.48" height="1.49"/><rect x="17.27" y="50.91" width="1.48" height="1.49"/><rect x="9.86" y="52.4" width="1.48" height="1.49"/><rect x="14.31" y="52.4" width="1.48" height="1.49"/><rect x="17.27" y="52.4" width="1.48" height="1.49"/><rect x="11.34" y="53.9" width="1.48" height="1.49"/><rect x="12.82" y="53.9" width="1.48" height="1.49"/><rect x="15.79" y="53.9" width="1.48" height="1.49"/><rect x="8.38" y="55.39" width="1.48" height="1.49"/><rect x="9.86" y="55.39" width="1.48" height="1.49"/><rect x="12.82" y="55.39" width="1.48" height="1.49"/><rect x="11.34" y="56.89" width="1.48" height="1.49"/><rect x="14.31" y="56.89" width="1.48" height="1.49"/><rect x="20.79" y="56.89" width="1.48" height="1.49"/><rect x="0.79" y="59.56" width="1.48" height="1.49"/><rect x="2.27" y="61.06" width="1.48" height="1.49"/><rect x="3.75" y="61.06" width="1.48" height="1.49"/><rect x="0.79" y="62.55" width="1.48" height="1.49"/><rect x="3.75" y="65.54" width="1.48" height="1.49"/><rect x="0.79" y="67.04" width="1.48" height="1.49"/><rect x="3.75" y="68.54" width="1.48" height="1.49"/><rect x="0.79" y="70.03" width="1.48" height="1.49"/><rect x="3.75" y="70.03" width="1.48" height="1.49"/><rect x="-0.69" y="71.53" width="1.48" height="1.49"/><rect x="2.27" y="71.53" width="1.48" height="1.49"/><rect x="-0.69" y="73.02" width="1.48" height="1.49"/><rect x="0.79" y="74.52" width="1.48" height="1.49"/><rect x="7.28" y="74.52" width="1.48" height="1.49"/><rect x="8.69" y="59.56" width="1.48" height="1.49"/><rect x="13.13" y="59.56" width="1.48" height="1.49"/><rect x="10.17" y="61.06" width="1.48" height="1.49"/><rect x="14.61" y="61.06" width="1.48" height="1.49"/><rect x="16.09" y="61.06" width="1.48" height="1.49"/><rect x="8.69" y="62.55" width="1.48" height="1.49"/><rect x="13.13" y="62.55" width="1.48" height="1.49"/><rect x="7.21" y="64.05" width="1.48" height="1.49"/><rect x="7.21" y="65.54" width="1.48" height="1.49"/><rect x="10.17" y="65.54" width="1.48" height="1.49"/><rect x="16.09" y="65.54" width="1.48" height="1.49"/><rect x="13.13" y="67.04" width="1.48" height="1.49"/><rect x="8.69" y="68.54" width="1.48" height="1.49"/><rect x="16.09" y="68.54" width="1.48" height="1.49"/><rect x="8.69" y="70.03" width="1.48" height="1.49"/><rect x="13.13" y="70.03" width="1.48" height="1.49"/><rect x="16.09" y="70.03" width="1.48" height="1.49"/><rect x="10.17" y="71.53" width="1.48" height="1.49"/><rect x="11.65" y="71.53" width="1.48" height="1.49"/><rect x="14.61" y="71.53" width="1.48" height="1.49"/><rect x="7.21" y="73.02" width="1.48" height="1.49"/><rect x="8.69" y="73.02" width="1.48" height="1.49"/><rect x="11.65" y="73.02" width="1.48" height="1.49"/><rect x="10.17" y="74.52" width="1.48" height="1.49"/><rect x="13.13" y="74.52" width="1.48" height="1.49"/><rect x="19.62" y="74.52" width="1.48" height="1.49"/><rect x="-0.39" y="79.54" width="1.48" height="1.49"/><rect x="1.1" y="81.04" width="1.48" height="1.49"/><rect x="2.58" y="81.04" width="1.48" height="1.49"/><rect x="-0.39" y="82.53" width="1.48" height="1.49"/><rect x="8.1" y="79.54" width="1.48" height="1.49"/><rect x="12.54" y="79.54" width="1.48" height="1.49"/><rect x="9.58" y="81.04" width="1.48" height="1.49"/><rect x="14.02" y="81.04" width="1.48" height="1.49"/><rect x="15.5" y="81.04" width="1.48" height="1.49"/><rect x="8.1" y="82.53" width="1.48" height="1.49"/><rect x="12.54" y="82.53" width="1.48" height="1.49"/><rect x="6.62" y="84.03" width="1.48" height="1.49"/><rect x="20.44" y="79.54" width="1.48" height="1.49"/><rect x="24.88" y="79.54" width="1.48" height="1.49"/><rect x="21.92" y="81.04" width="1.48" height="1.49"/><rect x="26.36" y="81.04" width="1.48" height="1.49"/><rect x="27.84" y="81.04" width="1.48" height="1.49"/><rect x="20.44" y="82.53" width="1.48" height="1.49"/><rect x="24.88" y="82.53" width="1.48" height="1.49"/><rect x="18.96" y="84.03" width="1.48" height="1.49"/><rect x="65.48" y="37.51" width="1.48" height="1.49"/><rect x="68.44" y="37.51" width="1.48" height="1.49"/><rect x="39.95" y="13.66" width="1.49" height="1.48"/><rect x="36.96" y="13.66" width="1.49" height="1.48"/><rect x="34.61" y="10.13" width="1.49" height="1.48"/><rect x="31.61" y="11.62" width="1.49" height="1.48"/><rect x="25.63" y="13.1" width="1.49" height="1.48"/><rect x="35.19" y="8.37" width="1.49" height="1.48"/><rect x="32.2" y="9.85" width="1.49" height="1.48"/><rect x="26.22" y="11.33" width="1.49" height="1.48"/><rect x="44.77" y="7.76" width="1.48" height="1.49"/><rect x="43.29" y="9.25" width="1.48" height="1.49"/><rect x="43.29" y="10.75" width="1.48" height="1.49"/><rect x="46.25" y="10.75" width="1.48" height="1.49"/><rect x="52.17" y="10.75" width="1.48" height="1.49"/><rect x="49.21" y="12.24" width="1.48" height="1.49"/><rect x="44.77" y="13.74" width="1.48" height="1.49"/><rect x="52.17" y="13.74" width="1.48" height="1.49"/><rect x="57.35" y="13.64" width="1.48" height="1.49"/><rect x="68.16" y="7.91" width="1.48" height="1.49"/><rect x="72.6" y="7.91" width="1.48" height="1.49"/><rect x="69.64" y="9.41" width="1.48" height="1.49"/><rect x="74.08" y="9.41" width="1.48" height="1.49"/><rect x="75.56" y="9.41" width="1.48" height="1.49"/><rect x="68.16" y="10.9" width="1.48" height="1.49"/><rect x="72.6" y="10.9" width="1.48" height="1.49"/><rect x="66.68" y="12.4" width="1.48" height="1.49"/><rect x="66.68" y="13.9" width="1.48" height="1.49"/><rect x="69.64" y="13.9" width="1.48" height="1.49"/><rect x="62.28" y="7.91" width="1.48" height="1.49"/><rect x="63.76" y="9.41" width="1.48" height="1.49"/><rect x="62.28" y="10.9" width="1.48" height="1.49"/><rect x="60.8" y="12.4" width="1.48" height="1.49"/><rect x="60.8" y="13.9" width="1.48" height="1.49"/><rect x="63.76" y="13.9" width="1.48" height="1.49"/><rect x="75.56" y="13.9" width="1.48" height="1.49"/><rect x="81.09" y="7.91" width="1.48" height="1.49"/><rect x="85.53" y="7.91" width="1.48" height="1.49"/><rect x="82.57" y="9.41" width="1.48" height="1.49"/><rect x="87.01" y="9.41" width="1.48" height="1.49"/><rect x="88.49" y="9.41" width="1.48" height="1.49"/><rect x="81.09" y="10.9" width="1.48" height="1.49"/><rect x="85.53" y="10.9" width="1.48" height="1.49"/><rect x="79.61" y="12.4" width="1.48" height="1.49"/><rect x="79.61" y="13.9" width="1.48" height="1.49"/><rect x="82.57" y="13.9" width="1.48" height="1.49"/><rect x="88.49" y="13.9" width="1.48" height="1.49"/><rect x="93.43" y="7.91" width="1.48" height="1.49"/><rect x="97.87" y="7.91" width="1.48" height="1.49"/><rect x="94.91" y="9.41" width="1.48" height="1.49"/><rect x="99.35" y="9.41" width="1.48" height="1.49"/><rect x="93.43" y="10.9" width="1.48" height="1.49"/><rect x="97.87" y="10.9" width="1.48" height="1.49"/><rect x="91.95" y="12.4" width="1.48" height="1.49"/><rect x="91.95" y="13.9" width="1.48" height="1.49"/><rect x="94.91" y="13.9" width="1.48" height="1.49"/><rect x="65.93" y="1.41" width="1.48" height="1.49"/><rect x="1.76" y="7.91" width="1.48" height="1.49"/><rect x="6.2" y="7.91" width="1.48" height="1.49"/><rect x="3.24" y="9.41" width="1.48" height="1.49"/><rect x="7.68" y="9.41" width="1.48" height="1.49"/><rect x="9.16" y="9.41" width="1.48" height="1.49"/><rect x="1.76" y="10.9" width="1.48" height="1.49"/><rect x="6.2" y="10.9" width="1.48" height="1.49"/><rect x="0.28" y="12.4" width="1.48" height="1.49"/><rect x="0.28" y="13.9" width="1.48" height="1.49"/><rect x="3.24" y="13.9" width="1.48" height="1.49"/><rect x="9.16" y="13.9" width="1.48" height="1.49"/><rect x="14.1" y="7.91" width="1.48" height="1.49"/><rect x="18.54" y="7.91" width="1.48" height="1.49"/><rect x="15.58" y="9.41" width="1.48" height="1.49"/><rect x="20.02" y="9.41" width="1.48" height="1.49"/><rect x="21.5" y="9.41" width="1.48" height="1.49"/><rect x="14.1" y="10.9" width="1.48" height="1.49"/><rect x="18.54" y="10.9" width="1.48" height="1.49"/><rect x="12.62" y="12.4" width="1.48" height="1.49"/><rect x="12.62" y="13.9" width="1.48" height="1.49"/><rect x="15.58" y="13.9" width="1.48" height="1.49"/><rect x="21.5" y="13.9" width="1.48" height="1.49"/><rect x="33.48" y="6.02" width="1.49" height="1.48"/><rect x="31.99" y="7.5" width="1.49" height="1.48"/><rect x="30.49" y="6.02" width="1.49" height="1.48"/><rect x="27.5" y="7.5" width="1.49" height="1.48"/><rect x="28.14" y="2.5" width="1.49" height="1.48"/><rect x="25.15" y="3.98" width="1.49" height="1.48"/><rect x="19.17" y="5.46" width="1.49" height="1.48"/><rect x="28.73" y="0.73" width="1.49" height="1.48"/><rect x="25.74" y="2.21" width="1.49" height="1.48"/><rect x="19.76" y="3.69" width="1.49" height="1.48"/><rect x="38.3" y="0.12" width="1.48" height="1.49"/><rect x="36.82" y="1.61" width="1.48" height="1.49"/><rect x="36.82" y="3.11" width="1.48" height="1.49"/><rect x="39.78" y="3.11" width="1.48" height="1.49"/><rect x="45.71" y="3.11" width="1.48" height="1.49"/><rect x="42.74" y="4.6" width="1.48" height="1.49"/><rect x="38.3" y="6.1" width="1.48" height="1.49"/><rect x="45.71" y="6.1" width="1.48" height="1.49"/><rect x="38.3" y="7.6" width="1.48" height="1.49"/><rect x="42.74" y="7.6" width="1.48" height="1.49"/><rect x="45.71" y="7.6" width="1.48" height="1.49"/><rect x="50.89" y="6" width="1.48" height="1.49"/><rect x="50.89" y="7.5" width="1.48" height="1.49"/><rect x="61.7" y="0.27" width="1.48" height="1.49"/><rect x="66.14" y="0.27" width="1.48" height="1.49"/><rect x="63.18" y="1.77" width="1.48" height="1.49"/><rect x="67.62" y="1.77" width="1.48" height="1.49"/><rect x="69.1" y="1.77" width="1.48" height="1.49"/><rect x="61.7" y="3.27" width="1.48" height="1.49"/><rect x="66.14" y="3.27" width="1.48" height="1.49"/><rect x="60.22" y="4.76" width="1.48" height="1.49"/><rect x="60.22" y="6.26" width="1.48" height="1.49"/><rect x="63.18" y="6.26" width="1.48" height="1.49"/><rect x="55.82" y="0.27" width="1.48" height="1.49"/><rect x="57.3" y="1.77" width="1.48" height="1.49"/><rect x="55.82" y="3.27" width="1.48" height="1.49"/><rect x="54.34" y="4.76" width="1.48" height="1.49"/><rect x="54.34" y="6.26" width="1.48" height="1.49"/><rect x="57.3" y="6.26" width="1.48" height="1.49"/><rect x="69.1" y="6.26" width="1.48" height="1.49"/><rect x="74.62" y="0.27" width="1.48" height="1.49"/><rect x="79.07" y="0.27" width="1.48" height="1.49"/><rect x="76.1" y="1.77" width="1.48" height="1.49"/><rect x="80.55" y="1.77" width="1.48" height="1.49"/><rect x="82.03" y="1.77" width="1.48" height="1.49"/><rect x="74.62" y="3.27" width="1.48" height="1.49"/><rect x="79.07" y="3.27" width="1.48" height="1.49"/><rect x="73.14" y="4.76" width="1.48" height="1.49"/><rect x="73.14" y="6.26" width="1.48" height="1.49"/><rect x="76.1" y="6.26" width="1.48" height="1.49"/><rect x="82.03" y="6.26" width="1.48" height="1.49"/><rect x="86.96" y="0.27" width="1.48" height="1.49"/><rect x="91.41" y="0.27" width="1.48" height="1.49"/><rect x="88.45" y="1.77" width="1.48" height="1.49"/><rect x="92.89" y="1.77" width="1.48" height="1.49"/><rect x="94.37" y="1.77" width="1.48" height="1.49"/><rect x="86.96" y="3.27" width="1.48" height="1.49"/><rect x="91.41" y="3.27" width="1.48" height="1.49"/><rect x="85.48" y="4.76" width="1.48" height="1.49"/><rect x="85.48" y="6.26" width="1.48" height="1.49"/><rect x="88.45" y="6.26" width="1.48" height="1.49"/><rect x="94.37" y="6.26" width="1.48" height="1.49"/><rect x="-0.26" y="0.27" width="1.48" height="1.49"/><rect x="1.22" y="1.77" width="1.48" height="1.49"/><rect x="2.7" y="1.77" width="1.48" height="1.49"/><rect x="-0.26" y="3.27" width="1.48" height="1.49"/><rect x="2.7" y="6.26" width="1.48" height="1.49"/><rect x="7.63" y="0.27" width="1.48" height="1.49"/><rect x="12.08" y="0.27" width="1.48" height="1.49"/><rect x="9.11" y="1.77" width="1.48" height="1.49"/><rect x="13.56" y="1.77" width="1.48" height="1.49"/><rect x="15.04" y="1.77" width="1.48" height="1.49"/><rect x="7.63" y="3.27" width="1.48" height="1.49"/><rect x="12.08" y="3.27" width="1.48" height="1.49"/><rect x="6.15" y="4.76" width="1.48" height="1.49"/><rect x="6.15" y="6.26" width="1.48" height="1.49"/><rect x="9.11" y="6.26" width="1.48" height="1.49"/><rect x="15.04" y="6.26" width="1.48" height="1.49"/><rect x="42.98" y="98.34" width="1.49" height="1.48"/><rect x="39.99" y="98.34" width="1.49" height="1.48"/><rect x="37.64" y="94.82" width="1.49" height="1.48"/><rect x="34.65" y="96.3" width="1.49" height="1.48"/><rect x="28.66" y="97.78" width="1.49" height="1.48"/><rect x="38.22" y="93.05" width="1.49" height="1.48"/><rect x="35.23" y="94.53" width="1.49" height="1.48"/><rect x="29.25" y="96.01" width="1.49" height="1.48"/><rect x="47.8" y="92.44" width="1.48" height="1.49"/><rect x="46.32" y="93.93" width="1.48" height="1.49"/><rect x="46.32" y="95.43" width="1.48" height="1.49"/><rect x="49.28" y="95.43" width="1.48" height="1.49"/><rect x="55.2" y="95.43" width="1.48" height="1.49"/><rect x="52.24" y="96.93" width="1.48" height="1.49"/><rect x="47.8" y="98.42" width="1.48" height="1.49"/><rect x="55.2" y="98.42" width="1.48" height="1.49"/><rect x="60.38" y="98.32" width="1.48" height="1.49"/><rect x="71.19" y="92.59" width="1.48" height="1.49"/><rect x="75.63" y="92.59" width="1.48" height="1.49"/><rect x="72.67" y="94.09" width="1.48" height="1.49"/><rect x="77.11" y="94.09" width="1.48" height="1.49"/><rect x="78.6" y="94.09" width="1.48" height="1.49"/><rect x="71.19" y="95.59" width="1.48" height="1.49"/><rect x="75.63" y="95.59" width="1.48" height="1.49"/><rect x="69.71" y="97.08" width="1.48" height="1.49"/><rect x="69.71" y="98.58" width="1.48" height="1.49"/><rect x="72.67" y="98.58" width="1.48" height="1.49"/><rect x="65.31" y="92.59" width="1.48" height="1.49"/><rect x="66.8" y="94.09" width="1.48" height="1.49"/><rect x="65.31" y="95.59" width="1.48" height="1.49"/><rect x="63.83" y="97.08" width="1.48" height="1.49"/><rect x="63.83" y="98.58" width="1.48" height="1.49"/><rect x="66.8" y="98.58" width="1.48" height="1.49"/><rect x="78.6" y="98.58" width="1.48" height="1.49"/><rect x="84.12" y="92.59" width="1.48" height="1.49"/><rect x="88.56" y="92.59" width="1.48" height="1.49"/><rect x="85.6" y="94.09" width="1.48" height="1.49"/><rect x="90.04" y="94.09" width="1.48" height="1.49"/><rect x="91.52" y="94.09" width="1.48" height="1.49"/><rect x="84.12" y="95.59" width="1.48" height="1.49"/><rect x="88.56" y="95.59" width="1.48" height="1.49"/><rect x="82.64" y="97.08" width="1.48" height="1.49"/><rect x="82.64" y="98.58" width="1.48" height="1.49"/><rect x="85.6" y="98.58" width="1.48" height="1.49"/><rect x="91.52" y="98.58" width="1.48" height="1.49"/><rect x="96.46" y="92.59" width="1.48" height="1.49"/><rect x="97.94" y="94.09" width="1.48" height="1.49"/><rect x="96.46" y="95.59" width="1.48" height="1.49"/><rect x="94.98" y="97.08" width="1.48" height="1.49"/><rect x="94.98" y="98.58" width="1.48" height="1.49"/><rect x="97.94" y="98.58" width="1.48" height="1.49"/><rect x="68.96" y="86.09" width="1.48" height="1.49"/><rect x="-0.74" y="94.09" width="1.48" height="1.49"/><rect x="-0.74" y="98.58" width="1.48" height="1.49"/><rect x="4.79" y="92.59" width="1.48" height="1.49"/><rect x="9.23" y="92.59" width="1.48" height="1.49"/><rect x="6.27" y="94.09" width="1.48" height="1.49"/><rect x="10.71" y="94.09" width="1.48" height="1.49"/><rect x="12.19" y="94.09" width="1.48" height="1.49"/><rect x="4.79" y="95.59" width="1.48" height="1.49"/><rect x="9.23" y="95.59" width="1.48" height="1.49"/><rect x="3.31" y="97.08" width="1.48" height="1.49"/><rect x="3.31" y="98.58" width="1.48" height="1.49"/><rect x="6.27" y="98.58" width="1.48" height="1.49"/><rect x="12.19" y="98.58" width="1.48" height="1.49"/><rect x="17.13" y="92.59" width="1.48" height="1.49"/><rect x="21.57" y="92.59" width="1.48" height="1.49"/><rect x="18.61" y="94.09" width="1.48" height="1.49"/><rect x="23.05" y="94.09" width="1.48" height="1.49"/><rect x="24.53" y="94.09" width="1.48" height="1.49"/><rect x="17.13" y="95.59" width="1.48" height="1.49"/><rect x="21.57" y="95.59" width="1.48" height="1.49"/><rect x="15.65" y="97.08" width="1.48" height="1.49"/><rect x="15.65" y="98.58" width="1.48" height="1.49"/><rect x="18.61" y="98.58" width="1.48" height="1.49"/><rect x="24.53" y="98.58" width="1.48" height="1.49"/><rect x="36.51" y="90.7" width="1.49" height="1.48"/><rect x="35.02" y="92.18" width="1.49" height="1.48"/><rect x="33.52" y="90.7" width="1.49" height="1.48"/><rect x="30.53" y="92.18" width="1.49" height="1.48"/><rect x="31.17" y="87.18" width="1.49" height="1.48"/><rect x="28.18" y="88.66" width="1.49" height="1.48"/><rect x="22.2" y="90.14" width="1.49" height="1.48"/><rect x="31.76" y="85.41" width="1.49" height="1.48"/><rect x="28.77" y="86.89" width="1.49" height="1.48"/><rect x="22.79" y="88.38" width="1.49" height="1.48"/><rect x="41.33" y="84.8" width="1.48" height="1.49"/><rect x="39.85" y="86.3" width="1.48" height="1.49"/><rect x="39.85" y="87.79" width="1.48" height="1.49"/><rect x="42.81" y="87.79" width="1.48" height="1.49"/><rect x="48.74" y="87.79" width="1.48" height="1.49"/><rect x="45.78" y="89.29" width="1.48" height="1.49"/><rect x="41.33" y="90.78" width="1.48" height="1.49"/><rect x="48.74" y="90.78" width="1.48" height="1.49"/><rect x="41.33" y="92.28" width="1.48" height="1.49"/><rect x="45.78" y="92.28" width="1.48" height="1.49"/><rect x="48.74" y="92.28" width="1.48" height="1.49"/><rect x="53.92" y="90.68" width="1.48" height="1.49"/><rect x="53.92" y="92.18" width="1.48" height="1.49"/><rect x="64.73" y="84.96" width="1.48" height="1.49"/><rect x="69.17" y="84.96" width="1.48" height="1.49"/><rect x="66.21" y="86.45" width="1.48" height="1.49"/><rect x="70.65" y="86.45" width="1.48" height="1.49"/><rect x="72.13" y="86.45" width="1.48" height="1.49"/><rect x="64.73" y="87.95" width="1.48" height="1.49"/><rect x="69.17" y="87.95" width="1.48" height="1.49"/><rect x="63.25" y="89.45" width="1.48" height="1.49"/><rect x="63.25" y="90.94" width="1.48" height="1.49"/><rect x="66.21" y="90.94" width="1.48" height="1.49"/><rect x="58.85" y="84.96" width="1.48" height="1.49"/><rect x="60.33" y="86.45" width="1.48" height="1.49"/><rect x="58.85" y="87.95" width="1.48" height="1.49"/><rect x="57.37" y="89.45" width="1.48" height="1.49"/><rect x="57.37" y="90.94" width="1.48" height="1.49"/><rect x="60.33" y="90.94" width="1.48" height="1.49"/><rect x="72.13" y="90.94" width="1.48" height="1.49"/><rect x="77.65" y="84.96" width="1.48" height="1.49"/><rect x="82.1" y="84.96" width="1.48" height="1.49"/><rect x="79.14" y="86.45" width="1.48" height="1.49"/><rect x="83.58" y="86.45" width="1.48" height="1.49"/><rect x="85.06" y="86.45" width="1.48" height="1.49"/><rect x="77.65" y="87.95" width="1.48" height="1.49"/><rect x="82.1" y="87.95" width="1.48" height="1.49"/><rect x="76.17" y="89.45" width="1.48" height="1.49"/><rect x="76.17" y="90.94" width="1.48" height="1.49"/><rect x="79.14" y="90.94" width="1.48" height="1.49"/><rect x="85.06" y="90.94" width="1.48" height="1.49"/><rect x="90" y="84.96" width="1.48" height="1.49"/><rect x="94.44" y="84.96" width="1.48" height="1.49"/><rect x="91.48" y="86.45" width="1.48" height="1.49"/><rect x="95.92" y="86.45" width="1.48" height="1.49"/><rect x="97.4" y="86.45" width="1.48" height="1.49"/><rect x="90" y="87.95" width="1.48" height="1.49"/><rect x="94.44" y="87.95" width="1.48" height="1.49"/><rect x="88.51" y="89.45" width="1.48" height="1.49"/><rect x="88.51" y="90.94" width="1.48" height="1.49"/><rect x="91.48" y="90.94" width="1.48" height="1.49"/><rect x="97.4" y="90.94" width="1.48" height="1.49"/><rect x="2.77" y="84.96" width="1.48" height="1.49"/><rect x="-0.19" y="86.45" width="1.48" height="1.49"/><rect x="4.25" y="86.45" width="1.48" height="1.49"/><rect x="5.73" y="86.45" width="1.48" height="1.49"/><rect x="2.77" y="87.95" width="1.48" height="1.49"/><rect x="-0.19" y="90.94" width="1.48" height="1.49"/><rect x="5.73" y="90.94" width="1.48" height="1.49"/><rect x="10.66" y="84.96" width="1.48" height="1.49"/><rect x="15.11" y="84.96" width="1.48" height="1.49"/><rect x="12.15" y="86.45" width="1.48" height="1.49"/><rect x="16.59" y="86.45" width="1.48" height="1.49"/><rect x="18.07" y="86.45" width="1.48" height="1.49"/><rect x="10.66" y="87.95" width="1.48" height="1.49"/><rect x="15.11" y="87.95" width="1.48" height="1.49"/><rect x="9.18" y="89.45" width="1.48" height="1.49"/><rect x="9.18" y="90.94" width="1.48" height="1.49"/><rect x="12.15" y="90.94" width="1.48" height="1.49"/><rect x="18.07" y="90.94" width="1.48" height="1.49"/></g></g></g><path class="cls-4" d="M98.21,43.33c-.24.67-1,1.8-3.48,1.8H88.94v45.3a5.86,5.86,0,0,1-5.85,5.87H17a5.86,5.86,0,0,1-5.84-5.87V45.13H5.38c-2.47,0-3.24-1.13-3.47-1.8s-.36-2,1.56-3.6L45.73,5.28a6.8,6.8,0,0,1,4.32-1.47,6.88,6.88,0,0,1,4.33,1.48L70.52,18.45V14.14a3.22,3.22,0,0,1,3.22-3.22h7.6a3.22,3.22,0,0,1,3.22,3.22V29.88l12.08,9.85C98.56,41.3,98.44,42.66,98.21,43.33Z"/></svg>