<svg xmlns="http://www.w3.org/2000/svg" viewBox="0 0 143.12 125.85"><g id="Layer_2" data-name="Layer 2"><g id="Layer_1-2" data-name="Layer 1"><path d="M71.56,125.85,68.13,123C14.52,79.36,0,63.94,0,38.59A38.63,38.63,0,0,1,38.59,0c15.62,0,25.15,7.61,33,16.16C79.38,7.61,88.92,0,104.53,0a38.63,38.63,0,0,1,38.59,38.59C143.12,63.94,128.6,79.36,75,123ZM38.59,3A35.64,35.64,0,0,0,3,38.59c0,24.1,14.29,39.15,67,82.09L71.56,122l1.51-1.26c52.77-42.95,67.05-58,67.05-82.1A35.63,35.63,0,0,0,104.53,3C87.25,3,77.78,13.66,72.68,19.39l-1.12,1.27-1.12-1.27C65.35,13.66,55.87,3,38.59,3Z"/><rect x="38.65" y="27.21" width="2.52" height="2.54"/><rect x="41.17" y="27.21" width="2.52" height="2.54"/><rect x="43.69" y="27.21" width="2.52" height="2.54"/><rect x="46.21" y="27.21" width="2.52" height="2.54"/><rect x="48.73" y="27.21" width="2.52" height="2.54"/><rect x="51.25" y="27.21" width="2.52" height="2.54"/><rect x="53.77" y="27.21" width="2.52" height="2.54"/><rect x="58.81" y="27.21" width="2.52" height="2.54"/><rect x="61.32" y="27.21" width="2.52" height="2.54"/><rect x="63.84" y="27.21" width="2.52" height="2.54"/><rect x="66.36" y="27.21" width="2.52" height="2.54"/><rect x="84" y="27.21" width="2.52" height="2.54"/><rect x="86.52" y="27.21" width="2.52" height="2.54"/><rect x="89.04" y="27.21" width="2.52" height="2.54"/><rect x="91.56" y="27.21" width="2.52" height="2.54"/><rect x="94.08" y="27.21" width="2.52" height="2.54"/><rect x="96.6" y="27.21" width="2.52" height="2.54"/><rect x="99.12" y="27.21" width="2.52" height="2.54"/><rect x="38.65" y="29.76" width="2.52" height="2.54"/><rect x="53.77" y="29.76" width="2.52" height="2.54"/><rect x="66.36" y="29.76" width="2.52" height="2.54"/><rect x="68.88" y="29.76" width="2.52" height="2.54"/><rect x="71.4" y="29.76" width="2.52" height="2.54"/><rect x="73.92" y="29.76" width="2.52" height="2.54"/><rect x="78.96" y="29.76" width="2.52" height="2.54"/><rect x="84" y="29.76" width="2.52" height="2.54"/><rect x="99.12" y="29.76" width="2.52" height="2.54"/><rect x="38.65" y="32.3" width="2.52" height="2.54"/><rect x="43.69" y="32.3" width="2.52" height="2.54"/><rect x="46.21" y="32.3" width="2.52" height="2.54"/><rect x="48.73" y="32.3" width="2.52" height="2.54"/><rect x="53.77" y="32.3" width="2.52" height="2.54"/><rect x="61.32" y="32.3" width="2.52" height="2.54"/><rect x="66.36" y="32.3" width="2.52" height="2.54"/><rect x="71.4" y="32.3" width="2.52" height="2.54"/><rect x="76.44" y="32.3" width="2.52" height="2.54"/><rect x="78.96" y="32.3" width="2.52" height="2.54"/><rect x="84" y="32.3" width="2.52" height="2.54"/><rect x="89.04" y="32.3" width="2.52" height="2.54"/><rect x="91.56" y="32.3" width="2.52" height="2.54"/><rect x="94.08" y="32.3" width="2.52" height="2.54"/><rect x="99.12" y="32.3" width="2.52" height="2.54"/><rect x="38.65" y="34.84" width="2.52" height="2.54"/><rect x="43.69" y="34.84" width="2.52" height="2.54"/><rect x="46.21" y="34.84" width="2.52" height="2.54"/><rect x="48.73" y="34.84" width="2.52" height="2.54"/><rect x="53.77" y="34.84" width="2.52" height="2.54"/><rect x="63.84" y="34.84" width="2.52" height="2.54"/><rect x="78.96" y="34.84" width="2.52" height="2.54"/><rect x="84" y="34.84" width="2.52" height="2.54"/><rect x="89.04" y="34.84" width="2.52" height="2.54"/><rect x="91.56" y="34.84" width="2.52" height="2.54"/><rect x="94.08" y="34.84" width="2.52" height="2.54"/><rect x="99.12" y="34.84" width="2.52" height="2.54"/><rect x="38.65" y="37.39" width="2.52" height="2.54"/><rect x="43.69" y="37.39" width="2.52" height="2.54"/><rect x="46.21" y="37.39" width="2.52" height="2.54"/><rect x="48.73" y="37.39" width="2.52" height="2.54"/><rect x="53.77" y="37.39" width="2.52" height="2.54"/><rect x="63.84" y="37.39" width="2.52" height="2.54"/><rect x="66.36" y="37.39" width="2.52" height="2.54"/><rect x="68.88" y="37.39" width="2.52" height="2.54"/><rect x="73.92" y="37.39" width="2.52" height="2.54"/><rect x="78.96" y="37.39" width="2.52" height="2.54"/><rect x="84" y="37.39" width="2.52" height="2.54"/><rect x="89.04" y="37.39" width="2.52" height="2.54"/><rect x="91.56" y="37.39" width="2.52" height="2.54"/><rect x="94.08" y="37.39" width="2.52" height="2.54"/><rect x="99.12" y="37.39" width="2.52" height="2.54"/><rect x="38.65" y="39.93" width="2.52" height="2.54"/><rect x="53.77" y="39.93" width="2.52" height="2.54"/><rect x="61.32" y="39.93" width="2.52" height="2.54"/><rect x="66.36" y="39.93" width="2.52" height="2.54"/><rect x="78.96" y="39.93" width="2.52" height="2.54"/><rect x="84" y="39.93" width="2.52" height="2.54"/><rect x="99.12" y="39.93" width="2.52" height="2.54"/><rect x="38.65" y="42.48" width="2.52" height="2.54"/><rect x="41.17" y="42.48" width="2.52" height="2.54"/><rect x="43.69" y="42.48" width="2.52" height="2.54"/><rect x="46.21" y="42.48" width="2.52" height="2.54"/><rect x="48.73" y="42.48" width="2.52" height="2.54"/><rect x="51.25" y="42.48" width="2.52" height="2.54"/><rect x="53.77" y="42.48" width="2.52" height="2.54"/><rect x="58.81" y="42.48" width="2.52" height="2.54"/><rect x="63.84" y="42.48" width="2.52" height="2.54"/><rect x="73.92" y="42.48" width="2.52" height="2.54"/><rect x="78.96" y="42.48" width="2.52" height="2.54"/><rect x="84" y="42.48" width="2.52" height="2.54"/><rect x="86.52" y="42.48" width="2.52" height="2.54"/><rect x="89.04" y="42.48" width="2.52" height="2.54"/><rect x="91.56" y="42.48" width="2.52" height="2.54"/><rect x="94.08" y="42.48" width="2.52" height="2.54"/><rect x="96.6" y="42.48" width="2.52" height="2.54"/><rect x="99.12" y="42.48" width="2.52" height="2.54"/><rect x="58.81" y="45.02" width="2.52" height="2.54"/><rect x="61.32" y="45.02" width="2.52" height="2.54"/><rect x="68.88" y="45.02" width="2.52" height="2.54"/><rect x="71.4" y="45.02" width="2.52" height="2.54"/><rect x="38.65" y="47.57" width="2.52" height="2.54"/><rect x="48.73" y="47.57" width="2.52" height="2.54"/><rect x="53.77" y="47.57" width="2.52" height="2.54"/><rect x="61.32" y="47.57" width="2.52" height="2.54"/><rect x="68.88" y="47.57" width="2.52" height="2.54"/><rect x="76.44" y="47.57" width="2.52" height="2.54"/><rect x="84" y="47.57" width="2.52" height="2.54"/><rect x="99.12" y="47.57" width="2.52" height="2.54"/><rect x="38.65" y="50.11" width="2.52" height="2.54"/><rect x="41.17" y="50.11" width="2.52" height="2.54"/><rect x="43.69" y="50.11" width="2.52" height="2.54"/><rect x="48.73" y="50.11" width="2.52" height="2.54"/><rect x="51.25" y="50.11" width="2.52" height="2.54"/><rect x="56.29" y="50.11" width="2.52" height="2.54"/><rect x="63.84" y="50.11" width="2.52" height="2.54"/><rect x="71.4" y="50.11" width="2.52" height="2.54"/><rect x="73.92" y="50.11" width="2.52" height="2.54"/><rect x="76.44" y="50.11" width="2.52" height="2.54"/><rect x="81.48" y="50.11" width="2.52" height="2.54"/><rect x="86.52" y="50.11" width="2.52" height="2.54"/><rect x="89.04" y="50.11" width="2.52" height="2.54"/><rect x="91.56" y="50.11" width="2.52" height="2.54"/><rect x="94.08" y="50.11" width="2.52" height="2.54"/><rect x="96.6" y="50.11" width="2.52" height="2.54"/><rect x="38.65" y="52.65" width="2.52" height="2.54"/><rect x="48.73" y="52.65" width="2.52" height="2.54"/><rect x="53.77" y="52.65" width="2.52" height="2.54"/><rect x="56.29" y="52.65" width="2.52" height="2.54"/><rect x="61.32" y="52.65" width="2.52" height="2.54"/><rect x="68.88" y="52.65" width="2.52" height="2.54"/><rect x="76.44" y="52.65" width="2.52" height="2.54"/><rect x="78.96" y="52.65" width="2.52" height="2.54"/><rect x="86.52" y="52.65" width="2.52" height="2.54"/><rect x="91.56" y="52.65" width="2.52" height="2.54"/><rect x="99.12" y="52.65" width="2.52" height="2.54"/><rect x="38.65" y="55.2" width="2.52" height="2.54"/><rect x="41.17" y="55.2" width="2.52" height="2.54"/><rect x="56.29" y="55.2" width="2.52" height="2.54"/><rect x="58.81" y="55.2" width="2.52" height="2.54"/><rect x="86.52" y="55.2" width="2.52" height="2.54"/><rect x="94.08" y="55.2" width="2.52" height="2.54"/><rect x="96.6" y="55.2" width="2.52" height="2.54"/><rect x="99.12" y="55.2" width="2.52" height="2.54"/><rect x="43.69" y="57.74" width="2.52" height="2.54"/><rect x="53.77" y="57.74" width="2.52" height="2.54"/><rect x="58.81" y="57.74" width="2.52" height="2.54"/><rect x="63.84" y="57.74" width="2.52" height="2.54"/><rect x="73.92" y="57.74" width="2.52" height="2.54"/><rect x="76.44" y="57.74" width="2.52" height="2.54"/><rect x="84" y="57.74" width="2.52" height="2.54"/><rect x="99.12" y="57.74" width="2.52" height="2.54"/><rect x="38.65" y="60.29" width="2.52" height="2.54"/><rect x="43.69" y="60.29" width="2.52" height="2.54"/><rect x="51.25" y="60.29" width="2.52" height="2.54"/><rect x="56.29" y="60.29" width="2.52" height="2.54"/><rect x="68.88" y="60.29" width="2.52" height="2.54"/><rect x="76.44" y="60.29" width="2.52" height="2.54"/><rect x="78.96" y="60.29" width="2.52" height="2.54"/><rect x="81.48" y="60.29" width="2.52" height="2.54"/><rect x="89.04" y="60.29" width="2.52" height="2.54"/><rect x="96.6" y="60.29" width="2.52" height="2.54"/><rect x="38.65" y="62.83" width="2.52" height="2.54"/><rect x="41.17" y="62.83" width="2.52" height="2.54"/><rect x="46.21" y="62.83" width="2.52" height="2.54"/><rect x="53.77" y="62.83" width="2.52" height="2.54"/><rect x="56.29" y="62.83" width="2.52" height="2.54"/><rect x="61.32" y="62.83" width="2.52" height="2.54"/><rect x="73.92" y="62.83" width="2.52" height="2.54"/><rect x="76.44" y="62.83" width="2.52" height="2.54"/><rect x="89.04" y="62.83" width="2.52" height="2.54"/><rect x="91.56" y="62.83" width="2.52" height="2.54"/><rect x="94.08" y="62.83" width="2.52" height="2.54"/><rect x="96.6" y="62.83" width="2.52" height="2.54"/><rect x="99.12" y="62.83" width="2.52" height="2.54"/><rect x="38.65" y="65.37" width="2.52" height="2.54"/><rect x="51.25" y="65.37" width="2.52" height="2.54"/><rect x="61.32" y="65.37" width="2.52" height="2.54"/><rect x="68.88" y="65.37" width="2.52" height="2.54"/><rect x="73.92" y="65.37" width="2.52" height="2.54"/><rect x="78.96" y="65.37" width="2.52" height="2.54"/><rect x="86.52" y="65.37" width="2.52" height="2.54"/><rect x="91.56" y="65.37" width="2.52" height="2.54"/><rect x="94.08" y="65.37" width="2.52" height="2.54"/><rect x="99.12" y="65.37" width="2.52" height="2.54"/><rect x="38.65" y="67.92" width="2.52" height="2.54"/><rect x="43.69" y="67.92" width="2.52" height="2.54"/><rect x="46.21" y="67.92" width="2.52" height="2.54"/><rect x="48.73" y="67.92" width="2.52" height="2.54"/><rect x="53.77" y="67.92" width="2.52" height="2.54"/><rect x="56.29" y="67.92" width="2.52" height="2.54"/><rect x="63.84" y="67.92" width="2.52" height="2.54"/><rect x="66.36" y="67.92" width="2.52" height="2.54"/><rect x="71.4" y="67.92" width="2.52" height="2.54"/><rect x="76.44" y="67.92" width="2.52" height="2.54"/><rect x="78.96" y="67.92" width="2.52" height="2.54"/><rect x="81.48" y="67.92" width="2.52" height="2.54"/><rect x="84" y="67.92" width="2.52" height="2.54"/><rect x="89.04" y="67.92" width="2.52" height="2.54"/><rect x="94.08" y="67.92" width="2.52" height="2.54"/><rect x="96.6" y="67.92" width="2.52" height="2.54"/><rect x="58.81" y="70.46" width="2.52" height="2.54"/><rect x="61.32" y="70.46" width="2.52" height="2.54"/><rect x="66.36" y="70.46" width="2.52" height="2.54"/><rect x="78.96" y="70.46" width="2.52" height="2.54"/><rect x="89.04" y="70.46" width="2.52" height="2.54"/><rect x="94.08" y="70.46" width="2.52" height="2.54"/><rect x="96.6" y="70.46" width="2.52" height="2.54"/><rect x="38.65" y="73.01" width="2.52" height="2.54"/><rect x="41.17" y="73.01" width="2.52" height="2.54"/><rect x="43.69" y="73.01" width="2.52" height="2.54"/><rect x="46.21" y="73.01" width="2.52" height="2.54"/><rect x="48.73" y="73.01" width="2.52" height="2.54"/><rect x="51.25" y="73.01" width="2.52" height="2.54"/><rect x="53.77" y="73.01" width="2.52" height="2.54"/><rect x="63.84" y="73.01" width="2.52" height="2.54"/><rect x="68.88" y="73.01" width="2.52" height="2.54"/><rect x="73.92" y="73.01" width="2.52" height="2.54"/><rect x="78.96" y="73.01" width="2.52" height="2.54"/><rect x="84" y="73.01" width="2.52" height="2.54"/><rect x="89.04" y="73.01" width="2.52" height="2.54"/><rect x="99.12" y="73.01" width="2.52" height="2.54"/><rect x="38.65" y="75.55" width="2.52" height="2.54"/><rect x="53.77" y="75.55" width="2.52" height="2.54"/><rect x="66.36" y="75.55" width="2.52" height="2.54"/><rect x="71.4" y="75.55" width="2.52" height="2.54"/><rect x="76.44" y="75.55" width="2.52" height="2.54"/><rect x="78.96" y="75.55" width="2.52" height="2.54"/><rect x="89.04" y="75.55" width="2.52" height="2.54"/><rect x="99.12" y="75.55" width="2.52" height="2.54"/><rect x="38.65" y="78.09" width="2.52" height="2.54"/><rect x="43.69" y="78.09" width="2.52" height="2.54"/><rect x="46.21" y="78.09" width="2.52" height="2.54"/><rect x="48.73" y="78.09" width="2.52" height="2.54"/><rect x="53.77" y="78.09" width="2.52" height="2.54"/><rect x="58.81" y="78.09" width="2.52" height="2.54"/><rect x="63.84" y="78.09" width="2.52" height="2.54"/><rect x="66.36" y="78.09" width="2.52" height="2.54"/><rect x="68.88" y="78.09" width="2.52" height="2.54"/><rect x="73.92" y="78.09" width="2.52" height="2.54"/><rect x="78.96" y="78.09" width="2.52" height="2.54"/><rect x="81.48" y="78.09" width="2.52" height="2.54"/><rect x="84" y="78.09" width="2.52" height="2.54"/><rect x="86.52" y="78.09" width="2.52" height="2.54"/><rect x="89.04" y="78.09" width="2.52" height="2.54"/><rect x="38.65" y="80.64" width="2.52" height="2.54"/><rect x="43.69" y="80.64" width="2.52" height="2.54"/><rect x="46.21" y="80.64" width="2.52" height="2.54"/><rect x="48.73" y="80.64" width="2.52" height="2.54"/><rect x="53.77" y="80.64" width="2.52" height="2.54"/><rect x="58.81" y="80.64" width="2.52" height="2.54"/><rect x="61.32" y="80.64" width="2.52" height="2.54"/><rect x="68.88" y="80.64" width="2.52" height="2.54"/><rect x="73.92" y="80.64" width="2.52" height="2.54"/><rect x="84" y="80.64" width="2.52" height="2.54"/><rect x="96.6" y="80.64" width="2.52" height="2.54"/><rect x="99.12" y="80.64" width="2.52" height="2.54"/><rect x="38.65" y="83.18" width="2.52" height="2.54"/><rect x="43.69" y="83.18" width="2.52" height="2.54"/><rect x="46.21" y="83.18" width="2.52" height="2.54"/><rect x="48.73" y="83.18" width="2.52" height="2.54"/><rect x="53.77" y="83.18" width="2.52" height="2.54"/><rect x="61.32" y="83.18" width="2.52" height="2.54"/><rect x="66.36" y="83.18" width="2.52" height="2.54"/><rect x="71.4" y="83.18" width="2.52" height="2.54"/><rect x="76.44" y="83.18" width="2.52" height="2.54"/><rect x="81.48" y="83.18" width="2.52" height="2.54"/><rect x="89.04" y="83.18" width="2.52" height="2.54"/><rect x="94.08" y="83.18" width="2.52" height="2.54"/><rect x="96.6" y="83.18" width="2.52" height="2.54"/><rect x="99.12" y="83.18" width="2.52" height="2.54"/><rect x="38.65" y="85.73" width="2.52" height="2.54"/><rect x="53.77" y="85.73" width="2.52" height="2.54"/><rect x="58.81" y="85.73" width="2.52" height="2.54"/><rect x="63.84" y="85.73" width="2.52" height="2.54"/><rect x="66.36" y="85.73" width="2.52" height="2.54"/><rect x="73.92" y="85.73" width="2.52" height="2.54"/><rect x="76.44" y="85.73" width="2.52" height="2.54"/><rect x="89.04" y="85.73" width="2.52" height="2.54"/><rect x="94.08" y="85.73" width="2.52" height="2.54"/><rect x="96.6" y="85.73" width="2.52" height="2.54"/><rect x="99.12" y="85.73" width="2.52" height="2.54"/><rect x="38.65" y="88.27" width="2.52" height="2.54"/><rect x="41.17" y="88.27" width="2.52" height="2.54"/><rect x="43.69" y="88.27" width="2.52" height="2.54"/><rect x="46.21" y="88.27" width="2.52" height="2.54"/><rect x="48.73" y="88.27" width="2.52" height="2.54"/><rect x="51.25" y="88.27" width="2.52" height="2.54"/><rect x="53.77" y="88.27" width="2.52" height="2.54"/><rect x="58.81" y="88.27" width="2.52" height="2.54"/><rect x="68.88" y="88.27" width="2.52" height="2.54"/><rect x="81.48" y="88.27" width="2.52" height="2.54"/><rect x="91.56" y="88.27" width="2.52" height="2.54"/><rect x="99.12" y="88.27" width="2.52" height="2.54"/><rect x="106.46" y="28.98" width="2.52" height="2.54"/><rect x="114.02" y="28.98" width="2.52" height="2.54"/><rect x="108.98" y="31.52" width="2.52" height="2.54"/><rect x="116.54" y="31.52" width="2.52" height="2.54"/><rect x="119.06" y="31.52" width="2.52" height="2.54"/><rect x="106.46" y="34.07" width="2.52" height="2.54"/><rect x="114.02" y="34.07" width="2.52" height="2.54"/><rect x="103.94" y="36.61" width="2.52" height="2.54"/><rect x="103.94" y="39.16" width="2.52" height="2.54"/><rect x="108.98" y="39.16" width="2.52" height="2.54"/><rect x="119.06" y="39.16" width="2.52" height="2.54"/><rect x="114.02" y="41.7" width="2.52" height="2.54"/><rect x="106.46" y="44.24" width="2.52" height="2.54"/><rect x="119.06" y="44.24" width="2.52" height="2.54"/><rect x="106.46" y="46.79" width="2.52" height="2.54"/><rect x="114.02" y="46.79" width="2.52" height="2.54"/><rect x="119.06" y="46.79" width="2.52" height="2.54"/><rect x="108.98" y="49.33" width="2.52" height="2.54"/><rect x="111.5" y="49.33" width="2.52" height="2.54"/><rect x="116.54" y="49.33" width="2.52" height="2.54"/><rect x="103.94" y="51.88" width="2.52" height="2.54"/><rect x="106.46" y="51.88" width="2.52" height="2.54"/><rect x="111.5" y="51.88" width="2.52" height="2.54"/><rect x="108.98" y="54.42" width="2.52" height="2.54"/><rect x="114.02" y="54.42" width="2.52" height="2.54"/><rect x="125.06" y="54.42" width="2.52" height="2.54"/><rect x="111.5" y="56.96" width="2.52" height="2.54"/><rect x="122.54" y="56.96" width="2.52" height="2.54"/><rect x="106.08" y="60.59" width="2.52" height="2.54"/><rect x="113.64" y="60.59" width="2.52" height="2.54"/><rect x="108.6" y="63.14" width="2.52" height="2.54"/><rect x="116.15" y="63.14" width="2.52" height="2.54"/><rect x="118.67" y="63.14" width="2.52" height="2.54"/><rect x="106.08" y="65.68" width="2.52" height="2.54"/><rect x="113.64" y="65.68" width="2.52" height="2.54"/><rect x="103.56" y="68.22" width="2.52" height="2.54"/><rect x="103.56" y="70.77" width="2.52" height="2.54"/><rect x="108.6" y="70.77" width="2.52" height="2.54"/><rect x="121.67" y="70.77" width="2.52" height="2.54"/><rect x="113.64" y="73.31" width="2.52" height="2.54"/><rect x="106.08" y="75.86" width="2.52" height="2.54"/><rect x="118.67" y="75.86" width="2.52" height="2.54"/><rect x="106.08" y="78.4" width="2.52" height="2.54"/><rect x="113.64" y="78.4" width="2.52" height="2.54"/><rect x="118.67" y="78.4" width="2.52" height="2.54"/><rect x="108.6" y="80.95" width="2.52" height="2.54"/><rect x="111.12" y="80.95" width="2.52" height="2.54"/><rect x="116.15" y="80.95" width="2.52" height="2.54"/><rect x="103.56" y="83.49" width="2.52" height="2.54"/><rect x="106.08" y="83.49" width="2.52" height="2.54"/><rect x="111.12" y="83.49" width="2.52" height="2.54"/><rect x="108.6" y="86.03" width="2.52" height="2.54"/><rect x="111.12" y="88.58" width="2.52" height="2.54"/><rect x="20.4" y="28.59" width="2.52" height="2.54"/><rect x="27.96" y="28.59" width="2.52" height="2.54"/><rect x="22.92" y="31.14" width="2.52" height="2.54"/><rect x="30.48" y="31.14" width="2.52" height="2.54"/><rect x="33" y="31.14" width="2.52" height="2.54"/><rect x="20.4" y="33.68" width="2.52" height="2.54"/><rect x="27.96" y="33.68" width="2.52" height="2.54"/><rect x="17.88" y="36.22" width="2.52" height="2.54"/><rect x="17.88" y="38.77" width="2.52" height="2.54"/><rect x="22.92" y="38.77" width="2.52" height="2.54"/><rect x="33" y="38.77" width="2.52" height="2.54"/><rect x="27.96" y="41.31" width="2.52" height="2.54"/><rect x="20.4" y="43.86" width="2.52" height="2.54"/><rect x="33" y="43.86" width="2.52" height="2.54"/><rect x="16.4" y="46.4" width="2.52" height="2.54"/><rect x="27.96" y="46.4" width="2.52" height="2.54"/><rect x="33" y="46.4" width="2.52" height="2.54"/><rect x="22.92" y="48.95" width="2.52" height="2.54"/><rect x="25.44" y="48.95" width="2.52" height="2.54"/><rect x="30.48" y="48.95" width="2.52" height="2.54"/><rect x="13.88" y="51.49" width="2.52" height="2.54"/><rect x="16.4" y="51.49" width="2.52" height="2.54"/><rect x="25.44" y="51.49" width="2.52" height="2.54"/><rect x="22.92" y="54.03" width="2.52" height="2.54"/><rect x="27.96" y="54.03" width="2.52" height="2.54"/><rect x="33" y="54.03" width="2.52" height="2.54"/><rect x="25.44" y="56.58" width="2.52" height="2.54"/><rect x="30.48" y="56.58" width="2.52" height="2.54"/><rect x="16.4" y="60.72" width="2.52" height="2.54"/><rect x="27.96" y="60.72" width="2.52" height="2.54"/><rect x="22.92" y="63.27" width="2.52" height="2.54"/><rect x="30.48" y="63.27" width="2.52" height="2.54"/><rect x="33" y="63.27" width="2.52" height="2.54"/><rect x="20.4" y="65.81" width="2.52" height="2.54"/><rect x="27.96" y="65.81" width="2.52" height="2.54"/><rect x="17.88" y="68.35" width="2.52" height="2.54"/><rect x="17.88" y="70.9" width="2.52" height="2.54"/><rect x="22.92" y="70.9" width="2.52" height="2.54"/><rect x="33" y="70.9" width="2.52" height="2.54"/><rect x="27.96" y="73.44" width="2.52" height="2.54"/><rect x="20.4" y="75.99" width="2.52" height="2.54"/><rect x="33" y="75.99" width="2.52" height="2.54"/><rect x="20.4" y="78.53" width="2.52" height="2.54"/><rect x="27.96" y="78.53" width="2.52" height="2.54"/><rect x="33" y="78.53" width="2.52" height="2.54"/><rect x="25.44" y="81.07" width="2.52" height="2.54"/><rect x="30.48" y="81.07" width="2.52" height="2.54"/><rect x="25.44" y="83.62" width="2.52" height="2.54"/><rect x="33" y="86.16" width="2.52" height="2.54"/><rect x="30.48" y="88.71" width="2.52" height="2.54"/><rect x="39.5" y="93.37" width="2.52" height="2.54"/><rect x="47.05" y="93.37" width="2.52" height="2.54"/><rect x="49.57" y="95.91" width="2.52" height="2.54"/><rect x="52.09" y="95.91" width="2.52" height="2.54"/><rect x="47.05" y="98.45" width="2.52" height="2.54"/><rect x="52.09" y="103.54" width="2.52" height="2.54"/><rect x="52.09" y="108.63" width="2.52" height="2.54"/><rect x="59.11" y="94.91" width="2.52" height="2.54"/><rect x="66.67" y="94.91" width="2.52" height="2.54"/><rect x="61.63" y="97.46" width="2.52" height="2.54"/><rect x="69.19" y="97.46" width="2.52" height="2.54"/><rect x="71.71" y="97.46" width="2.52" height="2.54"/><rect x="59.11" y="100" width="2.52" height="2.54"/><rect x="66.67" y="100" width="2.52" height="2.54"/><rect x="56.59" y="102.55" width="2.52" height="2.54"/><rect x="56.59" y="105.09" width="2.52" height="2.54"/><rect x="61.63" y="105.09" width="2.52" height="2.54"/><rect x="71.71" y="105.09" width="2.52" height="2.54"/><rect x="66.67" y="107.64" width="2.52" height="2.54"/><rect x="71.71" y="110.18" width="2.52" height="2.54"/><rect x="66.67" y="112.72" width="2.52" height="2.54"/><rect x="71.71" y="112.72" width="2.52" height="2.54"/><rect x="61.63" y="115.27" width="2.52" height="2.54"/><rect x="64.15" y="115.27" width="2.52" height="2.54"/><rect x="69.19" y="115.27" width="2.52" height="2.54"/><rect x="80.53" y="94.01" width="2.52" height="2.54"/><rect x="88.09" y="94.01" width="2.52" height="2.54"/><rect x="83.05" y="96.56" width="2.52" height="2.54"/><rect x="90.61" y="96.56" width="2.52" height="2.54"/><rect x="93.13" y="96.56" width="2.52" height="2.54"/><rect x="80.53" y="99.1" width="2.52" height="2.54"/><rect x="88.09" y="99.1" width="2.52" height="2.54"/><rect x="78.01" y="101.64" width="2.52" height="2.54"/><rect x="78.01" y="104.19" width="2.52" height="2.54"/><rect x="83.05" y="104.19" width="2.52" height="2.54"/><rect x="93.13" y="104.19" width="2.52" height="2.54"/><rect x="88.09" y="106.73" width="2.52" height="2.54"/><rect x="80.53" y="109.28" width="2.52" height="2.54"/><rect x="80.53" y="111.82" width="2.52" height="2.54"/><rect x="101.53" y="94.01" width="2.52" height="2.54"/><rect x="60.45" y="7.75" width="2.54" height="2.52"/><rect x="60.45" y="15.31" width="2.54" height="2.52"/><rect x="57.91" y="10.27" width="2.54" height="2.52"/><rect x="57.91" y="17.83" width="2.54" height="2.52"/><rect x="57.91" y="20.35" width="2.54" height="2.52"/><rect x="55.36" y="7.75" width="2.54" height="2.52"/><rect x="55.36" y="15.31" width="2.54" height="2.52"/><rect x="50.27" y="10.27" width="2.54" height="2.52"/><rect x="50.27" y="20.35" width="2.54" height="2.52"/><rect x="47.73" y="15.31" width="2.54" height="2.52"/><rect x="45.19" y="20.35" width="2.54" height="2.52"/><rect x="42.64" y="15.31" width="2.54" height="2.52"/><rect x="42.64" y="20.35" width="2.54" height="2.52"/><rect x="40.1" y="12.79" width="2.54" height="2.52"/><rect x="40.1" y="17.83" width="2.54" height="2.52"/><rect x="35.01" y="15.31" width="2.54" height="2.52"/><rect x="35.01" y="20.35" width="2.54" height="2.52"/><rect x="32.47" y="17.83" width="2.54" height="2.52"/><rect x="81.26" y="7.89" width="2.52" height="2.54"/><rect x="76.22" y="10.43" width="2.52" height="2.54"/><rect x="81.26" y="10.43" width="2.52" height="2.54"/><rect x="73.7" y="12.98" width="2.52" height="2.54"/><rect x="78.74" y="12.98" width="2.52" height="2.54"/><rect x="66.14" y="15.52" width="2.52" height="2.54"/><rect x="68.66" y="15.52" width="2.52" height="2.54"/><rect x="73.7" y="15.52" width="2.52" height="2.54"/><rect x="71.18" y="18.07" width="2.52" height="2.54"/><rect x="76.22" y="18.07" width="2.52" height="2.54"/><rect x="81.26" y="18.07" width="2.52" height="2.54"/><rect x="73.7" y="20.61" width="2.52" height="2.54"/><rect x="78.74" y="20.61" width="2.52" height="2.54"/><rect x="90.08" y="7.73" width="2.52" height="2.54"/><rect x="90.08" y="10.27" width="2.52" height="2.54"/><rect x="92.6" y="12.82" width="2.52" height="2.54"/><rect x="95.12" y="12.82" width="2.52" height="2.54"/><rect x="87.56" y="15.36" width="2.52" height="2.54"/><rect x="90.08" y="15.36" width="2.52" height="2.54"/><rect x="95.12" y="15.36" width="2.52" height="2.54"/><rect x="92.6" y="17.9" width="2.52" height="2.54"/><rect x="97.64" y="17.9" width="2.52" height="2.54"/><rect x="102.67" y="17.9" width="2.52" height="2.54"/><rect x="95.12" y="20.45" width="2.52" height="2.54"/><rect x="100.16" y="20.45" width="2.52" height="2.54"/><rect x="21.27" y="8.09" width="2.52" height="2.54"/><rect x="21.27" y="10.63" width="2.52" height="2.54"/><rect x="23.79" y="13.17" width="2.52" height="2.54"/><rect x="26.31" y="13.17" width="2.52" height="2.54"/><rect x="18.75" y="15.72" width="2.52" height="2.54"/><rect x="21.27" y="15.72" width="2.52" height="2.54"/><rect x="26.31" y="15.72" width="2.52" height="2.54"/><rect x="23.79" y="18.26" width="2.52" height="2.54"/><rect x="26.31" y="20.81" width="2.52" height="2.54"/><rect x="9.02" y="16.27" width="2.52" height="2.54"/><rect x="6.5" y="18.81" width="2.52" height="2.54"/><rect x="3.98" y="21.35" width="2.52" height="2.54"/><rect x="3.98" y="23.9" width="2.52" height="2.54"/><rect x="9.02" y="23.9" width="2.52" height="2.54"/><rect x="6.5" y="28.99" width="2.52" height="2.54"/><rect x="6.5" y="31.53" width="2.52" height="2.54"/><rect x="9.02" y="34.08" width="2.52" height="2.54"/><rect x="11.54" y="34.08" width="2.52" height="2.54"/><rect x="3.98" y="36.62" width="2.52" height="2.54"/><rect x="6.5" y="36.62" width="2.52" height="2.54"/><rect x="11.54" y="36.62" width="2.52" height="2.54"/><rect x="9.02" y="39.16" width="2.52" height="2.54"/><rect x="11.54" y="41.71" width="2.52" height="2.54"/><rect x="126.23" y="9.25" width="2.52" height="2.54"/><rect x="123.72" y="14.33" width="2.52" height="2.54"/><rect x="126.23" y="14.33" width="2.52" height="2.54"/><rect x="135.27" y="19.42" width="2.52" height="2.54"/><rect x="126.23" y="23.57" width="2.52" height="2.54"/><rect x="132.75" y="26.11" width="2.52" height="2.54"/><rect x="130.23" y="28.65" width="2.52" height="2.54"/><rect x="127.72" y="31.2" width="2.52" height="2.54"/><rect x="127.72" y="33.74" width="2.52" height="2.54"/><rect x="132.75" y="33.74" width="2.52" height="2.54"/><rect x="130.23" y="38.83" width="2.52" height="2.54"/><rect x="130.23" y="41.37" width="2.52" height="2.54"/><rect x="132.75" y="43.92" width="2.52" height="2.54"/><rect x="135.27" y="43.92" width="2.52" height="2.54"/><rect x="127.72" y="46.46" width="2.52" height="2.54"/><rect x="130.23" y="46.46" width="2.52" height="2.54"/><rect x="135.27" y="46.46" width="2.52" height="2.54"/><rect x="132.75" y="49.01" width="2.52" height="2.54"/><rect x="135.27" y="51.55" width="2.52" height="2.54"/><rect x="108.17" y="1.67" width="2.52" height="2.54"/><rect x="113.21" y="1.67" width="2.52" height="2.54"/><rect x="110.69" y="6.76" width="2.52" height="2.54"/><rect x="110.69" y="9.3" width="2.52" height="2.54"/><rect x="113.21" y="11.85" width="2.52" height="2.54"/><rect x="115.73" y="11.85" width="2.52" height="2.54"/><rect x="108.17" y="14.39" width="2.52" height="2.54"/><rect x="110.69" y="14.39" width="2.52" height="2.54"/><rect x="115.73" y="14.39" width="2.52" height="2.54"/><rect x="113.21" y="16.93" width="2.52" height="2.54"/><rect x="115.73" y="19.48" width="2.52" height="2.54"/></g></g></svg>