<svg xmlns="http://www.w3.org/2000/svg" viewBox="0 0 128.7 128.7"><defs><style>.cls-1{fill:#fff;}</style></defs><g id="Layer_2" data-name="Layer 2"><g id="Layer_1-2" data-name="Layer 1"><circle class="cls-1" cx="64.35" cy="64.35" r="64.35"/><path d="M64.35,3A61.35,61.35,0,1,1,3,64.35,61.42,61.42,0,0,1,64.35,3m0-3A64.35,64.35,0,1,0,128.7,64.35,64.35,64.35,0,0,0,64.35,0Z"/><rect x="32.26" y="31.85" width="2.52" height="2.54"/><rect x="34.78" y="31.85" width="2.52" height="2.54"/><rect x="37.3" y="31.85" width="2.52" height="2.54"/><rect x="39.82" y="31.85" width="2.52" height="2.54"/><rect x="42.34" y="31.85" width="2.52" height="2.54"/><rect x="44.86" y="31.85" width="2.52" height="2.54"/><rect x="47.38" y="31.85" width="2.52" height="2.54"/><rect x="52.42" y="31.85" width="2.52" height="2.54"/><rect x="54.94" y="31.85" width="2.52" height="2.54"/><rect x="57.46" y="31.85" width="2.52" height="2.54"/><rect x="59.98" y="31.85" width="2.52" height="2.54"/><rect x="77.62" y="31.85" width="2.52" height="2.54"/><rect x="80.14" y="31.85" width="2.52" height="2.54"/><rect x="82.66" y="31.85" width="2.52" height="2.54"/><rect x="85.17" y="31.85" width="2.52" height="2.54"/><rect x="87.69" y="31.85" width="2.52" height="2.54"/><rect x="90.21" y="31.85" width="2.52" height="2.54"/><rect x="92.73" y="31.85" width="2.52" height="2.54"/><rect x="32.26" y="34.39" width="2.52" height="2.54"/><rect x="47.38" y="34.39" width="2.52" height="2.54"/><rect x="59.98" y="34.39" width="2.52" height="2.54"/><rect x="62.5" y="34.39" width="2.52" height="2.54"/><rect x="65.02" y="34.39" width="2.52" height="2.54"/><rect x="67.54" y="34.39" width="2.52" height="2.54"/><rect x="72.58" y="34.39" width="2.52" height="2.54"/><rect x="77.62" y="34.39" width="2.52" height="2.54"/><rect x="92.73" y="34.39" width="2.52" height="2.54"/><rect x="32.26" y="36.94" width="2.52" height="2.54"/><rect x="37.3" y="36.94" width="2.52" height="2.54"/><rect x="39.82" y="36.94" width="2.52" height="2.54"/><rect x="42.34" y="36.94" width="2.52" height="2.54"/><rect x="47.38" y="36.94" width="2.52" height="2.54"/><rect x="54.94" y="36.94" width="2.52" height="2.54"/><rect x="59.98" y="36.94" width="2.52" height="2.54"/><rect x="65.02" y="36.94" width="2.52" height="2.54"/><rect x="70.06" y="36.94" width="2.52" height="2.54"/><rect x="72.58" y="36.94" width="2.52" height="2.54"/><rect x="77.62" y="36.94" width="2.52" height="2.54"/><rect x="82.66" y="36.94" width="2.52" height="2.54"/><rect x="85.17" y="36.94" width="2.52" height="2.54"/><rect x="87.69" y="36.94" width="2.52" height="2.54"/><rect x="92.73" y="36.94" width="2.52" height="2.54"/><rect x="32.26" y="39.48" width="2.52" height="2.54"/><rect x="37.3" y="39.48" width="2.52" height="2.54"/><rect x="39.82" y="39.48" width="2.52" height="2.54"/><rect x="42.34" y="39.48" width="2.52" height="2.54"/><rect x="47.38" y="39.48" width="2.52" height="2.54"/><rect x="57.46" y="39.48" width="2.52" height="2.54"/><rect x="72.58" y="39.48" width="2.52" height="2.54"/><rect x="77.62" y="39.48" width="2.52" height="2.54"/><rect x="82.66" y="39.48" width="2.52" height="2.54"/><rect x="85.17" y="39.48" width="2.52" height="2.54"/><rect x="87.69" y="39.48" width="2.52" height="2.54"/><rect x="92.73" y="39.48" width="2.52" height="2.54"/><rect x="32.26" y="42.02" width="2.52" height="2.54"/><rect x="37.3" y="42.02" width="2.52" height="2.54"/><rect x="39.82" y="42.02" width="2.52" height="2.54"/><rect x="42.34" y="42.02" width="2.52" height="2.54"/><rect x="47.38" y="42.02" width="2.52" height="2.54"/><rect x="57.46" y="42.02" width="2.52" height="2.54"/><rect x="59.98" y="42.02" width="2.52" height="2.54"/><rect x="62.5" y="42.02" width="2.52" height="2.54"/><rect x="67.54" y="42.02" width="2.52" height="2.54"/><rect x="72.58" y="42.02" width="2.52" height="2.54"/><rect x="77.62" y="42.02" width="2.52" height="2.54"/><rect x="82.66" y="42.02" width="2.52" height="2.54"/><rect x="85.17" y="42.02" width="2.52" height="2.54"/><rect x="87.69" y="42.02" width="2.52" height="2.54"/><rect x="92.73" y="42.02" width="2.52" height="2.54"/><rect x="32.26" y="44.57" width="2.52" height="2.54"/><rect x="47.38" y="44.57" width="2.52" height="2.54"/><rect x="54.94" y="44.57" width="2.52" height="2.54"/><rect x="59.98" y="44.57" width="2.52" height="2.54"/><rect x="72.58" y="44.57" width="2.52" height="2.54"/><rect x="77.62" y="44.57" width="2.52" height="2.54"/><rect x="92.73" y="44.57" width="2.52" height="2.54"/><rect x="32.26" y="47.11" width="2.52" height="2.54"/><rect x="34.78" y="47.11" width="2.52" height="2.54"/><rect x="37.3" y="47.11" width="2.52" height="2.54"/><rect x="39.82" y="47.11" width="2.52" height="2.54"/><rect x="42.34" y="47.11" width="2.52" height="2.54"/><rect x="44.86" y="47.11" width="2.52" height="2.54"/><rect x="47.38" y="47.11" width="2.52" height="2.54"/><rect x="52.42" y="47.11" width="2.52" height="2.54"/><rect x="57.46" y="47.11" width="2.52" height="2.54"/><rect x="67.54" y="47.11" width="2.52" height="2.54"/><rect x="72.58" y="47.11" width="2.52" height="2.54"/><rect x="77.62" y="47.11" width="2.52" height="2.54"/><rect x="80.14" y="47.11" width="2.52" height="2.54"/><rect x="82.66" y="47.11" width="2.52" height="2.54"/><rect x="85.17" y="47.11" width="2.52" height="2.54"/><rect x="87.69" y="47.11" width="2.52" height="2.54"/><rect x="90.21" y="47.11" width="2.52" height="2.54"/><rect x="92.73" y="47.11" width="2.52" height="2.54"/><rect x="52.42" y="49.66" width="2.52" height="2.54"/><rect x="54.94" y="49.66" width="2.52" height="2.54"/><rect x="62.5" y="49.66" width="2.52" height="2.54"/><rect x="65.02" y="49.66" width="2.52" height="2.54"/><rect x="32.26" y="52.2" width="2.52" height="2.54"/><rect x="42.34" y="52.2" width="2.52" height="2.54"/><rect x="47.38" y="52.2" width="2.52" height="2.54"/><rect x="54.94" y="52.2" width="2.52" height="2.54"/><rect x="62.5" y="52.2" width="2.52" height="2.54"/><rect x="70.06" y="52.2" width="2.52" height="2.54"/><rect x="77.62" y="52.2" width="2.52" height="2.54"/><rect x="92.73" y="52.2" width="2.52" height="2.54"/><rect x="32.26" y="54.74" width="2.52" height="2.54"/><rect x="34.78" y="54.74" width="2.52" height="2.54"/><rect x="37.3" y="54.74" width="2.52" height="2.54"/><rect x="42.34" y="54.74" width="2.52" height="2.54"/><rect x="44.86" y="54.74" width="2.52" height="2.54"/><rect x="49.9" y="54.74" width="2.52" height="2.54"/><rect x="57.46" y="54.74" width="2.52" height="2.54"/><rect x="65.02" y="54.74" width="2.52" height="2.54"/><rect x="67.54" y="54.74" width="2.52" height="2.54"/><rect x="70.06" y="54.74" width="2.52" height="2.54"/><rect x="75.1" y="54.74" width="2.52" height="2.54"/><rect x="80.14" y="54.74" width="2.52" height="2.54"/><rect x="82.66" y="54.74" width="2.52" height="2.54"/><rect x="85.17" y="54.74" width="2.52" height="2.54"/><rect x="87.69" y="54.74" width="2.52" height="2.54"/><rect x="90.21" y="54.74" width="2.52" height="2.54"/><rect x="32.26" y="57.29" width="2.52" height="2.54"/><rect x="42.34" y="57.29" width="2.52" height="2.54"/><rect x="47.38" y="57.29" width="2.52" height="2.54"/><rect x="49.9" y="57.29" width="2.52" height="2.54"/><rect x="54.94" y="57.29" width="2.52" height="2.54"/><rect x="62.5" y="57.29" width="2.52" height="2.54"/><rect x="70.06" y="57.29" width="2.52" height="2.54"/><rect x="72.58" y="57.29" width="2.52" height="2.54"/><rect x="80.14" y="57.29" width="2.52" height="2.54"/><rect x="85.17" y="57.29" width="2.52" height="2.54"/><rect x="92.73" y="57.29" width="2.52" height="2.54"/><rect x="32.26" y="59.83" width="2.52" height="2.54"/><rect x="34.78" y="59.83" width="2.52" height="2.54"/><rect x="49.9" y="59.83" width="2.52" height="2.54"/><rect x="52.42" y="59.83" width="2.52" height="2.54"/><rect x="80.14" y="59.83" width="2.52" height="2.54"/><rect x="87.69" y="59.83" width="2.52" height="2.54"/><rect x="90.21" y="59.83" width="2.52" height="2.54"/><rect x="92.73" y="59.83" width="2.52" height="2.54"/><rect x="37.3" y="62.38" width="2.52" height="2.54"/><rect x="47.38" y="62.38" width="2.52" height="2.54"/><rect x="52.42" y="62.38" width="2.52" height="2.54"/><rect x="57.46" y="62.38" width="2.52" height="2.54"/><rect x="67.54" y="62.38" width="2.52" height="2.54"/><rect x="70.06" y="62.38" width="2.52" height="2.54"/><rect x="77.62" y="62.38" width="2.52" height="2.54"/><rect x="92.73" y="62.38" width="2.52" height="2.54"/><rect x="32.26" y="64.92" width="2.52" height="2.54"/><rect x="37.3" y="64.92" width="2.52" height="2.54"/><rect x="44.86" y="64.92" width="2.52" height="2.54"/><rect x="49.9" y="64.92" width="2.52" height="2.54"/><rect x="62.5" y="64.92" width="2.52" height="2.54"/><rect x="70.06" y="64.92" width="2.52" height="2.54"/><rect x="72.58" y="64.92" width="2.52" height="2.54"/><rect x="75.1" y="64.92" width="2.52" height="2.54"/><rect x="82.66" y="64.92" width="2.52" height="2.54"/><rect x="90.21" y="64.92" width="2.52" height="2.54"/><rect x="32.26" y="67.46" width="2.52" height="2.54"/><rect x="34.78" y="67.46" width="2.52" height="2.54"/><rect x="39.82" y="67.46" width="2.52" height="2.54"/><rect x="47.38" y="67.46" width="2.52" height="2.54"/><rect x="49.9" y="67.46" width="2.52" height="2.54"/><rect x="54.94" y="67.46" width="2.52" height="2.54"/><rect x="67.54" y="67.46" width="2.52" height="2.54"/><rect x="70.06" y="67.46" width="2.52" height="2.54"/><rect x="82.66" y="67.46" width="2.52" height="2.54"/><rect x="85.17" y="67.46" width="2.52" height="2.54"/><rect x="87.69" y="67.46" width="2.52" height="2.54"/><rect x="90.21" y="67.46" width="2.52" height="2.54"/><rect x="92.73" y="67.46" width="2.52" height="2.54"/><rect x="32.26" y="70.01" width="2.52" height="2.54"/><rect x="44.86" y="70.01" width="2.52" height="2.54"/><rect x="54.94" y="70.01" width="2.52" height="2.54"/><rect x="62.5" y="70.01" width="2.52" height="2.54"/><rect x="67.54" y="70.01" width="2.52" height="2.54"/><rect x="72.58" y="70.01" width="2.52" height="2.54"/><rect x="80.14" y="70.01" width="2.52" height="2.54"/><rect x="85.17" y="70.01" width="2.52" height="2.54"/><rect x="87.69" y="70.01" width="2.52" height="2.54"/><rect x="92.73" y="70.01" width="2.52" height="2.54"/><rect x="32.26" y="72.55" width="2.52" height="2.54"/><rect x="37.3" y="72.55" width="2.52" height="2.54"/><rect x="39.82" y="72.55" width="2.52" height="2.54"/><rect x="42.34" y="72.55" width="2.52" height="2.54"/><rect x="47.38" y="72.55" width="2.52" height="2.54"/><rect x="49.9" y="72.55" width="2.52" height="2.54"/><rect x="57.46" y="72.55" width="2.52" height="2.54"/><rect x="59.98" y="72.55" width="2.52" height="2.54"/><rect x="65.02" y="72.55" width="2.52" height="2.54"/><rect x="70.06" y="72.55" width="2.52" height="2.54"/><rect x="72.58" y="72.55" width="2.52" height="2.54"/><rect x="75.1" y="72.55" width="2.52" height="2.54"/><rect x="77.62" y="72.55" width="2.52" height="2.54"/><rect x="82.66" y="72.55" width="2.52" height="2.54"/><rect x="87.69" y="72.55" width="2.52" height="2.54"/><rect x="90.21" y="72.55" width="2.52" height="2.54"/><rect x="52.42" y="75.1" width="2.52" height="2.54"/><rect x="54.94" y="75.1" width="2.52" height="2.54"/><rect x="59.98" y="75.1" width="2.52" height="2.54"/><rect x="72.58" y="75.1" width="2.52" height="2.54"/><rect x="82.66" y="75.1" width="2.52" height="2.54"/><rect x="87.69" y="75.1" width="2.52" height="2.54"/><rect x="90.21" y="75.1" width="2.52" height="2.54"/><rect x="32.26" y="77.64" width="2.52" height="2.54"/><rect x="34.78" y="77.64" width="2.52" height="2.54"/><rect x="37.3" y="77.64" width="2.52" height="2.54"/><rect x="39.82" y="77.64" width="2.52" height="2.54"/><rect x="42.34" y="77.64" width="2.52" height="2.54"/><rect x="44.86" y="77.64" width="2.52" height="2.54"/><rect x="47.38" y="77.64" width="2.52" height="2.54"/><rect x="57.46" y="77.64" width="2.52" height="2.54"/><rect x="62.5" y="77.64" width="2.52" height="2.54"/><rect x="67.54" y="77.64" width="2.52" height="2.54"/><rect x="72.58" y="77.64" width="2.52" height="2.54"/><rect x="77.62" y="77.64" width="2.52" height="2.54"/><rect x="82.66" y="77.64" width="2.52" height="2.54"/><rect x="92.73" y="77.64" width="2.52" height="2.54"/><rect x="32.26" y="80.19" width="2.52" height="2.54"/><rect x="47.38" y="80.19" width="2.52" height="2.54"/><rect x="59.98" y="80.19" width="2.52" height="2.54"/><rect x="65.02" y="80.19" width="2.52" height="2.54"/><rect x="70.06" y="80.19" width="2.52" height="2.54"/><rect x="72.58" y="80.19" width="2.52" height="2.54"/><rect x="82.66" y="80.19" width="2.52" height="2.54"/><rect x="92.73" y="80.19" width="2.52" height="2.54"/><rect x="32.26" y="82.73" width="2.52" height="2.54"/><rect x="37.3" y="82.73" width="2.52" height="2.54"/><rect x="39.82" y="82.73" width="2.52" height="2.54"/><rect x="42.34" y="82.73" width="2.52" height="2.54"/><rect x="47.38" y="82.73" width="2.52" height="2.54"/><rect x="52.42" y="82.73" width="2.52" height="2.54"/><rect x="57.46" y="82.73" width="2.52" height="2.54"/><rect x="59.98" y="82.73" width="2.52" height="2.54"/><rect x="62.5" y="82.73" width="2.52" height="2.54"/><rect x="67.54" y="82.73" width="2.52" height="2.54"/><rect x="72.58" y="82.73" width="2.52" height="2.54"/><rect x="75.1" y="82.73" width="2.52" height="2.54"/><rect x="77.62" y="82.73" width="2.52" height="2.54"/><rect x="80.14" y="82.73" width="2.52" height="2.54"/><rect x="82.66" y="82.73" width="2.52" height="2.54"/><rect x="32.26" y="85.27" width="2.52" height="2.54"/><rect x="37.3" y="85.27" width="2.52" height="2.54"/><rect x="39.82" y="85.27" width="2.52" height="2.54"/><rect x="42.34" y="85.27" width="2.52" height="2.54"/><rect x="47.38" y="85.27" width="2.52" height="2.54"/><rect x="52.42" y="85.27" width="2.52" height="2.54"/><rect x="54.94" y="85.27" width="2.52" height="2.54"/><rect x="62.5" y="85.27" width="2.52" height="2.54"/><rect x="67.54" y="85.27" width="2.52" height="2.54"/><rect x="77.62" y="85.27" width="2.52" height="2.54"/><rect x="90.21" y="85.27" width="2.52" height="2.54"/><rect x="92.73" y="85.27" width="2.52" height="2.54"/><rect x="32.26" y="87.82" width="2.52" height="2.54"/><rect x="37.3" y="87.82" width="2.52" height="2.54"/><rect x="39.82" y="87.82" width="2.52" height="2.54"/><rect x="42.34" y="87.82" width="2.52" height="2.54"/><rect x="47.38" y="87.82" width="2.52" height="2.54"/><rect x="54.94" y="87.82" width="2.52" height="2.54"/><rect x="59.98" y="87.82" width="2.52" height="2.54"/><rect x="65.02" y="87.82" width="2.52" height="2.54"/><rect x="70.06" y="87.82" width="2.52" height="2.54"/><rect x="75.1" y="87.82" width="2.52" height="2.54"/><rect x="82.66" y="87.82" width="2.52" height="2.54"/><rect x="87.69" y="87.82" width="2.52" height="2.54"/><rect x="90.21" y="87.82" width="2.52" height="2.54"/><rect x="92.73" y="87.82" width="2.52" height="2.54"/><rect x="32.26" y="90.36" width="2.52" height="2.54"/><rect x="47.38" y="90.36" width="2.52" height="2.54"/><rect x="52.42" y="90.36" width="2.52" height="2.54"/><rect x="57.46" y="90.36" width="2.52" height="2.54"/><rect x="59.98" y="90.36" width="2.52" height="2.54"/><rect x="67.54" y="90.36" width="2.52" height="2.54"/><rect x="70.06" y="90.36" width="2.52" height="2.54"/><rect x="82.66" y="90.36" width="2.52" height="2.54"/><rect x="87.69" y="90.36" width="2.52" height="2.54"/><rect x="90.21" y="90.36" width="2.52" height="2.54"/><rect x="92.73" y="90.36" width="2.52" height="2.54"/><rect x="32.26" y="92.91" width="2.52" height="2.54"/><rect x="34.78" y="92.91" width="2.52" height="2.54"/><rect x="37.3" y="92.91" width="2.52" height="2.54"/><rect x="39.82" y="92.91" width="2.52" height="2.54"/><rect x="42.34" y="92.91" width="2.52" height="2.54"/><rect x="44.86" y="92.91" width="2.52" height="2.54"/><rect x="47.38" y="92.91" width="2.52" height="2.54"/><rect x="52.42" y="92.91" width="2.52" height="2.54"/><rect x="62.5" y="92.91" width="2.52" height="2.54"/><rect x="75.1" y="92.91" width="2.52" height="2.54"/><rect x="85.17" y="92.91" width="2.52" height="2.54"/><rect x="92.73" y="92.91" width="2.52" height="2.54"/><rect x="100.08" y="33.61" width="2.52" height="2.54"/><rect x="107.64" y="33.61" width="2.52" height="2.54"/><rect x="102.6" y="36.16" width="2.52" height="2.54"/><rect x="110.16" y="36.16" width="2.52" height="2.54"/><rect x="112.68" y="36.16" width="2.52" height="2.54"/><rect x="100.08" y="38.7" width="2.52" height="2.54"/><rect x="107.64" y="38.7" width="2.52" height="2.54"/><rect x="97.56" y="41.25" width="2.52" height="2.54"/><rect x="97.56" y="43.79" width="2.52" height="2.54"/><rect x="102.6" y="43.79" width="2.52" height="2.54"/><rect x="112.68" y="43.79" width="2.52" height="2.54"/><rect x="107.64" y="46.33" width="2.52" height="2.54"/><rect x="100.08" y="48.88" width="2.52" height="2.54"/><rect x="112.68" y="48.88" width="2.52" height="2.54"/><rect x="100.08" y="51.42" width="2.52" height="2.54"/><rect x="107.64" y="51.42" width="2.52" height="2.54"/><rect x="112.68" y="51.42" width="2.52" height="2.54"/><rect x="102.6" y="53.97" width="2.52" height="2.54"/><rect x="105.12" y="53.97" width="2.52" height="2.54"/><rect x="110.16" y="53.97" width="2.52" height="2.54"/><rect x="97.56" y="56.51" width="2.52" height="2.54"/><rect x="100.08" y="56.51" width="2.52" height="2.54"/><rect x="105.12" y="56.51" width="2.52" height="2.54"/><rect x="102.6" y="59.06" width="2.52" height="2.54"/><rect x="107.64" y="59.06" width="2.52" height="2.54"/><rect x="118.68" y="59.06" width="2.52" height="2.54"/><rect x="105.12" y="61.6" width="2.52" height="2.54"/><rect x="116.16" y="61.6" width="2.52" height="2.54"/><rect x="99.69" y="65.23" width="2.52" height="2.54"/><rect x="107.25" y="65.23" width="2.52" height="2.54"/><rect x="102.21" y="67.77" width="2.52" height="2.54"/><rect x="109.77" y="67.77" width="2.52" height="2.54"/><rect x="112.29" y="67.77" width="2.52" height="2.54"/><rect x="99.69" y="70.32" width="2.52" height="2.54"/><rect x="107.25" y="70.32" width="2.52" height="2.54"/><rect x="97.17" y="72.86" width="2.52" height="2.54"/><rect x="97.17" y="75.4" width="2.52" height="2.54"/><rect x="102.21" y="75.4" width="2.52" height="2.54"/><rect x="115.29" y="75.4" width="2.52" height="2.54"/><rect x="107.25" y="77.95" width="2.52" height="2.54"/><rect x="99.69" y="80.49" width="2.52" height="2.54"/><rect x="112.29" y="80.49" width="2.52" height="2.54"/><rect x="99.69" y="83.04" width="2.52" height="2.54"/><rect x="107.25" y="83.04" width="2.52" height="2.54"/><rect x="112.29" y="83.04" width="2.52" height="2.54"/><rect x="102.21" y="85.58" width="2.52" height="2.54"/><rect x="104.73" y="85.58" width="2.52" height="2.54"/><rect x="109.77" y="85.58" width="2.52" height="2.54"/><rect x="97.17" y="88.12" width="2.52" height="2.54"/><rect x="99.69" y="88.12" width="2.52" height="2.54"/><rect x="104.73" y="88.12" width="2.52" height="2.54"/><rect x="102.21" y="90.67" width="2.52" height="2.54"/><rect x="107.25" y="90.67" width="2.52" height="2.54"/><rect x="112.29" y="90.67" width="2.52" height="2.54"/><rect x="104.73" y="93.21" width="2.52" height="2.54"/><rect x="109.77" y="93.21" width="2.52" height="2.54"/><rect x="14.01" y="33.23" width="2.52" height="2.54"/><rect x="21.57" y="33.23" width="2.52" height="2.54"/><rect x="16.53" y="35.77" width="2.52" height="2.54"/><rect x="24.09" y="35.77" width="2.52" height="2.54"/><rect x="26.61" y="35.77" width="2.52" height="2.54"/><rect x="14.01" y="38.32" width="2.52" height="2.54"/><rect x="21.57" y="38.32" width="2.52" height="2.54"/><rect x="11.5" y="40.86" width="2.52" height="2.54"/><rect x="11.5" y="43.4" width="2.52" height="2.54"/><rect x="16.53" y="43.4" width="2.52" height="2.54"/><rect x="26.61" y="43.4" width="2.52" height="2.54"/><rect x="21.57" y="45.95" width="2.52" height="2.54"/><rect x="14.01" y="48.49" width="2.52" height="2.54"/><rect x="26.61" y="48.49" width="2.52" height="2.54"/><rect x="10.01" y="51.04" width="2.52" height="2.54"/><rect x="21.57" y="51.04" width="2.52" height="2.54"/><rect x="26.61" y="51.04" width="2.52" height="2.54"/><rect x="16.53" y="53.58" width="2.52" height="2.54"/><rect x="19.05" y="53.58" width="2.52" height="2.54"/><rect x="24.09" y="53.58" width="2.52" height="2.54"/><rect x="10.01" y="56.12" width="2.52" height="2.54"/><rect x="19.05" y="56.12" width="2.52" height="2.54"/><rect x="16.53" y="58.67" width="2.52" height="2.54"/><rect x="21.57" y="58.67" width="2.52" height="2.54"/><rect x="26.61" y="58.67" width="2.52" height="2.54"/><rect x="19.05" y="61.21" width="2.52" height="2.54"/><rect x="24.09" y="61.21" width="2.52" height="2.54"/><rect x="10.01" y="65.36" width="2.52" height="2.54"/><rect x="21.57" y="65.36" width="2.52" height="2.54"/><rect x="16.53" y="67.9" width="2.52" height="2.54"/><rect x="24.09" y="67.9" width="2.52" height="2.54"/><rect x="26.61" y="67.9" width="2.52" height="2.54"/><rect x="14.01" y="70.44" width="2.52" height="2.54"/><rect x="21.57" y="70.44" width="2.52" height="2.54"/><rect x="11.5" y="72.99" width="2.52" height="2.54"/><rect x="11.5" y="75.53" width="2.52" height="2.54"/><rect x="16.53" y="75.53" width="2.52" height="2.54"/><rect x="26.61" y="75.53" width="2.52" height="2.54"/><rect x="21.57" y="78.08" width="2.52" height="2.54"/><rect x="14.01" y="80.62" width="2.52" height="2.54"/><rect x="26.61" y="80.62" width="2.52" height="2.54"/><rect x="14.01" y="83.17" width="2.52" height="2.54"/><rect x="21.57" y="83.17" width="2.52" height="2.54"/><rect x="26.61" y="83.17" width="2.52" height="2.54"/><rect x="16.53" y="85.71" width="2.52" height="2.54"/><rect x="19.05" y="85.71" width="2.52" height="2.54"/><rect x="24.09" y="85.71" width="2.52" height="2.54"/><rect x="11.5" y="88.25" width="2.52" height="2.54"/><rect x="14.01" y="88.25" width="2.52" height="2.54"/><rect x="19.05" y="88.25" width="2.52" height="2.54"/><rect x="16.53" y="90.8" width="2.52" height="2.54"/><rect x="21.57" y="90.8" width="2.52" height="2.54"/><rect x="26.61" y="90.8" width="2.52" height="2.54"/><rect x="19.05" y="93.34" width="2.52" height="2.54"/><rect x="24.09" y="93.34" width="2.52" height="2.54"/><rect x="33.11" y="98" width="2.52" height="2.54"/><rect x="40.67" y="98" width="2.52" height="2.54"/><rect x="35.63" y="100.55" width="2.52" height="2.54"/><rect x="43.19" y="100.55" width="2.52" height="2.54"/><rect x="45.71" y="100.55" width="2.52" height="2.54"/><rect x="33.11" y="103.09" width="2.52" height="2.54"/><rect x="40.67" y="103.09" width="2.52" height="2.54"/><rect x="30.59" y="105.63" width="2.52" height="2.54"/><rect x="35.63" y="108.18" width="2.52" height="2.54"/><rect x="45.71" y="108.18" width="2.52" height="2.54"/><rect x="45.71" y="113.27" width="2.52" height="2.54"/><rect x="52.72" y="99.55" width="2.52" height="2.54"/><rect x="60.28" y="99.55" width="2.52" height="2.54"/><rect x="55.24" y="102.09" width="2.52" height="2.54"/><rect x="62.8" y="102.09" width="2.52" height="2.54"/><rect x="65.32" y="102.09" width="2.52" height="2.54"/><rect x="52.72" y="104.64" width="2.52" height="2.54"/><rect x="60.28" y="104.64" width="2.52" height="2.54"/><rect x="50.2" y="107.18" width="2.52" height="2.54"/><rect x="50.2" y="109.73" width="2.52" height="2.54"/><rect x="55.24" y="109.73" width="2.52" height="2.54"/><rect x="65.32" y="109.73" width="2.52" height="2.54"/><rect x="60.28" y="112.27" width="2.52" height="2.54"/><rect x="65.32" y="114.81" width="2.52" height="2.54"/><rect x="60.28" y="117.36" width="2.52" height="2.54"/><rect x="65.32" y="117.36" width="2.52" height="2.54"/><rect x="55.24" y="119.9" width="2.52" height="2.54"/><rect x="57.76" y="119.9" width="2.52" height="2.54"/><rect x="62.8" y="119.9" width="2.52" height="2.54"/><rect x="74.14" y="98.65" width="2.52" height="2.54"/><rect x="81.7" y="98.65" width="2.52" height="2.54"/><rect x="76.66" y="101.19" width="2.52" height="2.54"/><rect x="84.22" y="101.19" width="2.52" height="2.54"/><rect x="86.74" y="101.19" width="2.52" height="2.54"/><rect x="74.14" y="103.73" width="2.52" height="2.54"/><rect x="81.7" y="103.73" width="2.52" height="2.54"/><rect x="71.62" y="106.28" width="2.52" height="2.54"/><rect x="71.62" y="108.82" width="2.52" height="2.54"/><rect x="76.66" y="108.82" width="2.52" height="2.54"/><rect x="86.74" y="108.82" width="2.52" height="2.54"/><rect x="81.7" y="111.37" width="2.52" height="2.54"/><rect x="74.14" y="113.91" width="2.52" height="2.54"/><rect x="74.14" y="116.46" width="2.52" height="2.54"/><rect x="95.14" y="98.65" width="2.52" height="2.54"/><rect x="102.7" y="98.65" width="2.52" height="2.54"/><rect x="97.66" y="101.19" width="2.52" height="2.54"/><rect x="105.22" y="101.19" width="2.52" height="2.54"/><rect x="107.74" y="101.19" width="2.52" height="2.54"/><rect x="95.14" y="103.73" width="2.52" height="2.54"/><rect x="102.7" y="103.73" width="2.52" height="2.54"/><rect x="92.62" y="106.28" width="2.52" height="2.54"/><rect x="92.62" y="108.82" width="2.52" height="2.54"/><rect x="97.66" y="108.82" width="2.52" height="2.54"/><rect x="102.7" y="111.37" width="2.52" height="2.54"/><rect x="54.07" y="12.39" width="2.54" height="2.52"/><rect x="54.07" y="19.95" width="2.54" height="2.52"/><rect x="51.52" y="14.91" width="2.54" height="2.52"/><rect x="51.52" y="22.46" width="2.54" height="2.52"/><rect x="51.52" y="24.98" width="2.54" height="2.52"/><rect x="48.98" y="12.39" width="2.54" height="2.52"/><rect x="48.98" y="19.95" width="2.54" height="2.52"/><rect x="43.89" y="14.91" width="2.54" height="2.52"/><rect x="43.89" y="24.98" width="2.54" height="2.52"/><rect x="41.35" y="19.95" width="2.54" height="2.52"/><rect x="38.8" y="24.98" width="2.54" height="2.52"/><rect x="36.26" y="19.95" width="2.54" height="2.52"/><rect x="36.26" y="24.98" width="2.54" height="2.52"/><rect x="33.71" y="17.43" width="2.54" height="2.52"/><rect x="33.71" y="22.46" width="2.54" height="2.52"/><rect x="28.63" y="19.95" width="2.54" height="2.52"/><rect x="28.63" y="24.98" width="2.54" height="2.52"/><rect x="26.08" y="22.46" width="2.54" height="2.52"/><rect x="62.27" y="2.35" width="2.52" height="2.54"/><rect x="59.75" y="4.89" width="2.52" height="2.54"/><rect x="59.75" y="7.44" width="2.52" height="2.54"/><rect x="64.79" y="7.44" width="2.52" height="2.54"/><rect x="74.87" y="7.44" width="2.52" height="2.54"/><rect x="69.83" y="9.98" width="2.52" height="2.54"/><rect x="62.27" y="12.52" width="2.52" height="2.54"/><rect x="74.87" y="12.52" width="2.52" height="2.54"/><rect x="62.27" y="15.07" width="2.52" height="2.54"/><rect x="69.83" y="15.07" width="2.52" height="2.54"/><rect x="74.87" y="15.07" width="2.52" height="2.54"/><rect x="64.79" y="17.61" width="2.52" height="2.54"/><rect x="67.31" y="17.61" width="2.52" height="2.54"/><rect x="72.35" y="17.61" width="2.52" height="2.54"/><rect x="59.75" y="20.16" width="2.52" height="2.54"/><rect x="62.27" y="20.16" width="2.52" height="2.54"/><rect x="67.31" y="20.16" width="2.52" height="2.54"/><rect x="64.79" y="22.7" width="2.52" height="2.54"/><rect x="69.83" y="22.7" width="2.52" height="2.54"/><rect x="74.87" y="22.7" width="2.52" height="2.54"/><rect x="67.31" y="25.25" width="2.52" height="2.54"/><rect x="72.35" y="25.25" width="2.52" height="2.54"/><rect x="83.69" y="12.36" width="2.52" height="2.54"/><rect x="83.69" y="14.91" width="2.52" height="2.54"/><rect x="86.21" y="17.45" width="2.52" height="2.54"/><rect x="88.73" y="17.45" width="2.52" height="2.54"/><rect x="81.17" y="20" width="2.52" height="2.54"/><rect x="83.69" y="20" width="2.52" height="2.54"/><rect x="88.73" y="20" width="2.52" height="2.54"/><rect x="86.21" y="22.54" width="2.52" height="2.54"/><rect x="91.25" y="22.54" width="2.52" height="2.54"/><rect x="96.29" y="22.54" width="2.52" height="2.54"/><rect x="88.73" y="25.08" width="2.52" height="2.54"/><rect x="93.77" y="25.08" width="2.52" height="2.54"/></g></g></svg>