<svg xmlns="http://www.w3.org/2000/svg" viewBox="0 0 164.76 157.97"><defs><style>.cls-1{fill:#fff;}</style></defs><g id="Layer_2" data-name="Layer 2"><g id="Layer_1-2" data-name="Layer 1"><path class="cls-1" d="M163.33,59.93A8.64,8.64,0,0,0,155.89,54l-47-4.26L90.34,6.25a8.66,8.66,0,0,0-15.92,0L55.86,49.73,8.87,54A8.67,8.67,0,0,0,4,69.13l35.52,31.14L29,146.39a8.65,8.65,0,0,0,12.88,9.35l40.51-24.22,40.5,24.22a8.65,8.65,0,0,0,12.88-9.35l-10.47-46.12,35.52-31.14A8.68,8.68,0,0,0,163.33,59.93Z"/><path d="M127.32,158a9.61,9.61,0,0,1-4.95-1.37l-40-23.92-40,23.92A9.65,9.65,0,0,1,28,146.17l10.34-45.54L3.29,69.88A9.66,9.66,0,0,1,8.77,53l46.4-4.22L73.5,5.86a9.66,9.66,0,0,1,17.76,0l18.33,42.92L156,53a9.6,9.6,0,0,1,8.3,6.62h0a9.67,9.67,0,0,1-2.81,10.26L126.4,100.63l10.34,45.54a9.66,9.66,0,0,1-9.42,11.8ZM82.38,130.35l41,24.53a7.66,7.66,0,0,0,11.39-8.27l-10.61-46.7,36-31.53A7.66,7.66,0,0,0,155.8,55l-47.58-4.32-18.8-44a7.65,7.65,0,0,0-14.08,0l-18.8,44L9,55A7.66,7.66,0,0,0,4.61,68.38l36,31.53L30,146.61a7.65,7.65,0,0,0,11.38,8.27Z"/><g id="Layer_2-2" data-name="Layer 2"><g id="Layer_1-2-2" data-name="Layer 1-2"><rect x="52.89" y="63.08" width="2.52" height="2.54"/><rect x="55.41" y="63.08" width="2.52" height="2.54"/><rect x="57.93" y="63.08" width="2.52" height="2.54"/><rect x="60.45" y="63.08" width="2.52" height="2.54"/><rect x="62.97" y="63.08" width="2.52" height="2.54"/><rect x="65.49" y="63.08" width="2.52" height="2.54"/><rect x="68.01" y="63.08" width="2.52" height="2.54"/><rect x="73.05" y="63.08" width="2.52" height="2.54"/><rect x="75.57" y="63.08" width="2.52" height="2.54"/><rect x="78.09" y="63.08" width="2.52" height="2.54"/><rect x="80.61" y="63.08" width="2.52" height="2.54"/><rect x="98.25" y="63.08" width="2.52" height="2.54"/><rect x="100.77" y="63.08" width="2.52" height="2.54"/><rect x="103.29" y="63.08" width="2.52" height="2.54"/><rect x="105.8" y="63.08" width="2.52" height="2.54"/><rect x="108.32" y="63.08" width="2.52" height="2.54"/><rect x="110.84" y="63.08" width="2.52" height="2.54"/><rect x="113.36" y="63.08" width="2.52" height="2.54"/><rect x="52.89" y="65.62" width="2.52" height="2.54"/><rect x="68.01" y="65.62" width="2.52" height="2.54"/><rect x="80.61" y="65.62" width="2.52" height="2.54"/><rect x="83.13" y="65.62" width="2.52" height="2.54"/><rect x="85.65" y="65.62" width="2.52" height="2.54"/><rect x="88.17" y="65.62" width="2.52" height="2.54"/><rect x="93.21" y="65.62" width="2.52" height="2.54"/><rect x="98.25" y="65.62" width="2.52" height="2.54"/><rect x="113.36" y="65.62" width="2.52" height="2.54"/><rect x="52.89" y="68.17" width="2.52" height="2.54"/><rect x="57.93" y="68.17" width="2.52" height="2.54"/><rect x="60.45" y="68.17" width="2.52" height="2.54"/><rect x="62.97" y="68.17" width="2.52" height="2.54"/><rect x="68.01" y="68.17" width="2.52" height="2.54"/><rect x="75.57" y="68.17" width="2.52" height="2.54"/><rect x="80.61" y="68.17" width="2.52" height="2.54"/><rect x="85.65" y="68.17" width="2.52" height="2.54"/><rect x="90.69" y="68.17" width="2.52" height="2.54"/><rect x="93.21" y="68.17" width="2.52" height="2.54"/><rect x="98.25" y="68.17" width="2.52" height="2.54"/><rect x="103.29" y="68.17" width="2.52" height="2.54"/><rect x="105.8" y="68.17" width="2.52" height="2.54"/><rect x="108.32" y="68.17" width="2.52" height="2.54"/><rect x="113.36" y="68.17" width="2.52" height="2.54"/><rect x="52.89" y="70.71" width="2.52" height="2.54"/><rect x="57.93" y="70.71" width="2.52" height="2.54"/><rect x="60.45" y="70.71" width="2.52" height="2.54"/><rect x="62.97" y="70.71" width="2.52" height="2.54"/><rect x="68.01" y="70.71" width="2.52" height="2.54"/><rect x="78.09" y="70.71" width="2.52" height="2.54"/><rect x="93.21" y="70.71" width="2.52" height="2.54"/><rect x="98.25" y="70.71" width="2.52" height="2.54"/><rect x="103.29" y="70.71" width="2.52" height="2.54"/><rect x="105.8" y="70.71" width="2.52" height="2.54"/><rect x="108.32" y="70.71" width="2.52" height="2.54"/><rect x="113.36" y="70.71" width="2.52" height="2.54"/><rect x="52.89" y="73.25" width="2.52" height="2.54"/><rect x="57.93" y="73.25" width="2.52" height="2.54"/><rect x="60.45" y="73.25" width="2.52" height="2.54"/><rect x="62.97" y="73.25" width="2.52" height="2.54"/><rect x="68.01" y="73.25" width="2.52" height="2.54"/><rect x="78.09" y="73.25" width="2.52" height="2.54"/><rect x="80.61" y="73.25" width="2.52" height="2.54"/><rect x="83.13" y="73.25" width="2.52" height="2.54"/><rect x="88.17" y="73.25" width="2.52" height="2.54"/><rect x="93.21" y="73.25" width="2.52" height="2.54"/><rect x="98.25" y="73.25" width="2.52" height="2.54"/><rect x="103.29" y="73.25" width="2.52" height="2.54"/><rect x="105.8" y="73.25" width="2.52" height="2.54"/><rect x="108.32" y="73.25" width="2.52" height="2.54"/><rect x="113.36" y="73.25" width="2.52" height="2.54"/><rect x="52.89" y="75.8" width="2.52" height="2.54"/><rect x="68.01" y="75.8" width="2.52" height="2.54"/><rect x="75.57" y="75.8" width="2.52" height="2.54"/><rect x="80.61" y="75.8" width="2.52" height="2.54"/><rect x="93.21" y="75.8" width="2.52" height="2.54"/><rect x="98.25" y="75.8" width="2.52" height="2.54"/><rect x="113.36" y="75.8" width="2.52" height="2.54"/><rect x="52.89" y="78.34" width="2.52" height="2.54"/><rect x="55.41" y="78.34" width="2.52" height="2.54"/><rect x="57.93" y="78.34" width="2.52" height="2.54"/><rect x="60.45" y="78.34" width="2.52" height="2.54"/><rect x="62.97" y="78.34" width="2.52" height="2.54"/><rect x="65.49" y="78.34" width="2.52" height="2.54"/><rect x="68.01" y="78.34" width="2.52" height="2.54"/><rect x="73.05" y="78.34" width="2.52" height="2.54"/><rect x="78.09" y="78.34" width="2.52" height="2.54"/><rect x="88.17" y="78.34" width="2.52" height="2.54"/><rect x="93.21" y="78.34" width="2.52" height="2.54"/><rect x="98.25" y="78.34" width="2.52" height="2.54"/><rect x="100.77" y="78.34" width="2.52" height="2.54"/><rect x="103.29" y="78.34" width="2.52" height="2.54"/><rect x="105.8" y="78.34" width="2.52" height="2.54"/><rect x="108.32" y="78.34" width="2.52" height="2.54"/><rect x="110.84" y="78.34" width="2.52" height="2.54"/><rect x="113.36" y="78.34" width="2.52" height="2.54"/><rect x="73.05" y="80.89" width="2.52" height="2.54"/><rect x="75.57" y="80.89" width="2.52" height="2.54"/><rect x="83.13" y="80.89" width="2.52" height="2.54"/><rect x="85.65" y="80.89" width="2.52" height="2.54"/><rect x="52.89" y="83.43" width="2.52" height="2.54"/><rect x="62.97" y="83.43" width="2.52" height="2.54"/><rect x="68.01" y="83.43" width="2.52" height="2.54"/><rect x="75.57" y="83.43" width="2.52" height="2.54"/><rect x="83.13" y="83.43" width="2.52" height="2.54"/><rect x="90.69" y="83.43" width="2.52" height="2.54"/><rect x="98.25" y="83.43" width="2.52" height="2.54"/><rect x="113.36" y="83.43" width="2.52" height="2.54"/><rect x="52.89" y="85.97" width="2.52" height="2.54"/><rect x="55.41" y="85.97" width="2.52" height="2.54"/><rect x="57.93" y="85.97" width="2.52" height="2.54"/><rect x="62.97" y="85.97" width="2.52" height="2.54"/><rect x="65.49" y="85.97" width="2.52" height="2.54"/><rect x="70.53" y="85.97" width="2.52" height="2.54"/><rect x="78.09" y="85.97" width="2.52" height="2.54"/><rect x="85.65" y="85.97" width="2.52" height="2.54"/><rect x="88.17" y="85.97" width="2.52" height="2.54"/><rect x="90.69" y="85.97" width="2.52" height="2.54"/><rect x="95.73" y="85.97" width="2.52" height="2.54"/><rect x="100.77" y="85.97" width="2.52" height="2.54"/><rect x="103.29" y="85.97" width="2.52" height="2.54"/><rect x="105.8" y="85.97" width="2.52" height="2.54"/><rect x="108.32" y="85.97" width="2.52" height="2.54"/><rect x="110.84" y="85.97" width="2.52" height="2.54"/><rect x="52.89" y="88.52" width="2.52" height="2.54"/><rect x="62.97" y="88.52" width="2.52" height="2.54"/><rect x="68.01" y="88.52" width="2.52" height="2.54"/><rect x="70.53" y="88.52" width="2.52" height="2.54"/><rect x="75.57" y="88.52" width="2.52" height="2.54"/><rect x="83.13" y="88.52" width="2.52" height="2.54"/><rect x="90.69" y="88.52" width="2.52" height="2.54"/><rect x="93.21" y="88.52" width="2.52" height="2.54"/><rect x="100.77" y="88.52" width="2.52" height="2.54"/><rect x="105.8" y="88.52" width="2.52" height="2.54"/><rect x="113.36" y="88.52" width="2.52" height="2.54"/><rect x="52.89" y="91.06" width="2.52" height="2.54"/><rect x="55.41" y="91.06" width="2.52" height="2.54"/><rect x="70.53" y="91.06" width="2.52" height="2.54"/><rect x="73.05" y="91.06" width="2.52" height="2.54"/><rect x="100.77" y="91.06" width="2.52" height="2.54"/><rect x="108.32" y="91.06" width="2.52" height="2.54"/><rect x="110.84" y="91.06" width="2.52" height="2.54"/><rect x="113.36" y="91.06" width="2.52" height="2.54"/><rect x="57.93" y="93.61" width="2.52" height="2.54"/><rect x="68.01" y="93.61" width="2.52" height="2.54"/><rect x="73.05" y="93.61" width="2.52" height="2.54"/><rect x="78.09" y="93.61" width="2.52" height="2.54"/><rect x="88.17" y="93.61" width="2.52" height="2.54"/><rect x="90.69" y="93.61" width="2.52" height="2.54"/><rect x="98.25" y="93.61" width="2.52" height="2.54"/><rect x="113.36" y="93.61" width="2.52" height="2.54"/><rect x="52.89" y="96.15" width="2.52" height="2.54"/><rect x="57.93" y="96.15" width="2.52" height="2.54"/><rect x="65.49" y="96.15" width="2.52" height="2.54"/><rect x="70.53" y="96.15" width="2.52" height="2.54"/><rect x="83.13" y="96.15" width="2.52" height="2.54"/><rect x="90.69" y="96.15" width="2.52" height="2.54"/><rect x="93.21" y="96.15" width="2.52" height="2.54"/><rect x="95.73" y="96.15" width="2.52" height="2.54"/><rect x="103.29" y="96.15" width="2.52" height="2.54"/><rect x="110.84" y="96.15" width="2.52" height="2.54"/><rect x="52.89" y="98.69" width="2.52" height="2.54"/><rect x="55.41" y="98.69" width="2.52" height="2.54"/><rect x="60.45" y="98.69" width="2.52" height="2.54"/><rect x="68.01" y="98.69" width="2.52" height="2.54"/><rect x="70.53" y="98.69" width="2.52" height="2.54"/><rect x="75.57" y="98.69" width="2.52" height="2.54"/><rect x="88.17" y="98.69" width="2.52" height="2.54"/><rect x="90.69" y="98.69" width="2.52" height="2.54"/><rect x="103.29" y="98.69" width="2.52" height="2.54"/><rect x="105.8" y="98.69" width="2.52" height="2.54"/><rect x="108.32" y="98.69" width="2.52" height="2.54"/><rect x="110.84" y="98.69" width="2.52" height="2.54"/><rect x="113.36" y="98.69" width="2.52" height="2.54"/><rect x="52.89" y="101.24" width="2.52" height="2.54"/><rect x="65.49" y="101.24" width="2.52" height="2.54"/><rect x="75.57" y="101.24" width="2.52" height="2.54"/><rect x="83.13" y="101.24" width="2.52" height="2.54"/><rect x="88.17" y="101.24" width="2.52" height="2.54"/><rect x="93.21" y="101.24" width="2.52" height="2.54"/><rect x="100.77" y="101.24" width="2.52" height="2.54"/><rect x="105.8" y="101.24" width="2.52" height="2.54"/><rect x="108.32" y="101.24" width="2.52" height="2.54"/><rect x="113.36" y="101.24" width="2.52" height="2.54"/><rect x="52.89" y="103.78" width="2.52" height="2.54"/><rect x="57.93" y="103.78" width="2.52" height="2.54"/><rect x="60.45" y="103.78" width="2.52" height="2.54"/><rect x="62.97" y="103.78" width="2.52" height="2.54"/><rect x="68.01" y="103.78" width="2.52" height="2.54"/><rect x="70.53" y="103.78" width="2.52" height="2.54"/><rect x="78.09" y="103.78" width="2.52" height="2.54"/><rect x="80.61" y="103.78" width="2.52" height="2.54"/><rect x="85.65" y="103.78" width="2.52" height="2.54"/><rect x="90.69" y="103.78" width="2.52" height="2.54"/><rect x="93.21" y="103.78" width="2.52" height="2.54"/><rect x="95.73" y="103.78" width="2.52" height="2.54"/><rect x="98.25" y="103.78" width="2.52" height="2.54"/><rect x="103.29" y="103.78" width="2.52" height="2.54"/><rect x="108.32" y="103.78" width="2.52" height="2.54"/><rect x="110.84" y="103.78" width="2.52" height="2.54"/><rect x="73.05" y="106.33" width="2.52" height="2.54"/><rect x="75.57" y="106.33" width="2.52" height="2.54"/><rect x="80.61" y="106.33" width="2.52" height="2.54"/><rect x="93.21" y="106.33" width="2.52" height="2.54"/><rect x="103.29" y="106.33" width="2.52" height="2.54"/><rect x="108.32" y="106.33" width="2.52" height="2.54"/><rect x="110.84" y="106.33" width="2.52" height="2.54"/><rect x="52.89" y="108.87" width="2.52" height="2.54"/><rect x="55.41" y="108.87" width="2.52" height="2.54"/><rect x="57.93" y="108.87" width="2.52" height="2.54"/><rect x="60.45" y="108.87" width="2.52" height="2.54"/><rect x="62.97" y="108.87" width="2.52" height="2.54"/><rect x="65.49" y="108.87" width="2.52" height="2.54"/><rect x="68.01" y="108.87" width="2.52" height="2.54"/><rect x="78.09" y="108.87" width="2.52" height="2.54"/><rect x="83.13" y="108.87" width="2.52" height="2.54"/><rect x="88.17" y="108.87" width="2.52" height="2.54"/><rect x="93.21" y="108.87" width="2.52" height="2.54"/><rect x="98.25" y="108.87" width="2.52" height="2.54"/><rect x="103.29" y="108.87" width="2.52" height="2.54"/><rect x="113.36" y="108.87" width="2.52" height="2.54"/><rect x="52.89" y="111.42" width="2.52" height="2.54"/><rect x="68.01" y="111.42" width="2.52" height="2.54"/><rect x="80.61" y="111.42" width="2.52" height="2.54"/><rect x="85.65" y="111.42" width="2.52" height="2.54"/><rect x="90.69" y="111.42" width="2.52" height="2.54"/><rect x="93.21" y="111.42" width="2.52" height="2.54"/><rect x="103.29" y="111.42" width="2.52" height="2.54"/><rect x="113.36" y="111.42" width="2.52" height="2.54"/><rect x="52.89" y="113.96" width="2.52" height="2.54"/><rect x="57.93" y="113.96" width="2.52" height="2.54"/><rect x="60.45" y="113.96" width="2.52" height="2.54"/><rect x="62.97" y="113.96" width="2.52" height="2.54"/><rect x="68.01" y="113.96" width="2.52" height="2.54"/><rect x="73.05" y="113.96" width="2.52" height="2.54"/><rect x="78.09" y="113.96" width="2.52" height="2.54"/><rect x="80.61" y="113.96" width="2.52" height="2.54"/><rect x="83.13" y="113.96" width="2.52" height="2.54"/><rect x="88.17" y="113.96" width="2.52" height="2.54"/><rect x="93.21" y="113.96" width="2.52" height="2.54"/><rect x="95.73" y="113.96" width="2.52" height="2.54"/><rect x="98.25" y="113.96" width="2.52" height="2.54"/><rect x="100.77" y="113.96" width="2.52" height="2.54"/><rect x="103.29" y="113.96" width="2.52" height="2.54"/><rect x="52.89" y="116.5" width="2.52" height="2.54"/><rect x="57.93" y="116.5" width="2.52" height="2.54"/><rect x="60.45" y="116.5" width="2.52" height="2.54"/><rect x="62.97" y="116.5" width="2.52" height="2.54"/><rect x="68.01" y="116.5" width="2.52" height="2.54"/><rect x="73.05" y="116.5" width="2.52" height="2.54"/><rect x="75.57" y="116.5" width="2.52" height="2.54"/><rect x="83.13" y="116.5" width="2.52" height="2.54"/><rect x="88.17" y="116.5" width="2.52" height="2.54"/><rect x="98.25" y="116.5" width="2.52" height="2.54"/><rect x="110.84" y="116.5" width="2.52" height="2.54"/><rect x="113.36" y="116.5" width="2.52" height="2.54"/><rect x="52.89" y="119.05" width="2.52" height="2.54"/><rect x="57.93" y="119.05" width="2.52" height="2.54"/><rect x="60.45" y="119.05" width="2.52" height="2.54"/><rect x="62.97" y="119.05" width="2.52" height="2.54"/><rect x="68.01" y="119.05" width="2.52" height="2.54"/><rect x="75.57" y="119.05" width="2.52" height="2.54"/><rect x="80.61" y="119.05" width="2.52" height="2.54"/><rect x="85.65" y="119.05" width="2.52" height="2.54"/><rect x="90.69" y="119.05" width="2.52" height="2.54"/><rect x="95.73" y="119.05" width="2.52" height="2.54"/><rect x="103.29" y="119.05" width="2.52" height="2.54"/><rect x="108.32" y="119.05" width="2.52" height="2.54"/><rect x="110.84" y="119.05" width="2.52" height="2.54"/><rect x="113.36" y="119.05" width="2.52" height="2.54"/><rect x="52.89" y="121.59" width="2.52" height="2.54"/><rect x="68.01" y="121.59" width="2.52" height="2.54"/><rect x="73.05" y="121.59" width="2.52" height="2.54"/><rect x="78.09" y="121.59" width="2.52" height="2.54"/><rect x="80.61" y="121.59" width="2.52" height="2.54"/><rect x="88.17" y="121.59" width="2.52" height="2.54"/><rect x="90.69" y="121.59" width="2.52" height="2.54"/><rect x="103.29" y="121.59" width="2.52" height="2.54"/><rect x="108.32" y="121.59" width="2.52" height="2.54"/><rect x="110.84" y="121.59" width="2.52" height="2.54"/><rect x="113.36" y="121.59" width="2.52" height="2.54"/><rect x="52.89" y="124.14" width="2.52" height="2.54"/><rect x="55.41" y="124.14" width="2.52" height="2.54"/><rect x="57.93" y="124.14" width="2.52" height="2.54"/><rect x="60.45" y="124.14" width="2.52" height="2.54"/><rect x="62.97" y="124.14" width="2.52" height="2.54"/><rect x="65.49" y="124.14" width="2.52" height="2.54"/><rect x="68.01" y="124.14" width="2.52" height="2.54"/><rect x="73.05" y="124.14" width="2.52" height="2.54"/><rect x="83.13" y="124.14" width="2.52" height="2.54"/><rect x="95.73" y="124.14" width="2.52" height="2.54"/><rect x="105.8" y="124.14" width="2.52" height="2.54"/><rect x="113.36" y="124.14" width="2.52" height="2.54"/><rect x="120.71" y="64.84" width="2.52" height="2.54"/><rect x="128.27" y="64.84" width="2.52" height="2.54"/><rect x="123.23" y="67.39" width="2.52" height="2.54"/><rect x="130.79" y="67.39" width="2.52" height="2.54"/><rect x="133.31" y="67.39" width="2.52" height="2.54"/><rect x="120.71" y="69.93" width="2.52" height="2.54"/><rect x="128.27" y="69.93" width="2.52" height="2.54"/><rect x="118.19" y="72.48" width="2.52" height="2.54"/><rect x="118.19" y="75.02" width="2.52" height="2.54"/><rect x="123.23" y="75.02" width="2.52" height="2.54"/><rect x="133.31" y="75.02" width="2.52" height="2.54"/><rect x="128.27" y="77.56" width="2.52" height="2.54"/><rect x="120.71" y="80.11" width="2.52" height="2.54"/><rect x="133.31" y="80.11" width="2.52" height="2.54"/><rect x="120.71" y="82.65" width="2.52" height="2.54"/><rect x="128.27" y="82.65" width="2.52" height="2.54"/><rect x="133.31" y="82.65" width="2.52" height="2.54"/><rect x="123.23" y="85.2" width="2.52" height="2.54"/><rect x="125.75" y="85.2" width="2.52" height="2.54"/><rect x="130.79" y="85.2" width="2.52" height="2.54"/><rect x="118.19" y="87.74" width="2.52" height="2.54"/><rect x="120.71" y="87.74" width="2.52" height="2.54"/><rect x="125.75" y="87.74" width="2.52" height="2.54"/><rect x="123.23" y="90.29" width="2.52" height="2.54"/><rect x="128.27" y="90.29" width="2.52" height="2.54"/><rect x="125.75" y="92.83" width="2.52" height="2.54"/><rect x="120.32" y="96.46" width="2.52" height="2.54"/><rect x="122.84" y="99" width="2.52" height="2.54"/><rect x="120.32" y="101.55" width="2.52" height="2.54"/><rect x="117.8" y="104.09" width="2.52" height="2.54"/><rect x="117.8" y="106.63" width="2.52" height="2.54"/><rect x="122.84" y="106.63" width="2.52" height="2.54"/><rect x="120.32" y="111.72" width="2.52" height="2.54"/><rect x="120.32" y="114.27" width="2.52" height="2.54"/><rect x="122.84" y="116.81" width="2.52" height="2.54"/><rect x="125.36" y="116.81" width="2.52" height="2.54"/><rect x="117.8" y="119.35" width="2.52" height="2.54"/><rect x="120.32" y="119.35" width="2.52" height="2.54"/><rect x="125.36" y="119.35" width="2.52" height="2.54"/><rect x="122.84" y="121.9" width="2.52" height="2.54"/><rect x="127.88" y="121.9" width="2.52" height="2.54"/><rect x="125.36" y="124.44" width="2.52" height="2.54"/><rect x="34.64" y="64.46" width="2.52" height="2.54"/><rect x="42.2" y="64.46" width="2.52" height="2.54"/><rect x="37.16" y="67" width="2.52" height="2.54"/><rect x="44.72" y="67" width="2.52" height="2.54"/><rect x="47.24" y="67" width="2.52" height="2.54"/><rect x="34.64" y="69.55" width="2.52" height="2.54"/><rect x="42.2" y="69.55" width="2.52" height="2.54"/><rect x="32.13" y="72.09" width="2.52" height="2.54"/><rect x="32.13" y="74.63" width="2.52" height="2.54"/><rect x="37.16" y="74.63" width="2.52" height="2.54"/><rect x="47.24" y="74.63" width="2.52" height="2.54"/><rect x="42.2" y="77.18" width="2.52" height="2.54"/><rect x="34.64" y="79.72" width="2.52" height="2.54"/><rect x="47.24" y="79.72" width="2.52" height="2.54"/><rect x="30.64" y="82.27" width="2.52" height="2.54"/><rect x="42.2" y="82.27" width="2.52" height="2.54"/><rect x="47.24" y="82.27" width="2.52" height="2.54"/><rect x="37.16" y="84.81" width="2.52" height="2.54"/><rect x="39.68" y="84.81" width="2.52" height="2.54"/><rect x="44.72" y="84.81" width="2.52" height="2.54"/><rect x="30.64" y="87.35" width="2.52" height="2.54"/><rect x="39.68" y="87.35" width="2.52" height="2.54"/><rect x="37.16" y="89.9" width="2.52" height="2.54"/><rect x="42.2" y="89.9" width="2.52" height="2.54"/><rect x="47.24" y="89.9" width="2.52" height="2.54"/><rect x="39.68" y="92.44" width="2.52" height="2.54"/><rect x="44.72" y="92.44" width="2.52" height="2.54"/><rect x="42.2" y="96.59" width="2.52" height="2.54"/><rect x="37.16" y="99.13" width="2.52" height="2.54"/><rect x="44.72" y="99.13" width="2.52" height="2.54"/><rect x="47.24" y="99.13" width="2.52" height="2.54"/><rect x="42.2" y="101.67" width="2.52" height="2.54"/><rect x="37.16" y="106.76" width="2.52" height="2.54"/><rect x="47.24" y="106.76" width="2.52" height="2.54"/><rect x="42.2" y="109.31" width="2.52" height="2.54"/><rect x="47.24" y="111.85" width="2.52" height="2.54"/><rect x="42.2" y="114.4" width="2.52" height="2.54"/><rect x="47.24" y="114.4" width="2.52" height="2.54"/><rect x="37.16" y="116.94" width="2.52" height="2.54"/><rect x="39.68" y="116.94" width="2.52" height="2.54"/><rect x="44.72" y="116.94" width="2.52" height="2.54"/><rect x="39.68" y="119.48" width="2.52" height="2.54"/><rect x="37.16" y="122.03" width="2.52" height="2.54"/><rect x="42.2" y="122.03" width="2.52" height="2.54"/><rect x="47.24" y="122.03" width="2.52" height="2.54"/><rect x="39.68" y="124.57" width="2.52" height="2.54"/><rect x="44.72" y="124.57" width="2.52" height="2.54"/><rect x="53.74" y="129.23" width="2.52" height="2.54"/><rect x="61.3" y="129.23" width="2.52" height="2.54"/><rect x="56.26" y="131.78" width="2.52" height="2.54"/><rect x="63.82" y="131.78" width="2.52" height="2.54"/><rect x="66.34" y="131.78" width="2.52" height="2.54"/><rect x="53.74" y="134.32" width="2.52" height="2.54"/><rect x="61.3" y="134.32" width="2.52" height="2.54"/><rect x="51.22" y="136.86" width="2.52" height="2.54"/><rect x="56.26" y="139.41" width="2.52" height="2.54"/><rect x="73.35" y="130.78" width="2.52" height="2.54"/><rect x="94.77" y="129.88" width="2.52" height="2.54"/><rect x="102.33" y="129.88" width="2.52" height="2.54"/><rect x="97.29" y="132.42" width="2.52" height="2.54"/><rect x="104.85" y="132.42" width="2.52" height="2.54"/><rect x="107.37" y="132.42" width="2.52" height="2.54"/><rect x="94.77" y="134.96" width="2.52" height="2.54"/><rect x="102.33" y="134.96" width="2.52" height="2.54"/><rect x="115.77" y="129.88" width="2.52" height="2.54"/><rect x="123.33" y="129.88" width="2.52" height="2.54"/><rect x="118.29" y="132.42" width="2.52" height="2.54"/><rect x="125.85" y="132.42" width="2.52" height="2.54"/><rect x="128.37" y="132.42" width="2.52" height="2.54"/><rect x="115.77" y="134.96" width="2.52" height="2.54"/><rect x="123.33" y="134.96" width="2.52" height="2.54"/><rect x="113.25" y="137.51" width="2.52" height="2.54"/><rect x="113.25" y="140.05" width="2.52" height="2.54"/><rect x="118.29" y="140.05" width="2.52" height="2.54"/><rect x="123.33" y="142.6" width="2.52" height="2.54"/><rect x="142.71" y="64.84" width="2.52" height="2.54"/><rect x="150.27" y="64.84" width="2.52" height="2.54"/><rect x="145.23" y="67.39" width="2.52" height="2.54"/><rect x="152.79" y="67.39" width="2.52" height="2.54"/><rect x="155.31" y="67.39" width="2.52" height="2.54"/><rect x="142.71" y="69.93" width="2.52" height="2.54"/><rect x="150.27" y="69.93" width="2.52" height="2.54"/><rect x="140.19" y="72.48" width="2.52" height="2.54"/><rect x="140.19" y="75.02" width="2.52" height="2.54"/><rect x="145.23" y="75.02" width="2.52" height="2.54"/><rect x="142.71" y="80.11" width="2.52" height="2.54"/><rect x="74.7" y="43.62" width="2.54" height="2.52"/><rect x="74.7" y="51.18" width="2.54" height="2.52"/><rect x="72.15" y="46.14" width="2.54" height="2.52"/><rect x="72.15" y="53.69" width="2.54" height="2.52"/><rect x="72.15" y="56.21" width="2.54" height="2.52"/><rect x="69.61" y="43.62" width="2.54" height="2.52"/><rect x="69.61" y="51.18" width="2.54" height="2.52"/><rect x="64.52" y="46.14" width="2.54" height="2.52"/><rect x="64.52" y="56.21" width="2.54" height="2.52"/><rect x="61.98" y="51.18" width="2.54" height="2.52"/><rect x="59.43" y="56.21" width="2.54" height="2.52"/><rect x="56.89" y="51.18" width="2.54" height="2.52"/><rect x="56.89" y="56.21" width="2.54" height="2.52"/><rect x="65.61" y="37.62" width="2.54" height="2.52"/><rect x="60.52" y="40.14" width="2.54" height="2.52"/><rect x="66.61" y="34.62" width="2.54" height="2.52"/><rect x="54.34" y="53.69" width="2.54" height="2.52"/><rect x="49.26" y="51.18" width="2.54" height="2.52"/><rect x="49.26" y="56.21" width="2.54" height="2.52"/><rect x="46.71" y="53.69" width="2.54" height="2.52"/><rect x="82.9" y="33.58" width="2.52" height="2.54"/><rect x="80.38" y="36.12" width="2.52" height="2.54"/><rect x="80.38" y="38.67" width="2.52" height="2.54"/><rect x="85.42" y="38.67" width="2.52" height="2.54"/><rect x="95.5" y="38.67" width="2.52" height="2.54"/><rect x="90.46" y="41.21" width="2.52" height="2.54"/><rect x="82.9" y="43.75" width="2.52" height="2.54"/><rect x="95.5" y="43.75" width="2.52" height="2.54"/><rect x="82.9" y="46.3" width="2.52" height="2.54"/><rect x="90.46" y="46.3" width="2.52" height="2.54"/><rect x="95.5" y="46.3" width="2.52" height="2.54"/><rect x="85.42" y="48.84" width="2.52" height="2.54"/><rect x="87.94" y="48.84" width="2.52" height="2.54"/><rect x="92.98" y="48.84" width="2.52" height="2.54"/><rect x="80.38" y="51.39" width="2.52" height="2.54"/><rect x="82.9" y="51.39" width="2.52" height="2.54"/><rect x="87.94" y="51.39" width="2.52" height="2.54"/><rect x="85.42" y="53.93" width="2.52" height="2.54"/><rect x="90.46" y="53.93" width="2.52" height="2.54"/><rect x="95.5" y="53.93" width="2.52" height="2.54"/><rect x="87.94" y="56.48" width="2.52" height="2.54"/><rect x="92.98" y="56.48" width="2.52" height="2.54"/><rect x="104.32" y="43.59" width="2.52" height="2.54"/><rect x="104.32" y="46.14" width="2.52" height="2.54"/><rect x="106.84" y="48.68" width="2.52" height="2.54"/><rect x="109.36" y="48.68" width="2.52" height="2.54"/><rect x="101.8" y="51.23" width="2.52" height="2.54"/><rect x="104.32" y="51.23" width="2.52" height="2.54"/><rect x="109.36" y="51.23" width="2.52" height="2.54"/><rect x="106.84" y="53.77" width="2.52" height="2.54"/><rect x="111.88" y="53.77" width="2.52" height="2.54"/><rect x="116.92" y="53.77" width="2.52" height="2.54"/><rect x="125.23" y="54.2" width="2.52" height="2.54"/><rect x="127.75" y="54.2" width="2.52" height="2.54"/><rect x="132.79" y="54.2" width="2.52" height="2.54"/><rect x="120.19" y="56.74" width="2.52" height="2.54"/><rect x="122.71" y="56.74" width="2.52" height="2.54"/><rect x="127.75" y="56.74" width="2.52" height="2.54"/><rect x="125.23" y="59.29" width="2.52" height="2.54"/><rect x="130.27" y="59.29" width="2.52" height="2.54"/><rect x="141.31" y="59.29" width="2.52" height="2.54"/><rect x="147.23" y="54.2" width="2.52" height="2.54"/><rect x="149.75" y="54.2" width="2.52" height="2.54"/><rect x="154.79" y="54.2" width="2.52" height="2.54"/><rect x="142.19" y="56.74" width="2.52" height="2.54"/><rect x="144.71" y="56.74" width="2.52" height="2.54"/><rect x="149.75" y="56.74" width="2.52" height="2.54"/><rect x="147.23" y="59.29" width="2.52" height="2.54"/><rect x="152.27" y="59.29" width="2.52" height="2.54"/><rect x="6.31" y="59.29" width="2.52" height="2.54"/><rect x="12.23" y="54.2" width="2.52" height="2.54"/><rect x="14.75" y="54.2" width="2.52" height="2.54"/><rect x="19.79" y="54.2" width="2.52" height="2.54"/><rect x="7.19" y="56.74" width="2.52" height="2.54"/><rect x="9.71" y="56.74" width="2.52" height="2.54"/><rect x="14.75" y="56.74" width="2.52" height="2.54"/><rect x="12.23" y="59.29" width="2.52" height="2.54"/><rect x="17.27" y="59.29" width="2.52" height="2.54"/><rect x="28.31" y="59.29" width="2.52" height="2.54"/><rect x="63.7" y="30.62" width="2.54" height="2.52"/><rect x="71.9" y="20.58" width="2.52" height="2.54"/><rect x="69.38" y="23.12" width="2.52" height="2.54"/><rect x="69.38" y="25.67" width="2.52" height="2.54"/><rect x="74.42" y="25.67" width="2.52" height="2.54"/><rect x="84.5" y="25.67" width="2.52" height="2.54"/><rect x="79.46" y="28.21" width="2.52" height="2.54"/><rect x="71.9" y="30.75" width="2.52" height="2.54"/><rect x="84.5" y="30.75" width="2.52" height="2.54"/><rect x="71.9" y="33.3" width="2.52" height="2.54"/><rect x="79.46" y="33.3" width="2.52" height="2.54"/><rect x="84.5" y="33.3" width="2.52" height="2.54"/><rect x="93.32" y="30.59" width="2.52" height="2.54"/><rect x="93.32" y="33.14" width="2.52" height="2.54"/><rect x="38.27" y="51.65" width="2.52" height="2.54"/><rect x="43.31" y="51.65" width="2.52" height="2.54"/><rect x="33.23" y="54.2" width="2.52" height="2.54"/><rect x="35.75" y="54.2" width="2.52" height="2.54"/><rect x="40.79" y="54.2" width="2.52" height="2.54"/><rect x="28.19" y="56.74" width="2.52" height="2.54"/><rect x="30.71" y="56.74" width="2.52" height="2.54"/><rect x="35.75" y="56.74" width="2.52" height="2.54"/><rect x="33.23" y="59.29" width="2.52" height="2.54"/><rect x="38.27" y="59.29" width="2.52" height="2.54"/><rect x="49.31" y="59.29" width="2.52" height="2.54"/><rect x="14.71" y="63.84" width="2.52" height="2.54"/><rect x="22.27" y="63.84" width="2.52" height="2.54"/><rect x="17.23" y="66.39" width="2.52" height="2.54"/><rect x="24.79" y="66.39" width="2.52" height="2.54"/><rect x="27.31" y="66.39" width="2.52" height="2.54"/><rect x="14.71" y="68.93" width="2.52" height="2.54"/><rect x="22.27" y="68.93" width="2.52" height="2.54"/><rect x="12.19" y="71.48" width="2.52" height="2.54"/><rect x="12.19" y="74.02" width="2.52" height="2.54"/><rect x="17.23" y="74.02" width="2.52" height="2.54"/><rect x="27.31" y="74.02" width="2.52" height="2.54"/><rect x="22.27" y="76.56" width="2.52" height="2.54"/><rect x="27.31" y="79.11" width="2.52" height="2.54"/><rect x="27.31" y="81.65" width="2.52" height="2.54"/><rect x="33.31" y="89.29" width="2.52" height="2.54"/><rect x="32.71" y="127.84" width="2.52" height="2.54"/><rect x="40.27" y="127.84" width="2.52" height="2.54"/><rect x="35.23" y="130.39" width="2.52" height="2.54"/><rect x="42.79" y="130.39" width="2.52" height="2.54"/><rect x="45.31" y="130.39" width="2.52" height="2.54"/><rect x="32.71" y="132.93" width="2.52" height="2.54"/><rect x="40.27" y="132.93" width="2.52" height="2.54"/><rect x="30.19" y="135.48" width="2.52" height="2.54"/><rect x="30.19" y="138.02" width="2.52" height="2.54"/><rect x="35.23" y="138.02" width="2.52" height="2.54"/><rect x="45.31" y="138.02" width="2.52" height="2.54"/><rect x="40.27" y="140.56" width="2.52" height="2.54"/><rect x="32.71" y="143.11" width="2.52" height="2.54"/><rect x="45.31" y="143.11" width="2.52" height="2.54"/><rect x="32.71" y="145.65" width="2.52" height="2.54"/><rect x="40.27" y="145.65" width="2.52" height="2.54"/><rect x="45.31" y="145.65" width="2.52" height="2.54"/><rect x="35.23" y="148.2" width="2.52" height="2.54"/><rect x="37.75" y="148.2" width="2.52" height="2.54"/><rect x="42.79" y="148.2" width="2.52" height="2.54"/><rect x="30.19" y="150.74" width="2.52" height="2.54"/><rect x="32.71" y="150.74" width="2.52" height="2.54"/><rect x="37.75" y="150.74" width="2.52" height="2.54"/><rect x="109.36" y="56.31" width="2.52" height="2.54"/><rect x="114.4" y="56.31" width="2.52" height="2.54"/><rect x="76.63" y="10.78" width="2.52" height="2.54"/><rect x="86.71" y="10.78" width="2.52" height="2.54"/><rect x="81.67" y="13.32" width="2.52" height="2.54"/><rect x="74.11" y="15.86" width="2.52" height="2.54"/><rect x="86.71" y="15.86" width="2.52" height="2.54"/><rect x="84.53" y="2.7" width="2.52" height="2.54"/><rect x="81.53" y="7.25" width="2.52" height="2.54"/></g></g></g></g></svg>