<svg xmlns="http://www.w3.org/2000/svg" viewBox="0 0 131.56 131.56"><defs><style>.cls-1{fill:#fff;fill-rule:evenodd;}</style></defs><g id="Layer_2" data-name="Layer 2"><g id="Layer_1-2" data-name="Layer 1"><path class="cls-1" d="M65.78,1.48,56.16,12,43.45,5.36l-5.4,13.12L23.81,16.53,23.3,30.67l-14,3L13.66,47.1,1.48,54.61l8.84,11.17L1.48,77l12.18,7.51L9.25,97.93l14.05,3L23.81,115l14.24-1.94,5.4,13.11,12.71-6.62,9.62,10.5,9.63-10.5,12.7,6.62,5.41-13.11L107.75,115l.52-14.14,14-3L117.9,84.46,130.08,77l-8.84-11.17,8.84-11.17L117.9,47.1l4.42-13.47-14-3-.52-14.14L93.52,18.48,88.11,5.36,75.41,12Z"/><path d="M65.78,131.56l-9.84-10.74-13,6.78-5.52-13.42-14.56,2-.53-14.46L8,98.68,12.46,84.9,0,77.21,9,65.78,0,54.35l12.46-7.69L8,32.88l14.38-3,.53-14.46,14.56,2L42.94,4l13,6.78L65.78,0l9.85,10.75L88.61,4l5.54,13.41,14.56-2,.53,14.46,14.38,3L119.1,46.66l12.46,7.69-9,11.43,9,11.43L119.1,84.9l4.52,13.78-14.38,3-.53,14.46-14.56-2L88.61,127.6l-13-6.78Zm-9.4-13.23,9.4,10.27,9.41-10.27,12.41,6.48L92.89,112l13.9,1.9.5-13.82L121,97.18,116.71,84l11.89-7.34L120,65.79l8.63-10.92-11.89-7.34L121,34.38l-13.73-2.89-.5-13.82-13.9,1.9L87.6,6.75,75.19,13.23,65.78,3l-9.4,10.27L44,6.75,38.68,19.57l-13.91-1.9-.5,13.82L10.54,34.38l4.31,13.15L3,54.87l8.63,10.92L3,76.69,14.85,84,10.54,97.18l13.73,2.89.5,13.82L38.68,112,44,124.81Z"/><g id="Layer_2-2" data-name="Layer 2"><g id="Layer_1-2-2" data-name="Layer 1-2"><rect x="33.14" y="33.94" width="2.52" height="2.54"/><rect x="35.66" y="33.94" width="2.52" height="2.54"/><rect x="38.18" y="33.94" width="2.52" height="2.54"/><rect x="40.7" y="33.94" width="2.52" height="2.54"/><rect x="43.22" y="33.94" width="2.52" height="2.54"/><rect x="45.74" y="33.94" width="2.52" height="2.54"/><rect x="48.26" y="33.94" width="2.52" height="2.54"/><rect x="53.3" y="33.94" width="2.52" height="2.54"/><rect x="55.82" y="33.94" width="2.52" height="2.54"/><rect x="58.34" y="33.94" width="2.52" height="2.54"/><rect x="60.86" y="33.94" width="2.52" height="2.54"/><rect x="78.5" y="33.94" width="2.52" height="2.54"/><rect x="81.02" y="33.94" width="2.52" height="2.54"/><rect x="83.54" y="33.94" width="2.52" height="2.54"/><rect x="86.05" y="33.94" width="2.52" height="2.54"/><rect x="88.57" y="33.94" width="2.52" height="2.54"/><rect x="91.09" y="33.94" width="2.52" height="2.54"/><rect x="93.61" y="33.94" width="2.52" height="2.54"/><rect x="33.14" y="36.48" width="2.52" height="2.54"/><rect x="48.26" y="36.48" width="2.52" height="2.54"/><rect x="60.86" y="36.48" width="2.52" height="2.54"/><rect x="63.38" y="36.48" width="2.52" height="2.54"/><rect x="65.9" y="36.48" width="2.52" height="2.54"/><rect x="68.42" y="36.48" width="2.52" height="2.54"/><rect x="73.46" y="36.48" width="2.52" height="2.54"/><rect x="78.5" y="36.48" width="2.52" height="2.54"/><rect x="93.61" y="36.48" width="2.52" height="2.54"/><rect x="33.14" y="39.03" width="2.52" height="2.54"/><rect x="38.18" y="39.03" width="2.52" height="2.54"/><rect x="40.7" y="39.03" width="2.52" height="2.54"/><rect x="43.22" y="39.03" width="2.52" height="2.54"/><rect x="48.26" y="39.03" width="2.52" height="2.54"/><rect x="55.82" y="39.03" width="2.52" height="2.54"/><rect x="60.86" y="39.03" width="2.52" height="2.54"/><rect x="65.9" y="39.03" width="2.52" height="2.54"/><rect x="70.94" y="39.03" width="2.52" height="2.54"/><rect x="73.46" y="39.03" width="2.52" height="2.54"/><rect x="78.5" y="39.03" width="2.52" height="2.54"/><rect x="83.54" y="39.03" width="2.52" height="2.54"/><rect x="86.05" y="39.03" width="2.52" height="2.54"/><rect x="88.57" y="39.03" width="2.52" height="2.54"/><rect x="93.61" y="39.03" width="2.52" height="2.54"/><rect x="33.14" y="41.57" width="2.52" height="2.54"/><rect x="38.18" y="41.57" width="2.52" height="2.54"/><rect x="40.7" y="41.57" width="2.52" height="2.54"/><rect x="43.22" y="41.57" width="2.52" height="2.54"/><rect x="48.26" y="41.57" width="2.52" height="2.54"/><rect x="58.34" y="41.57" width="2.52" height="2.54"/><rect x="73.46" y="41.57" width="2.52" height="2.54"/><rect x="78.5" y="41.57" width="2.52" height="2.54"/><rect x="83.54" y="41.57" width="2.52" height="2.54"/><rect x="86.05" y="41.57" width="2.52" height="2.54"/><rect x="88.57" y="41.57" width="2.52" height="2.54"/><rect x="93.61" y="41.57" width="2.52" height="2.54"/><rect x="33.14" y="44.11" width="2.52" height="2.54"/><rect x="38.18" y="44.11" width="2.52" height="2.54"/><rect x="40.7" y="44.11" width="2.52" height="2.54"/><rect x="43.22" y="44.11" width="2.52" height="2.54"/><rect x="48.26" y="44.11" width="2.52" height="2.54"/><rect x="58.34" y="44.11" width="2.52" height="2.54"/><rect x="60.86" y="44.11" width="2.52" height="2.54"/><rect x="63.38" y="44.11" width="2.52" height="2.54"/><rect x="68.42" y="44.11" width="2.52" height="2.54"/><rect x="73.46" y="44.11" width="2.52" height="2.54"/><rect x="78.5" y="44.11" width="2.52" height="2.54"/><rect x="83.54" y="44.11" width="2.52" height="2.54"/><rect x="86.05" y="44.11" width="2.52" height="2.54"/><rect x="88.57" y="44.11" width="2.52" height="2.54"/><rect x="93.61" y="44.11" width="2.52" height="2.54"/><rect x="33.14" y="46.66" width="2.52" height="2.54"/><rect x="48.26" y="46.66" width="2.52" height="2.54"/><rect x="55.82" y="46.66" width="2.52" height="2.54"/><rect x="60.86" y="46.66" width="2.52" height="2.54"/><rect x="73.46" y="46.66" width="2.52" height="2.54"/><rect x="78.5" y="46.66" width="2.52" height="2.54"/><rect x="93.61" y="46.66" width="2.52" height="2.54"/><rect x="33.14" y="49.2" width="2.52" height="2.54"/><rect x="35.66" y="49.2" width="2.52" height="2.54"/><rect x="38.18" y="49.2" width="2.52" height="2.54"/><rect x="40.7" y="49.2" width="2.52" height="2.54"/><rect x="43.22" y="49.2" width="2.52" height="2.54"/><rect x="45.74" y="49.2" width="2.52" height="2.54"/><rect x="48.26" y="49.2" width="2.52" height="2.54"/><rect x="53.3" y="49.2" width="2.52" height="2.54"/><rect x="58.34" y="49.2" width="2.52" height="2.54"/><rect x="68.42" y="49.2" width="2.52" height="2.54"/><rect x="73.46" y="49.2" width="2.52" height="2.54"/><rect x="78.5" y="49.2" width="2.52" height="2.54"/><rect x="81.02" y="49.2" width="2.52" height="2.54"/><rect x="83.54" y="49.2" width="2.52" height="2.54"/><rect x="86.05" y="49.2" width="2.52" height="2.54"/><rect x="88.57" y="49.2" width="2.52" height="2.54"/><rect x="91.09" y="49.2" width="2.52" height="2.54"/><rect x="93.61" y="49.2" width="2.52" height="2.54"/><rect x="53.3" y="51.75" width="2.52" height="2.54"/><rect x="55.82" y="51.75" width="2.52" height="2.54"/><rect x="63.38" y="51.75" width="2.52" height="2.54"/><rect x="65.9" y="51.75" width="2.52" height="2.54"/><rect x="33.14" y="54.29" width="2.52" height="2.54"/><rect x="43.22" y="54.29" width="2.52" height="2.54"/><rect x="48.26" y="54.29" width="2.52" height="2.54"/><rect x="55.82" y="54.29" width="2.52" height="2.54"/><rect x="63.38" y="54.29" width="2.52" height="2.54"/><rect x="70.94" y="54.29" width="2.52" height="2.54"/><rect x="78.5" y="54.29" width="2.52" height="2.54"/><rect x="93.61" y="54.29" width="2.52" height="2.54"/><rect x="33.14" y="56.83" width="2.52" height="2.54"/><rect x="35.66" y="56.83" width="2.52" height="2.54"/><rect x="38.18" y="56.83" width="2.52" height="2.54"/><rect x="43.22" y="56.83" width="2.52" height="2.54"/><rect x="45.74" y="56.83" width="2.52" height="2.54"/><rect x="50.78" y="56.83" width="2.52" height="2.54"/><rect x="58.34" y="56.83" width="2.52" height="2.54"/><rect x="65.9" y="56.83" width="2.52" height="2.54"/><rect x="68.42" y="56.83" width="2.52" height="2.54"/><rect x="70.94" y="56.83" width="2.52" height="2.54"/><rect x="75.98" y="56.83" width="2.52" height="2.54"/><rect x="81.02" y="56.83" width="2.52" height="2.54"/><rect x="83.54" y="56.83" width="2.52" height="2.54"/><rect x="86.05" y="56.83" width="2.52" height="2.54"/><rect x="88.57" y="56.83" width="2.52" height="2.54"/><rect x="91.09" y="56.83" width="2.52" height="2.54"/><rect x="33.14" y="59.38" width="2.52" height="2.54"/><rect x="43.22" y="59.38" width="2.52" height="2.54"/><rect x="48.26" y="59.38" width="2.52" height="2.54"/><rect x="50.78" y="59.38" width="2.52" height="2.54"/><rect x="55.82" y="59.38" width="2.52" height="2.54"/><rect x="63.38" y="59.38" width="2.52" height="2.54"/><rect x="70.94" y="59.38" width="2.52" height="2.54"/><rect x="73.46" y="59.38" width="2.52" height="2.54"/><rect x="81.02" y="59.38" width="2.52" height="2.54"/><rect x="86.05" y="59.38" width="2.52" height="2.54"/><rect x="93.61" y="59.38" width="2.52" height="2.54"/><rect x="33.14" y="61.92" width="2.52" height="2.54"/><rect x="35.66" y="61.92" width="2.52" height="2.54"/><rect x="50.78" y="61.92" width="2.52" height="2.54"/><rect x="53.3" y="61.92" width="2.52" height="2.54"/><rect x="81.02" y="61.92" width="2.52" height="2.54"/><rect x="88.57" y="61.92" width="2.52" height="2.54"/><rect x="91.09" y="61.92" width="2.52" height="2.54"/><rect x="93.61" y="61.92" width="2.52" height="2.54"/><rect x="38.18" y="64.47" width="2.52" height="2.54"/><rect x="48.26" y="64.47" width="2.52" height="2.54"/><rect x="53.3" y="64.47" width="2.52" height="2.54"/><rect x="58.34" y="64.47" width="2.52" height="2.54"/><rect x="68.42" y="64.47" width="2.52" height="2.54"/><rect x="70.94" y="64.47" width="2.52" height="2.54"/><rect x="78.5" y="64.47" width="2.52" height="2.54"/><rect x="93.61" y="64.47" width="2.52" height="2.54"/><rect x="33.14" y="67.01" width="2.52" height="2.54"/><rect x="38.18" y="67.01" width="2.52" height="2.54"/><rect x="45.74" y="67.01" width="2.52" height="2.54"/><rect x="50.78" y="67.01" width="2.52" height="2.54"/><rect x="63.38" y="67.01" width="2.52" height="2.54"/><rect x="70.94" y="67.01" width="2.52" height="2.54"/><rect x="73.46" y="67.01" width="2.52" height="2.54"/><rect x="75.98" y="67.01" width="2.52" height="2.54"/><rect x="83.54" y="67.01" width="2.52" height="2.54"/><rect x="91.09" y="67.01" width="2.52" height="2.54"/><rect x="33.14" y="69.55" width="2.52" height="2.54"/><rect x="35.66" y="69.55" width="2.52" height="2.54"/><rect x="40.7" y="69.55" width="2.52" height="2.54"/><rect x="48.26" y="69.55" width="2.52" height="2.54"/><rect x="50.78" y="69.55" width="2.52" height="2.54"/><rect x="55.82" y="69.55" width="2.52" height="2.54"/><rect x="68.42" y="69.55" width="2.52" height="2.54"/><rect x="70.94" y="69.55" width="2.52" height="2.54"/><rect x="83.54" y="69.55" width="2.52" height="2.54"/><rect x="86.05" y="69.55" width="2.52" height="2.54"/><rect x="88.57" y="69.55" width="2.52" height="2.54"/><rect x="91.09" y="69.55" width="2.52" height="2.54"/><rect x="93.61" y="69.55" width="2.52" height="2.54"/><rect x="33.14" y="72.1" width="2.52" height="2.54"/><rect x="45.74" y="72.1" width="2.52" height="2.54"/><rect x="55.82" y="72.1" width="2.52" height="2.54"/><rect x="63.38" y="72.1" width="2.52" height="2.54"/><rect x="68.42" y="72.1" width="2.52" height="2.54"/><rect x="73.46" y="72.1" width="2.52" height="2.54"/><rect x="81.02" y="72.1" width="2.52" height="2.54"/><rect x="86.05" y="72.1" width="2.52" height="2.54"/><rect x="88.57" y="72.1" width="2.52" height="2.54"/><rect x="93.61" y="72.1" width="2.52" height="2.54"/><rect x="33.14" y="74.64" width="2.52" height="2.54"/><rect x="38.18" y="74.64" width="2.52" height="2.54"/><rect x="40.7" y="74.64" width="2.52" height="2.54"/><rect x="43.22" y="74.64" width="2.52" height="2.54"/><rect x="48.26" y="74.64" width="2.52" height="2.54"/><rect x="50.78" y="74.64" width="2.52" height="2.54"/><rect x="58.34" y="74.64" width="2.52" height="2.54"/><rect x="60.86" y="74.64" width="2.52" height="2.54"/><rect x="65.9" y="74.64" width="2.52" height="2.54"/><rect x="70.94" y="74.64" width="2.52" height="2.54"/><rect x="73.46" y="74.64" width="2.52" height="2.54"/><rect x="75.98" y="74.64" width="2.52" height="2.54"/><rect x="78.5" y="74.64" width="2.52" height="2.54"/><rect x="83.54" y="74.64" width="2.52" height="2.54"/><rect x="88.57" y="74.64" width="2.52" height="2.54"/><rect x="91.09" y="74.64" width="2.52" height="2.54"/><rect x="53.3" y="77.19" width="2.52" height="2.54"/><rect x="55.82" y="77.19" width="2.52" height="2.54"/><rect x="60.86" y="77.19" width="2.52" height="2.54"/><rect x="73.46" y="77.19" width="2.52" height="2.54"/><rect x="83.54" y="77.19" width="2.52" height="2.54"/><rect x="88.57" y="77.19" width="2.52" height="2.54"/><rect x="91.09" y="77.19" width="2.52" height="2.54"/><rect x="33.14" y="79.73" width="2.52" height="2.54"/><rect x="35.66" y="79.73" width="2.52" height="2.54"/><rect x="38.18" y="79.73" width="2.52" height="2.54"/><rect x="40.7" y="79.73" width="2.52" height="2.54"/><rect x="43.22" y="79.73" width="2.52" height="2.54"/><rect x="45.74" y="79.73" width="2.52" height="2.54"/><rect x="48.26" y="79.73" width="2.52" height="2.54"/><rect x="58.34" y="79.73" width="2.52" height="2.54"/><rect x="63.38" y="79.73" width="2.52" height="2.54"/><rect x="68.42" y="79.73" width="2.52" height="2.54"/><rect x="73.46" y="79.73" width="2.52" height="2.54"/><rect x="78.5" y="79.73" width="2.52" height="2.54"/><rect x="83.54" y="79.73" width="2.52" height="2.54"/><rect x="93.61" y="79.73" width="2.52" height="2.54"/><rect x="33.14" y="82.28" width="2.52" height="2.54"/><rect x="48.26" y="82.28" width="2.52" height="2.54"/><rect x="60.86" y="82.28" width="2.52" height="2.54"/><rect x="65.9" y="82.28" width="2.52" height="2.54"/><rect x="70.94" y="82.28" width="2.52" height="2.54"/><rect x="73.46" y="82.28" width="2.52" height="2.54"/><rect x="83.54" y="82.28" width="2.52" height="2.54"/><rect x="93.61" y="82.28" width="2.52" height="2.54"/><rect x="33.14" y="84.82" width="2.52" height="2.54"/><rect x="38.18" y="84.82" width="2.52" height="2.54"/><rect x="40.7" y="84.82" width="2.52" height="2.54"/><rect x="43.22" y="84.82" width="2.52" height="2.54"/><rect x="48.26" y="84.82" width="2.52" height="2.54"/><rect x="53.3" y="84.82" width="2.52" height="2.54"/><rect x="58.34" y="84.82" width="2.52" height="2.54"/><rect x="60.86" y="84.82" width="2.52" height="2.54"/><rect x="63.38" y="84.82" width="2.52" height="2.54"/><rect x="68.42" y="84.82" width="2.52" height="2.54"/><rect x="73.46" y="84.82" width="2.52" height="2.54"/><rect x="75.98" y="84.82" width="2.52" height="2.54"/><rect x="78.5" y="84.82" width="2.52" height="2.54"/><rect x="81.02" y="84.82" width="2.52" height="2.54"/><rect x="83.54" y="84.82" width="2.52" height="2.54"/><rect x="33.14" y="87.36" width="2.52" height="2.54"/><rect x="38.18" y="87.36" width="2.52" height="2.54"/><rect x="40.7" y="87.36" width="2.52" height="2.54"/><rect x="43.22" y="87.36" width="2.52" height="2.54"/><rect x="48.26" y="87.36" width="2.52" height="2.54"/><rect x="53.3" y="87.36" width="2.52" height="2.54"/><rect x="55.82" y="87.36" width="2.52" height="2.54"/><rect x="63.38" y="87.36" width="2.52" height="2.54"/><rect x="68.42" y="87.36" width="2.52" height="2.54"/><rect x="78.5" y="87.36" width="2.52" height="2.54"/><rect x="91.09" y="87.36" width="2.52" height="2.54"/><rect x="93.61" y="87.36" width="2.52" height="2.54"/><rect x="33.14" y="89.91" width="2.52" height="2.54"/><rect x="38.18" y="89.91" width="2.52" height="2.54"/><rect x="40.7" y="89.91" width="2.52" height="2.54"/><rect x="43.22" y="89.91" width="2.52" height="2.54"/><rect x="48.26" y="89.91" width="2.52" height="2.54"/><rect x="55.82" y="89.91" width="2.52" height="2.54"/><rect x="60.86" y="89.91" width="2.52" height="2.54"/><rect x="65.9" y="89.91" width="2.52" height="2.54"/><rect x="70.94" y="89.91" width="2.52" height="2.54"/><rect x="75.98" y="89.91" width="2.52" height="2.54"/><rect x="83.54" y="89.91" width="2.52" height="2.54"/><rect x="88.57" y="89.91" width="2.52" height="2.54"/><rect x="91.09" y="89.91" width="2.52" height="2.54"/><rect x="93.61" y="89.91" width="2.52" height="2.54"/><rect x="33.14" y="92.45" width="2.52" height="2.54"/><rect x="48.26" y="92.45" width="2.52" height="2.54"/><rect x="53.3" y="92.45" width="2.52" height="2.54"/><rect x="58.34" y="92.45" width="2.52" height="2.54"/><rect x="60.86" y="92.45" width="2.52" height="2.54"/><rect x="68.42" y="92.45" width="2.52" height="2.54"/><rect x="70.94" y="92.45" width="2.52" height="2.54"/><rect x="83.54" y="92.45" width="2.52" height="2.54"/><rect x="88.57" y="92.45" width="2.52" height="2.54"/><rect x="91.09" y="92.45" width="2.52" height="2.54"/><rect x="93.61" y="92.45" width="2.52" height="2.54"/><rect x="33.14" y="95" width="2.52" height="2.54"/><rect x="35.66" y="95" width="2.52" height="2.54"/><rect x="38.18" y="95" width="2.52" height="2.54"/><rect x="40.7" y="95" width="2.52" height="2.54"/><rect x="43.22" y="95" width="2.52" height="2.54"/><rect x="45.74" y="95" width="2.52" height="2.54"/><rect x="48.26" y="95" width="2.52" height="2.54"/><rect x="53.3" y="95" width="2.52" height="2.54"/><rect x="63.38" y="95" width="2.52" height="2.54"/><rect x="75.98" y="95" width="2.52" height="2.54"/><rect x="86.05" y="95" width="2.52" height="2.54"/><rect x="93.61" y="95" width="2.52" height="2.54"/><rect x="100.96" y="35.7" width="2.52" height="2.54"/><rect x="108.52" y="35.7" width="2.52" height="2.54"/><rect x="103.48" y="38.25" width="2.52" height="2.54"/><rect x="111.04" y="38.25" width="2.52" height="2.54"/><rect x="113.56" y="38.25" width="2.52" height="2.54"/><rect x="100.96" y="40.79" width="2.52" height="2.54"/><rect x="108.52" y="40.79" width="2.52" height="2.54"/><rect x="98.44" y="43.34" width="2.52" height="2.54"/><rect x="98.44" y="45.88" width="2.52" height="2.54"/><rect x="103.48" y="45.88" width="2.52" height="2.54"/><rect x="113.56" y="45.88" width="2.52" height="2.54"/><rect x="108.52" y="48.42" width="2.52" height="2.54"/><rect x="100.96" y="50.97" width="2.52" height="2.54"/><rect x="113.56" y="50.97" width="2.52" height="2.54"/><rect x="100.96" y="53.51" width="2.52" height="2.54"/><rect x="108.52" y="53.51" width="2.52" height="2.54"/><rect x="113.56" y="53.51" width="2.52" height="2.54"/><rect x="103.48" y="56.06" width="2.52" height="2.54"/><rect x="106" y="56.06" width="2.52" height="2.54"/><rect x="111.04" y="56.06" width="2.52" height="2.54"/><rect x="98.44" y="58.6" width="2.52" height="2.54"/><rect x="100.96" y="58.6" width="2.52" height="2.54"/><rect x="106" y="58.6" width="2.52" height="2.54"/><rect x="103.48" y="61.15" width="2.52" height="2.54"/><rect x="108.52" y="61.15" width="2.52" height="2.54"/><rect x="119.56" y="61.15" width="2.52" height="2.54"/><rect x="106" y="63.69" width="2.52" height="2.54"/><rect x="117.04" y="63.69" width="2.52" height="2.54"/><rect x="100.57" y="67.32" width="2.52" height="2.54"/><rect x="108.13" y="67.32" width="2.52" height="2.54"/><rect x="103.09" y="69.86" width="2.52" height="2.54"/><rect x="110.65" y="69.86" width="2.52" height="2.54"/><rect x="113.17" y="69.86" width="2.52" height="2.54"/><rect x="100.57" y="72.41" width="2.52" height="2.54"/><rect x="108.13" y="72.41" width="2.52" height="2.54"/><rect x="98.05" y="74.95" width="2.52" height="2.54"/><rect x="98.05" y="77.49" width="2.52" height="2.54"/><rect x="103.09" y="77.49" width="2.52" height="2.54"/><rect x="116.17" y="77.49" width="2.52" height="2.54"/><rect x="108.13" y="80.04" width="2.52" height="2.54"/><rect x="100.57" y="82.58" width="2.52" height="2.54"/><rect x="113.17" y="82.58" width="2.52" height="2.54"/><rect x="100.57" y="85.13" width="2.52" height="2.54"/><rect x="108.13" y="85.13" width="2.52" height="2.54"/><rect x="113.17" y="85.13" width="2.52" height="2.54"/><rect x="103.09" y="87.67" width="2.52" height="2.54"/><rect x="105.61" y="87.67" width="2.52" height="2.54"/><rect x="110.65" y="87.67" width="2.52" height="2.54"/><rect x="98.05" y="90.21" width="2.52" height="2.54"/><rect x="100.57" y="90.21" width="2.52" height="2.54"/><rect x="105.61" y="90.21" width="2.52" height="2.54"/><rect x="103.09" y="92.76" width="2.52" height="2.54"/><rect x="108.13" y="92.76" width="2.52" height="2.54"/><rect x="113.17" y="92.76" width="2.52" height="2.54"/><rect x="105.61" y="95.3" width="2.52" height="2.54"/><rect x="110.65" y="95.3" width="2.52" height="2.54"/><rect x="14.89" y="35.32" width="2.52" height="2.54"/><rect x="22.45" y="35.32" width="2.52" height="2.54"/><rect x="17.41" y="37.86" width="2.52" height="2.54"/><rect x="24.97" y="37.86" width="2.52" height="2.54"/><rect x="27.49" y="37.86" width="2.52" height="2.54"/><rect x="14.89" y="40.41" width="2.52" height="2.54"/><rect x="22.45" y="40.41" width="2.52" height="2.54"/><rect x="12.38" y="42.95" width="2.52" height="2.54"/><rect x="12.38" y="45.49" width="2.52" height="2.54"/><rect x="17.41" y="45.49" width="2.52" height="2.54"/><rect x="27.49" y="45.49" width="2.52" height="2.54"/><rect x="22.45" y="48.04" width="2.52" height="2.54"/><rect x="14.89" y="50.58" width="2.52" height="2.54"/><rect x="27.49" y="50.58" width="2.52" height="2.54"/><rect x="10.89" y="53.13" width="2.52" height="2.54"/><rect x="22.45" y="53.13" width="2.52" height="2.54"/><rect x="27.49" y="53.13" width="2.52" height="2.54"/><rect x="17.41" y="55.67" width="2.52" height="2.54"/><rect x="19.93" y="55.67" width="2.52" height="2.54"/><rect x="24.97" y="55.67" width="2.52" height="2.54"/><rect x="10.89" y="58.21" width="2.52" height="2.54"/><rect x="19.93" y="58.21" width="2.52" height="2.54"/><rect x="17.41" y="60.76" width="2.52" height="2.54"/><rect x="22.45" y="60.76" width="2.52" height="2.54"/><rect x="27.49" y="60.76" width="2.52" height="2.54"/><rect x="19.93" y="63.3" width="2.52" height="2.54"/><rect x="24.97" y="63.3" width="2.52" height="2.54"/><rect x="10.89" y="67.45" width="2.52" height="2.54"/><rect x="22.45" y="67.45" width="2.52" height="2.54"/><rect x="17.41" y="69.99" width="2.52" height="2.54"/><rect x="24.97" y="69.99" width="2.52" height="2.54"/><rect x="27.49" y="69.99" width="2.52" height="2.54"/><rect x="14.89" y="72.53" width="2.52" height="2.54"/><rect x="22.45" y="72.53" width="2.52" height="2.54"/><rect x="12.38" y="75.08" width="2.52" height="2.54"/><rect x="12.38" y="77.62" width="2.52" height="2.54"/><rect x="17.41" y="77.62" width="2.52" height="2.54"/><rect x="27.49" y="77.62" width="2.52" height="2.54"/><rect x="22.45" y="80.17" width="2.52" height="2.54"/><rect x="14.89" y="82.71" width="2.52" height="2.54"/><rect x="27.49" y="82.71" width="2.52" height="2.54"/><rect x="14.89" y="85.26" width="2.52" height="2.54"/><rect x="22.45" y="85.26" width="2.52" height="2.54"/><rect x="27.49" y="85.26" width="2.52" height="2.54"/><rect x="17.41" y="87.8" width="2.52" height="2.54"/><rect x="19.93" y="87.8" width="2.52" height="2.54"/><rect x="24.97" y="87.8" width="2.52" height="2.54"/><rect x="12.38" y="90.34" width="2.52" height="2.54"/><rect x="14.89" y="90.34" width="2.52" height="2.54"/><rect x="19.93" y="90.34" width="2.52" height="2.54"/><rect x="17.41" y="92.89" width="2.52" height="2.54"/><rect x="22.45" y="92.89" width="2.52" height="2.54"/><rect x="27.49" y="92.89" width="2.52" height="2.54"/><rect x="19.93" y="95.43" width="2.52" height="2.54"/><rect x="24.97" y="95.43" width="2.52" height="2.54"/><rect x="33.99" y="100.09" width="2.52" height="2.54"/><rect x="41.55" y="100.09" width="2.52" height="2.54"/><rect x="36.51" y="102.64" width="2.52" height="2.54"/><rect x="44.07" y="102.64" width="2.52" height="2.54"/><rect x="46.59" y="102.64" width="2.52" height="2.54"/><rect x="33.99" y="105.18" width="2.52" height="2.54"/><rect x="41.55" y="105.18" width="2.52" height="2.54"/><rect x="31.47" y="107.72" width="2.52" height="2.54"/><rect x="36.51" y="110.27" width="2.52" height="2.54"/><rect x="46.59" y="110.27" width="2.52" height="2.54"/><rect x="46.59" y="115.36" width="2.52" height="2.54"/><rect x="53.6" y="101.64" width="2.52" height="2.54"/><rect x="61.16" y="101.64" width="2.52" height="2.54"/><rect x="56.12" y="104.18" width="2.52" height="2.54"/><rect x="63.68" y="104.18" width="2.52" height="2.54"/><rect x="66.2" y="104.18" width="2.52" height="2.54"/><rect x="53.6" y="106.73" width="2.52" height="2.54"/><rect x="61.16" y="106.73" width="2.52" height="2.54"/><rect x="51.08" y="109.27" width="2.52" height="2.54"/><rect x="51.08" y="111.82" width="2.52" height="2.54"/><rect x="56.12" y="111.82" width="2.52" height="2.54"/><rect x="66.2" y="111.82" width="2.52" height="2.54"/><rect x="61.16" y="114.36" width="2.52" height="2.54"/><rect x="66.2" y="116.9" width="2.52" height="2.54"/><rect x="61.16" y="119.45" width="2.52" height="2.54"/><rect x="66.2" y="119.45" width="2.52" height="2.54"/><rect x="63.68" y="121.99" width="2.52" height="2.54"/><rect x="75.02" y="100.74" width="2.52" height="2.54"/><rect x="82.58" y="100.74" width="2.52" height="2.54"/><rect x="77.54" y="103.28" width="2.52" height="2.54"/><rect x="85.1" y="103.28" width="2.52" height="2.54"/><rect x="87.62" y="103.28" width="2.52" height="2.54"/><rect x="75.02" y="105.82" width="2.52" height="2.54"/><rect x="82.58" y="105.82" width="2.52" height="2.54"/><rect x="72.5" y="108.37" width="2.52" height="2.54"/><rect x="72.5" y="110.91" width="2.52" height="2.54"/><rect x="77.54" y="110.91" width="2.52" height="2.54"/><rect x="87.62" y="110.91" width="2.52" height="2.54"/><rect x="82.58" y="113.46" width="2.52" height="2.54"/><rect x="75.02" y="116" width="2.52" height="2.54"/><rect x="75.02" y="118.55" width="2.52" height="2.54"/><rect x="96.02" y="100.74" width="2.52" height="2.54"/><rect x="103.58" y="100.74" width="2.52" height="2.54"/><rect x="98.54" y="103.28" width="2.52" height="2.54"/><rect x="96.02" y="105.82" width="2.52" height="2.54"/><rect x="103.58" y="105.82" width="2.52" height="2.54"/><rect x="93.5" y="108.37" width="2.52" height="2.54"/><rect x="93.5" y="110.91" width="2.52" height="2.54"/><rect x="98.54" y="110.91" width="2.52" height="2.54"/><rect x="54.95" y="14.48" width="2.54" height="2.52"/><rect x="54.95" y="22.04" width="2.54" height="2.52"/><rect x="52.4" y="17" width="2.54" height="2.52"/><rect x="52.4" y="24.55" width="2.54" height="2.52"/><rect x="52.4" y="27.07" width="2.54" height="2.52"/><rect x="49.86" y="14.48" width="2.54" height="2.52"/><rect x="49.86" y="22.04" width="2.54" height="2.52"/><rect x="44.77" y="17" width="2.54" height="2.52"/><rect x="44.77" y="27.07" width="2.54" height="2.52"/><rect x="42.23" y="22.04" width="2.54" height="2.52"/><rect x="39.68" y="27.07" width="2.54" height="2.52"/><rect x="37.14" y="22.04" width="2.54" height="2.52"/><rect x="37.14" y="27.07" width="2.54" height="2.52"/><rect x="34.59" y="19.52" width="2.54" height="2.52"/><rect x="34.59" y="24.55" width="2.54" height="2.52"/><rect x="29.51" y="22.04" width="2.54" height="2.52"/><rect x="29.51" y="27.07" width="2.54" height="2.52"/><rect x="26.96" y="24.55" width="2.54" height="2.52"/><rect x="60.63" y="9.53" width="2.52" height="2.54"/><rect x="65.67" y="9.53" width="2.52" height="2.54"/><rect x="70.71" y="12.07" width="2.52" height="2.54"/><rect x="63.15" y="14.61" width="2.52" height="2.54"/><rect x="75.75" y="14.61" width="2.52" height="2.54"/><rect x="63.15" y="17.16" width="2.52" height="2.54"/><rect x="70.71" y="17.16" width="2.52" height="2.54"/><rect x="75.75" y="17.16" width="2.52" height="2.54"/><rect x="65.67" y="19.7" width="2.52" height="2.54"/><rect x="68.19" y="19.7" width="2.52" height="2.54"/><rect x="73.23" y="19.7" width="2.52" height="2.54"/><rect x="60.63" y="22.25" width="2.52" height="2.54"/><rect x="63.15" y="22.25" width="2.52" height="2.54"/><rect x="68.19" y="22.25" width="2.52" height="2.54"/><rect x="65.67" y="24.79" width="2.52" height="2.54"/><rect x="70.71" y="24.79" width="2.52" height="2.54"/><rect x="75.75" y="24.79" width="2.52" height="2.54"/><rect x="68.19" y="27.34" width="2.52" height="2.54"/><rect x="73.23" y="27.34" width="2.52" height="2.54"/><rect x="84.57" y="14.45" width="2.52" height="2.54"/><rect x="84.57" y="17" width="2.52" height="2.54"/><rect x="87.09" y="19.54" width="2.52" height="2.54"/><rect x="89.61" y="19.54" width="2.52" height="2.54"/><rect x="82.05" y="22.09" width="2.52" height="2.54"/><rect x="84.57" y="22.09" width="2.52" height="2.54"/><rect x="89.61" y="22.09" width="2.52" height="2.54"/><rect x="87.09" y="24.63" width="2.52" height="2.54"/><rect x="92.13" y="24.63" width="2.52" height="2.54"/><rect x="97.17" y="24.63" width="2.52" height="2.54"/><rect x="89.61" y="27.17" width="2.52" height="2.54"/><rect x="94.65" y="27.17" width="2.52" height="2.54"/></g></g></g></g></svg>