<svg xmlns="http://www.w3.org/2000/svg" viewBox="0 0 153.65 165.27"><g id="Layer_2" data-name="Layer 2"><g id="Layer_1-2" data-name="Layer 1"><path d="M76.82,165.27a8.4,8.4,0,0,1-2.17-.29C3.85,146-.37,61,0,35.37a8.5,8.5,0,0,1,7.71-8.32C38.75,24.15,63.88,8,73.24,1.17a6,6,0,0,1,7.15,0C89.78,8,115,24.16,145.92,27.05a8.46,8.46,0,0,1,7.71,8.32h0C154,61,149.73,146,79,165A8.33,8.33,0,0,1,76.82,165.27ZM76.82,2a4,4,0,0,0-2.4.79c-9.5,6.91-35,23.31-66.5,26.26A6.48,6.48,0,0,0,2,35.41c-.39,25.23,3.75,109,73.15,127.64a6.33,6.33,0,0,0,3.29,0C147.82,144.45,152,60.64,151.63,35.4h0a6.45,6.45,0,0,0-5.9-6.35C114.27,26.1,88.73,9.7,79.22,2.79A4,4,0,0,0,76.82,2Z"/><g id="Layer_2-2" data-name="Layer 2"><g id="Layer_1-2-2" data-name="Layer 1-2"><rect x="44.68" y="62.46" width="2.52" height="2.54"/><rect x="47.2" y="62.46" width="2.52" height="2.54"/><rect x="49.72" y="62.46" width="2.52" height="2.54"/><rect x="52.24" y="62.46" width="2.52" height="2.54"/><rect x="54.76" y="62.46" width="2.52" height="2.54"/><rect x="57.28" y="62.46" width="2.52" height="2.54"/><rect x="59.8" y="62.46" width="2.52" height="2.54"/><rect x="64.84" y="62.46" width="2.52" height="2.54"/><rect x="67.36" y="62.46" width="2.52" height="2.54"/><rect x="69.88" y="62.46" width="2.52" height="2.54"/><rect x="72.4" y="62.46" width="2.52" height="2.54"/><rect x="90.04" y="62.46" width="2.52" height="2.54"/><rect x="92.56" y="62.46" width="2.52" height="2.54"/><rect x="95.08" y="62.46" width="2.52" height="2.54"/><rect x="97.59" y="62.46" width="2.52" height="2.54"/><rect x="100.11" y="62.46" width="2.52" height="2.54"/><rect x="102.63" y="62.46" width="2.52" height="2.54"/><rect x="105.15" y="62.46" width="2.52" height="2.54"/><rect x="44.68" y="65" width="2.52" height="2.54"/><rect x="59.8" y="65" width="2.52" height="2.54"/><rect x="72.4" y="65" width="2.52" height="2.54"/><rect x="74.92" y="65" width="2.52" height="2.54"/><rect x="77.44" y="65" width="2.52" height="2.54"/><rect x="79.96" y="65" width="2.52" height="2.54"/><rect x="85" y="65" width="2.52" height="2.54"/><rect x="90.04" y="65" width="2.52" height="2.54"/><rect x="105.15" y="65" width="2.52" height="2.54"/><rect x="44.68" y="67.55" width="2.52" height="2.54"/><rect x="49.72" y="67.55" width="2.52" height="2.54"/><rect x="52.24" y="67.55" width="2.52" height="2.54"/><rect x="54.76" y="67.55" width="2.52" height="2.54"/><rect x="59.8" y="67.55" width="2.52" height="2.54"/><rect x="67.36" y="67.55" width="2.52" height="2.54"/><rect x="72.4" y="67.55" width="2.52" height="2.54"/><rect x="77.44" y="67.55" width="2.52" height="2.54"/><rect x="82.48" y="67.55" width="2.52" height="2.54"/><rect x="85" y="67.55" width="2.52" height="2.54"/><rect x="90.04" y="67.55" width="2.52" height="2.54"/><rect x="95.08" y="67.55" width="2.52" height="2.54"/><rect x="97.59" y="67.55" width="2.52" height="2.54"/><rect x="100.11" y="67.55" width="2.52" height="2.54"/><rect x="105.15" y="67.55" width="2.52" height="2.54"/><rect x="44.68" y="70.09" width="2.52" height="2.54"/><rect x="49.72" y="70.09" width="2.52" height="2.54"/><rect x="52.24" y="70.09" width="2.52" height="2.54"/><rect x="54.76" y="70.09" width="2.52" height="2.54"/><rect x="59.8" y="70.09" width="2.52" height="2.54"/><rect x="69.88" y="70.09" width="2.52" height="2.54"/><rect x="85" y="70.09" width="2.52" height="2.54"/><rect x="90.04" y="70.09" width="2.52" height="2.54"/><rect x="95.08" y="70.09" width="2.52" height="2.54"/><rect x="97.59" y="70.09" width="2.52" height="2.54"/><rect x="100.11" y="70.09" width="2.52" height="2.54"/><rect x="105.15" y="70.09" width="2.52" height="2.54"/><rect x="44.68" y="72.63" width="2.52" height="2.54"/><rect x="49.72" y="72.63" width="2.52" height="2.54"/><rect x="52.24" y="72.63" width="2.52" height="2.54"/><rect x="54.76" y="72.63" width="2.52" height="2.54"/><rect x="59.8" y="72.63" width="2.52" height="2.54"/><rect x="69.88" y="72.63" width="2.52" height="2.54"/><rect x="72.4" y="72.63" width="2.52" height="2.54"/><rect x="74.92" y="72.63" width="2.52" height="2.54"/><rect x="79.96" y="72.63" width="2.52" height="2.54"/><rect x="85" y="72.63" width="2.52" height="2.54"/><rect x="90.04" y="72.63" width="2.52" height="2.54"/><rect x="95.08" y="72.63" width="2.52" height="2.54"/><rect x="97.59" y="72.63" width="2.52" height="2.54"/><rect x="100.11" y="72.63" width="2.52" height="2.54"/><rect x="105.15" y="72.63" width="2.52" height="2.54"/><rect x="44.68" y="75.18" width="2.52" height="2.54"/><rect x="59.8" y="75.18" width="2.52" height="2.54"/><rect x="67.36" y="75.18" width="2.52" height="2.54"/><rect x="72.4" y="75.18" width="2.52" height="2.54"/><rect x="85" y="75.18" width="2.52" height="2.54"/><rect x="90.04" y="75.18" width="2.52" height="2.54"/><rect x="105.15" y="75.18" width="2.52" height="2.54"/><rect x="44.68" y="77.72" width="2.52" height="2.54"/><rect x="47.2" y="77.72" width="2.52" height="2.54"/><rect x="49.72" y="77.72" width="2.52" height="2.54"/><rect x="52.24" y="77.72" width="2.52" height="2.54"/><rect x="54.76" y="77.72" width="2.52" height="2.54"/><rect x="57.28" y="77.72" width="2.52" height="2.54"/><rect x="59.8" y="77.72" width="2.52" height="2.54"/><rect x="64.84" y="77.72" width="2.52" height="2.54"/><rect x="69.88" y="77.72" width="2.52" height="2.54"/><rect x="79.96" y="77.72" width="2.52" height="2.54"/><rect x="85" y="77.72" width="2.52" height="2.54"/><rect x="90.04" y="77.72" width="2.52" height="2.54"/><rect x="92.56" y="77.72" width="2.52" height="2.54"/><rect x="95.08" y="77.72" width="2.52" height="2.54"/><rect x="97.59" y="77.72" width="2.52" height="2.54"/><rect x="100.11" y="77.72" width="2.52" height="2.54"/><rect x="102.63" y="77.72" width="2.52" height="2.54"/><rect x="105.15" y="77.72" width="2.52" height="2.54"/><rect x="64.84" y="80.27" width="2.52" height="2.54"/><rect x="67.36" y="80.27" width="2.52" height="2.54"/><rect x="74.92" y="80.27" width="2.52" height="2.54"/><rect x="77.44" y="80.27" width="2.52" height="2.54"/><rect x="44.68" y="82.81" width="2.52" height="2.54"/><rect x="54.76" y="82.81" width="2.52" height="2.54"/><rect x="59.8" y="82.81" width="2.52" height="2.54"/><rect x="67.36" y="82.81" width="2.52" height="2.54"/><rect x="74.92" y="82.81" width="2.52" height="2.54"/><rect x="82.48" y="82.81" width="2.52" height="2.54"/><rect x="90.04" y="82.81" width="2.52" height="2.54"/><rect x="105.15" y="82.81" width="2.52" height="2.54"/><rect x="44.68" y="85.35" width="2.52" height="2.54"/><rect x="47.2" y="85.35" width="2.52" height="2.54"/><rect x="49.72" y="85.35" width="2.52" height="2.54"/><rect x="54.76" y="85.35" width="2.52" height="2.54"/><rect x="57.28" y="85.35" width="2.52" height="2.54"/><rect x="62.32" y="85.35" width="2.52" height="2.54"/><rect x="69.88" y="85.35" width="2.52" height="2.54"/><rect x="77.44" y="85.35" width="2.52" height="2.54"/><rect x="79.96" y="85.35" width="2.52" height="2.54"/><rect x="82.48" y="85.35" width="2.52" height="2.54"/><rect x="87.52" y="85.35" width="2.52" height="2.54"/><rect x="92.56" y="85.35" width="2.52" height="2.54"/><rect x="95.08" y="85.35" width="2.52" height="2.54"/><rect x="97.59" y="85.35" width="2.52" height="2.54"/><rect x="100.11" y="85.35" width="2.52" height="2.54"/><rect x="102.63" y="85.35" width="2.52" height="2.54"/><rect x="44.68" y="87.9" width="2.52" height="2.54"/><rect x="54.76" y="87.9" width="2.52" height="2.54"/><rect x="59.8" y="87.9" width="2.52" height="2.54"/><rect x="62.32" y="87.9" width="2.52" height="2.54"/><rect x="67.36" y="87.9" width="2.52" height="2.54"/><rect x="74.92" y="87.9" width="2.52" height="2.54"/><rect x="82.48" y="87.9" width="2.52" height="2.54"/><rect x="85" y="87.9" width="2.52" height="2.54"/><rect x="92.56" y="87.9" width="2.52" height="2.54"/><rect x="97.59" y="87.9" width="2.52" height="2.54"/><rect x="105.15" y="87.9" width="2.52" height="2.54"/><rect x="44.68" y="90.44" width="2.52" height="2.54"/><rect x="47.2" y="90.44" width="2.52" height="2.54"/><rect x="62.32" y="90.44" width="2.52" height="2.54"/><rect x="64.84" y="90.44" width="2.52" height="2.54"/><rect x="92.56" y="90.44" width="2.52" height="2.54"/><rect x="100.11" y="90.44" width="2.52" height="2.54"/><rect x="102.63" y="90.44" width="2.52" height="2.54"/><rect x="105.15" y="90.44" width="2.52" height="2.54"/><rect x="49.72" y="92.99" width="2.52" height="2.54"/><rect x="59.8" y="92.99" width="2.52" height="2.54"/><rect x="64.84" y="92.99" width="2.52" height="2.54"/><rect x="69.88" y="92.99" width="2.52" height="2.54"/><rect x="79.96" y="92.99" width="2.52" height="2.54"/><rect x="82.48" y="92.99" width="2.52" height="2.54"/><rect x="90.04" y="92.99" width="2.52" height="2.54"/><rect x="105.15" y="92.99" width="2.52" height="2.54"/><rect x="44.68" y="95.53" width="2.52" height="2.54"/><rect x="49.72" y="95.53" width="2.52" height="2.54"/><rect x="57.28" y="95.53" width="2.52" height="2.54"/><rect x="62.32" y="95.53" width="2.52" height="2.54"/><rect x="74.92" y="95.53" width="2.52" height="2.54"/><rect x="82.48" y="95.53" width="2.52" height="2.54"/><rect x="85" y="95.53" width="2.52" height="2.54"/><rect x="87.52" y="95.53" width="2.52" height="2.54"/><rect x="95.08" y="95.53" width="2.52" height="2.54"/><rect x="102.63" y="95.53" width="2.52" height="2.54"/><rect x="44.68" y="98.07" width="2.52" height="2.54"/><rect x="47.2" y="98.07" width="2.52" height="2.54"/><rect x="52.24" y="98.07" width="2.52" height="2.54"/><rect x="59.8" y="98.07" width="2.52" height="2.54"/><rect x="62.32" y="98.07" width="2.52" height="2.54"/><rect x="67.36" y="98.07" width="2.52" height="2.54"/><rect x="79.96" y="98.07" width="2.52" height="2.54"/><rect x="82.48" y="98.07" width="2.52" height="2.54"/><rect x="95.08" y="98.07" width="2.52" height="2.54"/><rect x="97.59" y="98.07" width="2.52" height="2.54"/><rect x="100.11" y="98.07" width="2.52" height="2.54"/><rect x="102.63" y="98.07" width="2.52" height="2.54"/><rect x="105.15" y="98.07" width="2.52" height="2.54"/><rect x="44.68" y="100.62" width="2.52" height="2.54"/><rect x="57.28" y="100.62" width="2.52" height="2.54"/><rect x="67.36" y="100.62" width="2.52" height="2.54"/><rect x="74.92" y="100.62" width="2.52" height="2.54"/><rect x="79.96" y="100.62" width="2.52" height="2.54"/><rect x="85" y="100.62" width="2.52" height="2.54"/><rect x="92.56" y="100.62" width="2.52" height="2.54"/><rect x="97.59" y="100.62" width="2.52" height="2.54"/><rect x="100.11" y="100.62" width="2.52" height="2.54"/><rect x="105.15" y="100.62" width="2.52" height="2.54"/><rect x="44.68" y="103.16" width="2.52" height="2.54"/><rect x="49.72" y="103.16" width="2.52" height="2.54"/><rect x="52.24" y="103.16" width="2.52" height="2.54"/><rect x="54.76" y="103.16" width="2.52" height="2.54"/><rect x="59.8" y="103.16" width="2.52" height="2.54"/><rect x="62.32" y="103.16" width="2.52" height="2.54"/><rect x="69.88" y="103.16" width="2.52" height="2.54"/><rect x="72.4" y="103.16" width="2.52" height="2.54"/><rect x="77.44" y="103.16" width="2.52" height="2.54"/><rect x="82.48" y="103.16" width="2.52" height="2.54"/><rect x="85" y="103.16" width="2.52" height="2.54"/><rect x="87.52" y="103.16" width="2.52" height="2.54"/><rect x="90.04" y="103.16" width="2.52" height="2.54"/><rect x="95.08" y="103.16" width="2.52" height="2.54"/><rect x="100.11" y="103.16" width="2.52" height="2.54"/><rect x="102.63" y="103.16" width="2.52" height="2.54"/><rect x="64.84" y="105.71" width="2.52" height="2.54"/><rect x="67.36" y="105.71" width="2.52" height="2.54"/><rect x="72.4" y="105.71" width="2.52" height="2.54"/><rect x="85" y="105.71" width="2.52" height="2.54"/><rect x="95.08" y="105.71" width="2.52" height="2.54"/><rect x="100.11" y="105.71" width="2.52" height="2.54"/><rect x="102.63" y="105.71" width="2.52" height="2.54"/><rect x="44.68" y="108.25" width="2.52" height="2.54"/><rect x="47.2" y="108.25" width="2.52" height="2.54"/><rect x="49.72" y="108.25" width="2.52" height="2.54"/><rect x="52.24" y="108.25" width="2.52" height="2.54"/><rect x="54.76" y="108.25" width="2.52" height="2.54"/><rect x="57.28" y="108.25" width="2.52" height="2.54"/><rect x="59.8" y="108.25" width="2.52" height="2.54"/><rect x="69.88" y="108.25" width="2.52" height="2.54"/><rect x="74.92" y="108.25" width="2.52" height="2.54"/><rect x="79.96" y="108.25" width="2.52" height="2.54"/><rect x="85" y="108.25" width="2.52" height="2.54"/><rect x="90.04" y="108.25" width="2.52" height="2.54"/><rect x="95.08" y="108.25" width="2.52" height="2.54"/><rect x="105.15" y="108.25" width="2.52" height="2.54"/><rect x="44.68" y="110.8" width="2.52" height="2.54"/><rect x="59.8" y="110.8" width="2.52" height="2.54"/><rect x="72.4" y="110.8" width="2.52" height="2.54"/><rect x="77.44" y="110.8" width="2.52" height="2.54"/><rect x="82.48" y="110.8" width="2.52" height="2.54"/><rect x="85" y="110.8" width="2.52" height="2.54"/><rect x="95.08" y="110.8" width="2.52" height="2.54"/><rect x="105.15" y="110.8" width="2.52" height="2.54"/><rect x="44.68" y="113.34" width="2.52" height="2.54"/><rect x="49.72" y="113.34" width="2.52" height="2.54"/><rect x="52.24" y="113.34" width="2.52" height="2.54"/><rect x="54.76" y="113.34" width="2.52" height="2.54"/><rect x="59.8" y="113.34" width="2.52" height="2.54"/><rect x="64.84" y="113.34" width="2.52" height="2.54"/><rect x="69.88" y="113.34" width="2.52" height="2.54"/><rect x="72.4" y="113.34" width="2.52" height="2.54"/><rect x="74.92" y="113.34" width="2.52" height="2.54"/><rect x="79.96" y="113.34" width="2.52" height="2.54"/><rect x="85" y="113.34" width="2.52" height="2.54"/><rect x="87.52" y="113.34" width="2.52" height="2.54"/><rect x="90.04" y="113.34" width="2.52" height="2.54"/><rect x="92.56" y="113.34" width="2.52" height="2.54"/><rect x="95.08" y="113.34" width="2.52" height="2.54"/><rect x="44.68" y="115.88" width="2.52" height="2.54"/><rect x="49.72" y="115.88" width="2.52" height="2.54"/><rect x="52.24" y="115.88" width="2.52" height="2.54"/><rect x="54.76" y="115.88" width="2.52" height="2.54"/><rect x="59.8" y="115.88" width="2.52" height="2.54"/><rect x="64.84" y="115.88" width="2.52" height="2.54"/><rect x="67.36" y="115.88" width="2.52" height="2.54"/><rect x="74.92" y="115.88" width="2.52" height="2.54"/><rect x="79.96" y="115.88" width="2.52" height="2.54"/><rect x="90.04" y="115.88" width="2.52" height="2.54"/><rect x="102.63" y="115.88" width="2.52" height="2.54"/><rect x="105.15" y="115.88" width="2.52" height="2.54"/><rect x="44.68" y="118.43" width="2.52" height="2.54"/><rect x="49.72" y="118.43" width="2.52" height="2.54"/><rect x="52.24" y="118.43" width="2.52" height="2.54"/><rect x="54.76" y="118.43" width="2.52" height="2.54"/><rect x="59.8" y="118.43" width="2.52" height="2.54"/><rect x="67.36" y="118.43" width="2.52" height="2.54"/><rect x="72.4" y="118.43" width="2.52" height="2.54"/><rect x="77.44" y="118.43" width="2.52" height="2.54"/><rect x="82.48" y="118.43" width="2.52" height="2.54"/><rect x="87.52" y="118.43" width="2.52" height="2.54"/><rect x="95.08" y="118.43" width="2.52" height="2.54"/><rect x="100.11" y="118.43" width="2.52" height="2.54"/><rect x="102.63" y="118.43" width="2.52" height="2.54"/><rect x="105.15" y="118.43" width="2.52" height="2.54"/><rect x="44.68" y="120.97" width="2.52" height="2.54"/><rect x="59.8" y="120.97" width="2.52" height="2.54"/><rect x="64.84" y="120.97" width="2.52" height="2.54"/><rect x="69.88" y="120.97" width="2.52" height="2.54"/><rect x="72.4" y="120.97" width="2.52" height="2.54"/><rect x="79.96" y="120.97" width="2.52" height="2.54"/><rect x="82.48" y="120.97" width="2.52" height="2.54"/><rect x="95.08" y="120.97" width="2.52" height="2.54"/><rect x="100.11" y="120.97" width="2.52" height="2.54"/><rect x="102.63" y="120.97" width="2.52" height="2.54"/><rect x="105.15" y="120.97" width="2.52" height="2.54"/><rect x="44.68" y="123.52" width="2.52" height="2.54"/><rect x="47.2" y="123.52" width="2.52" height="2.54"/><rect x="49.72" y="123.52" width="2.52" height="2.54"/><rect x="52.24" y="123.52" width="2.52" height="2.54"/><rect x="54.76" y="123.52" width="2.52" height="2.54"/><rect x="57.28" y="123.52" width="2.52" height="2.54"/><rect x="59.8" y="123.52" width="2.52" height="2.54"/><rect x="64.84" y="123.52" width="2.52" height="2.54"/><rect x="74.92" y="123.52" width="2.52" height="2.54"/><rect x="87.52" y="123.52" width="2.52" height="2.54"/><rect x="97.59" y="123.52" width="2.52" height="2.54"/><rect x="105.15" y="123.52" width="2.52" height="2.54"/><rect x="112.5" y="64.22" width="2.52" height="2.54"/><rect x="120.06" y="64.22" width="2.52" height="2.54"/><rect x="115.02" y="66.77" width="2.52" height="2.54"/><rect x="122.58" y="66.77" width="2.52" height="2.54"/><rect x="125.1" y="66.77" width="2.52" height="2.54"/><rect x="112.5" y="69.31" width="2.52" height="2.54"/><rect x="120.06" y="69.31" width="2.52" height="2.54"/><rect x="109.98" y="71.86" width="2.52" height="2.54"/><rect x="109.98" y="74.4" width="2.52" height="2.54"/><rect x="115.02" y="74.4" width="2.52" height="2.54"/><rect x="125.1" y="74.4" width="2.52" height="2.54"/><rect x="120.06" y="76.94" width="2.52" height="2.54"/><rect x="112.5" y="79.49" width="2.52" height="2.54"/><rect x="125.1" y="79.49" width="2.52" height="2.54"/><rect x="112.5" y="82.03" width="2.52" height="2.54"/><rect x="120.06" y="82.03" width="2.52" height="2.54"/><rect x="125.1" y="82.03" width="2.52" height="2.54"/><rect x="115.02" y="84.58" width="2.52" height="2.54"/><rect x="117.54" y="84.58" width="2.52" height="2.54"/><rect x="122.58" y="84.58" width="2.52" height="2.54"/><rect x="109.98" y="87.12" width="2.52" height="2.54"/><rect x="112.5" y="87.12" width="2.52" height="2.54"/><rect x="117.54" y="87.12" width="2.52" height="2.54"/><rect x="115.02" y="89.67" width="2.52" height="2.54"/><rect x="120.06" y="89.67" width="2.52" height="2.54"/><rect x="131.1" y="89.67" width="2.52" height="2.54"/><rect x="117.54" y="92.21" width="2.52" height="2.54"/><rect x="128.58" y="92.21" width="2.52" height="2.54"/><rect x="112.11" y="95.84" width="2.52" height="2.54"/><rect x="119.67" y="95.84" width="2.52" height="2.54"/><rect x="114.63" y="98.38" width="2.52" height="2.54"/><rect x="122.19" y="98.38" width="2.52" height="2.54"/><rect x="124.71" y="98.38" width="2.52" height="2.54"/><rect x="112.11" y="100.93" width="2.52" height="2.54"/><rect x="119.67" y="100.93" width="2.52" height="2.54"/><rect x="109.59" y="103.47" width="2.52" height="2.54"/><rect x="109.59" y="106.01" width="2.52" height="2.54"/><rect x="114.63" y="106.01" width="2.52" height="2.54"/><rect x="127.71" y="106.01" width="2.52" height="2.54"/><rect x="119.67" y="108.56" width="2.52" height="2.54"/><rect x="112.11" y="111.1" width="2.52" height="2.54"/><rect x="124.71" y="111.1" width="2.52" height="2.54"/><rect x="112.11" y="113.65" width="2.52" height="2.54"/><rect x="119.67" y="113.65" width="2.52" height="2.54"/><rect x="124.71" y="113.65" width="2.52" height="2.54"/><rect x="114.63" y="116.19" width="2.52" height="2.54"/><rect x="117.15" y="116.19" width="2.52" height="2.54"/><rect x="122.19" y="116.19" width="2.52" height="2.54"/><rect x="109.59" y="118.73" width="2.52" height="2.54"/><rect x="112.11" y="118.73" width="2.52" height="2.54"/><rect x="117.15" y="118.73" width="2.52" height="2.54"/><rect x="114.63" y="121.28" width="2.52" height="2.54"/><rect x="119.67" y="121.28" width="2.52" height="2.54"/><rect x="124.71" y="121.28" width="2.52" height="2.54"/><rect x="117.15" y="123.82" width="2.52" height="2.54"/><rect x="122.19" y="123.82" width="2.52" height="2.54"/><rect x="26.43" y="63.84" width="2.52" height="2.54"/><rect x="33.99" y="63.84" width="2.52" height="2.54"/><rect x="28.95" y="66.38" width="2.52" height="2.54"/><rect x="36.51" y="66.38" width="2.52" height="2.54"/><rect x="39.03" y="66.38" width="2.52" height="2.54"/><rect x="26.43" y="68.93" width="2.52" height="2.54"/><rect x="33.99" y="68.93" width="2.52" height="2.54"/><rect x="23.92" y="71.47" width="2.52" height="2.54"/><rect x="23.92" y="74.01" width="2.52" height="2.54"/><rect x="28.95" y="74.01" width="2.52" height="2.54"/><rect x="39.03" y="74.01" width="2.52" height="2.54"/><rect x="33.99" y="76.56" width="2.52" height="2.54"/><rect x="26.43" y="79.1" width="2.52" height="2.54"/><rect x="39.03" y="79.1" width="2.52" height="2.54"/><rect x="22.43" y="81.65" width="2.52" height="2.54"/><rect x="33.99" y="81.65" width="2.52" height="2.54"/><rect x="39.03" y="81.65" width="2.52" height="2.54"/><rect x="28.95" y="84.19" width="2.52" height="2.54"/><rect x="31.47" y="84.19" width="2.52" height="2.54"/><rect x="36.51" y="84.19" width="2.52" height="2.54"/><rect x="22.43" y="86.73" width="2.52" height="2.54"/><rect x="31.47" y="86.73" width="2.52" height="2.54"/><rect x="28.95" y="89.28" width="2.52" height="2.54"/><rect x="33.99" y="89.28" width="2.52" height="2.54"/><rect x="39.03" y="89.28" width="2.52" height="2.54"/><rect x="31.47" y="91.82" width="2.52" height="2.54"/><rect x="36.51" y="91.82" width="2.52" height="2.54"/><rect x="22.43" y="95.97" width="2.52" height="2.54"/><rect x="33.99" y="95.97" width="2.52" height="2.54"/><rect x="28.95" y="98.51" width="2.52" height="2.54"/><rect x="36.51" y="98.51" width="2.52" height="2.54"/><rect x="39.03" y="98.51" width="2.52" height="2.54"/><rect x="26.43" y="101.05" width="2.52" height="2.54"/><rect x="33.99" y="101.05" width="2.52" height="2.54"/><rect x="23.92" y="103.6" width="2.52" height="2.54"/><rect x="23.92" y="106.14" width="2.52" height="2.54"/><rect x="28.95" y="106.14" width="2.52" height="2.54"/><rect x="39.03" y="106.14" width="2.52" height="2.54"/><rect x="33.99" y="108.69" width="2.52" height="2.54"/><rect x="26.43" y="111.23" width="2.52" height="2.54"/><rect x="39.03" y="111.23" width="2.52" height="2.54"/><rect x="26.43" y="113.78" width="2.52" height="2.54"/><rect x="33.99" y="113.78" width="2.52" height="2.54"/><rect x="39.03" y="113.78" width="2.52" height="2.54"/><rect x="28.95" y="116.32" width="2.52" height="2.54"/><rect x="31.47" y="116.32" width="2.52" height="2.54"/><rect x="36.51" y="116.32" width="2.52" height="2.54"/><rect x="23.92" y="118.86" width="2.52" height="2.54"/><rect x="26.43" y="118.86" width="2.52" height="2.54"/><rect x="31.47" y="118.86" width="2.52" height="2.54"/><rect x="28.95" y="121.41" width="2.52" height="2.54"/><rect x="33.99" y="121.41" width="2.52" height="2.54"/><rect x="39.03" y="121.41" width="2.52" height="2.54"/><rect x="31.47" y="123.95" width="2.52" height="2.54"/><rect x="36.51" y="123.95" width="2.52" height="2.54"/><rect x="45.53" y="128.61" width="2.52" height="2.54"/><rect x="53.09" y="128.61" width="2.52" height="2.54"/><rect x="48.05" y="131.16" width="2.52" height="2.54"/><rect x="55.61" y="131.16" width="2.52" height="2.54"/><rect x="58.13" y="131.16" width="2.52" height="2.54"/><rect x="45.53" y="133.7" width="2.52" height="2.54"/><rect x="53.09" y="133.7" width="2.52" height="2.54"/><rect x="43.01" y="136.24" width="2.52" height="2.54"/><rect x="48.05" y="138.79" width="2.52" height="2.54"/><rect x="58.13" y="138.79" width="2.52" height="2.54"/><rect x="58.13" y="143.88" width="2.52" height="2.54"/><rect x="65.14" y="130.16" width="2.52" height="2.54"/><rect x="72.7" y="130.16" width="2.52" height="2.54"/><rect x="67.66" y="132.7" width="2.52" height="2.54"/><rect x="75.22" y="132.7" width="2.52" height="2.54"/><rect x="77.74" y="132.7" width="2.52" height="2.54"/><rect x="65.14" y="135.25" width="2.52" height="2.54"/><rect x="72.7" y="135.25" width="2.52" height="2.54"/><rect x="62.62" y="137.79" width="2.52" height="2.54"/><rect x="62.62" y="140.34" width="2.52" height="2.54"/><rect x="67.66" y="140.34" width="2.52" height="2.54"/><rect x="77.74" y="140.34" width="2.52" height="2.54"/><rect x="72.7" y="142.88" width="2.52" height="2.54"/><rect x="77.74" y="145.42" width="2.52" height="2.54"/><rect x="72.7" y="147.97" width="2.52" height="2.54"/><rect x="77.74" y="147.97" width="2.52" height="2.54"/><rect x="67.66" y="150.51" width="2.52" height="2.54"/><rect x="70.18" y="150.51" width="2.52" height="2.54"/><rect x="75.22" y="150.51" width="2.52" height="2.54"/><rect x="86.56" y="129.26" width="2.52" height="2.54"/><rect x="94.12" y="129.26" width="2.52" height="2.54"/><rect x="89.08" y="131.8" width="2.52" height="2.54"/><rect x="96.64" y="131.8" width="2.52" height="2.54"/><rect x="99.16" y="131.8" width="2.52" height="2.54"/><rect x="86.56" y="134.34" width="2.52" height="2.54"/><rect x="94.12" y="134.34" width="2.52" height="2.54"/><rect x="84.04" y="136.89" width="2.52" height="2.54"/><rect x="84.04" y="139.43" width="2.52" height="2.54"/><rect x="89.08" y="139.43" width="2.52" height="2.54"/><rect x="99.16" y="139.43" width="2.52" height="2.54"/><rect x="94.12" y="141.98" width="2.52" height="2.54"/><rect x="86.56" y="144.52" width="2.52" height="2.54"/><rect x="86.56" y="147.07" width="2.52" height="2.54"/><rect x="107.56" y="129.26" width="2.52" height="2.54"/><rect x="115.12" y="129.26" width="2.52" height="2.54"/><rect x="110.08" y="131.8" width="2.52" height="2.54"/><rect x="117.64" y="131.8" width="2.52" height="2.54"/><rect x="120.16" y="131.8" width="2.52" height="2.54"/><rect x="107.56" y="134.34" width="2.52" height="2.54"/><rect x="115.12" y="134.34" width="2.52" height="2.54"/><rect x="105.04" y="136.89" width="2.52" height="2.54"/><rect x="105.04" y="139.43" width="2.52" height="2.54"/><rect x="110.08" y="139.43" width="2.52" height="2.54"/><rect x="134.5" y="64.22" width="2.52" height="2.54"/><rect x="142.06" y="64.22" width="2.52" height="2.54"/><rect x="137.02" y="66.77" width="2.52" height="2.54"/><rect x="144.58" y="66.77" width="2.52" height="2.54"/><rect x="147.1" y="66.77" width="2.52" height="2.54"/><rect x="134.5" y="69.31" width="2.52" height="2.54"/><rect x="142.06" y="69.31" width="2.52" height="2.54"/><rect x="131.98" y="71.86" width="2.52" height="2.54"/><rect x="131.98" y="74.4" width="2.52" height="2.54"/><rect x="137.02" y="74.4" width="2.52" height="2.54"/><rect x="147.1" y="74.4" width="2.52" height="2.54"/><rect x="142.06" y="76.94" width="2.52" height="2.54"/><rect x="134.5" y="79.49" width="2.52" height="2.54"/><rect x="134.5" y="82.03" width="2.52" height="2.54"/><rect x="142.06" y="82.03" width="2.52" height="2.54"/><rect x="137.02" y="84.58" width="2.52" height="2.54"/><rect x="139.54" y="84.58" width="2.52" height="2.54"/><rect x="144.58" y="84.58" width="2.52" height="2.54"/><rect x="131.98" y="87.12" width="2.52" height="2.54"/><rect x="134.5" y="87.12" width="2.52" height="2.54"/><rect x="139.54" y="87.12" width="2.52" height="2.54"/><rect x="137.02" y="89.67" width="2.52" height="2.54"/><rect x="142.06" y="89.67" width="2.52" height="2.54"/><rect x="139.54" y="92.21" width="2.52" height="2.54"/><rect x="134.11" y="95.84" width="2.52" height="2.54"/><rect x="136.63" y="98.38" width="2.52" height="2.54"/><rect x="134.11" y="100.93" width="2.52" height="2.54"/><rect x="131.59" y="103.47" width="2.52" height="2.54"/><rect x="131.59" y="106.01" width="2.52" height="2.54"/><rect x="136.63" y="106.01" width="2.52" height="2.54"/><rect x="131.59" y="118.73" width="2.52" height="2.54"/><rect x="66.49" y="43" width="2.54" height="2.52"/><rect x="66.49" y="50.56" width="2.54" height="2.52"/><rect x="63.94" y="45.52" width="2.54" height="2.52"/><rect x="63.94" y="53.07" width="2.54" height="2.52"/><rect x="63.94" y="55.59" width="2.54" height="2.52"/><rect x="61.4" y="43" width="2.54" height="2.52"/><rect x="61.4" y="50.56" width="2.54" height="2.52"/><rect x="56.31" y="45.52" width="2.54" height="2.52"/><rect x="56.31" y="55.59" width="2.54" height="2.52"/><rect x="53.77" y="50.56" width="2.54" height="2.52"/><rect x="51.22" y="55.59" width="2.54" height="2.52"/><rect x="48.68" y="50.56" width="2.54" height="2.52"/><rect x="48.68" y="55.59" width="2.54" height="2.52"/><rect x="46.13" y="48.04" width="2.54" height="2.52"/><rect x="57.4" y="37" width="2.54" height="2.52"/><rect x="52.31" y="39.52" width="2.54" height="2.52"/><rect x="42.13" y="42.04" width="2.54" height="2.52"/><rect x="58.4" y="34" width="2.54" height="2.52"/><rect x="53.31" y="36.52" width="2.54" height="2.52"/><rect x="43.13" y="39.04" width="2.54" height="2.52"/><rect x="46.13" y="53.07" width="2.54" height="2.52"/><rect x="41.05" y="50.56" width="2.54" height="2.52"/><rect x="41.05" y="55.59" width="2.54" height="2.52"/><rect x="38.5" y="53.07" width="2.54" height="2.52"/><rect x="74.69" y="32.96" width="2.52" height="2.54"/><rect x="72.17" y="35.5" width="2.52" height="2.54"/><rect x="72.17" y="38.05" width="2.52" height="2.54"/><rect x="77.21" y="38.05" width="2.52" height="2.54"/><rect x="87.29" y="38.05" width="2.52" height="2.54"/><rect x="82.25" y="40.59" width="2.52" height="2.54"/><rect x="74.69" y="43.13" width="2.52" height="2.54"/><rect x="87.29" y="43.13" width="2.52" height="2.54"/><rect x="74.69" y="45.68" width="2.52" height="2.54"/><rect x="82.25" y="45.68" width="2.52" height="2.54"/><rect x="87.29" y="45.68" width="2.52" height="2.54"/><rect x="77.21" y="48.22" width="2.52" height="2.54"/><rect x="79.73" y="48.22" width="2.52" height="2.54"/><rect x="84.77" y="48.22" width="2.52" height="2.54"/><rect x="72.17" y="50.77" width="2.52" height="2.54"/><rect x="74.69" y="50.77" width="2.52" height="2.54"/><rect x="79.73" y="50.77" width="2.52" height="2.54"/><rect x="77.21" y="53.31" width="2.52" height="2.54"/><rect x="82.25" y="53.31" width="2.52" height="2.54"/><rect x="87.29" y="53.31" width="2.52" height="2.54"/><rect x="79.73" y="55.86" width="2.52" height="2.54"/><rect x="84.77" y="55.86" width="2.52" height="2.54"/><rect x="96.11" y="42.97" width="2.52" height="2.54"/><rect x="96.11" y="45.52" width="2.52" height="2.54"/><rect x="98.63" y="48.06" width="2.52" height="2.54"/><rect x="101.15" y="48.06" width="2.52" height="2.54"/><rect x="93.59" y="50.61" width="2.52" height="2.54"/><rect x="96.11" y="50.61" width="2.52" height="2.54"/><rect x="101.15" y="50.61" width="2.52" height="2.54"/><rect x="98.63" y="53.15" width="2.52" height="2.54"/><rect x="103.67" y="53.15" width="2.52" height="2.54"/><rect x="108.71" y="53.15" width="2.52" height="2.54"/><rect x="114.5" y="33.22" width="2.52" height="2.54"/><rect x="122.06" y="33.22" width="2.52" height="2.54"/><rect x="117.02" y="35.77" width="2.52" height="2.54"/><rect x="124.58" y="35.77" width="2.52" height="2.54"/><rect x="127.1" y="35.77" width="2.52" height="2.54"/><rect x="114.5" y="38.31" width="2.52" height="2.54"/><rect x="122.06" y="38.31" width="2.52" height="2.54"/><rect x="111.98" y="40.86" width="2.52" height="2.54"/><rect x="111.98" y="43.4" width="2.52" height="2.54"/><rect x="117.02" y="43.4" width="2.52" height="2.54"/><rect x="104.5" y="33.22" width="2.52" height="2.54"/><rect x="107.02" y="35.77" width="2.52" height="2.54"/><rect x="104.5" y="38.31" width="2.52" height="2.54"/><rect x="101.98" y="40.86" width="2.52" height="2.54"/><rect x="101.98" y="43.4" width="2.52" height="2.54"/><rect x="107.02" y="43.4" width="2.52" height="2.54"/><rect x="127.1" y="43.4" width="2.52" height="2.54"/><rect x="122.06" y="45.94" width="2.52" height="2.54"/><rect x="114.5" y="48.49" width="2.52" height="2.54"/><rect x="127.1" y="48.49" width="2.52" height="2.54"/><rect x="114.5" y="51.03" width="2.52" height="2.54"/><rect x="122.06" y="51.03" width="2.52" height="2.54"/><rect x="127.1" y="51.03" width="2.52" height="2.54"/><rect x="117.02" y="53.58" width="2.52" height="2.54"/><rect x="119.54" y="53.58" width="2.52" height="2.54"/><rect x="124.58" y="53.58" width="2.52" height="2.54"/><rect x="111.98" y="56.12" width="2.52" height="2.54"/><rect x="114.5" y="56.12" width="2.52" height="2.54"/><rect x="119.54" y="56.12" width="2.52" height="2.54"/><rect x="117.02" y="58.67" width="2.52" height="2.54"/><rect x="122.06" y="58.67" width="2.52" height="2.54"/><rect x="133.1" y="58.67" width="2.52" height="2.54"/><rect x="136.5" y="33.22" width="2.52" height="2.54"/><rect x="144.06" y="33.22" width="2.52" height="2.54"/><rect x="139.02" y="35.77" width="2.52" height="2.54"/><rect x="146.58" y="35.77" width="2.52" height="2.54"/><rect x="149.1" y="35.77" width="2.52" height="2.54"/><rect x="136.5" y="38.31" width="2.52" height="2.54"/><rect x="144.06" y="38.31" width="2.52" height="2.54"/><rect x="133.98" y="40.86" width="2.52" height="2.54"/><rect x="133.98" y="43.4" width="2.52" height="2.54"/><rect x="139.02" y="43.4" width="2.52" height="2.54"/><rect x="149.1" y="43.4" width="2.52" height="2.54"/><rect x="144.06" y="45.94" width="2.52" height="2.54"/><rect x="136.5" y="48.49" width="2.52" height="2.54"/><rect x="149.1" y="48.49" width="2.52" height="2.54"/><rect x="136.5" y="51.03" width="2.52" height="2.54"/><rect x="144.06" y="51.03" width="2.52" height="2.54"/><rect x="149.1" y="51.03" width="2.52" height="2.54"/><rect x="139.02" y="53.58" width="2.52" height="2.54"/><rect x="141.54" y="53.58" width="2.52" height="2.54"/><rect x="146.58" y="53.58" width="2.52" height="2.54"/><rect x="133.98" y="56.12" width="2.52" height="2.54"/><rect x="136.5" y="56.12" width="2.52" height="2.54"/><rect x="141.54" y="56.12" width="2.52" height="2.54"/><rect x="139.02" y="58.67" width="2.52" height="2.54"/><rect x="144.06" y="58.67" width="2.52" height="2.54"/><rect x="110.71" y="22.15" width="2.52" height="2.54"/><rect x="9.06" y="33.22" width="2.52" height="2.54"/><rect x="4.02" y="35.77" width="2.52" height="2.54"/><rect x="11.58" y="35.77" width="2.52" height="2.54"/><rect x="14.1" y="35.77" width="2.52" height="2.54"/><rect x="9.06" y="38.31" width="2.52" height="2.54"/><rect x="4.02" y="43.4" width="2.52" height="2.54"/><rect x="14.1" y="43.4" width="2.52" height="2.54"/><rect x="9.06" y="45.94" width="2.52" height="2.54"/><rect x="14.1" y="48.49" width="2.52" height="2.54"/><rect x="9.06" y="51.03" width="2.52" height="2.54"/><rect x="14.1" y="51.03" width="2.52" height="2.54"/><rect x="4.02" y="53.58" width="2.52" height="2.54"/><rect x="6.54" y="53.58" width="2.52" height="2.54"/><rect x="11.58" y="53.58" width="2.52" height="2.54"/><rect x="6.54" y="56.12" width="2.52" height="2.54"/><rect x="4.02" y="58.67" width="2.52" height="2.54"/><rect x="9.06" y="58.67" width="2.52" height="2.54"/><rect x="20.1" y="58.67" width="2.52" height="2.54"/><rect x="22.5" y="33.22" width="2.52" height="2.54"/><rect x="30.06" y="33.22" width="2.52" height="2.54"/><rect x="25.02" y="35.77" width="2.52" height="2.54"/><rect x="32.58" y="35.77" width="2.52" height="2.54"/><rect x="35.1" y="35.77" width="2.52" height="2.54"/><rect x="22.5" y="38.31" width="2.52" height="2.54"/><rect x="30.06" y="38.31" width="2.52" height="2.54"/><rect x="19.98" y="40.86" width="2.52" height="2.54"/><rect x="19.98" y="43.4" width="2.52" height="2.54"/><rect x="25.02" y="43.4" width="2.52" height="2.54"/><rect x="35.1" y="43.4" width="2.52" height="2.54"/><rect x="55.49" y="30" width="2.54" height="2.52"/><rect x="52.94" y="32.52" width="2.54" height="2.52"/><rect x="50.4" y="30" width="2.54" height="2.52"/><rect x="45.31" y="32.52" width="2.54" height="2.52"/><rect x="46.4" y="24" width="2.54" height="2.52"/><rect x="41.31" y="26.52" width="2.54" height="2.52"/><rect x="31.13" y="29.04" width="2.54" height="2.52"/><rect x="47.4" y="21" width="2.54" height="2.52"/><rect x="42.31" y="23.52" width="2.54" height="2.52"/><rect x="32.13" y="26.04" width="2.54" height="2.52"/><rect x="63.69" y="19.96" width="2.52" height="2.54"/><rect x="61.17" y="22.5" width="2.52" height="2.54"/><rect x="61.17" y="25.05" width="2.52" height="2.54"/><rect x="66.21" y="25.05" width="2.52" height="2.54"/><rect x="76.29" y="25.05" width="2.52" height="2.54"/><rect x="71.25" y="27.59" width="2.52" height="2.54"/><rect x="63.69" y="30.13" width="2.52" height="2.54"/><rect x="76.29" y="30.13" width="2.52" height="2.54"/><rect x="63.69" y="32.68" width="2.52" height="2.54"/><rect x="71.25" y="32.68" width="2.52" height="2.54"/><rect x="76.29" y="32.68" width="2.52" height="2.54"/><rect x="85.11" y="29.97" width="2.52" height="2.54"/><rect x="85.11" y="32.52" width="2.52" height="2.54"/><rect x="103.5" y="20.22" width="2.52" height="2.54"/><rect x="111.06" y="20.22" width="2.52" height="2.54"/><rect x="106.02" y="22.77" width="2.52" height="2.54"/><rect x="113.58" y="22.77" width="2.52" height="2.54"/><rect x="116.1" y="22.77" width="2.52" height="2.54"/><rect x="103.5" y="25.31" width="2.52" height="2.54"/><rect x="111.06" y="25.31" width="2.52" height="2.54"/><rect x="100.98" y="27.86" width="2.52" height="2.54"/><rect x="100.98" y="30.4" width="2.52" height="2.54"/><rect x="106.02" y="30.4" width="2.52" height="2.54"/><rect x="93.5" y="20.22" width="2.52" height="2.54"/><rect x="96.02" y="22.77" width="2.52" height="2.54"/><rect x="93.5" y="25.31" width="2.52" height="2.54"/><rect x="90.98" y="27.86" width="2.52" height="2.54"/><rect x="90.98" y="30.4" width="2.52" height="2.54"/><rect x="96.02" y="30.4" width="2.52" height="2.54"/><rect x="116.1" y="30.4" width="2.52" height="2.54"/><rect x="125.5" y="25.31" width="2.52" height="2.54"/><rect x="122.98" y="27.86" width="2.52" height="2.54"/><rect x="122.98" y="30.4" width="2.52" height="2.54"/><rect x="128.02" y="30.4" width="2.52" height="2.54"/><rect x="138.1" y="30.4" width="2.52" height="2.54"/><rect x="143.98" y="30.4" width="2.52" height="2.54"/><rect x="149.02" y="30.4" width="2.52" height="2.54"/><rect x="3.1" y="30.4" width="2.52" height="2.54"/><rect x="8.98" y="30.4" width="2.52" height="2.54"/><rect x="14.02" y="30.4" width="2.52" height="2.54"/><rect x="24.1" y="30.4" width="2.52" height="2.54"/><rect x="30.06" y="45.94" width="2.52" height="2.54"/><rect x="22.5" y="48.49" width="2.52" height="2.54"/><rect x="35.1" y="48.49" width="2.52" height="2.54"/><rect x="22.5" y="51.03" width="2.52" height="2.54"/><rect x="30.06" y="51.03" width="2.52" height="2.54"/><rect x="35.1" y="51.03" width="2.52" height="2.54"/><rect x="25.02" y="53.58" width="2.52" height="2.54"/><rect x="27.54" y="53.58" width="2.52" height="2.54"/><rect x="32.58" y="53.58" width="2.52" height="2.54"/><rect x="19.98" y="56.12" width="2.52" height="2.54"/><rect x="22.5" y="56.12" width="2.52" height="2.54"/><rect x="27.54" y="56.12" width="2.52" height="2.54"/><rect x="25.02" y="58.67" width="2.52" height="2.54"/><rect x="30.06" y="58.67" width="2.52" height="2.54"/><rect x="41.1" y="58.67" width="2.52" height="2.54"/><rect x="6.5" y="63.22" width="2.52" height="2.54"/><rect x="14.06" y="63.22" width="2.52" height="2.54"/><rect x="9.02" y="65.77" width="2.52" height="2.54"/><rect x="16.58" y="65.77" width="2.52" height="2.54"/><rect x="19.1" y="65.77" width="2.52" height="2.54"/><rect x="6.5" y="68.31" width="2.52" height="2.54"/><rect x="14.06" y="68.31" width="2.52" height="2.54"/><rect x="3.98" y="70.86" width="2.52" height="2.54"/><rect x="3.98" y="73.4" width="2.52" height="2.54"/><rect x="9.02" y="73.4" width="2.52" height="2.54"/><rect x="19.1" y="73.4" width="2.52" height="2.54"/><rect x="14.06" y="75.94" width="2.52" height="2.54"/><rect x="6.5" y="78.49" width="2.52" height="2.54"/><rect x="19.1" y="78.49" width="2.52" height="2.54"/><rect x="14.06" y="81.03" width="2.52" height="2.54"/><rect x="19.1" y="81.03" width="2.52" height="2.54"/><rect x="9.02" y="83.58" width="2.52" height="2.54"/><rect x="11.54" y="83.58" width="2.52" height="2.54"/><rect x="16.58" y="83.58" width="2.52" height="2.54"/><rect x="11.54" y="86.12" width="2.52" height="2.54"/><rect x="9.02" y="88.67" width="2.52" height="2.54"/><rect x="14.06" y="88.67" width="2.52" height="2.54"/><rect x="25.1" y="88.67" width="2.52" height="2.54"/><rect x="12.06" y="93.22" width="2.52" height="2.54"/><rect x="14.58" y="95.77" width="2.52" height="2.54"/><rect x="17.1" y="95.77" width="2.52" height="2.54"/><rect x="12.06" y="98.31" width="2.52" height="2.54"/><rect x="17.1" y="103.4" width="2.52" height="2.54"/><rect x="17.1" y="108.49" width="2.52" height="2.54"/><rect x="17.1" y="111.03" width="2.52" height="2.54"/><rect x="23.1" y="118.67" width="2.52" height="2.54"/><rect x="32.06" y="127.22" width="2.52" height="2.54"/><rect x="34.58" y="129.77" width="2.52" height="2.54"/><rect x="37.1" y="129.77" width="2.52" height="2.54"/><rect x="32.06" y="132.31" width="2.52" height="2.54"/><rect x="63.1" y="157.77" width="2.52" height="2.54"/><rect x="72.5" y="155.22" width="2.52" height="2.54"/><rect x="80.06" y="155.22" width="2.52" height="2.54"/><rect x="75.02" y="157.77" width="2.52" height="2.54"/><rect x="82.58" y="157.77" width="2.52" height="2.54"/><rect x="72.5" y="160.31" width="2.52" height="2.54"/><rect x="80.06" y="160.31" width="2.52" height="2.54"/><rect x="46.71" y="144.15" width="2.52" height="2.54"/><rect x="101.15" y="55.69" width="2.52" height="2.54"/><rect x="106.19" y="55.69" width="2.52" height="2.54"/><rect x="57.69" y="15.11" width="2.54" height="2.52"/><rect x="68.41" y="10.16" width="2.52" height="2.54"/><rect x="78.49" y="10.16" width="2.52" height="2.54"/><rect x="73.45" y="12.7" width="2.52" height="2.54"/><rect x="65.89" y="15.24" width="2.52" height="2.54"/><rect x="78.49" y="15.24" width="2.52" height="2.54"/><rect x="87.31" y="15.08" width="2.52" height="2.54"/><rect x="93.18" y="12.97" width="2.52" height="2.54"/><rect x="93.18" y="15.51" width="2.52" height="2.54"/><rect x="98.22" y="15.51" width="2.52" height="2.54"/></g></g></g></g></svg>