<svg id="Layer_1" data-name="Layer 1" xmlns="http://www.w3.org/2000/svg" viewBox="0 0 100.11 100.11"><defs><style>.cls-1{fill:none;stroke:#000;stroke-miterlimit:10;stroke-width:1.2px;}</style></defs><g id="Layer_2" data-name="Layer 2"><g id="Layer_1-2" data-name="Layer 1-2"><rect x="34.96" y="52.06" width="1.21" height="1.22"/><rect x="36.18" y="52.06" width="1.21" height="1.22"/><rect x="37.39" y="52.06" width="1.21" height="1.22"/><rect x="38.6" y="52.06" width="1.21" height="1.22"/><rect x="39.81" y="52.06" width="1.21" height="1.22"/><rect x="41.02" y="52.06" width="1.21" height="1.22"/><rect x="42.23" y="52.06" width="1.21" height="1.22"/><rect x="44.66" y="52.06" width="1.21" height="1.22"/><rect x="45.87" y="52.06" width="1.21" height="1.22"/><rect x="47.08" y="52.06" width="1.21" height="1.22"/><rect x="48.29" y="52.06" width="1.21" height="1.22"/><rect x="56.77" y="52.06" width="1.21" height="1.22"/><rect x="57.99" y="52.06" width="1.21" height="1.22"/><rect x="59.2" y="52.06" width="1.21" height="1.22"/><rect x="60.4" y="52.06" width="1.21" height="1.22"/><rect x="61.62" y="52.06" width="1.21" height="1.22"/><rect x="62.83" y="52.06" width="1.21" height="1.22"/><rect x="64.04" y="52.06" width="1.21" height="1.22"/><rect x="34.96" y="53.28" width="1.21" height="1.22"/><rect x="42.23" y="53.28" width="1.21" height="1.22"/><rect x="48.29" y="53.28" width="1.21" height="1.22"/><rect x="49.5" y="53.28" width="1.21" height="1.22"/><rect x="50.72" y="53.28" width="1.21" height="1.22"/><rect x="51.93" y="53.28" width="1.21" height="1.22"/><rect x="54.35" y="53.28" width="1.21" height="1.22"/><rect x="56.77" y="53.28" width="1.21" height="1.22"/><rect x="64.04" y="53.28" width="1.21" height="1.22"/><rect x="34.96" y="54.51" width="1.21" height="1.22"/><rect x="37.39" y="54.51" width="1.21" height="1.22"/><rect x="38.6" y="54.51" width="1.21" height="1.22"/><rect x="39.81" y="54.51" width="1.21" height="1.22"/><rect x="42.23" y="54.51" width="1.21" height="1.22"/><rect x="45.87" y="54.51" width="1.21" height="1.22"/><rect x="48.29" y="54.51" width="1.21" height="1.22"/><rect x="50.72" y="54.51" width="1.21" height="1.22"/><rect x="53.14" y="54.51" width="1.21" height="1.22"/><rect x="54.35" y="54.51" width="1.21" height="1.22"/><rect x="56.77" y="54.51" width="1.21" height="1.22"/><rect x="59.2" y="54.51" width="1.21" height="1.22"/><rect x="60.4" y="54.51" width="1.21" height="1.22"/><rect x="61.62" y="54.51" width="1.21" height="1.22"/><rect x="64.04" y="54.51" width="1.21" height="1.22"/><rect x="34.96" y="55.73" width="1.21" height="1.22"/><rect x="37.39" y="55.73" width="1.21" height="1.22"/><rect x="38.6" y="55.73" width="1.21" height="1.22"/><rect x="39.81" y="55.73" width="1.21" height="1.22"/><rect x="42.23" y="55.73" width="1.21" height="1.22"/><rect x="47.08" y="55.73" width="1.21" height="1.22"/><rect x="54.35" y="55.73" width="1.21" height="1.22"/><rect x="56.77" y="55.73" width="1.21" height="1.22"/><rect x="59.2" y="55.73" width="1.21" height="1.22"/><rect x="60.4" y="55.73" width="1.21" height="1.22"/><rect x="61.62" y="55.73" width="1.21" height="1.22"/><rect x="64.04" y="55.73" width="1.21" height="1.22"/><rect x="34.96" y="56.95" width="1.21" height="1.22"/><rect x="37.39" y="56.95" width="1.21" height="1.22"/><rect x="38.6" y="56.95" width="1.21" height="1.22"/><rect x="39.81" y="56.95" width="1.21" height="1.22"/><rect x="42.23" y="56.95" width="1.21" height="1.22"/><rect x="47.08" y="56.95" width="1.21" height="1.22"/><rect x="48.29" y="56.95" width="1.21" height="1.22"/><rect x="49.5" y="56.95" width="1.21" height="1.22"/><rect x="51.93" y="56.95" width="1.21" height="1.22"/><rect x="54.35" y="56.95" width="1.21" height="1.22"/><rect x="56.77" y="56.95" width="1.21" height="1.22"/><rect x="59.2" y="56.95" width="1.21" height="1.22"/><rect x="60.4" y="56.95" width="1.21" height="1.22"/><rect x="61.62" y="56.95" width="1.21" height="1.22"/><rect x="64.04" y="56.95" width="1.21" height="1.22"/><rect x="34.96" y="58.18" width="1.21" height="1.22"/><rect x="42.23" y="58.18" width="1.21" height="1.22"/><rect x="45.87" y="58.18" width="1.21" height="1.22"/><rect x="48.29" y="58.18" width="1.21" height="1.22"/><rect x="54.35" y="58.18" width="1.21" height="1.22"/><rect x="56.77" y="58.18" width="1.21" height="1.22"/><rect x="64.04" y="58.18" width="1.21" height="1.22"/><rect x="34.96" y="59.4" width="1.21" height="1.22"/><rect x="36.18" y="59.4" width="1.21" height="1.22"/><rect x="37.39" y="59.4" width="1.21" height="1.22"/><rect x="38.6" y="59.4" width="1.21" height="1.22"/><rect x="39.81" y="59.4" width="1.21" height="1.22"/><rect x="41.02" y="59.4" width="1.21" height="1.22"/><rect x="42.23" y="59.4" width="1.21" height="1.22"/><rect x="44.66" y="59.4" width="1.21" height="1.22"/><rect x="47.08" y="59.4" width="1.21" height="1.22"/><rect x="51.93" y="59.4" width="1.21" height="1.22"/><rect x="54.35" y="59.4" width="1.21" height="1.22"/><rect x="56.77" y="59.4" width="1.21" height="1.22"/><rect x="57.99" y="59.4" width="1.21" height="1.22"/><rect x="59.2" y="59.4" width="1.21" height="1.22"/><rect x="60.4" y="59.4" width="1.21" height="1.22"/><rect x="61.62" y="59.4" width="1.21" height="1.22"/><rect x="62.83" y="59.4" width="1.21" height="1.22"/><rect x="64.04" y="59.4" width="1.21" height="1.22"/><rect x="44.66" y="60.62" width="1.21" height="1.22"/><rect x="45.87" y="60.62" width="1.21" height="1.22"/><rect x="49.5" y="60.62" width="1.21" height="1.22"/><rect x="50.72" y="60.62" width="1.21" height="1.22"/><rect x="34.96" y="61.85" width="1.21" height="1.22"/><rect x="39.81" y="61.85" width="1.21" height="1.22"/><rect x="42.23" y="61.85" width="1.21" height="1.22"/><rect x="45.87" y="61.85" width="1.21" height="1.22"/><rect x="49.5" y="61.85" width="1.21" height="1.22"/><rect x="53.14" y="61.85" width="1.21" height="1.22"/><rect x="56.77" y="61.85" width="1.21" height="1.22"/><rect x="64.04" y="61.85" width="1.21" height="1.22"/><rect x="34.96" y="63.07" width="1.21" height="1.22"/><rect x="36.18" y="63.07" width="1.21" height="1.22"/><rect x="37.39" y="63.07" width="1.21" height="1.22"/><rect x="39.81" y="63.07" width="1.21" height="1.22"/><rect x="41.02" y="63.07" width="1.21" height="1.22"/><rect x="43.45" y="63.07" width="1.21" height="1.22"/><rect x="47.08" y="63.07" width="1.21" height="1.22"/><rect x="50.72" y="63.07" width="1.21" height="1.22"/><rect x="51.93" y="63.07" width="1.21" height="1.22"/><rect x="53.14" y="63.07" width="1.21" height="1.22"/><rect x="55.56" y="63.07" width="1.21" height="1.22"/><rect x="57.99" y="63.07" width="1.21" height="1.22"/><rect x="59.2" y="63.07" width="1.21" height="1.22"/><rect x="60.4" y="63.07" width="1.21" height="1.22"/><rect x="61.62" y="63.07" width="1.21" height="1.22"/><rect x="62.83" y="63.07" width="1.21" height="1.22"/><rect x="34.96" y="64.29" width="1.21" height="1.22"/><rect x="39.81" y="64.29" width="1.21" height="1.22"/><rect x="42.23" y="64.29" width="1.21" height="1.22"/><rect x="43.45" y="64.29" width="1.21" height="1.22"/><rect x="45.87" y="64.29" width="1.21" height="1.22"/><rect x="49.5" y="64.29" width="1.21" height="1.22"/><rect x="53.14" y="64.29" width="1.21" height="1.22"/><rect x="54.35" y="64.29" width="1.21" height="1.22"/><rect x="57.99" y="64.29" width="1.21" height="1.22"/><rect x="60.4" y="64.29" width="1.21" height="1.22"/><rect x="64.04" y="64.29" width="1.21" height="1.22"/><rect x="34.96" y="65.51" width="1.21" height="1.22"/><rect x="36.18" y="65.51" width="1.21" height="1.22"/><rect x="43.45" y="65.51" width="1.21" height="1.22"/><rect x="44.66" y="65.51" width="1.21" height="1.22"/><rect x="57.99" y="65.51" width="1.21" height="1.22"/><rect x="61.62" y="65.51" width="1.21" height="1.22"/><rect x="62.83" y="65.51" width="1.21" height="1.22"/><rect x="64.04" y="65.51" width="1.21" height="1.22"/><rect x="37.39" y="66.74" width="1.21" height="1.22"/><rect x="42.23" y="66.74" width="1.21" height="1.22"/><rect x="44.66" y="66.74" width="1.21" height="1.22"/><rect x="47.08" y="66.74" width="1.21" height="1.22"/><rect x="51.93" y="66.74" width="1.21" height="1.22"/><rect x="53.14" y="66.74" width="1.21" height="1.22"/><rect x="56.77" y="66.74" width="1.21" height="1.22"/><rect x="64.04" y="66.74" width="1.21" height="1.22"/><rect x="34.96" y="67.96" width="1.21" height="1.22"/><rect x="37.39" y="67.96" width="1.21" height="1.22"/><rect x="41.02" y="67.96" width="1.21" height="1.22"/><rect x="43.45" y="67.96" width="1.21" height="1.22"/><rect x="49.5" y="67.96" width="1.21" height="1.22"/><rect x="53.14" y="67.96" width="1.21" height="1.22"/><rect x="54.35" y="67.96" width="1.21" height="1.22"/><rect x="55.56" y="67.96" width="1.21" height="1.22"/><rect x="59.2" y="67.96" width="1.21" height="1.22"/><rect x="62.83" y="67.96" width="1.21" height="1.22"/><rect x="34.96" y="69.18" width="1.21" height="1.22"/><rect x="36.18" y="69.18" width="1.21" height="1.22"/><rect x="38.6" y="69.18" width="1.21" height="1.22"/><rect x="42.23" y="69.18" width="1.21" height="1.22"/><rect x="43.45" y="69.18" width="1.21" height="1.22"/><rect x="45.87" y="69.18" width="1.21" height="1.22"/><rect x="51.93" y="69.18" width="1.21" height="1.22"/><rect x="53.14" y="69.18" width="1.21" height="1.22"/><rect x="59.2" y="69.18" width="1.21" height="1.22"/><rect x="60.4" y="69.18" width="1.21" height="1.22"/><rect x="61.62" y="69.18" width="1.21" height="1.22"/><rect x="62.83" y="69.18" width="1.21" height="1.22"/><rect x="64.04" y="69.18" width="1.21" height="1.22"/><rect x="34.96" y="70.41" width="1.21" height="1.22"/><rect x="41.02" y="70.41" width="1.21" height="1.22"/><rect x="45.87" y="70.41" width="1.21" height="1.22"/><rect x="49.5" y="70.41" width="1.21" height="1.22"/><rect x="51.93" y="70.41" width="1.21" height="1.22"/><rect x="54.35" y="70.41" width="1.21" height="1.22"/><rect x="57.99" y="70.41" width="1.21" height="1.22"/><rect x="60.4" y="70.41" width="1.21" height="1.22"/><rect x="61.62" y="70.41" width="1.21" height="1.22"/><rect x="64.04" y="70.41" width="1.21" height="1.22"/><rect x="34.96" y="71.63" width="1.21" height="1.22"/><rect x="37.39" y="71.63" width="1.21" height="1.22"/><rect x="38.6" y="71.63" width="1.21" height="1.22"/><rect x="39.81" y="71.63" width="1.21" height="1.22"/><rect x="42.23" y="71.63" width="1.21" height="1.22"/><rect x="43.45" y="71.63" width="1.21" height="1.22"/><rect x="47.08" y="71.63" width="1.21" height="1.22"/><rect x="48.29" y="71.63" width="1.21" height="1.22"/><rect x="50.72" y="71.63" width="1.21" height="1.22"/><rect x="53.14" y="71.63" width="1.21" height="1.22"/><rect x="54.35" y="71.63" width="1.21" height="1.22"/><rect x="55.56" y="71.63" width="1.21" height="1.22"/><rect x="56.77" y="71.63" width="1.21" height="1.22"/><rect x="59.2" y="71.63" width="1.21" height="1.22"/><rect x="61.62" y="71.63" width="1.21" height="1.22"/><rect x="62.83" y="71.63" width="1.21" height="1.22"/><rect x="44.66" y="72.86" width="1.21" height="1.22"/><rect x="45.87" y="72.86" width="1.21" height="1.22"/><rect x="48.29" y="72.86" width="1.21" height="1.22"/><rect x="54.35" y="72.86" width="1.21" height="1.22"/><rect x="59.2" y="72.86" width="1.21" height="1.22"/><rect x="61.62" y="72.86" width="1.21" height="1.22"/><rect x="62.83" y="72.86" width="1.21" height="1.22"/><rect x="34.96" y="74.08" width="1.21" height="1.22"/><rect x="36.18" y="74.08" width="1.21" height="1.22"/><rect x="37.39" y="74.08" width="1.21" height="1.22"/><rect x="38.6" y="74.08" width="1.21" height="1.22"/><rect x="39.81" y="74.08" width="1.21" height="1.22"/><rect x="41.02" y="74.08" width="1.21" height="1.22"/><rect x="42.23" y="74.08" width="1.21" height="1.22"/><rect x="47.08" y="74.08" width="1.21" height="1.22"/><rect x="49.5" y="74.08" width="1.21" height="1.22"/><rect x="51.93" y="74.08" width="1.21" height="1.22"/><rect x="54.35" y="74.08" width="1.21" height="1.22"/><rect x="56.77" y="74.08" width="1.21" height="1.22"/><rect x="59.2" y="74.08" width="1.21" height="1.22"/><rect x="64.04" y="74.08" width="1.21" height="1.22"/><rect x="34.96" y="75.3" width="1.21" height="1.22"/><rect x="42.23" y="75.3" width="1.21" height="1.22"/><rect x="48.29" y="75.3" width="1.21" height="1.22"/><rect x="50.72" y="75.3" width="1.21" height="1.22"/><rect x="53.14" y="75.3" width="1.21" height="1.22"/><rect x="54.35" y="75.3" width="1.21" height="1.22"/><rect x="59.2" y="75.3" width="1.21" height="1.22"/><rect x="64.04" y="75.3" width="1.21" height="1.22"/><rect x="34.96" y="76.53" width="1.21" height="1.22"/><rect x="37.39" y="76.53" width="1.21" height="1.22"/><rect x="38.6" y="76.53" width="1.21" height="1.22"/><rect x="39.81" y="76.53" width="1.21" height="1.22"/><rect x="42.23" y="76.53" width="1.21" height="1.22"/><rect x="44.66" y="76.53" width="1.21" height="1.22"/><rect x="47.08" y="76.53" width="1.21" height="1.22"/><rect x="48.29" y="76.53" width="1.21" height="1.22"/><rect x="49.5" y="76.53" width="1.21" height="1.22"/><rect x="51.93" y="76.53" width="1.21" height="1.22"/><rect x="54.35" y="76.53" width="1.21" height="1.22"/><rect x="55.56" y="76.53" width="1.21" height="1.22"/><rect x="56.77" y="76.53" width="1.21" height="1.22"/><rect x="57.99" y="76.53" width="1.21" height="1.22"/><rect x="59.2" y="76.53" width="1.21" height="1.22"/><rect x="34.96" y="77.75" width="1.21" height="1.22"/><rect x="37.39" y="77.75" width="1.21" height="1.22"/><rect x="38.6" y="77.75" width="1.21" height="1.22"/><rect x="39.81" y="77.75" width="1.21" height="1.22"/><rect x="42.23" y="77.75" width="1.21" height="1.22"/><rect x="44.66" y="77.75" width="1.21" height="1.22"/><rect x="45.87" y="77.75" width="1.21" height="1.22"/><rect x="49.5" y="77.75" width="1.21" height="1.22"/><rect x="51.93" y="77.75" width="1.21" height="1.22"/><rect x="56.77" y="77.75" width="1.21" height="1.22"/><rect x="62.83" y="77.75" width="1.21" height="1.22"/><rect x="64.04" y="77.75" width="1.21" height="1.22"/><rect x="34.96" y="78.97" width="1.21" height="1.22"/><rect x="37.39" y="78.97" width="1.21" height="1.22"/><rect x="38.6" y="78.97" width="1.21" height="1.22"/><rect x="39.81" y="78.97" width="1.21" height="1.22"/><rect x="42.23" y="78.97" width="1.21" height="1.22"/><rect x="45.87" y="78.97" width="1.21" height="1.22"/><rect x="48.29" y="78.97" width="1.21" height="1.22"/><rect x="50.72" y="78.97" width="1.21" height="1.22"/><rect x="53.14" y="78.97" width="1.21" height="1.22"/><rect x="55.56" y="78.97" width="1.21" height="1.22"/><rect x="59.2" y="78.97" width="1.21" height="1.22"/><rect x="61.62" y="78.97" width="1.21" height="1.22"/><rect x="62.83" y="78.97" width="1.21" height="1.22"/><rect x="64.04" y="78.97" width="1.21" height="1.22"/><rect x="34.96" y="80.19" width="1.21" height="1.22"/><rect x="42.23" y="80.19" width="1.21" height="1.22"/><rect x="44.66" y="80.19" width="1.21" height="1.22"/><rect x="47.08" y="80.19" width="1.21" height="1.22"/><rect x="48.29" y="80.19" width="1.21" height="1.22"/><rect x="51.93" y="80.19" width="1.21" height="1.22"/><rect x="53.14" y="80.19" width="1.21" height="1.22"/><rect x="59.2" y="80.19" width="1.21" height="1.22"/><rect x="61.62" y="80.19" width="1.21" height="1.22"/><rect x="62.83" y="80.19" width="1.21" height="1.22"/><rect x="64.04" y="80.19" width="1.21" height="1.22"/><rect x="34.96" y="81.42" width="1.21" height="1.22"/><rect x="36.18" y="81.42" width="1.21" height="1.22"/><rect x="37.39" y="81.42" width="1.21" height="1.22"/><rect x="38.6" y="81.42" width="1.21" height="1.22"/><rect x="39.81" y="81.42" width="1.21" height="1.22"/><rect x="41.02" y="81.42" width="1.21" height="1.22"/><rect x="42.23" y="81.42" width="1.21" height="1.22"/><rect x="44.66" y="81.42" width="1.21" height="1.22"/><rect x="49.5" y="81.42" width="1.21" height="1.22"/><rect x="55.56" y="81.42" width="1.21" height="1.22"/><rect x="60.4" y="81.42" width="1.21" height="1.22"/><rect x="64.04" y="81.42" width="1.21" height="1.22"/><rect x="67.57" y="52.91" width="1.21" height="1.22"/><rect x="67.57" y="55.36" width="1.21" height="1.22"/><rect x="66.36" y="56.58" width="1.21" height="1.22"/><rect x="66.36" y="57.8" width="1.21" height="1.22"/><rect x="68.78" y="57.8" width="1.21" height="1.22"/><rect x="71.21" y="59.02" width="1.21" height="1.22"/><rect x="67.57" y="60.25" width="1.21" height="1.22"/><rect x="67.57" y="61.47" width="1.21" height="1.22"/><rect x="71.21" y="61.47" width="1.21" height="1.22"/><rect x="73.63" y="61.47" width="1.21" height="1.22"/><rect x="68.78" y="62.7" width="1.21" height="1.22"/><rect x="70" y="62.7" width="1.21" height="1.22"/><rect x="72.42" y="62.7" width="1.21" height="1.22"/><rect x="66.36" y="63.92" width="1.21" height="1.22"/><rect x="67.57" y="63.92" width="1.21" height="1.22"/><rect x="70" y="63.92" width="1.21" height="1.22"/><rect x="68.78" y="65.14" width="1.21" height="1.22"/><rect x="71.21" y="65.14" width="1.21" height="1.22"/><rect x="70" y="66.37" width="1.21" height="1.22"/><rect x="75.3" y="66.37" width="1.21" height="1.22"/><rect x="67.39" y="68.11" width="1.21" height="1.22"/><rect x="71.02" y="68.11" width="1.21" height="1.22"/><rect x="68.6" y="69.33" width="1.21" height="1.22"/><rect x="72.23" y="69.33" width="1.21" height="1.22"/><rect x="73.44" y="69.33" width="1.21" height="1.22"/><rect x="67.39" y="70.56" width="1.21" height="1.22"/><rect x="71.02" y="70.56" width="1.21" height="1.22"/><rect x="66.17" y="71.78" width="1.21" height="1.22"/><rect x="66.17" y="73" width="1.21" height="1.22"/><rect x="68.6" y="73" width="1.21" height="1.22"/><rect x="74.89" y="73" width="1.21" height="1.22"/><rect x="71.02" y="74.23" width="1.21" height="1.22"/><rect x="67.39" y="75.45" width="1.21" height="1.22"/><rect x="73.44" y="75.45" width="1.21" height="1.22"/><rect x="67.39" y="76.67" width="1.21" height="1.22"/><rect x="71.02" y="76.67" width="1.21" height="1.22"/><rect x="73.44" y="76.67" width="1.21" height="1.22"/><rect x="68.6" y="77.9" width="1.21" height="1.22"/><rect x="69.81" y="77.9" width="1.21" height="1.22"/><rect x="72.23" y="77.9" width="1.21" height="1.22"/><rect x="66.17" y="79.12" width="1.21" height="1.22"/><rect x="67.39" y="79.12" width="1.21" height="1.22"/><rect x="69.81" y="79.12" width="1.21" height="1.22"/><rect x="68.6" y="80.34" width="1.21" height="1.22"/><rect x="71.02" y="80.34" width="1.21" height="1.22"/><rect x="73.44" y="80.34" width="1.21" height="1.22"/><rect x="69.81" y="81.56" width="1.21" height="1.22"/><rect x="72.23" y="81.56" width="1.21" height="1.22"/><rect x="31.04" y="53.95" width="1.21" height="1.22"/><rect x="32.25" y="53.95" width="1.21" height="1.22"/><rect x="29.82" y="55.17" width="1.21" height="1.22"/><rect x="32.25" y="57.61" width="1.21" height="1.22"/><rect x="29.82" y="58.84" width="1.21" height="1.22"/><rect x="26.19" y="60.06" width="1.21" height="1.22"/><rect x="32.25" y="60.06" width="1.21" height="1.22"/><rect x="24.27" y="61.29" width="1.21" height="1.22"/><rect x="29.82" y="61.29" width="1.21" height="1.22"/><rect x="32.25" y="61.29" width="1.21" height="1.22"/><rect x="27.4" y="62.51" width="1.21" height="1.22"/><rect x="28.61" y="62.51" width="1.21" height="1.22"/><rect x="31.04" y="62.51" width="1.21" height="1.22"/><rect x="24.27" y="63.73" width="1.21" height="1.22"/><rect x="28.61" y="63.73" width="1.21" height="1.22"/><rect x="27.4" y="64.96" width="1.21" height="1.22"/><rect x="29.82" y="64.96" width="1.21" height="1.22"/><rect x="32.25" y="64.96" width="1.21" height="1.22"/><rect x="28.61" y="66.18" width="1.21" height="1.22"/><rect x="31.04" y="66.18" width="1.21" height="1.22"/><rect x="24.27" y="68.17" width="1.21" height="1.22"/><rect x="29.82" y="68.17" width="1.21" height="1.22"/><rect x="27.4" y="69.39" width="1.21" height="1.22"/><rect x="31.04" y="69.39" width="1.21" height="1.22"/><rect x="32.25" y="69.39" width="1.21" height="1.22"/><rect x="26.19" y="70.62" width="1.21" height="1.22"/><rect x="29.82" y="70.62" width="1.21" height="1.22"/><rect x="24.98" y="71.84" width="1.21" height="1.22"/><rect x="24.98" y="73.06" width="1.21" height="1.22"/><rect x="27.4" y="73.06" width="1.21" height="1.22"/><rect x="32.25" y="73.06" width="1.21" height="1.22"/><rect x="29.82" y="74.29" width="1.21" height="1.22"/><rect x="26.19" y="75.51" width="1.21" height="1.22"/><rect x="32.25" y="75.51" width="1.21" height="1.22"/><rect x="26.19" y="76.74" width="1.21" height="1.22"/><rect x="29.82" y="76.74" width="1.21" height="1.22"/><rect x="32.25" y="76.74" width="1.21" height="1.22"/><rect x="27.4" y="77.96" width="1.21" height="1.22"/><rect x="28.61" y="77.96" width="1.21" height="1.22"/><rect x="31.04" y="77.96" width="1.21" height="1.22"/><rect x="24.98" y="79.18" width="1.21" height="1.22"/><rect x="26.19" y="79.18" width="1.21" height="1.22"/><rect x="28.61" y="79.18" width="1.21" height="1.22"/><rect x="27.4" y="80.41" width="1.21" height="1.22"/><rect x="29.82" y="80.41" width="1.21" height="1.22"/><rect x="32.25" y="80.41" width="1.21" height="1.22"/><rect x="28.61" y="81.63" width="1.21" height="1.22"/><rect x="31.04" y="81.63" width="1.21" height="1.22"/><rect x="35.37" y="83.87" width="1.21" height="1.22"/><rect x="39.01" y="83.87" width="1.21" height="1.22"/><rect x="36.59" y="85.09" width="1.21" height="1.22"/><rect x="40.22" y="85.09" width="1.21" height="1.22"/><rect x="41.43" y="85.09" width="1.21" height="1.22"/><rect x="35.37" y="86.31" width="1.21" height="1.22"/><rect x="39.01" y="86.31" width="1.21" height="1.22"/><rect x="44.8" y="84.61" width="1.21" height="1.22"/><rect x="48.44" y="84.61" width="1.21" height="1.22"/><rect x="46.01" y="85.83" width="1.21" height="1.22"/><rect x="49.65" y="85.83" width="1.21" height="1.22"/><rect x="50.86" y="85.83" width="1.21" height="1.22"/><rect x="55.1" y="84.18" width="1.21" height="1.22"/><rect x="58.74" y="84.18" width="1.21" height="1.22"/><rect x="56.31" y="85.4" width="1.21" height="1.22"/><rect x="59.95" y="85.4" width="1.21" height="1.22"/><rect x="61.16" y="85.4" width="1.21" height="1.22"/><rect x="55.1" y="86.62" width="1.21" height="1.22"/><rect x="58.74" y="86.62" width="1.21" height="1.22"/><rect x="65.2" y="84.18" width="1.21" height="1.22"/><rect x="68.83" y="84.18" width="1.21" height="1.22"/><rect x="66.41" y="85.4" width="1.21" height="1.22"/><rect x="70.04" y="85.4" width="1.21" height="1.22"/><rect x="71.26" y="85.4" width="1.21" height="1.22"/><rect x="65.2" y="86.62" width="1.21" height="1.22"/><rect x="68.83" y="86.62" width="1.21" height="1.22"/><rect x="78.15" y="52.91" width="1.21" height="1.22"/><rect x="81.79" y="52.91" width="1.21" height="1.22"/><rect x="79.36" y="54.13" width="1.21" height="1.22"/><rect x="83" y="54.13" width="1.21" height="1.22"/><rect x="84.21" y="54.13" width="1.21" height="1.22"/><rect x="78.15" y="55.36" width="1.21" height="1.22"/><rect x="81.79" y="55.36" width="1.21" height="1.22"/><rect x="84.21" y="57.8" width="1.21" height="1.22"/><rect x="77.96" y="68.11" width="1.21" height="1.22"/><rect x="77.96" y="70.56" width="1.21" height="1.22"/><rect x="76.75" y="71.78" width="1.21" height="1.22"/><rect x="76.75" y="73" width="1.21" height="1.22"/><rect x="77.96" y="75.45" width="1.21" height="1.22"/><rect x="77.96" y="76.67" width="1.21" height="1.22"/><rect x="76.75" y="79.12" width="1.21" height="1.22"/><rect x="77.96" y="79.12" width="1.21" height="1.22"/><rect x="88.25" y="52.91" width="1.21" height="1.22"/><rect x="91.88" y="52.91" width="1.21" height="1.22"/><rect x="89.46" y="54.13" width="1.21" height="1.22"/><rect x="88.25" y="55.36" width="1.21" height="1.22"/><rect x="87.04" y="56.58" width="1.21" height="1.22"/><rect x="87.04" y="57.8" width="1.21" height="1.22"/><rect x="45.45" y="46.34" width="1.22" height="1.21"/><rect x="44.23" y="47.55" width="1.22" height="1.21"/><rect x="44.23" y="48.76" width="1.22" height="1.21"/><rect x="43" y="46.34" width="1.22" height="1.21"/><rect x="40.56" y="48.76" width="1.22" height="1.21"/><rect x="39.34" y="46.34" width="1.22" height="1.21"/><rect x="38.11" y="48.76" width="1.22" height="1.21"/><rect x="36.89" y="48.76" width="1.22" height="1.21"/><rect x="33.74" y="42.24" width="1.22" height="1.21"/><rect x="41.56" y="38.38" width="1.22" height="1.21"/><rect x="34.22" y="40.8" width="1.22" height="1.21"/><rect x="47.4" y="44.66" width="1.21" height="1.22"/><rect x="50.61" y="45.21" width="1.21" height="1.22"/><rect x="51.82" y="45.21" width="1.21" height="1.22"/><rect x="54.24" y="45.21" width="1.21" height="1.22"/><rect x="48.18" y="46.44" width="1.21" height="1.22"/><rect x="49.39" y="46.44" width="1.21" height="1.22"/><rect x="51.82" y="46.44" width="1.21" height="1.22"/><rect x="50.61" y="47.66" width="1.21" height="1.22"/><rect x="53.03" y="47.66" width="1.21" height="1.22"/><rect x="55.45" y="47.66" width="1.21" height="1.22"/><rect x="51.82" y="48.89" width="1.21" height="1.22"/><rect x="54.24" y="48.89" width="1.21" height="1.22"/><rect x="59.69" y="39.37" width="1.21" height="1.22"/><rect x="68.53" y="38" width="1.21" height="1.22"/><rect x="69.75" y="39.23" width="1.21" height="1.22"/><rect x="68.53" y="40.45" width="1.21" height="1.22"/><rect x="67.32" y="41.68" width="1.21" height="1.22"/><rect x="63.73" y="38" width="1.21" height="1.22"/><rect x="64.94" y="39.23" width="1.21" height="1.22"/><rect x="63.73" y="40.45" width="1.21" height="1.22"/><rect x="62.52" y="41.68" width="1.21" height="1.22"/><rect x="62.52" y="42.9" width="1.21" height="1.22"/><rect x="64.94" y="42.9" width="1.21" height="1.22"/><rect x="74.59" y="45.34" width="1.21" height="1.22"/><rect x="74.59" y="46.57" width="1.21" height="1.22"/><rect x="77.48" y="50.24" width="1.21" height="1.22"/><rect x="79.11" y="38" width="1.21" height="1.22"/><rect x="82.75" y="38" width="1.21" height="1.22"/><rect x="80.32" y="39.23" width="1.21" height="1.22"/><rect x="83.96" y="39.23" width="1.21" height="1.22"/><rect x="85.17" y="39.23" width="1.21" height="1.22"/><rect x="79.11" y="40.45" width="1.21" height="1.22"/><rect x="82.75" y="40.45" width="1.21" height="1.22"/><rect x="77.9" y="41.68" width="1.21" height="1.22"/><rect x="77.9" y="42.9" width="1.21" height="1.22"/><rect x="80.32" y="42.9" width="1.21" height="1.22"/><rect x="85.17" y="42.9" width="1.21" height="1.22"/><rect x="82.75" y="44.12" width="1.21" height="1.22"/><rect x="79.11" y="45.34" width="1.21" height="1.22"/><rect x="85.17" y="45.34" width="1.21" height="1.22"/><rect x="79.11" y="46.57" width="1.21" height="1.22"/><rect x="82.75" y="46.57" width="1.21" height="1.22"/><rect x="85.17" y="46.57" width="1.21" height="1.22"/><rect x="80.32" y="47.79" width="1.21" height="1.22"/><rect x="81.54" y="47.79" width="1.21" height="1.22"/><rect x="83.96" y="47.79" width="1.21" height="1.22"/><rect x="77.9" y="49.01" width="1.21" height="1.22"/><rect x="79.11" y="49.01" width="1.21" height="1.22"/><rect x="81.54" y="49.01" width="1.21" height="1.22"/><rect x="80.32" y="50.24" width="1.21" height="1.22"/><rect x="82.75" y="50.24" width="1.21" height="1.22"/><rect x="88.06" y="50.24" width="1.21" height="1.22"/><rect x="89.21" y="38" width="1.21" height="1.22"/><rect x="90.42" y="39.23" width="1.21" height="1.22"/><rect x="89.21" y="40.45" width="1.21" height="1.22"/><rect x="92.84" y="40.45" width="1.21" height="1.22"/><rect x="88" y="41.68" width="1.21" height="1.22"/><rect x="88" y="42.9" width="1.21" height="1.22"/><rect x="90.42" y="42.9" width="1.21" height="1.22"/><rect x="92.84" y="44.12" width="1.21" height="1.22"/><rect x="89.21" y="45.34" width="1.21" height="1.22"/><rect x="89.21" y="46.57" width="1.21" height="1.22"/><rect x="92.84" y="46.57" width="1.21" height="1.22"/><rect x="90.42" y="47.79" width="1.21" height="1.22"/><rect x="91.63" y="47.79" width="1.21" height="1.22"/><rect x="94.06" y="47.79" width="1.21" height="1.22"/><rect x="88" y="49.01" width="1.21" height="1.22"/><rect x="89.21" y="49.01" width="1.21" height="1.22"/><rect x="91.63" y="49.01" width="1.21" height="1.22"/><rect x="90.42" y="50.24" width="1.21" height="1.22"/><rect x="92.84" y="50.24" width="1.21" height="1.22"/><rect x="66.71" y="32.68" width="1.21" height="1.22"/><rect x="7.26" y="38" width="1.21" height="1.22"/><rect x="8.47" y="39.23" width="1.21" height="1.22"/><rect x="9.68" y="39.23" width="1.21" height="1.22"/><rect x="7.26" y="40.45" width="1.21" height="1.22"/><rect x="9.68" y="42.9" width="1.21" height="1.22"/><rect x="7.26" y="44.12" width="1.21" height="1.22"/><rect x="9.68" y="45.34" width="1.21" height="1.22"/><rect x="7.26" y="46.57" width="1.21" height="1.22"/><rect x="9.68" y="46.57" width="1.21" height="1.22"/><rect x="6.05" y="47.79" width="1.21" height="1.22"/><rect x="8.47" y="47.79" width="1.21" height="1.22"/><rect x="6.05" y="49.01" width="1.21" height="1.22"/><rect x="7.26" y="50.24" width="1.21" height="1.22"/><rect x="12.57" y="50.24" width="1.21" height="1.22"/><rect x="14.2" y="38" width="1.21" height="1.22"/><rect x="17.84" y="38" width="1.21" height="1.22"/><rect x="15.42" y="39.23" width="1.21" height="1.22"/><rect x="19.05" y="39.23" width="1.21" height="1.22"/><rect x="14.2" y="40.45" width="1.21" height="1.22"/><rect x="17.84" y="40.45" width="1.21" height="1.22"/><rect x="12.99" y="41.68" width="1.21" height="1.22"/><rect x="12.99" y="42.9" width="1.21" height="1.22"/><rect x="15.42" y="42.9" width="1.21" height="1.22"/><rect x="17.84" y="44.12" width="1.21" height="1.22"/><rect x="14.2" y="45.34" width="1.21" height="1.22"/><rect x="20.26" y="45.34" width="1.21" height="1.22"/><rect x="14.2" y="46.57" width="1.21" height="1.22"/><rect x="17.84" y="46.57" width="1.21" height="1.22"/><rect x="20.26" y="46.57" width="1.21" height="1.22"/><rect x="15.42" y="47.79" width="1.21" height="1.22"/><rect x="16.63" y="47.79" width="1.21" height="1.22"/><rect x="19.05" y="47.79" width="1.21" height="1.22"/><rect x="12.99" y="49.01" width="1.21" height="1.22"/><rect x="14.2" y="49.01" width="1.21" height="1.22"/><rect x="16.63" y="49.01" width="1.21" height="1.22"/><rect x="15.42" y="50.24" width="1.21" height="1.22"/><rect x="17.84" y="50.24" width="1.21" height="1.22"/><rect x="23.15" y="50.24" width="1.21" height="1.22"/><rect x="27.94" y="38" width="1.21" height="1.22"/><rect x="29.15" y="39.23" width="1.21" height="1.22"/><rect x="30.36" y="39.23" width="1.21" height="1.22"/><rect x="40.16" y="36.45" width="1.22" height="1.21"/><rect x="38.94" y="37.67" width="1.22" height="1.21"/><rect x="37.72" y="36.45" width="1.22" height="1.21"/><rect x="35.27" y="37.67" width="1.22" height="1.21"/><rect x="35.79" y="33.57" width="1.22" height="1.21"/><rect x="33.34" y="34.78" width="1.22" height="1.21"/><rect x="28.45" y="35.99" width="1.22" height="1.21"/><rect x="36.27" y="32.13" width="1.22" height="1.21"/><rect x="33.83" y="33.34" width="1.22" height="1.21"/><rect x="28.93" y="34.55" width="1.22" height="1.21"/><rect x="44.1" y="31.63" width="1.21" height="1.22"/><rect x="42.89" y="32.85" width="1.21" height="1.22"/><rect x="42.89" y="34.07" width="1.21" height="1.22"/><rect x="44.1" y="36.52" width="1.21" height="1.22"/><rect x="44.1" y="37.74" width="1.21" height="1.22"/><rect x="63.25" y="31.75" width="1.21" height="1.22"/><rect x="66.88" y="31.75" width="1.21" height="1.22"/><rect x="64.46" y="32.98" width="1.21" height="1.22"/><rect x="68.09" y="32.98" width="1.21" height="1.22"/><rect x="69.3" y="32.98" width="1.21" height="1.22"/><rect x="63.25" y="34.2" width="1.21" height="1.22"/><rect x="66.88" y="34.2" width="1.21" height="1.22"/><rect x="62.03" y="35.43" width="1.21" height="1.22"/><rect x="62.03" y="36.65" width="1.21" height="1.22"/><rect x="64.46" y="36.65" width="1.21" height="1.22"/><rect x="58.44" y="31.75" width="1.21" height="1.22"/><rect x="59.65" y="32.98" width="1.21" height="1.22"/><rect x="58.44" y="34.2" width="1.21" height="1.22"/><rect x="57.23" y="35.43" width="1.21" height="1.22"/><rect x="57.23" y="36.65" width="1.21" height="1.22"/><rect x="59.65" y="36.65" width="1.21" height="1.22"/><rect x="69.3" y="36.65" width="1.21" height="1.22"/><rect x="72.61" y="35.43" width="1.21" height="1.22"/><rect x="79.88" y="36.65" width="1.21" height="1.22"/><rect x="82.71" y="35.43" width="1.21" height="1.22"/><rect x="82.71" y="36.65" width="1.21" height="1.22"/><rect x="85.13" y="36.65" width="1.21" height="1.22"/><rect x="89.98" y="36.65" width="1.21" height="1.22"/><rect x="7.7" y="36.65" width="1.21" height="1.22"/><rect x="10.13" y="36.65" width="1.21" height="1.22"/><rect x="14.97" y="36.65" width="1.21" height="1.22"/><rect x="25.07" y="32.98" width="1.21" height="1.22"/><rect x="17.8" y="36.65" width="1.21" height="1.22"/><rect x="23.09" y="49.01" width="1.21" height="1.22"/><rect x="33.24" y="50.24" width="1.21" height="1.22"/><rect x="6.51" y="52.43" width="1.21" height="1.22"/><rect x="10.15" y="52.43" width="1.21" height="1.22"/><rect x="7.72" y="53.65" width="1.21" height="1.22"/><rect x="11.36" y="53.65" width="1.21" height="1.22"/><rect x="12.57" y="53.65" width="1.21" height="1.22"/><rect x="10.15" y="54.87" width="1.21" height="1.22"/><rect x="12.57" y="57.32" width="1.21" height="1.22"/><rect x="16.61" y="52.43" width="1.21" height="1.22"/><rect x="20.24" y="52.43" width="1.21" height="1.22"/><rect x="17.82" y="53.65" width="1.21" height="1.22"/><rect x="21.45" y="53.65" width="1.21" height="1.22"/><rect x="16.61" y="54.87" width="1.21" height="1.22"/><rect x="20.24" y="54.87" width="1.21" height="1.22"/><rect x="15.4" y="56.1" width="1.21" height="1.22"/><rect x="15.4" y="57.32" width="1.21" height="1.22"/><rect x="17.82" y="57.32" width="1.21" height="1.22"/><rect x="25.55" y="64.66" width="1.21" height="1.22"/><rect x="20.49" y="68.08" width="1.21" height="1.22"/><rect x="21.7" y="68.08" width="1.21" height="1.22"/><rect x="21.7" y="71.75" width="1.21" height="1.22"/><rect x="21.7" y="74.19" width="1.21" height="1.22"/><rect x="21.7" y="75.41" width="1.21" height="1.22"/><rect x="20.49" y="76.64" width="1.21" height="1.22"/><rect x="24.59" y="79.09" width="1.21" height="1.22"/><rect x="21.22" y="84.42" width="1.21" height="1.22"/><rect x="25.26" y="83.2" width="1.21" height="1.22"/><rect x="28.9" y="83.2" width="1.21" height="1.22"/><rect x="26.47" y="84.42" width="1.21" height="1.22"/><rect x="30.11" y="84.42" width="1.21" height="1.22"/><rect x="31.32" y="84.42" width="1.21" height="1.22"/><rect x="25.26" y="85.65" width="1.21" height="1.22"/><rect x="28.9" y="85.65" width="1.21" height="1.22"/><rect x="62.12" y="48.81" width="1.21" height="1.22"/><rect x="58.56" y="49.47" width="1.21" height="1.22"/><rect x="41.22" y="29.29" width="1.22" height="1.21"/><rect x="38.78" y="29.29" width="1.22" height="1.21"/><rect x="36.85" y="26.41" width="1.22" height="1.21"/><rect x="34.41" y="27.62" width="1.22" height="1.21"/><rect x="29.51" y="28.83" width="1.22" height="1.21"/><rect x="37.33" y="24.97" width="1.22" height="1.21"/><rect x="34.89" y="26.18" width="1.22" height="1.21"/><rect x="29.99" y="27.39" width="1.22" height="1.21"/><rect x="43.95" y="25.69" width="1.21" height="1.22"/><rect x="43.95" y="26.91" width="1.21" height="1.22"/><rect x="54.55" y="26.25" width="1.21" height="1.22"/><rect x="54.55" y="32.68" width="1.21" height="1.22"/><rect x="55.46" y="29.28" width="1.21" height="1.22"/><rect x="64.31" y="24.59" width="1.21" height="1.22"/><rect x="67.94" y="24.59" width="1.21" height="1.22"/><rect x="65.52" y="25.82" width="1.21" height="1.22"/><rect x="69.15" y="25.82" width="1.21" height="1.22"/><rect x="70.37" y="25.82" width="1.21" height="1.22"/><rect x="64.31" y="27.04" width="1.21" height="1.22"/><rect x="67.94" y="27.04" width="1.21" height="1.22"/><rect x="63.1" y="28.26" width="1.21" height="1.22"/><rect x="63.1" y="29.49" width="1.21" height="1.22"/><rect x="65.52" y="29.49" width="1.21" height="1.22"/><rect x="59.5" y="24.59" width="1.21" height="1.22"/><rect x="60.71" y="25.82" width="1.21" height="1.22"/><rect x="59.5" y="27.04" width="1.21" height="1.22"/><rect x="58.29" y="28.26" width="1.21" height="1.22"/><rect x="58.29" y="29.49" width="1.21" height="1.22"/><rect x="60.71" y="29.49" width="1.21" height="1.22"/><rect x="70.37" y="29.49" width="1.21" height="1.22"/><rect x="73.67" y="28.26" width="1.21" height="1.22"/><rect x="73.67" y="29.49" width="1.21" height="1.22"/><rect x="62.48" y="19.27" width="1.21" height="1.22"/><rect x="24.92" y="25.82" width="1.21" height="1.22"/><rect x="39.43" y="33.8" width="1.21" height="1.22"/><rect x="26.13" y="29.49" width="1.21" height="1.22"/><rect x="35.93" y="23.04" width="1.22" height="1.21"/><rect x="34.71" y="24.25" width="1.22" height="1.21"/><rect x="33.49" y="23.04" width="1.22" height="1.21"/><rect x="31.04" y="24.25" width="1.22" height="1.21"/><rect x="31.56" y="20.16" width="1.22" height="1.21"/><rect x="29.12" y="21.37" width="1.22" height="1.21"/><rect x="28.88" y="23.91" width="1.22" height="1.21"/><rect x="32.04" y="18.72" width="1.22" height="1.21"/><rect x="29.6" y="19.93" width="1.22" height="1.21"/><rect x="32.68" y="37.1" width="1.22" height="1.21"/><rect x="39.88" y="18.22" width="1.21" height="1.22"/><rect x="38.67" y="19.44" width="1.21" height="1.22"/><rect x="38.67" y="20.66" width="1.21" height="1.22"/><rect x="41.09" y="20.66" width="1.21" height="1.22"/><rect x="43.51" y="21.88" width="1.21" height="1.22"/><rect x="39.88" y="23.11" width="1.21" height="1.22"/><rect x="39.88" y="24.33" width="1.21" height="1.22"/><rect x="43.51" y="24.33" width="1.21" height="1.22"/><rect x="59.02" y="18.34" width="1.21" height="1.22"/><rect x="62.65" y="18.34" width="1.21" height="1.22"/><rect x="60.23" y="19.57" width="1.21" height="1.22"/><rect x="63.86" y="19.57" width="1.21" height="1.22"/><rect x="65.08" y="19.57" width="1.21" height="1.22"/><rect x="59.02" y="20.79" width="1.21" height="1.22"/><rect x="62.65" y="20.79" width="1.21" height="1.22"/><rect x="57.81" y="22.01" width="1.21" height="1.22"/><rect x="57.81" y="23.24" width="1.21" height="1.22"/><rect x="60.23" y="23.24" width="1.21" height="1.22"/><rect x="54.21" y="18.34" width="1.21" height="1.22"/><rect x="55.42" y="19.57" width="1.21" height="1.22"/><rect x="54.21" y="20.79" width="1.21" height="1.22"/><rect x="53" y="22.01" width="1.21" height="1.22"/><rect x="53" y="23.24" width="1.21" height="1.22"/><rect x="55.42" y="23.24" width="1.21" height="1.22"/><rect x="65.08" y="23.24" width="1.21" height="1.22"/><rect x="69.6" y="18.34" width="1.21" height="1.22"/><rect x="70.81" y="19.57" width="1.21" height="1.22"/><rect x="69.6" y="20.79" width="1.21" height="1.22"/><rect x="73.23" y="20.79" width="1.21" height="1.22"/><rect x="68.38" y="22.01" width="1.21" height="1.22"/><rect x="68.38" y="23.24" width="1.21" height="1.22"/><rect x="70.81" y="23.24" width="1.21" height="1.22"/><rect x="31.94" y="30.73" width="1.22" height="1.21"/><rect x="29.55" y="17.44" width="1.22" height="1.21"/><rect x="36.72" y="14.28" width="1.21" height="1.22"/><rect x="35.5" y="15.5" width="1.21" height="1.22"/><rect x="35.5" y="16.73" width="1.21" height="1.22"/><rect x="37.93" y="16.73" width="1.21" height="1.22"/><rect x="55.86" y="14.41" width="1.21" height="1.22"/><rect x="59.49" y="14.41" width="1.21" height="1.22"/><rect x="57.07" y="15.63" width="1.21" height="1.22"/><rect x="60.7" y="15.63" width="1.21" height="1.22"/><rect x="61.92" y="15.63" width="1.21" height="1.22"/><rect x="55.86" y="16.85" width="1.21" height="1.22"/><rect x="59.49" y="16.85" width="1.21" height="1.22"/><rect x="66.43" y="14.41" width="1.21" height="1.22"/><rect x="70.07" y="14.41" width="1.21" height="1.22"/><rect x="67.65" y="15.63" width="1.21" height="1.22"/><rect x="66.43" y="16.85" width="1.21" height="1.22"/><rect x="70.07" y="16.85" width="1.21" height="1.22"/><rect x="31.43" y="12.92" width="1.21" height="1.22"/><rect x="41.47" y="16.24" width="1.21" height="1.22"/><rect x="32.09" y="16.14" width="1.21" height="1.22"/><rect x="35.06" y="14.15" width="1.21" height="1.22"/><rect x="37.49" y="14.15" width="1.21" height="1.22"/><rect x="56.63" y="13.05" width="1.21" height="1.22"/><rect x="59.93" y="13.05" width="1.21" height="1.22"/><rect x="62.36" y="13.05" width="1.21" height="1.22"/><rect x="67.2" y="13.05" width="1.21" height="1.22"/></g></g><path class="cls-1" d="M47.71,23.39c-1.07-5.62-4.36-10-8.61-11.54a11,11,0,0,0-5-.2c-3.38.93-6.33,3.75-8,7.63a22.28,22.28,0,0,0-.66,14.78c1.86,5.94,6,9.67,10.7,9.7a8.66,8.66,0,0,0,4.23-.93C46.09,40,49.27,31.6,47.71,23.39Z"/><path class="cls-1" d="M73.38,19.28c-1.7-3.94-4.71-6.77-8.1-7.63a11.33,11.33,0,0,0-3.69-.14c-4.13.92-7.47,4.31-9.15,9.26C49.92,28.12,52,37.38,57,41.44a9.35,9.35,0,0,0,6.36,2.32c4.71,0,8.84-3.76,10.7-9.7A22.28,22.28,0,0,0,73.38,19.28Z"/><path class="cls-1" d="M4.85,45.75A14.29,14.29,0,0,0,6.3,52.43a12.86,12.86,0,0,0,2.75,4c6.22,6.34,15,3.05,15.71-5.91a15.5,15.5,0,0,0-2.9-10.38c-2.6-3.69-7.16-5.61-10.62-4.49a7.73,7.73,0,0,0-3.51,2.11,10.68,10.68,0,0,0-2.5,4.41A10,10,0,0,0,4.85,45.75Z"/><path class="cls-1" d="M83.82,59.67A11.4,11.4,0,0,0,92,54.59a19.63,19.63,0,0,0,2.25-5.06,16.18,16.18,0,0,0,0-7.39,10.68,10.68,0,0,0-2.5-4.41,8,8,0,0,0-7.43-2.26,12.05,12.05,0,0,0-6.7,4.64c-4,5.58-4,13-.09,17.08A7.66,7.66,0,0,0,83.82,59.67Z"/><path class="cls-1" d="M22.21,85.82c1.95,1.91,4.06,2.68,7.84,2.84,2.63.11,4.58-.12,11.68-1.33,8-1.37,7.7-1.37,16.61.16,5.92,1,8.74,1.31,11.25,1.17,6.4-.35,9.93-3.55,10.31-9.35A29,29,0,0,0,78.34,69c-3.11-9.59-10.4-18.15-18.68-21.91A19.26,19.26,0,0,0,50.26,45c-1.8,0-3.45,0-3.69,0a25.38,25.38,0,0,0-6.77,2.06C31.51,50.9,24.23,59.44,21.12,69a29.12,29.12,0,0,0-1.42,6.54C19.15,80.46,19.91,83.55,22.21,85.82Z"/></svg>