<svg xmlns="http://www.w3.org/2000/svg" viewBox="0 0 143.84 143.85"><defs><style>.cls-1{fill:#fff;fill-rule:evenodd;}</style></defs><g id="Layer_2" data-name="Layer 2"><g id="Layer_1-2" data-name="Layer 1"><path class="cls-1" d="M63.05,3.8a15.49,15.49,0,0,1,17.74,0c12.66,8.9,9.94,8,25.62,8a15,15,0,0,1,14.35,10c4.81,14.34,3.12,12.13,15.83,20.94A14.11,14.11,0,0,1,142.08,59c-4.88,14.28-4.91,11.54,0,25.89a14.1,14.1,0,0,1-5.49,16.21c-12.71,8.82-11,6.6-15.83,21a15,15,0,0,1-14.35,10c-15.69-.05-13-.9-25.62,8a15.49,15.49,0,0,1-17.74,0c-12.66-8.89-9.94-8.06-25.62-8a15,15,0,0,1-14.35-10c-4.8-14.36-3.15-12.14-15.84-21A14.12,14.12,0,0,1,1.76,84.87C6.65,70.58,6.67,73.33,1.76,59A14.13,14.13,0,0,1,7.24,42.76c12.68-8.8,11-6.57,15.84-20.94a15,15,0,0,1,14.35-10c15.64,0,12.89.95,25.62-8"/><path d="M71.92,143.85a16.41,16.41,0,0,1-9.45-3l-3-2.16c-8.12-5.78-8.13-5.78-18.26-5.68l-3.72,0a15.94,15.94,0,0,1-15.31-10.71c-.41-1.23-.78-2.34-1.11-3.35C18,109.65,18,109.65,9.76,104c-.92-.63-1.95-1.33-3.09-2.13A15.06,15.06,0,0,1,.82,84.54c.44-1.28.84-2.43,1.2-3.46,3.19-9.15,3.19-9.15,0-18.4-.36-1-.75-2.13-1.17-3.38A15.06,15.06,0,0,1,6.67,41.94l3.1-2.13C18,34.2,18,34.2,21,24.85l1.11-3.35A15.91,15.91,0,0,1,37.38,10.8h.06l3.91,0c9.95.09,9.95.09,18.15-5.74l3-2.1A16.45,16.45,0,0,1,81.36,3l3,2.13c8.14,5.8,8.15,5.8,18.27,5.71l3.75,0h.06a15.91,15.91,0,0,1,15.25,10.7c.43,1.28.81,2.43,1.15,3.47,3,9.24,3,9.24,11.28,14.89l3,2.08A15.05,15.05,0,0,1,143,59.3c-.44,1.29-.84,2.44-1.2,3.47-3.18,9.14-3.18,9.14,0,18.41.35,1,.74,2.12,1.16,3.36a15,15,0,0,1-5.86,17.36c-1.11.78-2.12,1.47-3,2.09-8.24,5.65-8.24,5.65-11.28,14.9-.34,1-.71,2.18-1.14,3.45a15.93,15.93,0,0,1-15.26,10.71h0l-3.76,0c-10.12-.09-10.12-.09-18.25,5.69-.9.65-1.9,1.36-3,2.15A16.35,16.35,0,0,1,71.92,143.85ZM44.18,131c7.78,0,8.73.62,16.4,6.07l3,2.15a14.45,14.45,0,0,0,16.59,0l3-2.13C91.81,131,92,130.94,102.66,131l3.75,0h0a13.92,13.92,0,0,0,13.36-9.34c.43-1.27.8-2.41,1.14-3.44,3.22-9.8,3.33-10,12-15.93l3-2.08a13.07,13.07,0,0,0,5.11-15.07c-.42-1.24-.81-2.35-1.16-3.35-3.42-9.83-3.42-10,0-19.73.36-1,.76-2.17,1.2-3.46A13.08,13.08,0,0,0,136,43.58l-3-2.07c-8.73-6-8.84-6.13-12-15.92-.34-1-.72-2.18-1.15-3.45a13.89,13.89,0,0,0-13.35-9.34h0l-3.75,0c-10.67.09-10.85,0-19.44-6.08l-3-2.13a14.47,14.47,0,0,0-16.58,0h0l-3,2.1c-8.65,6.15-8.83,6.21-19.33,6.11l-3.9,0h0A13.89,13.89,0,0,0,24,22.14c-.41,1.23-.78,2.33-1.11,3.34-3.25,9.89-3.36,10-12,16L7.81,43.58a13.09,13.09,0,0,0-5.1,15.07L3.88,62c3.41,9.81,3.41,10,0,19.71-.36,1-.76,2.17-1.2,3.45a13.08,13.08,0,0,0,5.1,15.07l3.08,2.12c8.68,6,8.79,6.1,12,16L24,121.71a13.92,13.92,0,0,0,13.36,9.34h0l3.71,0Z"/><g id="Layer_2-2" data-name="Layer 2"><g id="Layer_1-2-2" data-name="Layer 1-2"><rect x="36.71" y="36.17" width="2.75" height="2.77"/><rect x="39.46" y="36.17" width="2.75" height="2.77"/><rect x="42.21" y="36.17" width="2.75" height="2.77"/><rect x="44.97" y="36.17" width="2.75" height="2.77"/><rect x="47.72" y="36.17" width="2.75" height="2.77"/><rect x="50.47" y="36.17" width="2.75" height="2.77"/><rect x="53.22" y="36.17" width="2.75" height="2.77"/><rect x="58.72" y="36.17" width="2.75" height="2.77"/><rect x="61.48" y="36.17" width="2.75" height="2.77"/><rect x="64.23" y="36.17" width="2.75" height="2.77"/><rect x="66.98" y="36.17" width="2.75" height="2.77"/><rect x="86.24" y="36.17" width="2.75" height="2.77"/><rect x="88.99" y="36.17" width="2.75" height="2.77"/><rect x="91.75" y="36.17" width="2.75" height="2.77"/><rect x="94.49" y="36.17" width="2.75" height="2.77"/><rect x="97.24" y="36.17" width="2.75" height="2.77"/><rect x="99.99" y="36.17" width="2.75" height="2.77"/><rect x="102.74" y="36.17" width="2.75" height="2.77"/><rect x="36.71" y="38.94" width="2.75" height="2.77"/><rect x="53.22" y="38.94" width="2.75" height="2.77"/><rect x="66.98" y="38.94" width="2.75" height="2.77"/><rect x="69.73" y="38.94" width="2.75" height="2.77"/><rect x="72.48" y="38.94" width="2.75" height="2.77"/><rect x="75.24" y="38.94" width="2.75" height="2.77"/><rect x="80.74" y="38.94" width="2.75" height="2.77"/><rect x="86.24" y="38.94" width="2.75" height="2.77"/><rect x="102.74" y="38.94" width="2.75" height="2.77"/><rect x="36.71" y="41.73" width="2.75" height="2.77"/><rect x="42.21" y="41.73" width="2.75" height="2.77"/><rect x="44.97" y="41.73" width="2.75" height="2.77"/><rect x="47.72" y="41.73" width="2.75" height="2.77"/><rect x="53.22" y="41.73" width="2.75" height="2.77"/><rect x="61.48" y="41.73" width="2.75" height="2.77"/><rect x="66.98" y="41.73" width="2.75" height="2.77"/><rect x="72.48" y="41.73" width="2.75" height="2.77"/><rect x="77.99" y="41.73" width="2.75" height="2.77"/><rect x="80.74" y="41.73" width="2.75" height="2.77"/><rect x="86.24" y="41.73" width="2.75" height="2.77"/><rect x="91.75" y="41.73" width="2.75" height="2.77"/><rect x="94.49" y="41.73" width="2.75" height="2.77"/><rect x="97.24" y="41.73" width="2.75" height="2.77"/><rect x="102.74" y="41.73" width="2.75" height="2.77"/><rect x="36.71" y="44.5" width="2.75" height="2.77"/><rect x="42.21" y="44.5" width="2.75" height="2.77"/><rect x="44.97" y="44.5" width="2.75" height="2.77"/><rect x="47.72" y="44.5" width="2.75" height="2.77"/><rect x="53.22" y="44.5" width="2.75" height="2.77"/><rect x="64.23" y="44.5" width="2.75" height="2.77"/><rect x="80.74" y="44.5" width="2.75" height="2.77"/><rect x="86.24" y="44.5" width="2.75" height="2.77"/><rect x="91.75" y="44.5" width="2.75" height="2.77"/><rect x="94.49" y="44.5" width="2.75" height="2.77"/><rect x="97.24" y="44.5" width="2.75" height="2.77"/><rect x="102.74" y="44.5" width="2.75" height="2.77"/><rect x="36.71" y="47.27" width="2.75" height="2.77"/><rect x="42.21" y="47.27" width="2.75" height="2.77"/><rect x="44.97" y="47.27" width="2.75" height="2.77"/><rect x="47.72" y="47.27" width="2.75" height="2.77"/><rect x="53.22" y="47.27" width="2.75" height="2.77"/><rect x="64.23" y="47.27" width="2.75" height="2.77"/><rect x="66.98" y="47.27" width="2.75" height="2.77"/><rect x="69.73" y="47.27" width="2.75" height="2.77"/><rect x="75.24" y="47.27" width="2.75" height="2.77"/><rect x="80.74" y="47.27" width="2.75" height="2.77"/><rect x="86.24" y="47.27" width="2.75" height="2.77"/><rect x="91.75" y="47.27" width="2.75" height="2.77"/><rect x="94.49" y="47.27" width="2.75" height="2.77"/><rect x="97.24" y="47.27" width="2.75" height="2.77"/><rect x="102.74" y="47.27" width="2.75" height="2.77"/><rect x="36.71" y="50.06" width="2.75" height="2.77"/><rect x="53.22" y="50.06" width="2.75" height="2.77"/><rect x="61.48" y="50.06" width="2.75" height="2.77"/><rect x="66.98" y="50.06" width="2.75" height="2.77"/><rect x="80.74" y="50.06" width="2.75" height="2.77"/><rect x="86.24" y="50.06" width="2.75" height="2.77"/><rect x="102.74" y="50.06" width="2.75" height="2.77"/><rect x="36.71" y="52.83" width="2.75" height="2.77"/><rect x="39.46" y="52.83" width="2.75" height="2.77"/><rect x="42.21" y="52.83" width="2.75" height="2.77"/><rect x="44.97" y="52.83" width="2.75" height="2.77"/><rect x="47.72" y="52.83" width="2.75" height="2.77"/><rect x="50.47" y="52.83" width="2.75" height="2.77"/><rect x="53.22" y="52.83" width="2.75" height="2.77"/><rect x="58.72" y="52.83" width="2.75" height="2.77"/><rect x="64.23" y="52.83" width="2.75" height="2.77"/><rect x="75.24" y="52.83" width="2.75" height="2.77"/><rect x="80.74" y="52.83" width="2.75" height="2.77"/><rect x="86.24" y="52.83" width="2.75" height="2.77"/><rect x="88.99" y="52.83" width="2.75" height="2.77"/><rect x="91.75" y="52.83" width="2.75" height="2.77"/><rect x="94.49" y="52.83" width="2.75" height="2.77"/><rect x="97.24" y="52.83" width="2.75" height="2.77"/><rect x="99.99" y="52.83" width="2.75" height="2.77"/><rect x="102.74" y="52.83" width="2.75" height="2.77"/><rect x="58.72" y="55.62" width="2.75" height="2.77"/><rect x="61.48" y="55.62" width="2.75" height="2.77"/><rect x="69.73" y="55.62" width="2.75" height="2.77"/><rect x="72.48" y="55.62" width="2.75" height="2.77"/><rect x="36.71" y="58.39" width="2.75" height="2.77"/><rect x="47.72" y="58.39" width="2.75" height="2.77"/><rect x="53.22" y="58.39" width="2.75" height="2.77"/><rect x="61.48" y="58.39" width="2.75" height="2.77"/><rect x="69.73" y="58.39" width="2.75" height="2.77"/><rect x="77.99" y="58.39" width="2.75" height="2.77"/><rect x="86.24" y="58.39" width="2.75" height="2.77"/><rect x="102.74" y="58.39" width="2.75" height="2.77"/><rect x="36.71" y="61.16" width="2.75" height="2.77"/><rect x="39.46" y="61.16" width="2.75" height="2.77"/><rect x="42.21" y="61.16" width="2.75" height="2.77"/><rect x="47.72" y="61.16" width="2.75" height="2.77"/><rect x="50.47" y="61.16" width="2.75" height="2.77"/><rect x="55.97" y="61.16" width="2.75" height="2.77"/><rect x="64.23" y="61.16" width="2.75" height="2.77"/><rect x="72.48" y="61.16" width="2.75" height="2.77"/><rect x="75.24" y="61.16" width="2.75" height="2.77"/><rect x="77.99" y="61.16" width="2.75" height="2.77"/><rect x="83.49" y="61.16" width="2.75" height="2.77"/><rect x="88.99" y="61.16" width="2.75" height="2.77"/><rect x="91.75" y="61.16" width="2.75" height="2.77"/><rect x="94.49" y="61.16" width="2.75" height="2.77"/><rect x="97.24" y="61.16" width="2.75" height="2.77"/><rect x="99.99" y="61.16" width="2.75" height="2.77"/><rect x="36.71" y="63.95" width="2.75" height="2.77"/><rect x="47.72" y="63.95" width="2.75" height="2.77"/><rect x="53.22" y="63.95" width="2.75" height="2.77"/><rect x="55.97" y="63.95" width="2.75" height="2.77"/><rect x="61.48" y="63.95" width="2.75" height="2.77"/><rect x="69.73" y="63.95" width="2.75" height="2.77"/><rect x="77.99" y="63.95" width="2.75" height="2.77"/><rect x="80.74" y="63.95" width="2.75" height="2.77"/><rect x="88.99" y="63.95" width="2.75" height="2.77"/><rect x="94.49" y="63.95" width="2.75" height="2.77"/><rect x="102.74" y="63.95" width="2.75" height="2.77"/><rect x="36.71" y="66.72" width="2.75" height="2.77"/><rect x="39.46" y="66.72" width="2.75" height="2.77"/><rect x="55.97" y="66.72" width="2.75" height="2.77"/><rect x="58.72" y="66.72" width="2.75" height="2.77"/><rect x="88.99" y="66.72" width="2.75" height="2.77"/><rect x="97.24" y="66.72" width="2.75" height="2.77"/><rect x="99.99" y="66.72" width="2.75" height="2.77"/><rect x="102.74" y="66.72" width="2.75" height="2.77"/><rect x="42.21" y="69.51" width="2.75" height="2.77"/><rect x="53.22" y="69.51" width="2.75" height="2.77"/><rect x="58.72" y="69.51" width="2.75" height="2.77"/><rect x="64.23" y="69.51" width="2.75" height="2.77"/><rect x="75.24" y="69.51" width="2.75" height="2.77"/><rect x="77.99" y="69.51" width="2.75" height="2.77"/><rect x="86.24" y="69.51" width="2.75" height="2.77"/><rect x="102.74" y="69.51" width="2.75" height="2.77"/><rect x="36.71" y="72.28" width="2.75" height="2.77"/><rect x="42.21" y="72.28" width="2.75" height="2.77"/><rect x="50.47" y="72.28" width="2.75" height="2.77"/><rect x="55.97" y="72.28" width="2.75" height="2.77"/><rect x="69.73" y="72.28" width="2.75" height="2.77"/><rect x="77.99" y="72.28" width="2.75" height="2.77"/><rect x="80.74" y="72.28" width="2.75" height="2.77"/><rect x="83.49" y="72.28" width="2.75" height="2.77"/><rect x="91.75" y="72.28" width="2.75" height="2.77"/><rect x="99.99" y="72.28" width="2.75" height="2.77"/><rect x="36.71" y="75.05" width="2.75" height="2.77"/><rect x="39.46" y="75.05" width="2.75" height="2.77"/><rect x="44.97" y="75.05" width="2.75" height="2.77"/><rect x="53.22" y="75.05" width="2.75" height="2.77"/><rect x="55.97" y="75.05" width="2.75" height="2.77"/><rect x="61.48" y="75.05" width="2.75" height="2.77"/><rect x="75.24" y="75.05" width="2.75" height="2.77"/><rect x="77.99" y="75.05" width="2.75" height="2.77"/><rect x="91.75" y="75.05" width="2.75" height="2.77"/><rect x="94.49" y="75.05" width="2.75" height="2.77"/><rect x="97.24" y="75.05" width="2.75" height="2.77"/><rect x="99.99" y="75.05" width="2.75" height="2.77"/><rect x="102.74" y="75.05" width="2.75" height="2.77"/><rect x="36.71" y="77.84" width="2.75" height="2.77"/><rect x="50.47" y="77.84" width="2.75" height="2.77"/><rect x="61.48" y="77.84" width="2.75" height="2.77"/><rect x="69.73" y="77.84" width="2.75" height="2.77"/><rect x="75.24" y="77.84" width="2.75" height="2.77"/><rect x="80.74" y="77.84" width="2.75" height="2.77"/><rect x="88.99" y="77.84" width="2.75" height="2.77"/><rect x="94.49" y="77.84" width="2.75" height="2.77"/><rect x="97.24" y="77.84" width="2.75" height="2.77"/><rect x="102.74" y="77.84" width="2.75" height="2.77"/><rect x="36.71" y="80.61" width="2.75" height="2.77"/><rect x="42.21" y="80.61" width="2.75" height="2.77"/><rect x="44.97" y="80.61" width="2.75" height="2.77"/><rect x="47.72" y="80.61" width="2.75" height="2.77"/><rect x="53.22" y="80.61" width="2.75" height="2.77"/><rect x="55.97" y="80.61" width="2.75" height="2.77"/><rect x="64.23" y="80.61" width="2.75" height="2.77"/><rect x="66.98" y="80.61" width="2.75" height="2.77"/><rect x="72.48" y="80.61" width="2.75" height="2.77"/><rect x="77.99" y="80.61" width="2.75" height="2.77"/><rect x="80.74" y="80.61" width="2.75" height="2.77"/><rect x="83.49" y="80.61" width="2.75" height="2.77"/><rect x="86.24" y="80.61" width="2.75" height="2.77"/><rect x="91.75" y="80.61" width="2.75" height="2.77"/><rect x="97.24" y="80.61" width="2.75" height="2.77"/><rect x="99.99" y="80.61" width="2.75" height="2.77"/><rect x="58.72" y="83.4" width="2.75" height="2.77"/><rect x="61.48" y="83.4" width="2.75" height="2.77"/><rect x="66.98" y="83.4" width="2.75" height="2.77"/><rect x="80.74" y="83.4" width="2.75" height="2.77"/><rect x="91.75" y="83.4" width="2.75" height="2.77"/><rect x="97.24" y="83.4" width="2.75" height="2.77"/><rect x="99.99" y="83.4" width="2.75" height="2.77"/><rect x="36.71" y="86.17" width="2.75" height="2.77"/><rect x="39.46" y="86.17" width="2.75" height="2.77"/><rect x="42.21" y="86.17" width="2.75" height="2.77"/><rect x="44.97" y="86.17" width="2.75" height="2.77"/><rect x="47.72" y="86.17" width="2.75" height="2.77"/><rect x="50.47" y="86.17" width="2.75" height="2.77"/><rect x="53.22" y="86.17" width="2.75" height="2.77"/><rect x="64.23" y="86.17" width="2.75" height="2.77"/><rect x="69.73" y="86.17" width="2.75" height="2.77"/><rect x="75.24" y="86.17" width="2.75" height="2.77"/><rect x="80.74" y="86.17" width="2.75" height="2.77"/><rect x="86.24" y="86.17" width="2.75" height="2.77"/><rect x="91.75" y="86.17" width="2.75" height="2.77"/><rect x="102.74" y="86.17" width="2.75" height="2.77"/><rect x="36.71" y="88.95" width="2.75" height="2.77"/><rect x="53.22" y="88.95" width="2.75" height="2.77"/><rect x="66.98" y="88.95" width="2.75" height="2.77"/><rect x="72.48" y="88.95" width="2.75" height="2.77"/><rect x="77.99" y="88.95" width="2.75" height="2.77"/><rect x="80.74" y="88.95" width="2.75" height="2.77"/><rect x="91.75" y="88.95" width="2.75" height="2.77"/><rect x="102.74" y="88.95" width="2.75" height="2.77"/><rect x="36.71" y="91.73" width="2.75" height="2.77"/><rect x="42.21" y="91.73" width="2.75" height="2.77"/><rect x="44.97" y="91.73" width="2.75" height="2.77"/><rect x="47.72" y="91.73" width="2.75" height="2.77"/><rect x="53.22" y="91.73" width="2.75" height="2.77"/><rect x="58.72" y="91.73" width="2.75" height="2.77"/><rect x="64.23" y="91.73" width="2.75" height="2.77"/><rect x="66.98" y="91.73" width="2.75" height="2.77"/><rect x="69.73" y="91.73" width="2.75" height="2.77"/><rect x="75.24" y="91.73" width="2.75" height="2.77"/><rect x="80.74" y="91.73" width="2.75" height="2.77"/><rect x="83.49" y="91.73" width="2.75" height="2.77"/><rect x="86.24" y="91.73" width="2.75" height="2.77"/><rect x="88.99" y="91.73" width="2.75" height="2.77"/><rect x="91.75" y="91.73" width="2.75" height="2.77"/><rect x="36.71" y="94.5" width="2.75" height="2.77"/><rect x="42.21" y="94.5" width="2.75" height="2.77"/><rect x="44.97" y="94.5" width="2.75" height="2.77"/><rect x="47.72" y="94.5" width="2.75" height="2.77"/><rect x="53.22" y="94.5" width="2.75" height="2.77"/><rect x="58.72" y="94.5" width="2.75" height="2.77"/><rect x="61.48" y="94.5" width="2.75" height="2.77"/><rect x="69.73" y="94.5" width="2.75" height="2.77"/><rect x="75.24" y="94.5" width="2.75" height="2.77"/><rect x="86.24" y="94.5" width="2.75" height="2.77"/><rect x="99.99" y="94.5" width="2.75" height="2.77"/><rect x="102.74" y="94.5" width="2.75" height="2.77"/><rect x="36.71" y="97.29" width="2.75" height="2.77"/><rect x="42.21" y="97.29" width="2.75" height="2.77"/><rect x="44.97" y="97.29" width="2.75" height="2.77"/><rect x="47.72" y="97.29" width="2.75" height="2.77"/><rect x="53.22" y="97.29" width="2.75" height="2.77"/><rect x="61.48" y="97.29" width="2.75" height="2.77"/><rect x="66.98" y="97.29" width="2.75" height="2.77"/><rect x="72.48" y="97.29" width="2.75" height="2.77"/><rect x="77.99" y="97.29" width="2.75" height="2.77"/><rect x="83.49" y="97.29" width="2.75" height="2.77"/><rect x="91.75" y="97.29" width="2.75" height="2.77"/><rect x="97.24" y="97.29" width="2.75" height="2.77"/><rect x="99.99" y="97.29" width="2.75" height="2.77"/><rect x="102.74" y="97.29" width="2.75" height="2.77"/><rect x="36.71" y="100.06" width="2.75" height="2.77"/><rect x="53.22" y="100.06" width="2.75" height="2.77"/><rect x="58.72" y="100.06" width="2.75" height="2.77"/><rect x="64.23" y="100.06" width="2.75" height="2.77"/><rect x="66.98" y="100.06" width="2.75" height="2.77"/><rect x="75.24" y="100.06" width="2.75" height="2.77"/><rect x="77.99" y="100.06" width="2.75" height="2.77"/><rect x="91.75" y="100.06" width="2.75" height="2.77"/><rect x="97.24" y="100.06" width="2.75" height="2.77"/><rect x="99.99" y="100.06" width="2.75" height="2.77"/><rect x="102.74" y="100.06" width="2.75" height="2.77"/><rect x="36.71" y="102.85" width="2.75" height="2.77"/><rect x="39.46" y="102.85" width="2.75" height="2.77"/><rect x="42.21" y="102.85" width="2.75" height="2.77"/><rect x="44.97" y="102.85" width="2.75" height="2.77"/><rect x="47.72" y="102.85" width="2.75" height="2.77"/><rect x="50.47" y="102.85" width="2.75" height="2.77"/><rect x="53.22" y="102.85" width="2.75" height="2.77"/><rect x="58.72" y="102.85" width="2.75" height="2.77"/><rect x="69.73" y="102.85" width="2.75" height="2.77"/><rect x="83.49" y="102.85" width="2.75" height="2.77"/><rect x="94.49" y="102.85" width="2.75" height="2.77"/><rect x="102.74" y="102.85" width="2.75" height="2.77"/><rect x="110.77" y="38.09" width="2.75" height="2.77"/><rect x="119.02" y="38.09" width="2.75" height="2.77"/><rect x="113.52" y="40.87" width="2.75" height="2.77"/><rect x="121.78" y="40.87" width="2.75" height="2.77"/><rect x="124.53" y="40.87" width="2.75" height="2.77"/><rect x="110.77" y="43.65" width="2.75" height="2.77"/><rect x="119.02" y="43.65" width="2.75" height="2.77"/><rect x="108.02" y="46.43" width="2.75" height="2.77"/><rect x="108.02" y="49.21" width="2.75" height="2.77"/><rect x="113.52" y="49.21" width="2.75" height="2.77"/><rect x="124.53" y="49.21" width="2.75" height="2.77"/><rect x="119.02" y="51.98" width="2.75" height="2.77"/><rect x="110.77" y="54.76" width="2.75" height="2.77"/><rect x="124.53" y="54.76" width="2.75" height="2.77"/><rect x="110.77" y="57.54" width="2.75" height="2.77"/><rect x="119.02" y="57.54" width="2.75" height="2.77"/><rect x="124.53" y="57.54" width="2.75" height="2.77"/><rect x="113.52" y="60.32" width="2.75" height="2.77"/><rect x="116.27" y="60.32" width="2.75" height="2.77"/><rect x="121.78" y="60.32" width="2.75" height="2.77"/><rect x="108.02" y="63.1" width="2.75" height="2.77"/><rect x="110.77" y="63.1" width="2.75" height="2.77"/><rect x="116.27" y="63.1" width="2.75" height="2.77"/><rect x="113.52" y="65.88" width="2.75" height="2.77"/><rect x="119.02" y="65.88" width="2.75" height="2.77"/><rect x="131.08" y="65.88" width="2.75" height="2.77"/><rect x="116.27" y="68.65" width="2.75" height="2.77"/><rect x="128.33" y="68.65" width="2.75" height="2.77"/><rect x="110.34" y="72.62" width="2.75" height="2.77"/><rect x="118.6" y="72.62" width="2.75" height="2.77"/><rect x="113.09" y="75.39" width="2.75" height="2.77"/><rect x="121.35" y="75.39" width="2.75" height="2.77"/><rect x="124.1" y="75.39" width="2.75" height="2.77"/><rect x="110.34" y="78.18" width="2.75" height="2.77"/><rect x="118.6" y="78.18" width="2.75" height="2.77"/><rect x="107.59" y="80.95" width="2.75" height="2.77"/><rect x="107.59" y="83.72" width="2.75" height="2.77"/><rect x="113.09" y="83.72" width="2.75" height="2.77"/><rect x="127.38" y="83.72" width="2.75" height="2.77"/><rect x="118.6" y="86.51" width="2.75" height="2.77"/><rect x="110.34" y="89.28" width="2.75" height="2.77"/><rect x="124.1" y="89.28" width="2.75" height="2.77"/><rect x="110.34" y="92.07" width="2.75" height="2.77"/><rect x="118.6" y="92.07" width="2.75" height="2.77"/><rect x="124.1" y="92.07" width="2.75" height="2.77"/><rect x="113.09" y="94.84" width="2.75" height="2.77"/><rect x="115.85" y="94.84" width="2.75" height="2.77"/><rect x="121.35" y="94.84" width="2.75" height="2.77"/><rect x="107.59" y="97.61" width="2.75" height="2.77"/><rect x="110.34" y="97.61" width="2.75" height="2.77"/><rect x="115.85" y="97.61" width="2.75" height="2.77"/><rect x="113.09" y="100.4" width="2.75" height="2.77"/><rect x="118.6" y="100.4" width="2.75" height="2.77"/><rect x="124.1" y="100.4" width="2.75" height="2.77"/><rect x="115.85" y="103.17" width="2.75" height="2.77"/><rect x="121.35" y="103.17" width="2.75" height="2.77"/><rect x="16.78" y="37.68" width="2.75" height="2.77"/><rect x="25.04" y="37.68" width="2.75" height="2.77"/><rect x="19.53" y="40.45" width="2.75" height="2.77"/><rect x="27.79" y="40.45" width="2.75" height="2.77"/><rect x="30.54" y="40.45" width="2.75" height="2.77"/><rect x="16.78" y="43.23" width="2.75" height="2.77"/><rect x="25.04" y="43.23" width="2.75" height="2.77"/><rect x="14.04" y="46.01" width="2.75" height="2.77"/><rect x="14.04" y="48.78" width="2.75" height="2.77"/><rect x="19.53" y="48.78" width="2.75" height="2.77"/><rect x="30.54" y="48.78" width="2.75" height="2.77"/><rect x="25.04" y="51.57" width="2.75" height="2.77"/><rect x="16.78" y="54.34" width="2.75" height="2.77"/><rect x="30.54" y="54.34" width="2.75" height="2.77"/><rect x="12.41" y="57.12" width="2.75" height="2.77"/><rect x="25.04" y="57.12" width="2.75" height="2.77"/><rect x="30.54" y="57.12" width="2.75" height="2.77"/><rect x="19.53" y="59.9" width="2.75" height="2.77"/><rect x="22.29" y="59.9" width="2.75" height="2.77"/><rect x="27.79" y="59.9" width="2.75" height="2.77"/><rect x="12.41" y="62.67" width="2.75" height="2.77"/><rect x="22.29" y="62.67" width="2.75" height="2.77"/><rect x="19.53" y="65.46" width="2.75" height="2.77"/><rect x="25.04" y="65.46" width="2.75" height="2.77"/><rect x="30.54" y="65.46" width="2.75" height="2.77"/><rect x="22.29" y="68.23" width="2.75" height="2.77"/><rect x="27.79" y="68.23" width="2.75" height="2.77"/><rect x="12.41" y="72.76" width="2.75" height="2.77"/><rect x="25.04" y="72.76" width="2.75" height="2.77"/><rect x="19.53" y="75.53" width="2.75" height="2.77"/><rect x="27.79" y="75.53" width="2.75" height="2.77"/><rect x="30.54" y="75.53" width="2.75" height="2.77"/><rect x="16.78" y="78.31" width="2.75" height="2.77"/><rect x="25.04" y="78.31" width="2.75" height="2.77"/><rect x="14.04" y="81.09" width="2.75" height="2.77"/><rect x="14.04" y="83.87" width="2.75" height="2.77"/><rect x="19.53" y="83.87" width="2.75" height="2.77"/><rect x="30.54" y="83.87" width="2.75" height="2.77"/><rect x="25.04" y="86.65" width="2.75" height="2.77"/><rect x="16.78" y="89.42" width="2.75" height="2.77"/><rect x="30.54" y="89.42" width="2.75" height="2.77"/><rect x="16.78" y="92.21" width="2.75" height="2.77"/><rect x="25.04" y="92.21" width="2.75" height="2.77"/><rect x="30.54" y="92.21" width="2.75" height="2.77"/><rect x="19.53" y="94.98" width="2.75" height="2.77"/><rect x="22.29" y="94.98" width="2.75" height="2.77"/><rect x="27.79" y="94.98" width="2.75" height="2.77"/><rect x="14.04" y="97.76" width="2.75" height="2.77"/><rect x="16.78" y="97.76" width="2.75" height="2.77"/><rect x="22.29" y="97.76" width="2.75" height="2.77"/><rect x="19.53" y="100.54" width="2.75" height="2.77"/><rect x="25.04" y="100.54" width="2.75" height="2.77"/><rect x="30.54" y="100.54" width="2.75" height="2.77"/><rect x="22.29" y="103.31" width="2.75" height="2.77"/><rect x="27.79" y="103.31" width="2.75" height="2.77"/><rect x="37.64" y="108.4" width="2.75" height="2.77"/><rect x="45.89" y="108.4" width="2.75" height="2.77"/><rect x="40.39" y="111.19" width="2.75" height="2.77"/><rect x="48.65" y="111.19" width="2.75" height="2.77"/><rect x="51.4" y="111.19" width="2.75" height="2.77"/><rect x="37.64" y="113.96" width="2.75" height="2.77"/><rect x="45.89" y="113.96" width="2.75" height="2.77"/><rect x="34.89" y="116.74" width="2.75" height="2.77"/><rect x="40.39" y="119.52" width="2.75" height="2.77"/><rect x="51.4" y="119.52" width="2.75" height="2.77"/><rect x="51.4" y="125.08" width="2.75" height="2.77"/><rect x="59.05" y="110.1" width="2.75" height="2.77"/><rect x="67.31" y="110.1" width="2.75" height="2.77"/><rect x="61.8" y="112.87" width="2.75" height="2.77"/><rect x="70.06" y="112.87" width="2.75" height="2.77"/><rect x="72.81" y="112.87" width="2.75" height="2.77"/><rect x="59.05" y="115.65" width="2.75" height="2.77"/><rect x="67.31" y="115.65" width="2.75" height="2.77"/><rect x="56.3" y="118.43" width="2.75" height="2.77"/><rect x="56.3" y="121.21" width="2.75" height="2.77"/><rect x="61.8" y="121.21" width="2.75" height="2.77"/><rect x="72.81" y="121.21" width="2.75" height="2.77"/><rect x="67.31" y="123.99" width="2.75" height="2.77"/><rect x="72.81" y="126.76" width="2.75" height="2.77"/><rect x="67.31" y="129.54" width="2.75" height="2.77"/><rect x="72.81" y="129.54" width="2.75" height="2.77"/><rect x="70.06" y="132.32" width="2.75" height="2.77"/><rect x="82.44" y="109.11" width="2.75" height="2.77"/><rect x="90.7" y="109.11" width="2.75" height="2.77"/><rect x="85.19" y="111.89" width="2.75" height="2.77"/><rect x="93.45" y="111.89" width="2.75" height="2.77"/><rect x="96.2" y="111.89" width="2.75" height="2.77"/><rect x="82.44" y="114.66" width="2.75" height="2.77"/><rect x="90.7" y="114.66" width="2.75" height="2.77"/><rect x="79.69" y="117.44" width="2.75" height="2.77"/><rect x="79.69" y="120.22" width="2.75" height="2.77"/><rect x="85.19" y="120.22" width="2.75" height="2.77"/><rect x="96.2" y="120.22" width="2.75" height="2.77"/><rect x="90.7" y="123" width="2.75" height="2.77"/><rect x="82.44" y="125.78" width="2.75" height="2.77"/><rect x="82.44" y="128.56" width="2.75" height="2.77"/><rect x="105.37" y="109.11" width="2.75" height="2.77"/><rect x="113.63" y="109.11" width="2.75" height="2.77"/><rect x="108.13" y="111.89" width="2.75" height="2.77"/><rect x="105.37" y="114.66" width="2.75" height="2.77"/><rect x="113.63" y="114.66" width="2.75" height="2.77"/><rect x="102.62" y="117.44" width="2.75" height="2.77"/><rect x="102.62" y="120.22" width="2.75" height="2.77"/><rect x="108.13" y="120.22" width="2.75" height="2.77"/><rect x="60.53" y="14.92" width="2.77" height="2.75"/><rect x="60.53" y="23.17" width="2.77" height="2.75"/><rect x="57.74" y="17.67" width="2.77" height="2.75"/><rect x="57.74" y="25.91" width="2.77" height="2.75"/><rect x="57.74" y="28.67" width="2.77" height="2.75"/><rect x="54.97" y="14.92" width="2.77" height="2.75"/><rect x="54.97" y="23.17" width="2.77" height="2.75"/><rect x="49.41" y="17.67" width="2.77" height="2.75"/><rect x="49.41" y="28.67" width="2.77" height="2.75"/><rect x="46.64" y="23.17" width="2.77" height="2.75"/><rect x="43.85" y="28.67" width="2.77" height="2.75"/><rect x="41.08" y="23.17" width="2.77" height="2.75"/><rect x="41.08" y="28.67" width="2.77" height="2.75"/><rect x="38.29" y="20.42" width="2.77" height="2.75"/><rect x="38.29" y="25.91" width="2.77" height="2.75"/><rect x="32.75" y="23.17" width="2.77" height="2.75"/><rect x="32.75" y="28.67" width="2.77" height="2.75"/><rect x="29.96" y="25.91" width="2.77" height="2.75"/><rect x="66.73" y="9.51" width="2.75" height="2.77"/><rect x="72.23" y="9.51" width="2.75" height="2.77"/><rect x="77.74" y="12.29" width="2.75" height="2.77"/><rect x="69.48" y="15.06" width="2.75" height="2.77"/><rect x="83.24" y="15.06" width="2.75" height="2.77"/><rect x="69.48" y="17.84" width="2.75" height="2.77"/><rect x="77.74" y="17.84" width="2.75" height="2.77"/><rect x="83.24" y="17.84" width="2.75" height="2.77"/><rect x="72.23" y="20.62" width="2.75" height="2.77"/><rect x="74.98" y="20.62" width="2.75" height="2.77"/><rect x="80.49" y="20.62" width="2.75" height="2.77"/><rect x="66.73" y="23.4" width="2.75" height="2.77"/><rect x="69.48" y="23.4" width="2.75" height="2.77"/><rect x="74.98" y="23.4" width="2.75" height="2.77"/><rect x="72.23" y="26.18" width="2.75" height="2.77"/><rect x="77.74" y="26.18" width="2.75" height="2.77"/><rect x="83.24" y="26.18" width="2.75" height="2.77"/><rect x="74.98" y="28.96" width="2.75" height="2.77"/><rect x="80.49" y="28.96" width="2.75" height="2.77"/><rect x="92.87" y="14.89" width="2.75" height="2.77"/><rect x="92.87" y="17.67" width="2.75" height="2.77"/><rect x="95.62" y="20.44" width="2.75" height="2.77"/><rect x="98.37" y="20.44" width="2.75" height="2.77"/><rect x="90.12" y="23.23" width="2.75" height="2.77"/><rect x="92.87" y="23.23" width="2.75" height="2.77"/><rect x="98.37" y="23.23" width="2.75" height="2.77"/><rect x="95.62" y="26" width="2.75" height="2.77"/><rect x="101.13" y="26" width="2.75" height="2.77"/><rect x="106.63" y="26" width="2.75" height="2.77"/><rect x="98.37" y="28.78" width="2.75" height="2.77"/><rect x="103.88" y="28.78" width="2.75" height="2.77"/></g></g></g></g></svg>