<svg xmlns="http://www.w3.org/2000/svg" viewBox="0 0 169.21 169.21"><defs><style>.cls-1{fill:#fff;}</style></defs><g id="Layer_2" data-name="Layer 2"><g id="Layer_1-2" data-name="Layer 1"><path class="cls-1" d="M165.43,118.65a100.8,100.8,0,0,0-25.08-8.43c21-24.53,27.45-52.8,27.74-54.09a5.23,5.23,0,0,0-5.1-6.36,5.43,5.43,0,0,0-1.13.12,139.32,139.32,0,0,0-52.44,26.05V74.5C109.42,35.71,89.84,4.71,89,3.41a5.21,5.21,0,0,0-8.79,0c-.83,1.3-20.42,32.3-20.42,71.09v1.44a139.25,139.25,0,0,0-52.44-26,5.35,5.35,0,0,0-1.13-.12,5.22,5.22,0,0,0-5.09,6.36c.28,1.29,6.75,29.56,27.73,54.09a100.82,100.82,0,0,0-25.07,8.43,5.23,5.23,0,0,0,0,9.24,102.35,102.35,0,0,0,43.6,10.36c2,0,3.9,0,5.71-.1A92.59,92.59,0,0,0,47.6,151a5.22,5.22,0,0,0,6.54,6.56,103.45,103.45,0,0,0,25.24-12.83V165.6A2.61,2.61,0,0,0,82,168.21h5.23a2.61,2.61,0,0,0,2.61-2.61V144.69a103.18,103.18,0,0,0,25.25,12.83,5.22,5.22,0,0,0,6.53-6.56,91.12,91.12,0,0,0-5.49-12.81c1.81.07,3.72.1,5.72.1a102.28,102.28,0,0,0,43.59-10.36,5.23,5.23,0,0,0,0-9.24Z"/><path d="M87.22,169.21H82a3.62,3.62,0,0,1-3.62-3.61v-19a102.37,102.37,0,0,1-23.95,11.9,6.22,6.22,0,0,1-7.78-7.82,88.82,88.82,0,0,1,4.8-11.45c-1.3,0-2.64.05-4.07.05-23.89,0-43.25-10.05-44.06-10.48a6.22,6.22,0,0,1,0-11A100.8,100.8,0,0,1,27,109.59,139.09,139.09,0,0,1,.15,56.34a6.22,6.22,0,0,1,7.41-7.42A140.86,140.86,0,0,1,58.79,73.86C59,35.12,78.53,4.17,79.37,2.87a6.22,6.22,0,0,1,10.48,0c.83,1.3,20.36,32.22,20.57,71a140.2,140.2,0,0,1,51.23-24.94,5.92,5.92,0,0,1,1.34-.15,6.23,6.23,0,0,1,6.07,7.57,139.39,139.39,0,0,1-26.86,53.25,101.79,101.79,0,0,1,23.69,8.18h0a6.23,6.23,0,0,1,0,11c-.81.43-20.18,10.47-44.06,10.47-1.41,0-2.77,0-4.07-.05a89,89,0,0,1,4.8,11.46,6.23,6.23,0,0,1-7.79,7.82,104,104,0,0,1-24-11.9v19A3.61,3.61,0,0,1,87.22,169.21Zm-6.84-26.43V165.6A1.62,1.62,0,0,0,82,167.21h5.22a1.61,1.61,0,0,0,1.61-1.61V142.79l1.57,1.08a102.12,102.12,0,0,0,25,12.7,4.23,4.23,0,0,0,5.28-5.31,90.77,90.77,0,0,0-5.43-12.65l-.77-1.52,1.7.06c1.77.07,3.68.1,5.68.1,23.39,0,42.33-9.82,43.13-10.24a4.23,4.23,0,0,0,0-7.47,100.2,100.2,0,0,0-24.81-8.34l-1.67-.33,1.11-1.3c20.83-24.35,27.26-52.47,27.52-53.66A4.23,4.23,0,0,0,166,52a4.29,4.29,0,0,0-3.9-1.14,138,138,0,0,0-52,25.85l-1.64,1.33V74.5C108.42,36,89,5.24,88.16,4a4.22,4.22,0,0,0-7.11,0C80.22,5.24,60.79,36,60.79,74.5V78l-1.63-1.32a138.49,138.49,0,0,0-52-25.85,4.23,4.23,0,0,0-5,5c.27,1.18,6.67,29.28,27.52,53.66l1.11,1.3-1.67.33a100.07,100.07,0,0,0-24.81,8.34A4.19,4.19,0,0,0,2.19,122a4.23,4.23,0,0,0,2.06,5c.79.41,19.73,10.24,43.13,10.24,2,0,3.9,0,5.67-.1l1.71-.07L54,138.6a89.49,89.49,0,0,0-5.42,12.66,4.22,4.22,0,0,0,5.28,5.3,101.43,101.43,0,0,0,25-12.69Z"/><g id="Layer_2-2" data-name="Layer 2"><g id="Layer_1-2-2" data-name="Layer 1-2"><rect x="55.32" y="79.32" width="2.35" height="2.37"/><rect x="57.67" y="79.32" width="2.35" height="2.37"/><rect x="60.03" y="79.32" width="2.35" height="2.37"/><rect x="62.38" y="79.32" width="2.35" height="2.37"/><rect x="64.73" y="79.32" width="2.35" height="2.37"/><rect x="67.08" y="79.32" width="2.35" height="2.37"/><rect x="69.43" y="79.32" width="2.35" height="2.37"/><rect x="74.13" y="79.32" width="2.35" height="2.37"/><rect x="76.49" y="79.32" width="2.35" height="2.37"/><rect x="78.84" y="79.32" width="2.35" height="2.37"/><rect x="81.19" y="79.32" width="2.35" height="2.37"/><rect x="97.65" y="79.32" width="2.35" height="2.37"/><rect x="100" y="79.32" width="2.35" height="2.37"/><rect x="102.35" y="79.32" width="2.35" height="2.37"/><rect x="104.7" y="79.32" width="2.35" height="2.37"/><rect x="107.05" y="79.32" width="2.35" height="2.37"/><rect x="109.4" y="79.32" width="2.35" height="2.37"/><rect x="111.75" y="79.32" width="2.35" height="2.37"/><rect x="55.32" y="81.69" width="2.35" height="2.37"/><rect x="69.43" y="81.69" width="2.35" height="2.37"/><rect x="81.19" y="81.69" width="2.35" height="2.37"/><rect x="83.54" y="81.69" width="2.35" height="2.37"/><rect x="85.89" y="81.69" width="2.35" height="2.37"/><rect x="88.24" y="81.69" width="2.35" height="2.37"/><rect x="92.95" y="81.69" width="2.35" height="2.37"/><rect x="97.65" y="81.69" width="2.35" height="2.37"/><rect x="111.75" y="81.69" width="2.35" height="2.37"/><rect x="55.32" y="84.07" width="2.35" height="2.37"/><rect x="60.03" y="84.07" width="2.35" height="2.37"/><rect x="62.38" y="84.07" width="2.35" height="2.37"/><rect x="64.73" y="84.07" width="2.35" height="2.37"/><rect x="69.43" y="84.07" width="2.35" height="2.37"/><rect x="76.49" y="84.07" width="2.35" height="2.37"/><rect x="81.19" y="84.07" width="2.35" height="2.37"/><rect x="85.89" y="84.07" width="2.35" height="2.37"/><rect x="90.6" y="84.07" width="2.35" height="2.37"/><rect x="92.95" y="84.07" width="2.35" height="2.37"/><rect x="97.65" y="84.07" width="2.35" height="2.37"/><rect x="102.35" y="84.07" width="2.35" height="2.37"/><rect x="104.7" y="84.07" width="2.35" height="2.37"/><rect x="107.05" y="84.07" width="2.35" height="2.37"/><rect x="111.75" y="84.07" width="2.35" height="2.37"/><rect x="55.32" y="86.44" width="2.35" height="2.37"/><rect x="60.03" y="86.44" width="2.35" height="2.37"/><rect x="62.38" y="86.44" width="2.35" height="2.37"/><rect x="64.73" y="86.44" width="2.35" height="2.37"/><rect x="69.43" y="86.44" width="2.35" height="2.37"/><rect x="78.84" y="86.44" width="2.35" height="2.37"/><rect x="92.95" y="86.44" width="2.35" height="2.37"/><rect x="97.65" y="86.44" width="2.35" height="2.37"/><rect x="102.35" y="86.44" width="2.35" height="2.37"/><rect x="104.7" y="86.44" width="2.35" height="2.37"/><rect x="107.05" y="86.44" width="2.35" height="2.37"/><rect x="111.75" y="86.44" width="2.35" height="2.37"/><rect x="55.32" y="88.81" width="2.35" height="2.37"/><rect x="60.03" y="88.81" width="2.35" height="2.37"/><rect x="62.38" y="88.81" width="2.35" height="2.37"/><rect x="64.73" y="88.81" width="2.35" height="2.37"/><rect x="69.43" y="88.81" width="2.35" height="2.37"/><rect x="78.84" y="88.81" width="2.35" height="2.37"/><rect x="81.19" y="88.81" width="2.35" height="2.37"/><rect x="83.54" y="88.81" width="2.35" height="2.37"/><rect x="88.24" y="88.81" width="2.35" height="2.37"/><rect x="92.95" y="88.81" width="2.35" height="2.37"/><rect x="97.65" y="88.81" width="2.35" height="2.37"/><rect x="102.35" y="88.81" width="2.35" height="2.37"/><rect x="104.7" y="88.81" width="2.35" height="2.37"/><rect x="107.05" y="88.81" width="2.35" height="2.37"/><rect x="111.75" y="88.81" width="2.35" height="2.37"/><rect x="55.32" y="91.19" width="2.35" height="2.37"/><rect x="69.43" y="91.19" width="2.35" height="2.37"/><rect x="76.49" y="91.19" width="2.35" height="2.37"/><rect x="81.19" y="91.19" width="2.35" height="2.37"/><rect x="92.95" y="91.19" width="2.35" height="2.37"/><rect x="97.65" y="91.19" width="2.35" height="2.37"/><rect x="111.75" y="91.19" width="2.35" height="2.37"/><rect x="55.32" y="93.56" width="2.35" height="2.37"/><rect x="57.67" y="93.56" width="2.35" height="2.37"/><rect x="60.03" y="93.56" width="2.35" height="2.37"/><rect x="62.38" y="93.56" width="2.35" height="2.37"/><rect x="64.73" y="93.56" width="2.35" height="2.37"/><rect x="67.08" y="93.56" width="2.35" height="2.37"/><rect x="69.43" y="93.56" width="2.35" height="2.37"/><rect x="74.13" y="93.56" width="2.35" height="2.37"/><rect x="78.84" y="93.56" width="2.35" height="2.37"/><rect x="88.24" y="93.56" width="2.35" height="2.37"/><rect x="92.95" y="93.56" width="2.35" height="2.37"/><rect x="97.65" y="93.56" width="2.35" height="2.37"/><rect x="100" y="93.56" width="2.35" height="2.37"/><rect x="102.35" y="93.56" width="2.35" height="2.37"/><rect x="104.7" y="93.56" width="2.35" height="2.37"/><rect x="107.05" y="93.56" width="2.35" height="2.37"/><rect x="109.4" y="93.56" width="2.35" height="2.37"/><rect x="111.75" y="93.56" width="2.35" height="2.37"/><rect x="74.13" y="95.94" width="2.35" height="2.37"/><rect x="76.49" y="95.94" width="2.35" height="2.37"/><rect x="83.54" y="95.94" width="2.35" height="2.37"/><rect x="85.89" y="95.94" width="2.35" height="2.37"/><rect x="55.32" y="98.31" width="2.35" height="2.37"/><rect x="64.73" y="98.31" width="2.35" height="2.37"/><rect x="69.43" y="98.31" width="2.35" height="2.37"/><rect x="76.49" y="98.31" width="2.35" height="2.37"/><rect x="83.54" y="98.31" width="2.35" height="2.37"/><rect x="90.6" y="98.31" width="2.35" height="2.37"/><rect x="97.65" y="98.31" width="2.35" height="2.37"/><rect x="111.75" y="98.31" width="2.35" height="2.37"/><rect x="55.32" y="100.68" width="2.35" height="2.37"/><rect x="57.67" y="100.68" width="2.35" height="2.37"/><rect x="60.03" y="100.68" width="2.35" height="2.37"/><rect x="64.73" y="100.68" width="2.35" height="2.37"/><rect x="67.08" y="100.68" width="2.35" height="2.37"/><rect x="71.78" y="100.68" width="2.35" height="2.37"/><rect x="78.84" y="100.68" width="2.35" height="2.37"/><rect x="85.89" y="100.68" width="2.35" height="2.37"/><rect x="88.24" y="100.68" width="2.35" height="2.37"/><rect x="90.6" y="100.68" width="2.35" height="2.37"/><rect x="95.3" y="100.68" width="2.35" height="2.37"/><rect x="100" y="100.68" width="2.35" height="2.37"/><rect x="102.35" y="100.68" width="2.35" height="2.37"/><rect x="104.7" y="100.68" width="2.35" height="2.37"/><rect x="107.05" y="100.68" width="2.35" height="2.37"/><rect x="109.4" y="100.68" width="2.35" height="2.37"/><rect x="55.32" y="103.06" width="2.35" height="2.37"/><rect x="64.73" y="103.06" width="2.35" height="2.37"/><rect x="69.43" y="103.06" width="2.35" height="2.37"/><rect x="71.78" y="103.06" width="2.35" height="2.37"/><rect x="76.49" y="103.06" width="2.35" height="2.37"/><rect x="83.54" y="103.06" width="2.35" height="2.37"/><rect x="90.6" y="103.06" width="2.35" height="2.37"/><rect x="92.95" y="103.06" width="2.35" height="2.37"/><rect x="100" y="103.06" width="2.35" height="2.37"/><rect x="104.7" y="103.06" width="2.35" height="2.37"/><rect x="111.75" y="103.06" width="2.35" height="2.37"/><rect x="55.32" y="105.43" width="2.35" height="2.37"/><rect x="57.67" y="105.43" width="2.35" height="2.37"/><rect x="71.78" y="105.43" width="2.35" height="2.37"/><rect x="74.13" y="105.43" width="2.35" height="2.37"/><rect x="100" y="105.43" width="2.35" height="2.37"/><rect x="107.05" y="105.43" width="2.35" height="2.37"/><rect x="109.4" y="105.43" width="2.35" height="2.37"/><rect x="111.75" y="105.43" width="2.35" height="2.37"/><rect x="60.03" y="107.81" width="2.35" height="2.37"/><rect x="69.43" y="107.81" width="2.35" height="2.37"/><rect x="74.13" y="107.81" width="2.35" height="2.37"/><rect x="78.84" y="107.81" width="2.35" height="2.37"/><rect x="88.24" y="107.81" width="2.35" height="2.37"/><rect x="90.6" y="107.81" width="2.35" height="2.37"/><rect x="97.65" y="107.81" width="2.35" height="2.37"/><rect x="111.75" y="107.81" width="2.35" height="2.37"/><rect x="55.32" y="110.18" width="2.35" height="2.37"/><rect x="60.03" y="110.18" width="2.35" height="2.37"/><rect x="67.08" y="110.18" width="2.35" height="2.37"/><rect x="71.78" y="110.18" width="2.35" height="2.37"/><rect x="83.54" y="110.18" width="2.35" height="2.37"/><rect x="90.6" y="110.18" width="2.35" height="2.37"/><rect x="92.95" y="110.18" width="2.35" height="2.37"/><rect x="95.3" y="110.18" width="2.35" height="2.37"/><rect x="102.35" y="110.18" width="2.35" height="2.37"/><rect x="109.4" y="110.18" width="2.35" height="2.37"/><rect x="55.32" y="112.55" width="2.35" height="2.37"/><rect x="57.67" y="112.55" width="2.35" height="2.37"/><rect x="62.38" y="112.55" width="2.35" height="2.37"/><rect x="69.43" y="112.55" width="2.35" height="2.37"/><rect x="71.78" y="112.55" width="2.35" height="2.37"/><rect x="76.49" y="112.55" width="2.35" height="2.37"/><rect x="88.24" y="112.55" width="2.35" height="2.37"/><rect x="90.6" y="112.55" width="2.35" height="2.37"/><rect x="102.35" y="112.55" width="2.35" height="2.37"/><rect x="104.7" y="112.55" width="2.35" height="2.37"/><rect x="107.05" y="112.55" width="2.35" height="2.37"/><rect x="109.4" y="112.55" width="2.35" height="2.37"/><rect x="111.75" y="112.55" width="2.35" height="2.37"/><rect x="55.32" y="114.93" width="2.35" height="2.37"/><rect x="67.08" y="114.93" width="2.35" height="2.37"/><rect x="76.49" y="114.93" width="2.35" height="2.37"/><rect x="83.54" y="114.93" width="2.35" height="2.37"/><rect x="88.24" y="114.93" width="2.35" height="2.37"/><rect x="92.95" y="114.93" width="2.35" height="2.37"/><rect x="100" y="114.93" width="2.35" height="2.37"/><rect x="104.7" y="114.93" width="2.35" height="2.37"/><rect x="107.05" y="114.93" width="2.35" height="2.37"/><rect x="111.75" y="114.93" width="2.35" height="2.37"/><rect x="55.32" y="117.3" width="2.35" height="2.37"/><rect x="60.03" y="117.3" width="2.35" height="2.37"/><rect x="62.38" y="117.3" width="2.35" height="2.37"/><rect x="64.73" y="117.3" width="2.35" height="2.37"/><rect x="69.43" y="117.3" width="2.35" height="2.37"/><rect x="71.78" y="117.3" width="2.35" height="2.37"/><rect x="78.84" y="117.3" width="2.35" height="2.37"/><rect x="81.19" y="117.3" width="2.35" height="2.37"/><rect x="85.89" y="117.3" width="2.35" height="2.37"/><rect x="90.6" y="117.3" width="2.35" height="2.37"/><rect x="92.95" y="117.3" width="2.35" height="2.37"/><rect x="95.3" y="117.3" width="2.35" height="2.37"/><rect x="97.65" y="117.3" width="2.35" height="2.37"/><rect x="102.35" y="117.3" width="2.35" height="2.37"/><rect x="107.05" y="117.3" width="2.35" height="2.37"/><rect x="109.4" y="117.3" width="2.35" height="2.37"/><rect x="74.13" y="119.68" width="2.35" height="2.37"/><rect x="76.49" y="119.68" width="2.35" height="2.37"/><rect x="81.19" y="119.68" width="2.35" height="2.37"/><rect x="92.95" y="119.68" width="2.35" height="2.37"/><rect x="102.35" y="119.68" width="2.35" height="2.37"/><rect x="107.05" y="119.68" width="2.35" height="2.37"/><rect x="109.4" y="119.68" width="2.35" height="2.37"/><rect x="55.32" y="122.05" width="2.35" height="2.37"/><rect x="57.67" y="122.05" width="2.35" height="2.37"/><rect x="60.03" y="122.05" width="2.35" height="2.37"/><rect x="62.38" y="122.05" width="2.35" height="2.37"/><rect x="64.73" y="122.05" width="2.35" height="2.37"/><rect x="67.08" y="122.05" width="2.35" height="2.37"/><rect x="69.43" y="122.05" width="2.35" height="2.37"/><rect x="78.84" y="122.05" width="2.35" height="2.37"/><rect x="83.54" y="122.05" width="2.35" height="2.37"/><rect x="88.24" y="122.05" width="2.35" height="2.37"/><rect x="92.95" y="122.05" width="2.35" height="2.37"/><rect x="97.65" y="122.05" width="2.35" height="2.37"/><rect x="102.35" y="122.05" width="2.35" height="2.37"/><rect x="111.75" y="122.05" width="2.35" height="2.37"/><rect x="55.32" y="124.43" width="2.35" height="2.37"/><rect x="69.43" y="124.43" width="2.35" height="2.37"/><rect x="81.19" y="124.43" width="2.35" height="2.37"/><rect x="85.89" y="124.43" width="2.35" height="2.37"/><rect x="90.6" y="124.43" width="2.35" height="2.37"/><rect x="92.95" y="124.43" width="2.35" height="2.37"/><rect x="102.35" y="124.43" width="2.35" height="2.37"/><rect x="111.75" y="124.43" width="2.35" height="2.37"/><rect x="55.32" y="126.8" width="2.35" height="2.37"/><rect x="60.03" y="126.8" width="2.35" height="2.37"/><rect x="62.38" y="126.8" width="2.35" height="2.37"/><rect x="64.73" y="126.8" width="2.35" height="2.37"/><rect x="69.43" y="126.8" width="2.35" height="2.37"/><rect x="74.13" y="126.8" width="2.35" height="2.37"/><rect x="78.84" y="126.8" width="2.35" height="2.37"/><rect x="81.19" y="126.8" width="2.35" height="2.37"/><rect x="83.54" y="126.8" width="2.35" height="2.37"/><rect x="88.24" y="126.8" width="2.35" height="2.37"/><rect x="92.95" y="126.8" width="2.35" height="2.37"/><rect x="95.3" y="126.8" width="2.35" height="2.37"/><rect x="97.65" y="126.8" width="2.35" height="2.37"/><rect x="100" y="126.8" width="2.35" height="2.37"/><rect x="102.35" y="126.8" width="2.35" height="2.37"/><rect x="55.32" y="129.17" width="2.35" height="2.37"/><rect x="60.03" y="129.17" width="2.35" height="2.37"/><rect x="62.38" y="129.17" width="2.35" height="2.37"/><rect x="64.73" y="129.17" width="2.35" height="2.37"/><rect x="69.43" y="129.17" width="2.35" height="2.37"/><rect x="74.13" y="129.17" width="2.35" height="2.37"/><rect x="76.49" y="129.17" width="2.35" height="2.37"/><rect x="83.54" y="129.17" width="2.35" height="2.37"/><rect x="88.24" y="129.17" width="2.35" height="2.37"/><rect x="97.65" y="129.17" width="2.35" height="2.37"/><rect x="109.4" y="129.17" width="2.35" height="2.37"/><rect x="111.75" y="129.17" width="2.35" height="2.37"/><rect x="55.32" y="131.55" width="2.35" height="2.37"/><rect x="60.03" y="131.55" width="2.35" height="2.37"/><rect x="62.38" y="131.55" width="2.35" height="2.37"/><rect x="64.73" y="131.55" width="2.35" height="2.37"/><rect x="69.43" y="131.55" width="2.35" height="2.37"/><rect x="76.49" y="131.55" width="2.35" height="2.37"/><rect x="81.19" y="131.55" width="2.35" height="2.37"/><rect x="85.89" y="131.55" width="2.35" height="2.37"/><rect x="90.6" y="131.55" width="2.35" height="2.37"/><rect x="95.3" y="131.55" width="2.35" height="2.37"/><rect x="102.35" y="131.55" width="2.35" height="2.37"/><rect x="107.05" y="131.55" width="2.35" height="2.37"/><rect x="109.4" y="131.55" width="2.35" height="2.37"/><rect x="111.75" y="131.55" width="2.35" height="2.37"/><rect x="55.32" y="133.92" width="2.35" height="2.37"/><rect x="69.43" y="133.92" width="2.35" height="2.37"/><rect x="74.13" y="133.92" width="2.35" height="2.37"/><rect x="78.84" y="133.92" width="2.35" height="2.37"/><rect x="81.19" y="133.92" width="2.35" height="2.37"/><rect x="88.24" y="133.92" width="2.35" height="2.37"/><rect x="90.6" y="133.92" width="2.35" height="2.37"/><rect x="102.35" y="133.92" width="2.35" height="2.37"/><rect x="107.05" y="133.92" width="2.35" height="2.37"/><rect x="109.4" y="133.92" width="2.35" height="2.37"/><rect x="111.75" y="133.92" width="2.35" height="2.37"/><rect x="55.32" y="136.3" width="2.35" height="2.37"/><rect x="57.67" y="136.3" width="2.35" height="2.37"/><rect x="60.03" y="136.3" width="2.35" height="2.37"/><rect x="62.38" y="136.3" width="2.35" height="2.37"/><rect x="64.73" y="136.3" width="2.35" height="2.37"/><rect x="67.08" y="136.3" width="2.35" height="2.37"/><rect x="69.43" y="136.3" width="2.35" height="2.37"/><rect x="74.13" y="136.3" width="2.35" height="2.37"/><rect x="83.54" y="136.3" width="2.35" height="2.37"/><rect x="95.3" y="136.3" width="2.35" height="2.37"/><rect x="104.7" y="136.3" width="2.35" height="2.37"/><rect x="111.75" y="136.3" width="2.35" height="2.37"/><rect x="118.61" y="80.97" width="2.35" height="2.37"/><rect x="125.66" y="80.97" width="2.35" height="2.37"/><rect x="120.96" y="83.35" width="2.35" height="2.37"/><rect x="128.01" y="83.35" width="2.35" height="2.37"/><rect x="130.37" y="83.35" width="2.35" height="2.37"/><rect x="118.61" y="85.72" width="2.35" height="2.37"/><rect x="125.66" y="85.72" width="2.35" height="2.37"/><rect x="116.26" y="88.1" width="2.35" height="2.37"/><rect x="116.26" y="90.47" width="2.35" height="2.37"/><rect x="120.96" y="90.47" width="2.35" height="2.37"/><rect x="130.37" y="90.47" width="2.35" height="2.37"/><rect x="125.66" y="92.84" width="2.35" height="2.37"/><rect x="118.61" y="95.21" width="2.35" height="2.37"/><rect x="130.37" y="95.21" width="2.35" height="2.37"/><rect x="118.61" y="97.59" width="2.35" height="2.37"/><rect x="125.66" y="97.59" width="2.35" height="2.37"/><rect x="130.37" y="97.59" width="2.35" height="2.37"/><rect x="120.96" y="99.96" width="2.35" height="2.37"/><rect x="123.31" y="99.96" width="2.35" height="2.37"/><rect x="128.01" y="99.96" width="2.35" height="2.37"/><rect x="116.26" y="102.33" width="2.35" height="2.37"/><rect x="118.61" y="102.33" width="2.35" height="2.37"/><rect x="123.31" y="102.33" width="2.35" height="2.37"/><rect x="120.96" y="104.71" width="2.35" height="2.37"/><rect x="125.66" y="104.71" width="2.35" height="2.37"/><rect x="135.96" y="104.71" width="2.35" height="2.37"/><rect x="123.31" y="107.08" width="2.35" height="2.37"/><rect x="133.61" y="107.08" width="2.35" height="2.37"/><rect x="118.24" y="110.47" width="2.35" height="2.37"/><rect x="125.3" y="110.47" width="2.35" height="2.37"/><rect x="120.6" y="112.84" width="2.35" height="2.37"/><rect x="127.65" y="112.84" width="2.35" height="2.37"/><rect x="130" y="112.84" width="2.35" height="2.37"/><rect x="118.24" y="115.22" width="2.35" height="2.37"/><rect x="125.3" y="115.22" width="2.35" height="2.37"/><rect x="115.89" y="117.59" width="2.35" height="2.37"/><rect x="115.89" y="119.96" width="2.35" height="2.37"/><rect x="120.6" y="119.96" width="2.35" height="2.37"/><rect x="132.8" y="119.96" width="2.35" height="2.37"/><rect x="125.3" y="122.34" width="2.35" height="2.37"/><rect x="118.24" y="124.71" width="2.35" height="2.37"/><rect x="130" y="124.71" width="2.35" height="2.37"/><rect x="118.24" y="127.09" width="2.35" height="2.37"/><rect x="125.3" y="127.09" width="2.35" height="2.37"/><rect x="130" y="127.09" width="2.35" height="2.37"/><rect x="120.6" y="129.46" width="2.35" height="2.37"/><rect x="122.95" y="129.46" width="2.35" height="2.37"/><rect x="127.65" y="129.46" width="2.35" height="2.37"/><rect x="115.89" y="131.83" width="2.35" height="2.37"/><rect x="118.24" y="131.83" width="2.35" height="2.37"/><rect x="122.95" y="131.83" width="2.35" height="2.37"/><rect x="120.6" y="134.21" width="2.35" height="2.37"/><rect x="125.3" y="134.21" width="2.35" height="2.37"/><rect x="130" y="134.21" width="2.35" height="2.37"/><rect x="122.95" y="136.58" width="2.35" height="2.37"/><rect x="127.65" y="136.58" width="2.35" height="2.37"/><rect x="38.29" y="80.61" width="2.35" height="2.37"/><rect x="45.35" y="80.61" width="2.35" height="2.37"/><rect x="40.64" y="82.98" width="2.35" height="2.37"/><rect x="47.7" y="82.98" width="2.35" height="2.37"/><rect x="50.05" y="82.98" width="2.35" height="2.37"/><rect x="38.29" y="85.36" width="2.35" height="2.37"/><rect x="45.35" y="85.36" width="2.35" height="2.37"/><rect x="35.95" y="87.73" width="2.35" height="2.37"/><rect x="35.95" y="90.1" width="2.35" height="2.37"/><rect x="40.64" y="90.1" width="2.35" height="2.37"/><rect x="50.05" y="90.1" width="2.35" height="2.37"/><rect x="45.35" y="92.48" width="2.35" height="2.37"/><rect x="38.29" y="94.85" width="2.35" height="2.37"/><rect x="50.05" y="94.85" width="2.35" height="2.37"/><rect x="34.56" y="97.23" width="2.35" height="2.37"/><rect x="45.35" y="97.23" width="2.35" height="2.37"/><rect x="50.05" y="97.23" width="2.35" height="2.37"/><rect x="40.64" y="99.6" width="2.35" height="2.37"/><rect x="43" y="99.6" width="2.35" height="2.37"/><rect x="47.7" y="99.6" width="2.35" height="2.37"/><rect x="34.56" y="101.97" width="2.35" height="2.37"/><rect x="43" y="101.97" width="2.35" height="2.37"/><rect x="40.64" y="104.35" width="2.35" height="2.37"/><rect x="45.35" y="104.35" width="2.35" height="2.37"/><rect x="50.05" y="104.35" width="2.35" height="2.37"/><rect x="43" y="106.72" width="2.35" height="2.37"/><rect x="47.7" y="106.72" width="2.35" height="2.37"/><rect x="34.56" y="110.59" width="2.35" height="2.37"/><rect x="45.35" y="110.59" width="2.35" height="2.37"/><rect x="40.64" y="112.96" width="2.35" height="2.37"/><rect x="47.7" y="112.96" width="2.35" height="2.37"/><rect x="50.05" y="112.96" width="2.35" height="2.37"/><rect x="38.29" y="115.33" width="2.35" height="2.37"/><rect x="45.35" y="115.33" width="2.35" height="2.37"/><rect x="35.95" y="117.71" width="2.35" height="2.37"/><rect x="35.95" y="120.08" width="2.35" height="2.37"/><rect x="40.64" y="120.08" width="2.35" height="2.37"/><rect x="50.05" y="120.08" width="2.35" height="2.37"/><rect x="45.35" y="122.46" width="2.35" height="2.37"/><rect x="38.29" y="124.83" width="2.35" height="2.37"/><rect x="50.05" y="124.83" width="2.35" height="2.37"/><rect x="38.29" y="127.21" width="2.35" height="2.37"/><rect x="45.35" y="127.21" width="2.35" height="2.37"/><rect x="50.05" y="127.21" width="2.35" height="2.37"/><rect x="40.64" y="129.58" width="2.35" height="2.37"/><rect x="43" y="129.58" width="2.35" height="2.37"/><rect x="47.7" y="129.58" width="2.35" height="2.37"/><rect x="35.95" y="131.95" width="2.35" height="2.37"/><rect x="38.29" y="131.95" width="2.35" height="2.37"/><rect x="43" y="131.95" width="2.35" height="2.37"/><rect x="40.64" y="134.33" width="2.35" height="2.37"/><rect x="45.35" y="134.33" width="2.35" height="2.37"/><rect x="50.05" y="134.33" width="2.35" height="2.37"/><rect x="56.12" y="141.05" width="2.35" height="2.37"/><rect x="63.17" y="141.05" width="2.35" height="2.37"/><rect x="58.47" y="143.43" width="2.35" height="2.37"/><rect x="65.52" y="143.43" width="2.35" height="2.37"/><rect x="67.87" y="143.43" width="2.35" height="2.37"/><rect x="56.12" y="145.8" width="2.35" height="2.37"/><rect x="63.17" y="145.8" width="2.35" height="2.37"/><rect x="53.76" y="148.17" width="2.35" height="2.37"/><rect x="58.47" y="150.55" width="2.35" height="2.37"/><rect x="74.41" y="142.5" width="2.35" height="2.37"/><rect x="81.47" y="142.5" width="2.35" height="2.37"/><rect x="83.82" y="144.87" width="2.35" height="2.37"/><rect x="86.17" y="144.87" width="2.35" height="2.37"/><rect x="81.47" y="147.25" width="2.35" height="2.37"/><rect x="86.17" y="152" width="2.35" height="2.37"/><rect x="81.47" y="154.37" width="2.35" height="2.37"/><rect x="86.17" y="156.74" width="2.35" height="2.37"/><rect x="81.47" y="159.12" width="2.35" height="2.37"/><rect x="86.17" y="159.12" width="2.35" height="2.37"/><rect x="83.82" y="161.49" width="2.35" height="2.37"/><rect x="94.4" y="141.66" width="2.35" height="2.37"/><rect x="101.46" y="141.66" width="2.35" height="2.37"/><rect x="96.75" y="144.03" width="2.35" height="2.37"/><rect x="103.81" y="144.03" width="2.35" height="2.37"/><rect x="106.16" y="144.03" width="2.35" height="2.37"/><rect x="94.4" y="146.4" width="2.35" height="2.37"/><rect x="101.46" y="146.4" width="2.35" height="2.37"/><rect x="106.16" y="151.15" width="2.35" height="2.37"/><rect x="114" y="141.66" width="2.35" height="2.37"/><rect x="116.35" y="144.03" width="2.35" height="2.37"/><rect x="114" y="146.4" width="2.35" height="2.37"/><rect x="111.65" y="148.78" width="2.35" height="2.37"/><rect x="111.65" y="151.15" width="2.35" height="2.37"/><rect x="116.35" y="151.15" width="2.35" height="2.37"/><rect x="139.14" y="80.97" width="2.35" height="2.37"/><rect x="146.19" y="80.97" width="2.35" height="2.37"/><rect x="141.49" y="83.35" width="2.35" height="2.37"/><rect x="148.54" y="83.35" width="2.35" height="2.37"/><rect x="139.14" y="85.72" width="2.35" height="2.37"/><rect x="146.19" y="85.72" width="2.35" height="2.37"/><rect x="136.79" y="88.1" width="2.35" height="2.37"/><rect x="136.79" y="90.47" width="2.35" height="2.37"/><rect x="141.49" y="90.47" width="2.35" height="2.37"/><rect x="146.19" y="92.84" width="2.35" height="2.37"/><rect x="139.14" y="95.21" width="2.35" height="2.37"/><rect x="139.14" y="97.59" width="2.35" height="2.37"/><rect x="146.19" y="97.59" width="2.35" height="2.37"/><rect x="141.49" y="99.96" width="2.35" height="2.37"/><rect x="143.84" y="99.96" width="2.35" height="2.37"/><rect x="136.79" y="102.33" width="2.35" height="2.37"/><rect x="139.14" y="102.33" width="2.35" height="2.37"/><rect x="138.77" y="110.47" width="2.35" height="2.37"/><rect x="141.12" y="112.84" width="2.35" height="2.37"/><rect x="148.18" y="112.84" width="2.35" height="2.37"/><rect x="150.53" y="112.84" width="2.35" height="2.37"/><rect x="138.77" y="115.22" width="2.35" height="2.37"/><rect x="145.83" y="115.22" width="2.35" height="2.37"/><rect x="136.42" y="117.59" width="2.35" height="2.37"/><rect x="136.42" y="119.96" width="2.35" height="2.37"/><rect x="141.12" y="119.96" width="2.35" height="2.37"/><rect x="153.33" y="119.96" width="2.35" height="2.37"/><rect x="145.83" y="122.34" width="2.35" height="2.37"/><rect x="138.77" y="124.71" width="2.35" height="2.37"/><rect x="150.53" y="124.71" width="2.35" height="2.37"/><rect x="138.77" y="127.09" width="2.35" height="2.37"/><rect x="145.83" y="127.09" width="2.35" height="2.37"/><rect x="150.53" y="127.09" width="2.35" height="2.37"/><rect x="141.12" y="129.46" width="2.35" height="2.37"/><rect x="143.48" y="129.46" width="2.35" height="2.37"/><rect x="148.18" y="129.46" width="2.35" height="2.37"/><rect x="136.42" y="131.83" width="2.35" height="2.37"/><rect x="138.77" y="131.83" width="2.35" height="2.37"/><rect x="143.48" y="131.83" width="2.35" height="2.37"/><rect x="158.37" y="115.22" width="2.35" height="2.37"/><rect x="156.02" y="117.59" width="2.35" height="2.37"/><rect x="156.02" y="119.96" width="2.35" height="2.37"/><rect x="160.72" y="119.96" width="2.35" height="2.37"/><rect x="165.42" y="122.34" width="2.35" height="2.37"/><rect x="158.37" y="124.71" width="2.35" height="2.37"/><rect x="158.37" y="127.09" width="2.35" height="2.37"/><rect x="75.67" y="61.16" width="2.37" height="2.35"/><rect x="75.67" y="68.22" width="2.37" height="2.35"/><rect x="73.3" y="63.52" width="2.37" height="2.35"/><rect x="73.3" y="70.56" width="2.37" height="2.35"/><rect x="73.3" y="72.91" width="2.37" height="2.35"/><rect x="70.92" y="61.16" width="2.37" height="2.35"/><rect x="70.92" y="68.22" width="2.37" height="2.35"/><rect x="66.18" y="63.52" width="2.37" height="2.35"/><rect x="66.18" y="72.91" width="2.37" height="2.35"/><rect x="63.81" y="68.22" width="2.37" height="2.35"/><rect x="61.43" y="72.91" width="2.37" height="2.35"/><rect x="67.19" y="55.57" width="2.37" height="2.35"/><rect x="62.44" y="57.92" width="2.37" height="2.35"/><rect x="68.13" y="52.77" width="2.37" height="2.35"/><rect x="63.38" y="55.12" width="2.37" height="2.35"/><rect x="49.56" y="70.56" width="2.37" height="2.35"/><rect x="83.33" y="51.8" width="2.35" height="2.37"/><rect x="80.97" y="54.17" width="2.35" height="2.37"/><rect x="80.97" y="56.55" width="2.35" height="2.37"/><rect x="85.68" y="56.55" width="2.35" height="2.37"/><rect x="95.08" y="56.55" width="2.35" height="2.37"/><rect x="90.38" y="58.92" width="2.35" height="2.37"/><rect x="83.33" y="61.29" width="2.35" height="2.37"/><rect x="95.08" y="61.29" width="2.35" height="2.37"/><rect x="83.33" y="63.67" width="2.35" height="2.37"/><rect x="90.38" y="63.67" width="2.35" height="2.37"/><rect x="95.08" y="63.67" width="2.35" height="2.37"/><rect x="85.68" y="66.04" width="2.35" height="2.37"/><rect x="88.03" y="66.04" width="2.35" height="2.37"/><rect x="92.73" y="66.04" width="2.35" height="2.37"/><rect x="80.97" y="68.42" width="2.35" height="2.37"/><rect x="83.33" y="68.42" width="2.35" height="2.37"/><rect x="88.03" y="68.42" width="2.35" height="2.37"/><rect x="85.68" y="70.79" width="2.35" height="2.37"/><rect x="90.38" y="70.79" width="2.35" height="2.37"/><rect x="95.08" y="70.79" width="2.35" height="2.37"/><rect x="88.03" y="73.16" width="2.35" height="2.37"/><rect x="92.73" y="73.16" width="2.35" height="2.37"/><rect x="103.31" y="61.14" width="2.35" height="2.37"/><rect x="103.31" y="63.52" width="2.35" height="2.37"/><rect x="105.67" y="65.89" width="2.35" height="2.37"/><rect x="100.96" y="68.27" width="2.35" height="2.37"/><rect x="103.31" y="68.27" width="2.35" height="2.37"/><rect x="105.67" y="70.64" width="2.35" height="2.37"/><rect x="115.07" y="70.64" width="2.35" height="2.37"/><rect x="132.23" y="61.54" width="2.35" height="2.37"/><rect x="132.23" y="66.29" width="2.35" height="2.37"/><rect x="120.47" y="68.66" width="2.35" height="2.37"/><rect x="127.53" y="68.66" width="2.35" height="2.37"/><rect x="132.23" y="68.66" width="2.35" height="2.37"/><rect x="122.83" y="71.04" width="2.35" height="2.37"/><rect x="125.18" y="71.04" width="2.35" height="2.37"/><rect x="129.88" y="71.04" width="2.35" height="2.37"/><rect x="118.12" y="73.41" width="2.35" height="2.37"/><rect x="120.47" y="73.41" width="2.35" height="2.37"/><rect x="125.18" y="73.41" width="2.35" height="2.37"/><rect x="122.83" y="75.79" width="2.35" height="2.37"/><rect x="127.53" y="75.79" width="2.35" height="2.37"/><rect x="137.83" y="75.79" width="2.35" height="2.37"/><rect x="150.41" y="54.42" width="2.35" height="2.37"/><rect x="152.76" y="54.42" width="2.35" height="2.37"/><rect x="141" y="56.79" width="2.35" height="2.37"/><rect x="148.06" y="56.79" width="2.35" height="2.37"/><rect x="138.65" y="59.17" width="2.35" height="2.37"/><rect x="138.65" y="61.54" width="2.35" height="2.37"/><rect x="143.36" y="61.54" width="2.35" height="2.37"/><rect x="152.76" y="61.54" width="2.35" height="2.37"/><rect x="148.06" y="63.91" width="2.35" height="2.37"/><rect x="141" y="66.29" width="2.35" height="2.37"/><rect x="152.76" y="66.29" width="2.35" height="2.37"/><rect x="141" y="68.66" width="2.35" height="2.37"/><rect x="148.06" y="68.66" width="2.35" height="2.37"/><rect x="152.76" y="68.66" width="2.35" height="2.37"/><rect x="143.36" y="71.04" width="2.35" height="2.37"/><rect x="145.71" y="71.04" width="2.35" height="2.37"/><rect x="150.41" y="71.04" width="2.35" height="2.37"/><rect x="138.65" y="73.41" width="2.35" height="2.37"/><rect x="141" y="73.41" width="2.35" height="2.37"/><rect x="145.71" y="73.41" width="2.35" height="2.37"/><rect x="143.36" y="75.79" width="2.35" height="2.37"/><rect x="148.06" y="75.79" width="2.35" height="2.37"/><rect x="160.6" y="52.04" width="2.35" height="2.37"/><rect x="162.95" y="54.42" width="2.35" height="2.37"/><rect x="160.6" y="56.79" width="2.35" height="2.37"/><rect x="158.25" y="59.17" width="2.35" height="2.37"/><rect x="158.25" y="61.54" width="2.35" height="2.37"/><rect x="162.95" y="61.54" width="2.35" height="2.37"/><rect x="160.6" y="66.29" width="2.35" height="2.37"/><rect x="160.6" y="68.66" width="2.35" height="2.37"/><rect x="3.91" y="54.42" width="2.35" height="2.37"/><rect x="6.26" y="54.42" width="2.35" height="2.37"/><rect x="6.26" y="61.54" width="2.35" height="2.37"/><rect x="6.26" y="66.29" width="2.35" height="2.37"/><rect x="6.26" y="68.66" width="2.35" height="2.37"/><rect x="11.86" y="75.79" width="2.35" height="2.37"/><rect x="15.03" y="52.04" width="2.35" height="2.37"/><rect x="17.38" y="54.42" width="2.35" height="2.37"/><rect x="15.03" y="56.79" width="2.35" height="2.37"/><rect x="22.08" y="56.79" width="2.35" height="2.37"/><rect x="12.68" y="59.17" width="2.35" height="2.37"/><rect x="12.68" y="61.54" width="2.35" height="2.37"/><rect x="17.38" y="61.54" width="2.35" height="2.37"/><rect x="26.79" y="61.54" width="2.35" height="2.37"/><rect x="22.08" y="63.91" width="2.35" height="2.37"/><rect x="15.03" y="66.29" width="2.35" height="2.37"/><rect x="26.79" y="66.29" width="2.35" height="2.37"/><rect x="15.03" y="68.66" width="2.35" height="2.37"/><rect x="22.08" y="68.66" width="2.35" height="2.37"/><rect x="26.79" y="68.66" width="2.35" height="2.37"/><rect x="17.38" y="71.04" width="2.35" height="2.37"/><rect x="19.73" y="71.04" width="2.35" height="2.37"/><rect x="24.44" y="71.04" width="2.35" height="2.37"/><rect x="12.68" y="73.41" width="2.35" height="2.37"/><rect x="15.03" y="73.41" width="2.35" height="2.37"/><rect x="19.73" y="73.41" width="2.35" height="2.37"/><rect x="17.38" y="75.79" width="2.35" height="2.37"/><rect x="22.08" y="75.79" width="2.35" height="2.37"/><rect x="32.39" y="75.79" width="2.35" height="2.37"/><rect x="32.27" y="59.17" width="2.35" height="2.37"/><rect x="32.27" y="61.54" width="2.35" height="2.37"/><rect x="36.98" y="61.54" width="2.35" height="2.37"/><rect x="65.41" y="49.03" width="2.37" height="2.35"/><rect x="63.03" y="51.39" width="2.37" height="2.35"/><rect x="65.66" y="43.03" width="2.37" height="2.35"/><rect x="73.06" y="39.67" width="2.35" height="2.37"/><rect x="70.71" y="42.04" width="2.35" height="2.37"/><rect x="70.71" y="44.41" width="2.35" height="2.37"/><rect x="75.41" y="44.41" width="2.35" height="2.37"/><rect x="84.82" y="44.41" width="2.35" height="2.37"/><rect x="80.12" y="46.79" width="2.35" height="2.37"/><rect x="73.06" y="49.16" width="2.35" height="2.37"/><rect x="84.82" y="49.16" width="2.35" height="2.37"/><rect x="73.06" y="51.53" width="2.35" height="2.37"/><rect x="80.12" y="51.53" width="2.35" height="2.37"/><rect x="84.82" y="51.53" width="2.35" height="2.37"/><rect x="93.05" y="49.01" width="2.35" height="2.37"/><rect x="93.05" y="51.39" width="2.35" height="2.37"/><rect x="100.88" y="39.91" width="2.35" height="2.37"/><rect x="103.23" y="42.29" width="2.35" height="2.37"/><rect x="100.88" y="44.66" width="2.35" height="2.37"/><rect x="98.53" y="47.04" width="2.35" height="2.37"/><rect x="98.53" y="49.41" width="2.35" height="2.37"/><rect x="103.23" y="49.41" width="2.35" height="2.37"/><rect x="7.12" y="49.41" width="2.35" height="2.37"/><rect x="34.63" y="66.29" width="2.35" height="2.37"/><rect x="34.63" y="68.66" width="2.35" height="2.37"/><rect x="36.98" y="71.04" width="2.35" height="2.37"/><rect x="39.33" y="71.04" width="2.35" height="2.37"/><rect x="44.03" y="71.04" width="2.35" height="2.37"/><rect x="32.27" y="73.41" width="2.35" height="2.37"/><rect x="34.63" y="73.41" width="2.35" height="2.37"/><rect x="39.33" y="73.41" width="2.35" height="2.37"/><rect x="36.98" y="75.79" width="2.35" height="2.37"/><rect x="41.68" y="75.79" width="2.35" height="2.37"/><rect x="51.98" y="75.79" width="2.35" height="2.37"/><rect x="11.86" y="82.41" width="2.35" height="2.37"/><rect x="19.7" y="80.03" width="2.35" height="2.37"/><rect x="26.75" y="80.03" width="2.35" height="2.37"/><rect x="22.05" y="82.41" width="2.35" height="2.37"/><rect x="29.1" y="82.41" width="2.35" height="2.37"/><rect x="31.45" y="82.41" width="2.35" height="2.37"/><rect x="19.7" y="84.78" width="2.35" height="2.37"/><rect x="26.75" y="84.78" width="2.35" height="2.37"/><rect x="17.34" y="87.16" width="2.35" height="2.37"/><rect x="17.34" y="89.53" width="2.35" height="2.37"/><rect x="22.05" y="89.53" width="2.35" height="2.37"/><rect x="31.45" y="89.53" width="2.35" height="2.37"/><rect x="26.75" y="91.9" width="2.35" height="2.37"/><rect x="19.7" y="94.28" width="2.35" height="2.37"/><rect x="31.45" y="94.28" width="2.35" height="2.37"/><rect x="19.7" y="96.65" width="2.35" height="2.37"/><rect x="26.75" y="96.65" width="2.35" height="2.37"/><rect x="31.45" y="96.65" width="2.35" height="2.37"/><rect x="24.4" y="99.03" width="2.35" height="2.37"/><rect x="29.1" y="99.03" width="2.35" height="2.37"/><rect x="24.4" y="101.4" width="2.35" height="2.37"/><rect x="26.75" y="103.78" width="2.35" height="2.37"/><rect x="37.05" y="103.78" width="2.35" height="2.37"/><rect x="9.99" y="117.53" width="2.35" height="2.37"/><rect x="5.29" y="119.9" width="2.35" height="2.37"/><rect x="9.99" y="122.28" width="2.35" height="2.37"/><rect x="5.29" y="124.65" width="2.35" height="2.37"/><rect x="9.99" y="124.65" width="2.35" height="2.37"/><rect x="7.64" y="127.03" width="2.35" height="2.37"/><rect x="27.24" y="110.41" width="2.35" height="2.37"/><rect x="29.59" y="110.41" width="2.35" height="2.37"/><rect x="17.83" y="112.78" width="2.35" height="2.37"/><rect x="24.88" y="112.78" width="2.35" height="2.37"/><rect x="15.48" y="115.16" width="2.35" height="2.37"/><rect x="15.48" y="117.53" width="2.35" height="2.37"/><rect x="20.18" y="117.53" width="2.35" height="2.37"/><rect x="29.59" y="117.53" width="2.35" height="2.37"/><rect x="24.88" y="119.9" width="2.35" height="2.37"/><rect x="17.83" y="122.28" width="2.35" height="2.37"/><rect x="29.59" y="122.28" width="2.35" height="2.37"/><rect x="17.83" y="124.65" width="2.35" height="2.37"/><rect x="24.88" y="124.65" width="2.35" height="2.37"/><rect x="29.59" y="124.65" width="2.35" height="2.37"/><rect x="20.18" y="127.03" width="2.35" height="2.37"/><rect x="22.53" y="127.03" width="2.35" height="2.37"/><rect x="27.24" y="127.03" width="2.35" height="2.37"/><rect x="15.48" y="129.4" width="2.35" height="2.37"/><rect x="17.83" y="129.4" width="2.35" height="2.37"/><rect x="22.53" y="129.4" width="2.35" height="2.37"/><rect x="24.88" y="131.78" width="2.35" height="2.37"/><rect x="35.19" y="131.78" width="2.35" height="2.37"/><rect x="49.25" y="146.25" width="2.35" height="2.37"/><rect x="49.25" y="152.82" width="2.35" height="3.55"/><rect x="67.47" y="35.14" width="2.37" height="2.35"/><rect x="75.12" y="25.77" width="2.35" height="2.37"/><rect x="72.77" y="28.14" width="2.35" height="2.37"/><rect x="72.77" y="30.52" width="2.35" height="2.37"/><rect x="77.47" y="30.52" width="2.35" height="2.37"/><rect x="86.88" y="30.52" width="2.35" height="2.37"/><rect x="82.18" y="32.89" width="2.35" height="2.37"/><rect x="75.12" y="35.26" width="2.35" height="2.37"/><rect x="86.88" y="35.26" width="2.35" height="2.37"/><rect x="95.11" y="35.11" width="2.35" height="2.37"/><rect x="76.61" y="18.39" width="2.35" height="2.37"/><rect x="71.91" y="20.76" width="2.35" height="2.37"/><rect x="76.61" y="23.13" width="2.35" height="2.37"/><rect x="71.91" y="25.51" width="2.35" height="2.37"/><rect x="76.61" y="25.51" width="2.35" height="2.37"/><rect x="84.84" y="22.98" width="2.35" height="2.37"/><rect x="84.84" y="25.36" width="2.35" height="2.37"/><rect x="92.67" y="13.88" width="2.35" height="2.37"/><rect x="92.67" y="18.63" width="2.35" height="2.37"/><rect x="90.32" y="21.01" width="2.35" height="2.37"/><rect x="90.32" y="23.38" width="2.35" height="2.37"/><rect x="95.02" y="23.38" width="2.35" height="2.37"/><rect x="84.71" y="11.56" width="2.35" height="2.37"/><rect x="80" y="13.93" width="2.35" height="2.37"/><rect x="84.71" y="16.3" width="2.35" height="2.37"/><rect x="82.67" y="4.02" width="2.35" height="2.37"/><rect x="82.67" y="6.4" width="2.35" height="2.37"/></g></g></g></g></svg>