<?xml version="1.0" encoding="utf-8"?>
<!-- Generator: Adobe Illustrator 17.0.0, SVG Export Plug-In . SVG Version: 6.00 Build 0)  -->
<!DOCTYPE svg PUBLIC "-//W3C//DTD SVG 1.1//EN" "http://www.w3.org/Graphics/SVG/1.1/DTD/svg11.dtd">
<svg version="1.1" id="Layer_1" xmlns="http://www.w3.org/2000/svg" xmlns:xlink="http://www.w3.org/1999/xlink" x="0px" y="0px"
	 width="1024px" height="1024px" viewBox="0 0 1024 1024" enable-background="new 0 0 1024 1024" xml:space="preserve">
<title>N-logo-svg</title>
<g>
	<g>
		<polyline fill="none" stroke="#00467F" stroke-width="13.6681" points="529.127,300.77 360.702,300.77 184.676,300.77 
			96.663,452.793 8.65,605.215 96.663,757.638 184.676,910.06 360.702,910.06 534.327,910.06 		"/>
		<path fill="#00467F" d="M761.161,559.609h-0.4H761.161c9.201-9.601,30.805-43.206,82.812-138.421
			c93.614-171.625-17.203-351.252-17.203-351.252L681.149,329.574L617.94,441.991l-90.413,160.824
			c-25.204,8.401-57.608,20.003-90.813,33.205c-34.405,14.002-69.61,30.405-97.614,48.007
			c-32.005,20.003-57.208,38.006-67.21,58.009c-4.401,8.401-4.401,20.803-4.401,20.803c-11.602,12.802-12.002,35.605-4.401,48.007
			c18.403,30.805,58.009,14.002,58.009,14.002s-21.603-1.6-16.802-18.403c3.2-9.201,10.802-14.802,29.204-24.804
			c37.606-20.403,108.816-27.604,108.816-27.604l0,0c2.4,0,73.211,12.802,73.211,12.802l6.001,142.821l1.2,24.404h27.204
			l126.819-222.033L1024,488.398L761.161,559.609z M303.893,750.837c-4.401,3.601-12.802,4.001-12.802,4.001v-0.4
			c0,0-1.2-3.601,3.2-8.801c0.4,0.8,0.4,2,1.2,2.8c2.4,2.8,6.401,3.601,9.601,1.2c2.8-2.4,3.601-6.401,1.2-9.601
			c-0.4-0.4-0.8-0.8-1.2-1.2c3.601-0.8,5.201,0.4,5.201,0.4S308.294,747.236,303.893,750.837z"/>
	</g>
	<path fill="#849339" d="M681.149,329.174c-24.404-147.622-110.816-220.433-110.816-220.433L436.713,636.02
		c32.805-13.602,65.21-24.804,90.813-33.205L681.149,329.174z"/>
</g>
</svg>
